<svg width="175" height="175" viewBox="0 0 175 175" fill="none" xmlns="http://www.w3.org/2000/svg">
<rect x="31.9307" width="7.94897" height="7.94897" fill="grey"/>
<rect x="15.8984" y="7.94922" width="7.94897" height="7.94897" fill="grey"/>
<rect x="7.94922" y="15.8979" width="7.94897" height="7.94897" fill="grey"/>
<rect y="23.8472" width="7.94897" height="7.94897" fill="grey"/>
<rect y="31.7959" width="7.94897" height="7.94897" fill="grey"/>
<rect y="39.7446" width="7.94897" height="7.94897" fill="grey"/>
<rect x="7.94922" y="23.8472" width="7.94897" height="7.94897" fill="grey"/>
<rect x="7.94922" y="31.7959" width="7.94897" height="7.94897" fill="grey"/>
<rect x="7.94922" y="39.7446" width="7.94897" height="7.94897" fill="grey"/>
<rect x="7.94922" y="47.6943" width="7.94897" height="7.94897" fill="grey"/>
<rect x="15.8984" y="23.8472" width="7.94897" height="7.94897" fill="grey"/>
<rect x="15.8984" y="31.7959" width="7.94897" height="7.94897" fill="grey"/>
<rect x="15.8984" y="39.7446" width="7.94897" height="7.94897" fill="grey"/>
<rect x="15.8984" y="47.6943" width="7.94897" height="7.94897" fill="grey"/>
<rect x="23.8477" y="23.8472" width="7.94897" height="7.94897" fill="grey"/>
<rect x="23.8477" y="31.7959" width="7.94897" height="7.94897" fill="grey"/>
<rect x="23.8477" y="39.7446" width="7.94897" height="7.94897" fill="grey"/>
<rect x="23.8477" y="47.6943" width="7.94897" height="7.94897" fill="grey"/>
<rect x="31.7959" y="23.8472" width="7.94897" height="7.94897" fill="grey"/>
<rect x="31.7959" y="31.7959" width="7.94897" height="7.94897" fill="grey"/>
<rect x="31.7959" y="39.7446" width="7.94897" height="7.94897" fill="grey"/>
<rect x="31.7959" y="47.6943" width="7.94897" height="7.94897" fill="grey"/>
<rect x="31.7959" y="55.6426" width="7.94897" height="7.94897" fill="grey"/>
<rect x="39.7451" y="23.8472" width="7.94897" height="7.94897" fill="grey"/>
<rect x="39.7451" y="31.7959" width="7.94897" height="7.94897" fill="grey"/>
<rect x="39.7451" y="39.7446" width="7.94897" height="7.94897" fill="grey"/>
<rect x="39.7451" y="47.6943" width="7.94897" height="7.94897" fill="grey"/>
<rect x="39.7451" y="55.6426" width="7.94897" height="7.94897" fill="grey"/>
<rect x="47.6943" y="23.8472" width="7.94897" height="7.94897" fill="grey"/>
<rect x="47.6943" y="31.7959" width="7.94897" height="7.94897" fill="grey"/>
<rect x="47.6943" y="39.7446" width="7.94897" height="7.94897" fill="grey"/>
<rect x="47.6943" y="47.6943" width="7.94897" height="7.94897" fill="grey"/>
<rect x="47.6943" y="55.6426" width="7.94897" height="7.94897" fill="grey"/>
<rect x="55.6436" y="23.8472" width="7.94897" height="7.94897" fill="grey"/>
<rect x="55.6436" y="31.7959" width="7.94897" height="7.94897" fill="grey"/>
<rect x="55.6436" y="39.7446" width="7.94897" height="7.94897" fill="grey"/>
<rect x="55.6436" y="47.6943" width="7.94897" height="7.94897" fill="grey"/>
<rect x="55.6436" y="55.6426" width="7.94897" height="7.94897" fill="grey"/>
<rect x="63.5918" y="23.8472" width="7.94897" height="7.94897" fill="grey"/>
<rect x="63.5918" y="31.7959" width="7.94897" height="7.94897" fill="grey"/>
<rect x="63.5918" y="39.7446" width="7.94897" height="7.94897" fill="grey"/>
<rect x="63.5918" y="47.6943" width="7.94897" height="7.94897" fill="grey"/>
<rect x="63.5918" y="55.6426" width="7.94897" height="7.94897" fill="grey"/>
<rect x="71.54" y="23.8472" width="7.94897" height="7.94897" fill="grey"/>
<rect x="71.54" y="31.7959" width="7.94897" height="7.94897" fill="grey"/>
<rect x="71.54" y="39.7446" width="7.94897" height="7.94897" fill="grey"/>
<rect x="71.54" y="47.6943" width="7.94897" height="7.94897" fill="grey"/>
<rect x="79.4893" y="23.8472" width="7.94897" height="7.94897" fill="grey"/>
<rect x="79.4893" y="31.7959" width="7.94897" height="7.94897" fill="grey"/>
<rect x="79.4893" y="39.7446" width="7.94897" height="7.94897" fill="grey"/>
<rect x="87.4385" y="47.5596" width="7.94897" height="7.94897" fill="grey"/>
<rect x="87.4385" y="23.8472" width="7.94897" height="7.94897" fill="grey"/>
<rect x="87.4385" y="31.7959" width="7.94897" height="7.94897" fill="grey"/>
<rect x="95.3877" y="23.8472" width="7.94897" height="7.94897" fill="grey"/>
<rect x="95.3877" y="31.7959" width="7.94897" height="7.94897" fill="grey"/>
<rect x="95.3877" y="39.7446" width="7.94897" height="7.94897" fill="grey"/>
<rect x="103.337" y="23.8472" width="7.94897" height="7.94897" fill="grey"/>
<rect x="103.337" y="31.7959" width="7.94897" height="7.94897" fill="grey"/>
<rect x="103.337" y="39.7446" width="7.94897" height="7.94897" fill="grey"/>
<rect x="111.286" y="23.8472" width="7.94897" height="7.94897" fill="grey"/>
<rect x="111.286" y="31.7959" width="7.94897" height="7.94897" fill="grey"/>
<rect x="111.286" y="39.7446" width="7.94897" height="7.94897" fill="grey"/>
<rect x="111.286" y="47.6943" width="7.94897" height="7.94897" fill="grey"/>
<rect x="111.286" y="55.6426" width="7.94897" height="7.94897" fill="grey"/>
<rect x="111.286" y="63.5918" width="7.94897" height="7.94897" fill="grey"/>
<rect x="95.3877" y="71.541" width="7.94897" height="7.94897" fill="grey"/>
<rect x="151.03" y="71.541" width="7.94897" height="7.94897" fill="grey"/>
<rect x="95.3877" y="79.4897" width="7.94897" height="7.94897" fill="grey"/>
<rect x="151.03" y="79.4897" width="7.94897" height="7.94897" fill="grey"/>
<rect x="158.979" y="79.4897" width="7.94897" height="7.94897" fill="grey"/>
<rect x="151.03" y="87.4385" width="7.94897" height="7.94897" fill="grey"/>
<rect x="151.03" y="95.3882" width="7.94897" height="7.94897" fill="grey"/>
<rect x="158.979" y="87.4385" width="7.94897" height="7.94897" fill="grey"/>
<rect x="71.54" y="71.541" width="7.94897" height="7.94897" fill="grey"/>
<rect x="47.6943" y="79.4897" width="7.94897" height="7.94897" fill="grey"/>
<rect x="55.6436" y="87.4385" width="7.94897" height="7.94897" fill="grey"/>
<rect x="23.8477" y="79.4897" width="7.94897" height="7.94897" fill="grey"/>
<rect x="31.7959" y="87.4385" width="7.94897" height="7.94897" fill="grey"/>
<rect x="31.7959" y="95.3882" width="7.94897" height="7.94897" fill="grey"/>
<rect x="31.7959" y="103.336" width="7.94897" height="7.94897" fill="grey"/>
<rect x="39.7451" y="111.286" width="7.94897" height="7.94897" fill="grey"/>
<rect x="39.7451" y="119.235" width="7.94897" height="7.94897" fill="grey"/>
<rect x="39.7451" y="127.184" width="7.94897" height="7.94897" fill="grey"/>
<rect x="7.94922" y="79.4897" width="7.94897" height="7.94897" fill="grey"/>
<rect x="15.8984" y="87.4385" width="7.94897" height="7.94897" fill="grey"/>
<rect x="15.8984" y="95.3882" width="7.94897" height="7.94897" fill="grey"/>
<rect x="15.8984" y="103.336" width="7.94897" height="7.94897" fill="grey"/>
<rect x="23.8477" y="111.286" width="7.94897" height="7.94897" fill="grey"/>
<rect x="103.337" y="63.5918" width="7.94897" height="7.94897" fill="grey"/>
<rect x="87.4385" y="71.541" width="7.94897" height="7.94897" fill="grey"/>
<rect x="87.4385" y="79.4897" width="7.94897" height="7.94897" fill="grey"/>
<rect x="143.082" y="79.4897" width="7.94897" height="7.94897" fill="grey"/>
<rect x="143.082" y="87.4385" width="7.94897" height="7.94897" fill="grey"/>
<rect x="143.082" y="95.3882" width="7.94897" height="7.94897" fill="grey"/>
<rect x="143.082" y="103.336" width="7.94897" height="7.94897" fill="grey"/>
<rect x="127.184" y="87.4385" width="7.94897" height="7.94897" fill="grey"/>
<rect x="127.184" y="95.3882" width="7.94897" height="7.94897" fill="grey"/>
<rect x="127.184" y="103.336" width="7.94897" height="7.94897" fill="grey"/>
<rect x="127.184" y="111.286" width="7.94897" height="7.94897" fill="grey"/>
<rect x="127.184" y="119.235" width="7.94897" height="7.94897" fill="grey"/>
<rect x="111.286" y="95.3882" width="7.94897" height="7.94897" fill="grey"/>
<rect x="111.286" y="103.336" width="7.94897" height="7.94897" fill="grey"/>
<rect x="111.286" y="111.286" width="7.94897" height="7.94897" fill="grey"/>
<rect x="111.286" y="119.235" width="7.94897" height="7.94897" fill="grey"/>
<rect x="111.286" y="127.184" width="7.94897" height="7.94897" fill="grey"/>
<rect x="111.286" y="135.132" width="7.94897" height="7.94897" fill="grey"/>
<rect x="95.3877" y="103.336" width="7.94897" height="7.94897" fill="grey"/>
<rect x="95.3877" y="111.286" width="7.94897" height="7.94897" fill="grey"/>
<rect x="95.3877" y="119.235" width="7.94897" height="7.94897" fill="grey"/>
<rect x="95.3877" y="127.184" width="7.94897" height="7.94897" fill="grey"/>
<rect x="95.3877" y="135.132" width="7.94897" height="7.94897" fill="grey"/>
<rect x="95.3877" y="143.082" width="7.94897" height="7.94897" fill="grey"/>
<rect x="95.3877" y="151.03" width="7.94897" height="7.94897" fill="grey"/>
<rect x="63.5918" y="71.541" width="7.94897" height="7.94897" fill="grey"/>
<rect x="39.7451" y="79.4897" width="7.94897" height="7.94897" fill="grey"/>
<rect x="47.6943" y="87.4385" width="7.94897" height="7.94897" fill="grey"/>
<rect x="15.8984" y="79.4897" width="7.94897" height="7.94897" fill="grey"/>
<rect x="23.8477" y="87.4385" width="7.94897" height="7.94897" fill="grey"/>
<rect x="23.8477" y="95.3882" width="7.94897" height="7.94897" fill="grey"/>
<rect x="23.8477" y="103.336" width="7.94897" height="7.94897" fill="grey"/>
<rect x="31.7959" y="111.286" width="7.94897" height="7.94897" fill="grey"/>
<rect x="31.7959" y="119.235" width="7.94897" height="7.94897" fill="grey"/>
<rect y="79.4897" width="7.94897" height="7.94897" fill="grey"/>
<rect x="7.94922" y="87.4385" width="7.94897" height="7.94897" fill="grey"/>
<rect x="7.94922" y="95.3882" width="7.94897" height="7.94897" fill="grey"/>
<rect y="87.4385" width="7.94897" height="7.94897" fill="grey"/>
<rect x="119.234" y="23.8472" width="7.94897" height="7.94897" fill="grey"/>
<rect x="119.234" y="31.7959" width="7.94897" height="7.94897" fill="grey"/>
<rect x="119.234" y="39.7446" width="7.94897" height="7.94897" fill="grey"/>
<rect x="119.234" y="47.6943" width="7.94897" height="7.94897" fill="grey"/>
<rect x="119.234" y="55.6426" width="7.94897" height="7.94897" fill="grey"/>
<rect x="119.234" y="63.5918" width="7.94897" height="7.94897" fill="grey"/>
<rect x="166.928" y="63.5918" width="7.94897" height="7.94897" fill="grey"/>
<rect x="103.337" y="71.541" width="7.94897" height="7.94897" fill="grey"/>
<rect x="158.979" y="71.541" width="7.94897" height="7.94897" fill="grey"/>
<rect x="79.4893" y="71.541" width="7.94897" height="7.94897" fill="grey"/>
<rect x="79.4893" y="79.4897" width="7.94897" height="7.94897" fill="grey"/>
<rect x="135.133" y="79.4897" width="7.94897" height="7.94897" fill="grey"/>
<rect x="135.133" y="87.4385" width="7.94897" height="7.94897" fill="grey"/>
<rect x="135.133" y="95.3882" width="7.94897" height="7.94897" fill="grey"/>
<rect x="135.133" y="103.336" width="7.94897" height="7.94897" fill="grey"/>
<rect x="135.133" y="111.286" width="7.94897" height="7.94897" fill="grey"/>
<rect x="119.234" y="87.4385" width="7.94897" height="7.94897" fill="grey"/>
<rect x="119.234" y="95.3882" width="7.94897" height="7.94897" fill="grey"/>
<rect x="119.234" y="103.336" width="7.94897" height="7.94897" fill="grey"/>
<rect x="119.234" y="111.286" width="7.94897" height="7.94897" fill="grey"/>
<rect x="119.234" y="119.235" width="7.94897" height="7.94897" fill="grey"/>
<rect x="119.234" y="127.184" width="7.94897" height="7.94897" fill="grey"/>
<rect x="103.337" y="95.3882" width="7.94897" height="7.94897" fill="grey"/>
<rect x="103.337" y="103.336" width="7.94897" height="7.94897" fill="grey"/>
<rect x="103.337" y="111.286" width="7.94897" height="7.94897" fill="grey"/>
<rect x="103.337" y="119.235" width="7.94897" height="7.94897" fill="grey"/>
<rect x="103.337" y="127.184" width="7.94897" height="7.94897" fill="grey"/>
<rect x="103.337" y="135.132" width="7.94897" height="7.94897" fill="grey"/>
<rect x="103.337" y="143.082" width="7.94897" height="7.94897" fill="grey"/>
<rect x="87.4385" y="103.336" width="7.94897" height="7.94897" fill="grey"/>
<rect x="87.4385" y="111.286" width="7.94897" height="7.94897" fill="grey"/>
<rect x="87.4385" y="119.235" width="7.94897" height="7.94897" fill="grey"/>
<rect x="87.4385" y="127.184" width="7.94897" height="7.94897" fill="grey"/>
<rect x="87.4385" y="135.132" width="7.94897" height="7.94897" fill="grey"/>
<rect x="87.4385" y="143.082" width="7.94897" height="7.94897" fill="grey"/>
<rect x="87.4385" y="151.03" width="7.94897" height="7.94897" fill="grey"/>
<rect x="87.4385" y="158.979" width="7.94897" height="7.94897" fill="grey"/>
<rect x="79.4893" y="111.286" width="7.94897" height="7.94897" fill="grey"/>
<rect x="79.4893" y="119.235" width="7.94897" height="7.94897" fill="grey"/>
<rect x="79.4893" y="127.184" width="7.94897" height="7.94897" fill="grey"/>
<rect x="79.4893" y="135.132" width="7.94897" height="7.94897" fill="grey"/>
<rect x="79.4893" y="143.082" width="7.94897" height="7.94897" fill="grey"/>
<rect x="79.4893" y="151.03" width="7.94897" height="7.94897" fill="grey"/>
<rect x="79.4893" y="158.979" width="7.94897" height="7.94897" fill="grey"/>
<rect x="79.4893" y="166.928" width="7.94897" height="7.94897" fill="grey"/>
<rect x="55.6436" y="79.4897" width="7.94897" height="7.94897" fill="grey"/>
<rect x="63.5918" y="87.4385" width="7.94897" height="7.94897" fill="grey"/>
<rect x="31.7959" y="79.4897" width="7.94897" height="7.94897" fill="grey"/>
<rect x="39.7451" y="87.4385" width="7.94897" height="7.94897" fill="grey"/>
<rect x="39.7451" y="95.3882" width="7.94897" height="7.94897" fill="grey"/>
<rect x="39.7451" y="103.336" width="7.94897" height="7.94897" fill="grey"/>
<rect x="47.6943" y="111.286" width="7.94897" height="7.94897" fill="grey"/>
<rect x="47.6943" y="119.235" width="7.94897" height="7.94897" fill="grey"/>
<rect x="47.6943" y="127.184" width="7.94897" height="7.94897" fill="grey"/>
<rect x="47.6943" y="135.132" width="7.94897" height="7.94897" fill="grey"/>
<rect x="55.6436" y="111.286" width="7.94897" height="7.94897" fill="grey"/>
<rect x="55.6436" y="119.235" width="7.94897" height="7.94897" fill="grey"/>
<rect x="55.6436" y="127.184" width="7.94897" height="7.94897" fill="grey"/>
<rect x="55.6436" y="135.132" width="7.94897" height="7.94897" fill="grey"/>
<rect x="55.6436" y="143.082" width="7.94897" height="7.94897" fill="grey"/>
<rect x="63.5918" y="119.235" width="7.94897" height="7.94897" fill="grey"/>
<rect x="63.5918" y="127.184" width="7.94897" height="7.94897" fill="grey"/>
<rect x="63.5918" y="135.132" width="7.94897" height="7.94897" fill="grey"/>
<rect x="63.5918" y="143.082" width="7.94897" height="7.94897" fill="grey"/>
<rect x="63.5918" y="151.03" width="7.94897" height="7.94897" fill="grey"/>
<rect x="71.54" y="119.235" width="7.94897" height="7.94897" fill="grey"/>
<rect x="71.54" y="127.184" width="7.94897" height="7.94897" fill="grey"/>
<rect x="71.54" y="135.132" width="7.94897" height="7.94897" fill="grey"/>
<rect x="71.54" y="143.082" width="7.94897" height="7.94897" fill="grey"/>
<rect x="71.54" y="151.03" width="7.94897" height="7.94897" fill="grey"/>
<rect x="71.54" y="158.979" width="7.94897" height="7.94897" fill="grey"/>
<rect x="127.184" y="23.8472" width="7.94897" height="7.94897" fill="grey"/>
<rect x="127.184" y="31.7959" width="7.94897" height="7.94897" fill="grey"/>
<rect x="127.184" y="39.7446" width="7.94897" height="7.94897" fill="grey"/>
<rect x="127.184" y="47.6943" width="7.94897" height="7.94897" fill="grey"/>
<rect x="127.184" y="55.6426" width="7.94897" height="7.94897" fill="grey"/>
<rect x="135.133" y="23.8472" width="7.94897" height="7.94897" fill="grey"/>
<rect x="135.133" y="31.7959" width="7.94897" height="7.94897" fill="grey"/>
<rect x="135.133" y="39.7446" width="7.94897" height="7.94897" fill="grey"/>
<rect x="135.133" y="47.6943" width="7.94897" height="7.94897" fill="grey"/>
<rect x="143.082" y="23.8472" width="7.94897" height="7.94897" fill="grey"/>
<rect x="143.082" y="31.7959" width="7.94897" height="7.94897" fill="grey"/>
<rect x="143.082" y="39.7446" width="7.94897" height="7.94897" fill="grey"/>
<rect x="151.03" y="23.8472" width="7.94897" height="7.94897" fill="grey"/>
<rect x="151.03" y="31.7959" width="7.94897" height="7.94897" fill="grey"/>
<rect x="15.8984" y="15.8979" width="7.94897" height="7.94897" fill="grey"/>
<rect x="23.8477" y="15.8979" width="7.94897" height="7.94897" fill="grey"/>
<rect x="31.7959" y="15.8979" width="7.94897" height="7.94897" fill="grey"/>
<rect x="39.7451" y="15.8979" width="7.94897" height="7.94897" fill="grey"/>
<rect x="47.6943" y="15.8979" width="7.94897" height="7.94897" fill="grey"/>
<rect x="55.6436" y="15.8979" width="7.94897" height="7.94897" fill="grey"/>
<rect x="63.5918" y="15.8979" width="7.94897" height="7.94897" fill="grey"/>
<rect x="71.54" y="15.8979" width="7.94897" height="7.94897" fill="grey"/>
<rect x="79.4893" y="15.8979" width="7.94897" height="7.94897" fill="grey"/>
<rect x="87.4385" y="15.8979" width="7.94897" height="7.94897" fill="grey"/>
<rect x="95.3877" y="15.8979" width="7.94897" height="7.94897" fill="grey"/>
<rect x="103.337" y="15.8979" width="7.94897" height="7.94897" fill="grey"/>
<rect x="111.286" y="15.8979" width="7.94897" height="7.94897" fill="grey"/>
<rect x="119.234" y="15.8979" width="7.94897" height="7.94897" fill="grey"/>
<rect x="127.184" y="15.8979" width="7.94897" height="7.94897" fill="grey"/>
<rect x="135.133" y="15.8979" width="7.94897" height="7.94897" fill="grey"/>
<rect x="143.082" y="15.8979" width="7.94897" height="7.94897" fill="grey"/>
<rect x="151.03" y="15.8979" width="7.94897" height="7.94897" fill="grey"/>
<rect x="23.9814" y="7.94922" width="7.94897" height="7.94897" fill="grey"/>
<rect x="31.9307" y="7.94922" width="7.94897" height="7.94897" fill="grey"/>
<rect x="39.8799" y="7.94922" width="7.94897" height="7.94897" fill="grey"/>
<rect x="47.8291" y="7.94922" width="7.94897" height="7.94897" fill="grey"/>
<rect x="55.7773" y="7.94922" width="7.94897" height="7.94897" fill="grey"/>
<rect x="63.7266" y="7.94922" width="7.94897" height="7.94897" fill="grey"/>
<rect x="71.6758" y="7.94922" width="7.94897" height="7.94897" fill="grey"/>
<rect x="87.5742" y="7.94922" width="7.94897" height="7.94897" fill="grey"/>
<rect x="95.5225" y="7.94922" width="7.94897" height="7.94897" fill="grey"/>
<rect x="103.471" y="7.94922" width="7.94897" height="7.94897" fill="grey"/>
<rect x="111.421" y="7.94922" width="7.94897" height="7.94897" fill="grey"/>
<rect x="119.369" y="7.94922" width="7.94897" height="7.94897" fill="grey"/>
<rect x="127.318" y="7.94922" width="7.94897" height="7.94897" fill="grey"/>
<rect x="135.268" y="7.94922" width="7.94897" height="7.94897" fill="grey"/>
<rect x="143.216" y="7.94922" width="7.94897" height="7.94897" fill="grey"/>
<rect x="39.8799" width="7.94897" height="7.94897" fill="grey"/>
<rect x="47.8291" width="7.94897" height="7.94897" fill="grey"/>
<rect x="55.7773" width="7.94897" height="7.94897" fill="grey"/>
<rect x="63.7266" width="7.94897" height="7.94897" fill="grey"/>
<rect x="95.5225" width="7.94897" height="7.94897" fill="grey"/>
<rect x="103.471" width="7.94897" height="7.94897" fill="grey"/>
<rect x="111.421" width="7.94897" height="7.94897" fill="grey"/>
<rect x="119.369" width="7.94897" height="7.94897" fill="grey"/>
<rect x="127.318" width="7.94897" height="7.94897" fill="grey"/>
</svg>
