<svg width="1147" height="245" viewBox="0 0 1147 245" fill="none" xmlns="http://www.w3.org/2000/svg">
<path d="M73.9865 30.7438V29.5738H72.8164V30.7438H73.9865ZM115.75 35.0507L115.017 35.9622L115.029 35.972L115.041 35.9815L115.75 35.0507ZM113.401 61.6753L112.837 60.65L110.752 61.7969L112.934 62.7479L113.401 61.6753ZM121.232 68.0704L120.254 68.7123L120.258 68.7195L120.263 68.7266L121.232 68.0704ZM117.839 91.4321L118.537 92.3705L118.544 92.3658L118.55 92.361L117.839 91.4321ZM73.9865 96H72.8164V97.1701H73.9865V96ZM82.7308 39.0966V37.9265H81.5607V39.0966H82.7308ZM82.7308 57.8904H81.5607V59.0605H82.7308V57.8904ZM109.355 55.4107L108.629 54.4933L108.62 54.5008L108.61 54.5086L109.355 55.4107ZM111.313 84.9065L111.984 85.865L111.984 85.865L111.313 84.9065ZM111.574 68.9839L110.831 69.8881L110.841 69.8962L110.851 69.904L111.574 68.9839ZM82.7308 65.9822V64.8121H81.5607V65.9822H82.7308ZM82.7308 87.6472H81.5607V88.8173H82.7308V87.6472ZM73.9865 31.9139H100.35V29.5738H73.9865V31.9139ZM100.35 31.9139C106.902 31.9139 111.735 33.3204 115.017 35.9622L116.484 34.1392C112.632 31.0385 107.197 29.5738 100.35 29.5738V31.9139ZM115.041 35.9815C118.358 38.5081 120.062 42.1817 120.062 47.1884H122.402C122.402 41.58 120.452 37.1619 116.46 34.12L115.041 35.9815ZM120.062 47.1884C120.062 53.6202 117.625 58.0168 112.837 60.65L113.965 62.7005C119.619 59.5911 122.402 54.3299 122.402 47.1884H120.062ZM112.934 62.7479C116.143 64.1466 118.565 66.139 120.254 68.7123L122.21 67.4284C120.245 64.4332 117.446 62.1622 113.869 60.6026L112.934 62.7479ZM120.263 68.7266C121.932 71.1898 122.803 74.2974 122.803 78.1198H125.143C125.143 73.9374 124.186 70.3454 122.201 67.4141L120.263 68.7266ZM122.803 78.1198C122.803 83.5461 120.891 87.6199 117.127 90.5032L118.55 92.361C122.965 88.9797 125.143 84.1786 125.143 78.1198H122.803ZM117.14 90.4936C113.331 93.3299 107.744 94.8299 100.219 94.8299V97.1701C108.008 97.1701 114.167 95.6248 118.537 92.3705L117.14 90.4936ZM100.219 94.8299H73.9865V97.1701H100.219V94.8299ZM75.1566 96V30.7438H72.8164V96H75.1566ZM81.5607 39.0966V57.8904H83.9009V39.0966H81.5607ZM82.7308 59.0605H100.481V56.7203H82.7308V59.0605ZM100.481 59.0605C104.535 59.0605 107.806 58.2081 110.101 56.3128L108.61 54.5086C106.902 55.9195 104.257 56.7203 100.481 56.7203V59.0605ZM110.082 56.3281C112.493 54.4193 113.658 51.7079 113.658 48.363H111.318C111.318 51.1087 110.394 53.0957 108.629 54.4933L110.082 56.3281ZM113.658 48.363C113.658 45.019 112.492 42.3356 110.057 40.5098L108.653 42.3819C110.395 43.6884 111.318 45.6164 111.318 48.363H113.658ZM110.057 40.5098C107.688 38.7326 104.398 37.9265 100.35 37.9265V40.2667C104.133 40.2667 106.846 41.0267 108.653 42.3819L110.057 40.5098ZM100.35 37.9265H82.7308V40.2667H100.35V37.9265ZM100.219 88.8173C105.131 88.8173 109.101 87.8831 111.984 85.865L110.642 83.9479C108.305 85.5841 104.878 86.4771 100.219 86.4771V88.8173ZM111.984 85.865C114.939 83.7962 116.398 80.7661 116.398 76.9452H114.058C114.058 80.085 112.907 82.3623 110.642 83.9479L111.984 85.865ZM116.398 76.9452C116.398 73.232 115.045 70.223 112.297 68.0639L110.851 69.904C112.976 71.5732 114.058 73.8718 114.058 76.9452H116.398ZM112.317 68.0798C109.581 65.8323 105.564 64.8121 100.481 64.8121V67.1522C105.315 67.1522 108.695 68.1332 110.831 69.8881L112.317 68.0798ZM100.481 64.8121H82.7308V67.1522H100.481V64.8121ZM81.5607 65.9822V87.6472H83.9009V65.9822H81.5607ZM82.7308 88.8173H100.219V86.4771H82.7308V88.8173ZM270.862 30.7438H272.032V29.5738H270.862V30.7438ZM270.862 77.0757H269.692V79.8263L271.674 77.9187L270.862 77.0757ZM319.804 29.9608H320.975V27.2102L318.993 29.1178L319.804 29.9608ZM319.804 96V97.1701H320.975V96H319.804ZM311.06 96H309.89V97.1701H311.06V96ZM311.06 49.6681H312.23V46.9176L310.249 48.8252L311.06 49.6681ZM262.118 96.7831H260.948V99.5336L262.929 97.626L262.118 96.7831ZM262.118 30.7438V29.5738H260.948V30.7438H262.118ZM269.692 30.7438V77.0757H272.032V30.7438H269.692ZM271.674 77.9187L320.616 30.8037L318.993 29.1178L270.051 76.2328L271.674 77.9187ZM318.634 29.9608V96H320.975V29.9608H318.634ZM319.804 94.8299H311.06V97.1701H319.804V94.8299ZM312.23 96V49.6681H309.89V96H312.23ZM310.249 48.8252L261.307 95.9401L262.929 97.626L311.872 50.5111L310.249 48.8252ZM263.288 96.7831V30.7438H260.948V96.7831H263.288ZM262.118 31.9139H270.862V29.5738H262.118V31.9139ZM461.848 96H460.678V97.1701H461.848V96ZM461.848 30.7438V29.5738H460.678V30.7438H461.848ZM470.592 30.7438H471.762V29.5738H470.592V30.7438ZM470.592 87.6472H469.422V88.8173H470.592V87.6472ZM499.696 87.6472V88.8173H500.866V87.6472H499.696ZM499.696 30.7438V29.5738H498.526V30.7438H499.696ZM508.441 30.7438H509.611V29.5738H508.441V30.7438ZM508.441 87.6472H507.271V88.8173H508.441V87.6472ZM537.545 87.6472V88.8173H538.715V87.6472H537.545ZM537.545 30.7438V29.5738H536.375V30.7438H537.545ZM546.289 30.7438H547.459V29.5738H546.289V30.7438ZM546.289 96V97.1701H547.459V96H546.289ZM463.018 96V30.7438H460.678V96H463.018ZM461.848 31.9139H470.592V29.5738H461.848V31.9139ZM469.422 30.7438V87.6472H471.762V30.7438H469.422ZM470.592 88.8173H499.696V86.4771H470.592V88.8173ZM500.866 87.6472V30.7438H498.526V87.6472H500.866ZM499.696 31.9139H508.441V29.5738H499.696V31.9139ZM507.271 30.7438V87.6472H509.611V30.7438H507.271ZM508.441 88.8173H537.545V86.4771H508.441V88.8173ZM538.715 87.6472V30.7438H536.375V87.6472H538.715ZM537.545 31.9139H546.289V29.5738H537.545V31.9139ZM545.119 30.7438V96H547.459V30.7438H545.119ZM546.289 94.8299H461.848V97.1701H546.289V94.8299ZM696.96 30.7438H698.13V29.5738H696.96V30.7438ZM696.96 77.0757H695.789V79.8263L697.771 77.9187L696.96 77.0757ZM745.902 29.9608H747.072V27.2102L745.09 29.1178L745.902 29.9608ZM745.902 96V97.1701H747.072V96H745.902ZM737.157 96H735.987V97.1701H737.157V96ZM737.157 49.6681H738.327V46.9176L736.346 48.8252L737.157 49.6681ZM688.215 96.7831H687.045V99.5336L689.027 97.626L688.215 96.7831ZM688.215 30.7438V29.5738H687.045V30.7438H688.215ZM695.789 30.7438V77.0757H698.13V30.7438H695.789ZM697.771 77.9187L746.713 30.8037L745.09 29.1178L696.148 76.2328L697.771 77.9187ZM744.732 29.9608V96H747.072V29.9608H744.732ZM745.902 94.8299H737.157V97.1701H745.902V94.8299ZM738.327 96V49.6681H735.987V96H738.327ZM736.346 48.8252L687.404 95.9401L689.027 97.626L737.969 50.5111L736.346 48.8252ZM689.385 96.7831V30.7438H687.045V96.7831H689.385ZM688.215 31.9139H696.96V29.5738H688.215V31.9139ZM934.277 30.7438L935.151 31.522L936.886 29.5738H934.277V30.7438ZM926.838 39.0966V40.2667H927.362L927.711 39.8748L926.838 39.0966ZM908.957 39.0966V37.9265H907.787V39.0966H908.957ZM908.957 96V97.1701H910.128V96H908.957ZM900.213 96H899.043V97.1701H900.213V96ZM900.213 39.0966H901.383V37.9265H900.213V39.0966ZM879.853 39.0966H878.683V40.2667H879.853V39.0966ZM879.853 30.7438V29.5738H878.683V30.7438H879.853ZM933.403 29.9656L925.964 38.3184L927.711 39.8748L935.151 31.522L933.403 29.9656ZM926.838 37.9265H908.957V40.2667H926.838V37.9265ZM907.787 39.0966V96H910.128V39.0966H907.787ZM908.957 94.8299H900.213V97.1701H908.957V94.8299ZM901.383 96V39.0966H899.043V96H901.383ZM900.213 37.9265H879.853V40.2667H900.213V37.9265ZM881.023 39.0966V30.7438H878.683V39.0966H881.023ZM879.853 31.9139H934.277V29.5738H879.853V31.9139ZM1068.04 2.03112L1068.89 1.23225L1068.04 0.317329L1067.18 1.23225L1068.04 2.03112ZM1075.48 9.99237L1076.33 10.7983L1077.09 9.999L1076.33 9.1935L1075.48 9.99237ZM1068.04 17.8231L1067.19 18.629L1068.04 19.522L1068.89 18.629L1068.04 17.8231ZM1060.6 9.99237L1059.74 9.1935L1058.99 9.999L1059.75 10.7983L1060.6 9.99237ZM1063.6 30.7438V29.5738H1062.43V30.7438H1063.6ZM1072.35 30.7438H1073.52V29.5738H1072.35V30.7438ZM1072.35 96V97.1701H1073.52V96H1072.35ZM1063.6 96H1062.43V97.1701H1063.6V96ZM1067.18 2.82999L1074.62 10.7912L1076.33 9.1935L1068.89 1.23225L1067.18 2.82999ZM1074.63 9.18648L1067.19 17.0172L1068.89 18.629L1076.33 10.7983L1074.63 9.18648ZM1068.89 17.0172L1061.45 9.18648L1059.75 10.7983L1067.19 18.629L1068.89 17.0172ZM1061.45 10.7912L1068.89 2.82999L1067.18 1.23225L1059.74 9.1935L1061.45 10.7912ZM1063.6 31.9139H1072.35V29.5738H1063.6V31.9139ZM1071.18 30.7438V96H1073.52V30.7438H1071.18ZM1072.35 94.8299H1063.6V97.1701H1072.35V94.8299ZM1064.77 96V30.7438H1062.43V96H1064.77ZM141.308 154.224L140.188 153.886L140.184 153.897L141.308 154.224ZM147.834 140.911L148.75 141.639L148.754 141.634L148.758 141.628L147.834 140.911ZM157.23 133.211L157.722 134.273L157.733 134.268L157.23 133.211ZM168.716 129.557L168.531 128.401L168.523 128.403L168.515 128.404L168.716 129.557ZM188.292 126.424L188.477 127.58L188.866 127.518L189.138 127.233L188.292 126.424ZM196.645 117.68H197.815V114.761L195.799 116.872L196.645 117.68ZM196.645 133.603L196.848 134.755L197.815 134.585V133.603H196.645ZM171.456 138.04L171.253 136.888L171.252 136.888L171.456 138.04ZM155.273 145.74L156.1 146.568L156.1 146.568L155.273 145.74ZM148.225 162.315L147.062 162.188L146.8 164.574L148.841 163.31L148.225 162.315ZM160.232 157.095L159.917 155.968L159.917 155.968L160.232 157.095ZM185.03 157.617L184.578 158.696L184.589 158.701L184.599 158.705L185.03 157.617ZM194.557 164.012L193.703 164.812L193.716 164.826L193.73 164.839L194.557 164.012ZM200.822 173.8L201.913 173.379L201.913 173.379L200.822 173.8ZM194.035 209.691L194.849 210.531L194.856 210.525L194.862 210.519L194.035 209.691ZM157.622 215.956L157.118 217.012L157.132 217.019L157.147 217.025L157.622 215.956ZM147.703 208.386L146.818 209.152L146.818 209.152L147.703 208.386ZM141.177 196.771L140.065 197.134L140.068 197.144L140.072 197.153L141.177 196.771ZM147.703 170.407L147.065 169.427L146.533 169.773V170.407H147.703ZM149.269 193.508L148.148 193.844L148.152 193.857L148.156 193.869L149.269 193.508ZM153.968 202.513L153.051 203.24L153.058 203.25L153.066 203.259L153.968 202.513ZM161.276 208.386L160.753 209.433L160.753 209.433L161.276 208.386ZM180.201 208.778L180.629 209.866L180.638 209.863L180.646 209.86L180.201 208.778ZM187.77 203.818L188.598 204.646L188.598 204.646L187.77 203.818ZM192.599 196.249L193.692 196.666L193.692 196.666L192.599 196.249ZM192.599 177.063L191.5 177.463L191.505 177.478L191.511 177.492L192.599 177.063ZM188.031 169.755L187.187 170.564L187.195 170.573L187.204 170.582L188.031 169.755ZM159.319 165.056L159.637 166.182L159.645 166.18L159.653 166.177L159.319 165.056ZM140.129 174.583C140.129 166.47 140.907 159.802 142.432 154.55L140.184 153.897C138.577 159.434 137.789 166.34 137.789 174.583H140.129ZM142.428 154.561C144.052 149.179 146.169 144.886 148.75 141.639L146.918 140.183C144.104 143.723 141.871 148.305 140.188 153.886L142.428 154.561ZM148.758 141.628C151.355 138.278 154.344 135.838 157.722 134.273L156.738 132.149C152.982 133.89 149.707 136.584 146.909 140.195L148.758 141.628ZM157.733 134.268C161.291 132.573 165.018 131.387 168.916 130.71L168.515 128.404C164.408 129.118 160.478 130.369 156.727 132.155L157.733 134.268ZM168.9 130.712L188.477 127.58L188.107 125.269L168.531 128.401L168.9 130.712ZM189.138 127.233L197.491 118.488L195.799 116.872L187.446 125.616L189.138 127.233ZM195.475 117.68V133.603H197.815V117.68H195.475ZM196.442 132.45L171.253 136.888L171.659 139.192L196.848 134.755L196.442 132.45ZM171.252 136.888C164.204 138.137 158.57 140.788 154.445 144.913L156.1 146.568C159.806 142.861 164.961 140.379 171.66 139.192L171.252 136.888ZM154.445 144.913C150.292 149.066 147.865 154.868 147.062 162.188L149.388 162.443C150.151 155.494 152.423 150.245 156.1 146.568L154.445 144.913ZM148.841 163.31C152.397 161.109 156.298 159.412 160.548 158.222L159.917 155.968C155.466 157.214 151.362 158.998 147.609 161.32L148.841 163.31ZM160.548 158.222C164.808 157.029 168.878 156.438 172.761 156.438V154.098C168.64 154.098 164.357 154.725 159.917 155.968L160.548 158.222ZM172.761 156.438C177.058 156.438 180.992 157.195 184.578 158.696L185.481 156.538C181.584 154.906 177.339 154.098 172.761 154.098V156.438ZM184.599 158.705C188.189 160.124 191.218 162.161 193.703 164.812L195.411 163.212C192.676 160.295 189.353 158.068 185.46 156.529L184.599 158.705ZM193.73 164.839C196.303 167.413 198.305 170.534 199.73 174.222L201.913 173.379C200.38 169.41 198.205 166.006 195.384 163.185L193.73 164.839ZM199.73 174.222C201.151 177.9 201.87 181.975 201.87 186.46H204.21C204.21 181.722 203.45 177.357 201.913 173.379L199.73 174.222ZM201.87 186.46C201.87 191.117 201.109 195.317 199.605 199.077L201.777 199.946C203.406 195.875 204.21 191.374 204.21 186.46H201.87ZM199.605 199.077C198.095 202.851 195.962 206.109 193.208 208.864L194.862 210.519C197.85 207.531 200.155 204.003 201.777 199.946L199.605 199.077ZM193.22 208.851C190.469 211.52 187.167 213.613 183.298 215.127L184.151 217.307C188.287 215.688 191.859 213.432 194.849 210.531L193.22 208.851ZM183.298 215.127C179.446 216.635 175.199 217.396 170.543 217.396V219.736C175.458 219.736 179.998 218.932 184.151 217.307L183.298 215.127ZM170.543 217.396C165.992 217.396 161.849 216.554 158.097 214.887L157.147 217.025C161.226 218.838 165.696 219.736 170.543 219.736V217.396ZM158.126 214.9C154.444 213.143 151.267 210.718 148.588 207.621L146.818 209.152C149.708 212.493 153.143 215.115 157.118 217.012L158.126 214.9ZM148.588 207.621C145.912 204.527 143.807 200.789 142.283 196.388L140.072 197.153C141.68 201.801 143.925 205.807 146.818 209.152L148.588 207.621ZM142.29 196.407C140.854 192.014 140.129 187.179 140.129 181.892H137.789C137.789 187.394 138.543 192.478 140.065 197.134L142.29 196.407ZM140.129 181.892V174.583H137.789V181.892H140.129ZM146.533 170.407V181.892H148.873V170.407H146.533ZM146.533 181.892C146.533 186.25 147.067 190.238 148.148 193.844L150.39 193.172C149.384 189.817 148.873 186.061 148.873 181.892H146.533ZM148.156 193.869C149.325 197.464 150.952 200.594 153.051 203.24L154.884 201.786C152.981 199.386 151.476 196.512 150.382 193.146L148.156 193.869ZM153.066 203.259C155.253 205.901 157.816 207.964 160.753 209.433L161.8 207.34C159.168 206.024 156.859 204.172 154.869 201.767L153.066 203.259ZM160.753 209.433C163.714 210.913 166.984 211.644 170.543 211.644V209.304C167.314 209.304 164.407 208.643 161.8 207.34L160.753 209.433ZM170.543 211.644C174.234 211.644 177.602 211.059 180.629 209.866L179.772 207.689C177.057 208.759 173.986 209.304 170.543 209.304V211.644ZM180.646 209.86C183.735 208.588 186.391 206.852 188.598 204.646L186.943 202.991C184.973 204.961 182.583 206.532 179.755 207.696L180.646 209.86ZM188.598 204.646C190.81 202.433 192.507 199.767 193.692 196.666L191.506 195.831C190.43 198.647 188.907 201.027 186.943 202.991L188.598 204.646ZM193.692 196.666C194.88 193.559 195.466 190.152 195.466 186.46H193.126C193.126 189.903 192.58 193.022 191.506 195.831L193.692 196.666ZM195.466 186.46C195.466 182.935 194.878 179.655 193.688 176.634L191.511 177.492C192.583 180.214 193.126 183.199 193.126 186.46H195.466ZM193.699 176.663C192.601 173.644 190.99 171.059 188.859 168.927L187.204 170.582C189.075 172.453 190.509 174.74 191.5 177.463L193.699 176.663ZM188.876 168.945C186.756 166.733 184.224 165.032 181.294 163.842L180.413 166.01C183.051 167.081 185.304 168.6 187.187 170.564L188.876 168.945ZM181.294 163.842C178.356 162.648 175.159 162.059 171.717 162.059V164.399C174.888 164.399 177.782 164.941 180.413 166.01L181.294 163.842ZM171.717 162.059C167.425 162.059 163.18 162.685 158.985 163.935L159.653 166.177C163.636 164.991 167.656 164.399 171.717 164.399V162.059ZM159 163.93C154.877 165.096 150.897 166.931 147.065 169.427L148.342 171.388C151.991 169.011 155.756 167.279 159.637 166.182L159 163.93ZM339.781 170.799L338.701 170.349L338.697 170.358L338.694 170.368L339.781 170.799ZM346.829 159.966L347.668 160.781L347.668 160.781L346.829 159.966ZM357.27 152.918L357.717 154L357.728 153.995L357.27 152.918ZM383.895 152.918L383.437 153.995L383.446 153.999L383.456 154.003L383.895 152.918ZM394.466 159.966L393.627 160.781L393.627 160.781L394.466 159.966ZM401.383 170.799L400.295 171.229L400.299 171.239L400.303 171.249L401.383 170.799ZM401.383 198.076L400.303 197.626L400.299 197.635L400.295 197.645L401.383 198.076ZM394.466 208.908L393.627 208.093L393.627 208.093L394.466 208.908ZM383.895 216.086L384.333 217.171L384.343 217.167L384.353 217.163L383.895 216.086ZM357.27 216.086L356.812 217.163L356.822 217.167L356.832 217.171L357.27 216.086ZM346.699 208.908L347.538 208.093L347.538 208.093L346.699 208.908ZM339.781 198.076L340.869 197.645L340.869 197.645L339.781 198.076ZM380.371 208.517L379.91 207.441L379.899 207.446L380.371 208.517ZM388.202 203.035L387.343 202.24L387.343 202.24L388.202 203.035ZM393.292 194.813L392.207 194.373L392.204 194.381L392.201 194.389L393.292 194.813ZM393.292 174.061L392.197 174.476L392.204 174.494L392.211 174.511L393.292 174.061ZM388.202 165.839L387.343 166.634L387.35 166.642L387.358 166.65L388.202 165.839ZM380.371 160.358L379.899 161.428L379.91 161.433L380.371 160.358ZM360.794 160.358L360.333 159.282L360.322 159.287L360.794 160.358ZM353.094 165.839L353.937 166.65L353.945 166.642L353.952 166.634L353.094 165.839ZM347.873 174.061L346.789 173.622L346.786 173.63L346.783 173.637L347.873 174.061ZM347.873 194.813L346.779 195.227L346.783 195.237L347.873 194.813ZM352.963 203.035L352.105 203.83L352.112 203.839L352.12 203.847L352.963 203.035ZM360.794 208.517L360.322 209.587L360.333 209.592L360.794 208.517ZM338.472 184.372C338.472 179.634 339.275 175.257 340.869 171.229L338.694 170.368C336.982 174.693 336.132 179.365 336.132 184.372H338.472ZM340.862 171.249C342.549 167.199 344.819 163.714 347.668 160.781L345.99 159.151C342.922 162.308 340.494 166.045 338.701 170.349L340.862 171.249ZM347.668 160.781C350.513 157.853 353.859 155.593 357.717 154L356.823 151.837C352.676 153.55 349.062 155.989 345.99 159.151L347.668 160.781ZM357.728 153.995C361.662 152.321 365.942 151.478 370.582 151.478V149.138C365.652 149.138 361.057 150.035 356.812 151.842L357.728 153.995ZM370.582 151.478C375.223 151.478 379.503 152.321 383.437 153.995L384.353 151.842C380.108 150.035 375.513 149.138 370.582 149.138V151.478ZM383.456 154.003C387.401 155.598 390.786 157.857 393.627 160.781L395.305 159.151C392.229 155.984 388.567 153.545 384.333 151.834L383.456 154.003ZM393.627 160.781C396.472 163.71 398.696 167.188 400.295 171.229L402.471 170.368C400.765 166.057 398.377 162.313 395.305 159.151L393.627 160.781ZM400.303 171.249C401.98 175.272 402.823 179.642 402.823 184.372H405.164C405.164 179.357 404.267 174.678 402.463 170.349L400.303 171.249ZM402.823 184.372C402.823 189.192 401.978 193.605 400.303 197.626L402.463 198.526C404.268 194.194 405.164 189.471 405.164 184.372H402.823ZM400.295 197.645C398.696 201.687 396.472 205.165 393.627 208.093L395.305 209.724C398.377 206.561 400.765 202.818 402.471 198.506L400.295 197.645ZM393.627 208.093C390.782 211.021 387.39 213.328 383.437 215.01L384.353 217.163C388.579 215.365 392.234 212.886 395.305 209.724L393.627 208.093ZM383.456 215.002C379.518 216.594 375.23 217.396 370.582 217.396V219.736C375.505 219.736 380.093 218.885 384.333 217.171L383.456 215.002ZM370.582 217.396C365.934 217.396 361.647 216.594 357.709 215.002L356.832 217.171C361.072 218.885 365.659 219.736 370.582 219.736V217.396ZM357.728 215.01C353.775 213.328 350.383 211.021 347.538 208.093L345.859 209.724C348.931 212.886 352.586 215.365 356.812 217.163L357.728 215.01ZM347.538 208.093C344.693 205.165 342.469 201.687 340.869 197.645L338.694 198.506C340.4 202.818 342.788 206.561 345.859 209.724L347.538 208.093ZM340.869 197.645C339.276 193.619 338.472 189.199 338.472 184.372H336.132C336.132 189.463 336.981 194.179 338.694 198.506L340.869 197.645ZM370.582 211.644C374.295 211.644 377.721 210.964 380.843 209.587L379.899 207.446C377.104 208.679 374.004 209.304 370.582 209.304V211.644ZM380.832 209.592C384.022 208.225 386.77 206.304 389.06 203.83L387.343 202.24C385.283 204.465 382.81 206.198 379.91 207.441L380.832 209.592ZM389.06 203.83C391.34 201.368 393.113 198.499 394.382 195.237L392.201 194.389C391.034 197.391 389.413 200.004 387.343 202.24L389.06 203.83ZM394.376 195.253C395.742 191.883 396.419 188.252 396.419 184.372H394.079C394.079 187.974 393.451 191.304 392.207 194.373L394.376 195.253ZM396.419 184.372C396.419 180.492 395.742 176.9 394.372 173.611L392.211 174.511C393.451 177.487 394.079 180.769 394.079 184.372H396.419ZM394.386 173.647C393.117 170.295 391.34 167.415 389.045 165.028L387.358 166.65C389.414 168.788 391.03 171.39 392.197 174.476L394.386 173.647ZM389.06 165.044C386.77 162.57 384.022 160.65 380.832 159.282L379.91 161.433C382.81 162.676 385.283 164.409 387.343 166.634L389.06 165.044ZM380.843 159.287C377.721 157.91 374.295 157.23 370.582 157.23V159.57C374.004 159.57 377.104 160.195 379.899 161.428L380.843 159.287ZM370.582 157.23C366.952 157.23 363.531 157.911 360.333 159.282L361.255 161.433C364.147 160.194 367.252 159.57 370.582 159.57V157.23ZM360.322 159.287C357.219 160.656 354.52 162.577 352.235 165.044L353.952 166.634C356.018 164.403 358.453 162.669 361.266 161.428L360.322 159.287ZM352.25 165.028C349.961 167.409 348.144 170.279 346.789 173.622L348.958 174.501C350.213 171.405 351.876 168.794 353.937 166.65L352.25 165.028ZM346.783 173.637C345.506 176.919 344.876 180.502 344.876 184.372H347.216C347.216 180.759 347.804 177.468 348.964 174.486L346.783 173.637ZM344.876 184.372C344.876 188.242 345.507 191.864 346.779 195.227L348.968 194.399C347.804 191.323 347.216 187.984 347.216 184.372H344.876ZM346.783 195.237C348.051 198.499 349.825 201.368 352.105 203.83L353.822 202.24C351.751 200.004 350.131 197.391 348.964 194.389L346.783 195.237ZM352.12 203.847C354.487 206.305 357.223 208.22 360.322 209.587L361.266 207.446C358.448 206.203 355.964 204.464 353.806 202.224L352.12 203.847ZM360.333 209.592C363.531 210.963 366.952 211.644 370.582 211.644V209.304C367.252 209.304 364.147 208.681 361.255 207.441L360.333 209.592ZM533.723 217L532.673 216.483L531.841 218.17H533.723V217ZM561.783 160.097L562.832 160.614L563.665 158.927H561.783V160.097ZM545.077 160.097H543.907V161.267H545.077V160.097ZM545.077 151.744V150.574H543.907V151.744H545.077ZM594.15 151.744H595.32V150.574H594.15V151.744ZM594.15 217V218.17H595.32V217H594.15ZM585.406 217H584.236V218.17H585.406V217ZM585.406 160.097H586.576V158.927H585.406V160.097ZM571.18 160.097V158.927H570.451L570.129 159.581L571.18 160.097ZM543.25 217V218.17H543.979L544.301 217.516L543.25 217ZM534.772 217.517L562.832 160.614L560.734 159.579L532.673 216.483L534.772 217.517ZM561.783 158.927H545.077V161.267H561.783V158.927ZM546.247 160.097V151.744H543.907V160.097H546.247ZM545.077 152.914H594.15V150.574H545.077V152.914ZM592.98 151.744V217H595.32V151.744H592.98ZM594.15 215.83H585.406V218.17H594.15V215.83ZM586.576 217V160.097H584.236V217H586.576ZM585.406 158.927H571.18V161.267H585.406V158.927ZM570.129 159.581L542.2 216.484L544.301 217.516L572.23 160.612L570.129 159.581ZM543.25 215.83H533.723V218.17H543.25V215.83ZM735.166 170.929L734.078 170.498L734.074 170.508L734.07 170.518L735.166 170.929ZM741.952 160.097L742.804 160.899L742.804 160.899L741.952 160.097ZM752.263 152.918L751.804 151.842L751.796 151.845L752.263 152.918ZM778.626 152.918L778.151 153.988L778.161 153.992L778.171 153.996L778.626 152.918ZM788.545 159.966L787.669 160.742L787.681 160.755L787.693 160.768L788.545 159.966ZM797.159 188.026V189.196H798.329V188.026H797.159ZM741.822 188.026V186.856H740.522L740.658 188.149L741.822 188.026ZM749.522 204.21L748.72 205.062L748.72 205.062L749.522 204.21ZM773.275 209.952L773.476 211.105L773.495 211.102L773.514 211.098L773.275 209.952ZM779.148 208.256L779.565 209.349L779.587 209.341L779.609 209.331L779.148 208.256ZM784.108 205.645L784.743 206.628L784.75 206.623L784.757 206.619L784.108 205.645ZM788.023 202.252L788.878 201.453L787.985 200.498L787.135 201.491L788.023 202.252ZM793.635 208.256L794.486 209.059L795.241 208.26L794.49 207.457L793.635 208.256ZM782.019 215.825L782.437 216.919L782.445 216.915L782.454 216.912L782.019 215.825ZM752.915 216.086L752.465 217.166L752.475 217.171L752.485 217.174L752.915 216.086ZM742.083 208.908L741.243 209.724L741.249 209.73L741.255 209.736L742.083 208.908ZM735.166 198.076L734.07 198.487L734.074 198.496L734.078 198.506L735.166 198.076ZM788.154 180.457V181.627H789.42L789.32 180.364L788.154 180.457ZM786.065 171.451L784.986 171.904L784.986 171.904L786.065 171.451ZM781.367 164.534L780.54 165.361L780.549 165.371L780.558 165.38L781.367 164.534ZM774.45 160.097L773.985 161.17L774.006 161.179L774.027 161.188L774.45 160.097ZM756.309 160.097L756.731 161.188L756.74 161.184L756.749 161.181L756.309 160.097ZM749.261 164.665L750.07 165.51L750.079 165.501L750.088 165.492L749.261 164.665ZM744.301 171.582L743.248 171.072L743.241 171.086L743.235 171.1L744.301 171.582ZM741.822 180.457L740.662 180.3L740.483 181.627H741.822V180.457ZM733.986 184.502C733.986 179.757 734.749 175.373 736.261 171.34L734.07 170.518C732.45 174.838 731.646 179.503 731.646 184.502H733.986ZM736.253 171.36C737.856 167.311 740.041 163.829 742.804 160.899L741.101 159.294C738.121 162.455 735.781 166.194 734.078 170.498L736.253 171.36ZM742.804 160.899C745.562 157.974 748.866 155.671 752.729 153.991L751.796 151.845C747.655 153.646 744.085 156.128 741.101 159.294L742.804 160.899ZM752.721 153.995C756.654 152.321 760.935 151.478 765.575 151.478V149.138C760.644 149.138 756.05 150.035 751.805 151.842L752.721 153.995ZM765.575 151.478C770.216 151.478 774.402 152.321 778.151 153.988L779.101 151.849C775.02 150.035 770.505 149.138 765.575 149.138V151.478ZM778.171 153.996C781.933 155.585 785.093 157.833 787.669 160.742L789.421 159.19C786.603 156.008 783.15 153.559 779.081 151.841L778.171 153.996ZM787.693 160.768C790.356 163.598 792.407 167.021 793.837 171.059L796.043 170.277C794.515 165.962 792.302 162.251 789.397 159.164L787.693 160.768ZM793.837 171.059C795.268 175.098 795.989 179.489 795.989 184.241H798.329C798.329 179.249 797.571 174.591 796.043 170.277L793.837 171.059ZM795.989 184.241V188.026H798.329V184.241H795.989ZM797.159 186.856H741.822V189.196H797.159V186.856ZM740.658 188.149C741.381 195.013 744.059 200.675 748.72 205.062L750.324 203.358C746.11 199.391 743.655 194.265 742.985 187.904L740.658 188.149ZM748.72 205.062C753.419 209.484 759.645 211.644 767.272 211.644V209.304C760.107 209.304 754.5 207.288 750.324 203.358L748.72 205.062ZM767.272 211.644C769.341 211.644 771.409 211.464 773.476 211.105L773.075 208.8C771.139 209.136 769.205 209.304 767.272 209.304V211.644ZM773.514 211.098C775.657 210.651 777.675 210.069 779.565 209.349L778.732 207.162C776.967 207.834 775.07 208.383 773.036 208.807L773.514 211.098ZM779.609 209.331C781.489 208.525 783.202 207.625 784.743 206.628L783.472 204.663C782.055 205.58 780.461 206.42 778.687 207.18L779.609 209.331ZM784.757 206.619C786.397 205.525 787.787 204.326 788.911 203.014L787.135 201.491C786.171 202.615 784.951 203.677 783.459 204.672L784.757 206.619ZM787.168 203.051L792.78 209.055L794.49 207.457L788.878 201.453L787.168 203.051ZM792.784 207.452C789.963 210.439 786.243 212.876 781.585 214.739L782.454 216.912C787.367 214.947 791.39 212.337 794.486 209.059L792.784 207.452ZM781.602 214.732C776.955 216.507 772.05 217.396 766.88 217.396V219.736C772.325 219.736 777.513 218.798 782.437 216.919L781.602 214.732ZM766.88 217.396C761.873 217.396 757.367 216.59 753.346 214.998L752.485 217.174C756.816 218.889 761.62 219.736 766.88 219.736V217.396ZM753.365 215.006C749.323 213.322 745.842 211.013 742.91 208.081L741.255 209.736C744.414 212.894 748.155 215.371 752.465 217.166L753.365 215.006ZM742.922 208.093C740.077 205.165 737.853 201.687 736.253 197.645L734.078 198.506C735.784 202.818 738.172 206.561 741.243 209.724L742.922 208.093ZM736.261 197.665C734.749 193.631 733.986 189.248 733.986 184.502H731.646C731.646 189.502 732.45 194.167 734.07 198.487L736.261 197.665ZM789.32 180.364C789.05 176.95 788.33 173.825 787.144 170.999L784.986 171.904C786.063 174.472 786.735 177.35 786.987 180.549L789.32 180.364ZM787.144 170.999C785.955 168.162 784.299 165.72 782.176 163.688L780.558 165.38C782.437 167.177 783.914 169.346 784.986 171.904L787.144 170.999ZM782.194 163.707C780.157 161.67 777.711 160.104 774.872 159.005L774.027 161.188C776.583 162.177 778.748 163.57 780.54 165.361L782.194 163.707ZM774.915 159.023C772.136 157.819 769.016 157.23 765.575 157.23V159.57C768.747 159.57 771.543 160.112 773.985 161.17L774.915 159.023ZM765.575 157.23C762.05 157.23 758.809 157.818 755.868 159.013L756.749 161.181C759.376 160.113 762.313 159.57 765.575 159.57V157.23ZM755.886 159.005C753.04 160.107 750.552 161.718 748.433 163.837L750.088 165.492C751.972 163.608 754.182 162.174 756.731 161.188L755.886 159.005ZM748.452 163.819C746.342 165.837 744.609 168.259 743.248 171.072L745.355 172.091C746.604 169.509 748.177 167.32 750.07 165.51L748.452 163.819ZM743.235 171.1C741.966 173.91 741.111 176.979 740.662 180.3L742.981 180.613C743.403 177.495 744.201 174.648 745.368 172.063L743.235 171.1ZM741.822 181.627H788.154V179.286H741.822V181.627ZM969.496 187.635L968.636 188.428L969.495 189.358L970.355 188.43L969.496 187.635ZM1003.95 150.439H1005.12V147.454L1003.09 149.644L1003.95 150.439ZM1003.95 217V218.17H1005.12V217H1003.95ZM995.207 217H994.037V218.17H995.207V217ZM995.207 171.843H996.377V168.834L994.345 171.052L995.207 171.843ZM969.496 199.903L968.633 200.693L969.496 201.635L970.359 200.693L969.496 199.903ZM943.916 171.973L944.779 171.183L942.746 168.963V171.973H943.916ZM943.916 217V218.17H945.086V217H943.916ZM935.172 217H934.002V218.17H935.172V217ZM935.172 150.439L936.031 149.645L934.002 147.445V150.439H935.172ZM970.355 188.43L1004.81 151.234L1003.09 149.644L968.638 186.84L970.355 188.43ZM1002.78 150.439V217H1005.12V150.439H1002.78ZM1003.95 215.83H995.207V218.17H1003.95V215.83ZM996.377 217V171.843H994.037V217H996.377ZM994.345 171.052L968.634 199.112L970.359 200.693L996.07 172.633L994.345 171.052ZM970.359 199.113L944.779 171.183L943.053 172.764L968.633 200.693L970.359 199.113ZM942.746 171.973V217H945.086V171.973H942.746ZM943.916 215.83H935.172V218.17H943.916V215.83ZM936.342 217V150.439H934.002V217H936.342ZM934.312 151.232L968.636 188.428L970.356 186.841L936.031 149.645L934.312 151.232Z" fill="white"/>
<path d="M1068.32 0L1077.65 9.97678L1068.32 19.79L1059 9.97678L1068.32 0Z" fill="#D95E46"/>
</svg>
