<svg width="31" height="30" viewBox="0 0 31 30" fill="none" xmlns="http://www.w3.org/2000/svg">
<path fill-rule="evenodd" clip-rule="evenodd" d="M15.4063 7.26853C11.173 7.26853 7.75846 10.6839 7.75846 14.9181C7.75846 19.1523 11.173 22.5677 15.4063 22.5677C19.6396 22.5677 23.0542 19.1523 23.0542 14.9181C23.0542 10.6839 19.6396 7.26853 15.4063 7.26853ZM15.4048 19.8903C12.6691 19.8903 10.4327 17.66 10.4327 14.9171C10.4327 12.1741 12.6625 9.94384 15.4048 9.94384C18.1471 9.94384 20.3769 12.1741 20.3769 14.9171C20.3769 17.66 18.1404 19.8903 15.4048 19.8903ZM25.1502 6.95494C25.1502 7.94693 24.3515 8.73918 23.3664 8.73918C22.3746 8.73918 21.5826 7.94027 21.5826 6.95494C21.5826 5.96962 22.3813 5.17071 23.3664 5.17071C24.3515 5.17071 25.1502 5.96962 25.1502 6.95494ZM30.2155 8.76639C30.1024 6.37631 29.5566 4.2592 27.806 2.51491C26.0621 0.770616 23.9455 0.224694 21.556 0.104857C19.0932 -0.0349524 11.7116 -0.0349524 9.24881 0.104857C6.86592 0.218036 4.74928 0.763959 2.99872 2.50825C1.24816 4.25254 0.709019 6.36965 0.589209 8.75973C0.44943 11.223 0.44943 18.6063 0.589209 21.0696C0.702363 23.4597 1.24816 25.5768 2.99872 27.3211C4.74928 29.0654 6.85926 29.6113 9.24881 29.7311C11.7116 29.871 19.0932 29.871 21.556 29.7311C23.9455 29.618 26.0621 29.072 27.806 27.3211C29.5499 25.5768 30.0957 23.4597 30.2155 21.0696C30.3553 18.6063 30.3553 11.2297 30.2155 8.76639ZM27.0342 23.7124C26.515 25.0173 25.51 26.0225 24.1987 26.5485C22.2352 27.3274 17.5759 27.1477 15.406 27.1477C13.2361 27.1477 8.57016 27.3208 6.61327 26.5485C5.30867 26.0292 4.3036 25.0239 3.77777 23.7124C2.999 21.7484 3.17872 17.0881 3.17872 14.9177C3.17872 12.7473 3.00566 8.08033 3.77777 6.123C4.29694 4.81811 5.30201 3.81281 6.61327 3.28686C8.57682 2.50793 13.2361 2.68768 15.406 2.68768C17.5759 2.68768 22.2418 2.51458 24.1987 3.28686C25.5033 3.80616 26.5084 4.81145 27.0342 6.123C27.813 8.08699 27.6333 12.7473 27.6333 14.9177C27.6333 17.0881 27.813 21.755 27.0342 23.7124Z" fill="#262626"/>
</svg>
