<?xml version="1.0" encoding="iso-8859-1"?>
<!-- Generator: Adobe Illustrator 21.1.0, SVG Export Plug-In . SVG Version: 6.00 Build 0)  -->
<svg version="1.1" id="Layer_1" xmlns="http://www.w3.org/2000/svg" xmlns:xlink="http://www.w3.org/1999/xlink" x="0px" y="0px"
	 viewBox="0 0 287.203 394.06" style="enable-background:new 0 0 287.203 394.06;" xml:space="preserve">
<g id="XMLID_6_">
	<path id="XMLID_265_" style="fill:#B19831;" d="M0.202,0c0,0-0.455,279.081,0,304.678c0.456,25.595,27.726,38.196,27.726,38.196
		l114.596,51.185l119.943-51.185c0,0,24.857-14.048,24.735-37.434c-0.126-23.386,0-305.44,0-305.44H0.202z"/>
	<g id="XMLID_1_">
		<path id="XMLID_264_" style="fill:#0E2674;" d="M11.202,15.014c0,0-0.421,260.748,0,284.409
			c0.422,23.659,25.476,35.308,25.476,35.308l105.929,47.314l110.872-47.314c0,0,22.836-12.986,22.723-34.603
			c-0.116-21.617,0-285.114,0-285.114H11.202z"/>
		<path id="XMLID_263_" d="M234.528,287.3c0.628-15.692,5.336-147.522,5.336-147.522l0.628-39.861c0,0-1.882-24.482-9.417-38.921
			c-7.531-14.439-16.005-16.949-16.005-16.949s-16.949-8.475-27.309-2.198c-8.161,6.907-1.255,20.715-1.255,20.715
			s7.534,8.161,8.16,20.718c0.629,12.553-6.278,8.787-6.278,8.787l-9.103-2.824c0,0-16.634-2.826-21.028-2.826
			c-4.395,0,0.627-2.823,0.627-2.823s13.81-4.395,19.147-15.381c5.336-10.987,1.882-21.029,1.882-21.029
			s-3.452-15.381-18.518-19.774c-15.067-4.395-29.191,4.079-29.191,4.079s-15.066,11.927-13.185,30.133
			c1.886,18.205,15.381,22.598,15.381,22.598s-1.883,2.512-9.416,2.198c-10.358,2.826-16.006,7.219-16.006,7.219
			s-1.257,0.628-4.395-4.081c-3.138-4.708,1.256-16.32,1.256-16.32s10.987-13.183,9.73-20.715
			c-1.254-7.533-11.613-11.301-11.613-11.301s-12.867-1.882-23.226,5.651C70.372,54.406,65.665,68.53,61.898,81.085
			c-3.766,12.554-2.785,47.984-2.785,47.984l-1.923-2.159l-3.021,2.275c0,0-1.412-13.064,0.196-20.479
			c1.346-6.204,3.453-26.051,3.453-26.051s2.824-16.637,0.628-26.682C56.248,45.93,54.68,41.849,54.68,41.849l-1.256,9.103
			c0,0-1.256,4.081-2.825-0.941c-1.57-5.023-0.942-26.68-0.942-26.68l-7.534,10.986c0,0-6.904,9.73,0.628,28.248
			c2.198,6.278-4.393,5.965-4.393,5.965s3.451,7.847,4.707,16.006c1.256,8.161-1.256,17.265-2.198,22.6
			c-0.942,5.335,0.316,21.971,0.316,21.971l-4.081-0.628l-6.278,4.708l7.572,8.592c0,0-3.296,8.591,7.297,17.185
			c6.474,4.356,13.693,3.099,13.693,3.099s4.708,90.084,5.022,116.446c1.256,11.927,0.942,19.462-1.884,27.307
			c-2.824,7.847-8.788,19.462-8.788,19.462s21.657-8.475,27.935-26.679c6.276-18.206,2.824-32.016,2.824-32.016l-4.394-75.332
			l1.882,21.974l6.279,58.695c0,0,13.809-22.916,11.612-44.572c-2.198-21.657-10.67-54.3-10.67-54.3l5.964,21.031l7.217,29.188
			l4.081-25.737c0,0,3.453,13.497,4.708,21.972c1.257,8.475,0.941,23.227,0.941,23.227l-5.649,52.73c0,0,0.942,21.971-6.278,27.935
			c-7.218,5.964-7.532,10.673-7.532,10.673s11.926,3.452,24.169-3.139c12.24-6.59,12.553-3.766,12.553-3.766
			s5.022,3.138,13.81,3.138c8.789,0,12.557-0.314,12.557-0.314l-0.314,3.451c0,0-3.138,5.965,8.474,6.593
			c3.139,2.512,5.651,2.512,7.532,5.336c3.453,5.023,19.146,2.824,19.146,2.824s1.257-8.16-13.497-14.753
			c-4.394-3.764-0.627-6.904-0.627-6.904s6.906-4.708,8.788-9.73c1.884-5.022,6.593-15.38,7.848-43.941
			c1.256-28.564-0.942-70.938-0.942-70.938l2.826,15.381l12.554-42.687c0,0-5.336,21.656-9.101,48.649
			c-3.767,26.993,10.984,44.884,10.984,44.884l8.475-72.819l-5.336,76.588c0,0-2.199,21.342,5.022,32.326
			c7.219,10.987,28.248,21.032,28.248,21.032S233.899,302.995,234.528,287.3z"/>
		<path id="XMLID_259_" style="fill:#350D36;" d="M188.466,294.208c0,0-4.001,25.186-7.53,26.836
			c-3.533,1.646-3.296,0.704-3.296,0.704s-0.706-14.83-0.236-22.363c0.471-7.532,0.236-41.902,0.236-48.26
			c0-6.355-0.236-13.181-0.706-25.658c-0.471-12.476,9.181-46.375,9.181-46.375s3.062,12.243,4.708,47.081
			C192.469,261.015,188.466,294.208,188.466,294.208z M106.782,141.664c0,0,0.235,32.957,0,46.138
			c-0.237,13.185,7.767,31.78,7.767,31.78l1.648-19.304c0,0,1.415-18.597,0.942-38.607
			C116.668,141.664,106.782,141.664,106.782,141.664z M174.108,101.957c0,0,6.747-10.2-0.47-11.298
			c-7.221-1.101-18.049-2.198-18.049-2.198s5.336,1.256,1.097,3.924c-4.237,2.666-10.827,2.509-10.827,2.509
			s-11.143-1.727-13.654-2.509c-2.51-0.787-5.807-1.099-5.807-1.099s-3.451-0.785-9.416,1.567c-5.964,2.355-7.69,7.847-7.69,7.847
			l2.039,3.924l6.28,5.964l18.046,5.178l18.205,9.731c0,0,2.039-6.592,2.981-6.749c-2.039-1.413-18.047-12.398-18.047-12.398
			l20.872,7.218c0,0,2.353-4.707,3.295-5.649c-2.981-1.256-20.243-6.592-20.243-6.592s12.711,0.942,17.419,0.942
			C164.85,102.271,174.108,101.957,174.108,101.957z"/>
		<path id="XMLID_248_" style="fill:#FFFFFF;" d="M151.746,296.089l5.179,30.366c0,0-11.536,3.063-26.837-3.293
			c-2.119-0.942-10.593-4.238-2.826-15.068C141.387,294.676,151.746,296.089,151.746,296.089z M122.082,314.922
			c0,0-0.235-0.943,0.471-3.531c0.707-2.591-1.882-0.942-1.882-0.942s-3.766,1.882-6.828,3.53c-3.059,1.648-2.941,4.591-3.059,6.122
			c-3.884,1.293-11.181,6.825-11.77,7.534c-0.586,0.706-1.296,1.175-2.471,4.471c0.824,0.825,7.179,1.178,7.179,1.178
			s4.59,0.706,6.593-1.648c1.998-2.353,6.59-3.767,6.59-3.767s6.59-0.352,6.119-6.121
			C121.729,318.689,122.082,314.922,122.082,314.922z M181.641,337.758l-7.18-5.063c0,0-3.647-2.826-3.414-8.122
			c0.236-5.296,0.472-28.13,0.472-28.13l0.235-9.534c0,0-3.294,2.471-4.944,3.06c-1.646,0.588-7.415,3.177-9.652,3.649
			c-2.237,0.47-2.47,2.706-2.47,2.706l0.353,4.472l15.066-1.884c0,0,0.47,0.942,0,0.942c-2.707,0.472-12.477,6.71-12.477,6.71
			s0.237,8.239,0.942,10.241c0.707,2,0.589,10.829,0.118,11.536c-0.471,0.705-0.941,3.649-0.941,3.649s-0.942,4.823,2.588,4.471
			c3.531-0.353,8.24,2.237,8.24,2.237l7.769,5.886c0,0,8.827,4.473,12.358,2.355C186.468,339.405,181.641,337.758,181.641,337.758z
			 M174.343,292.557l1.177-101.223c0,0,0-8.006-6.119-12.95c-6.121-4.942-16.244-4.942-16.244-4.942s-18.363-1.414-24.719-0.471
			c-6.356,0.942-7.767,6.589-7.767,6.589l-4.002,43.551l-4.002,40.021l-3.296,35.545l-1.881,19.54c0,0,3.53-10.123,21.655-17.89
			c16.009-7.297,33.664-10.83,33.664-10.83l6.357-1.177l-3.06-42.138l-5.179-65.914l1.646,3.53L174.343,292.557z M49.108,160.025
			l4.473-4.943l-8.71,0.234L49.108,160.025z M94.776,206.871l-10.123-50.847l-0.47-5.179l12.24,35.309l5.885,20.717
			c0,0,6.121-8.946,2.826-23.071c-3.295-14.123-7.534-23.775-7.534-23.775l-4.237-15.538L62.76,161.201l2.12,38.371l2.354,48.966
			c0,0,0.706,16.948,1.882,38.372c1.177,21.421-8.475,29.423-8.475,29.423s17.891-2.587,20.482-28.481
			c2.588-25.894-0.707-49.671-0.707-49.671l-3.767-54.381l-0.942-24.247l6.121,36.723c0,0,5.416,35.548,6.121,38.373
			c0.706,2.824,1.885,23.775,1.885,23.775s6.119-10.356,7.061-24.48C97.838,219.815,94.776,206.871,94.776,206.871z M57.111,129.775
			c0,0-2.237,2.588-4.825,3.177c-2.591,0.59-5.297,0.59-5.297,0.59s-2.238,0.115-4.473-0.355c-2.235-0.468-4.826-3.294-4.826-3.294
			l-3.883,3.883l4.472,4.945c0,0,1.413-1.415,2.824-2.238c1.413-0.824,5.651-0.589,5.651-0.589l2.941,0.236
			c0,0,3.062,0.118,4.238,0.707c1.177,0.588,3.177,1.999,3.177,1.999l4.355-4.234L57.111,129.775z M62.29,137.425
			c0,0,20.715-14.124,26.365-16.008c0.708-11.534,4.472-10.593,4.472-10.593l3.062,1.881c0,0,11.3-12.005,12.007-12.24
			c-7.297-6.592-9.417-10.593-9.417-10.593s-4.943-7.768,1.178-16.244c6.119-8.475,9.648-15.773,9.648-15.773
			s0.71-18.597-13.415-13.889c-14.124,4.709-22.363,15.537-22.363,15.537s-9.417,15.067-11.301,30.133
			c-1.882,15.067-1.648,31.78-1.648,31.78L62.29,137.425z M87.244,144.252c0,0,18.008-10.358,19.774-10.945
			c1.767-0.589,10.829-4.12,13.889,2.235c3.06,6.358,2,22.835,2,22.835l30.956,0.589c0,0-2.238-20.482-4.12-25.308
			c-1.882-4.825-3.413-11.416-14.596-18.126c-11.18-6.708-19.185-11.769-19.185-11.769s-4.001-2.355-5.768-3.296
			c-0.235,1.884-12.005,13.418-12.005,13.418s-4.001,4.238-6.004,8.475c-0.586,3.06-4.119,2.942-4.119,2.942
			s-6.825,1.764-9.886,3.531c-3.062,1.766-9.651,6.944-9.651,6.944s4.001,7.65,4.59,8.71c0.588,1.057,1.059,3.296-1.06,1.057
			c-2.12-2.235-6.944-8.591-6.944-8.591l-5.532,2.355c0,0,3.412,3.412,3.412,8.475c0,5.058-3.412,11.887-3.412,11.887
			L87.244,144.252z M233.666,178.15l3.296-66.619c0,0,0.706-39.55-17.187-56.733c-12.946-10.595-17.655-10.595-17.655-10.595
			s-8.239-3.294-13.182,4.945c-4.943,8.238,5.883,20.481,5.883,20.481s11.773,12.005,3.06,22.128
			c-2.119,3.295-5.647,6.826-5.647,6.826l0.072,0.104c-5.132-5.342-10.666-4.578-10.666-4.578s-7.69-0.628-16.477,10.83
			c-8.79,11.455-10.515,35.939-10.515,35.939s-1.257,23.54,11.926,32.483c13.183,8.947,25.268-12.083,25.268-12.083
			s11.927-18.362,8.159-43.787c-0.842-5.685-2.228-9.989-3.868-13.257l5.519,8.001c0,0,3.529-2.119,5.414,0.706
			c3.059,3.531,0.47,16.008,0.47,16.008s-2.589,14.125-3.765,18.834c-1.179,4.706-5.182,15.771-5.182,15.771
			s-3.293,9.182-4.001,12.476c-0.707,3.294-3.295,15.537-3.059,17.89c0.233,2.355,3.293,13.653,3.293,13.653
			s4.005-13.886,6.121-20.478c2.119-6.593,12.478-36.488,12.478-36.488l-5.179,29.895c0,0-4.237,19.304-5.65,25.894
			c-1.413,6.593-2.355,20.011-2.117,26.604c0.234,13.652,7.297,24.716,7.297,24.716s0-10.829,0.706-16.244
			c0.706-5.414,4.473-28.013,4.473-28.013l8.71-53.438l-1.413,34.37l-3.297,43.313c0,0-4.473,36.489,0.942,56.969
			c5.415,20.481,19.069,21.422,19.069,21.422s-7.297-10.356-8.242-17.42c-0.942-7.063-0.232-15.771-0.232-15.771L233.666,178.15z"/>
		<path id="XMLID_239_" style="fill:#FFE0AA;" d="M40.516,140.603c2.235,0,4.471,0.118,5.414,0.118c0.941,0,0.707,2.237,0,2.237
			c-0.706,0-5.414,0.118-5.414,0.118S38.75,141.779,40.516,140.603z M50.049,144.134H39.808c-1.999,0,0.589,2.237,0.589,2.237
			s7.768,0.471,9.652,0.118C51.933,146.134,50.755,144.134,50.049,144.134z M50.167,147.311c-1.531,0.118-9.535,0.118-10.122,0.118
			c-0.589,0-1.295,2.118,0.586,2.237c1.884,0.118,9.182,0.118,9.535,0.118C50.52,149.784,51.698,147.196,50.167,147.311z
			 M50.049,150.724c-1.649,0-8.004-0.232-8.357-0.232c-0.352,0-0.706,2.588,0.589,2.588s6.945-0.117,7.65,0
			C50.638,153.198,51.697,150.724,50.049,150.724z M57.583,141.191c-1.767-1.293-3.295-1.881-4.473-1.881
			c-1.177,0-3.06,0.588-5.533,1.177c-2.47,0.589,1.177,2.235,1.177,2.235s3.298,0.118,4.003,0.235
			c0.706,0.118,2.353,0.471,1.999,1.648c-0.353,1.177-0.353,1.061-1.764,2.591c-2.353,2.471-0.117,5.768-0.117,5.768
			s3.648,1.764,5.532-0.589c1.882-2.355,1.295-5.767,1.295-5.767S59.348,142.486,57.583,141.191z M151.98,71.354
			c-0.471,1.413-2.667,12.397-13.182,11.769c-0.314,1.57-3.453,4.395-3.453,4.395l-1.882,2.824c0,0-0.785,2.041,2.983,2.355
			c8.473,1.099,14.75-1.57,14.75-1.57l1.884-1.255C153.078,89.873,153.549,71.354,151.98,71.354z M133.854,70.885
			c0.471,1.018,2.824,7.688,5.883,8.473c3.06,0.784,3.06,0.079,4.711-0.628c1.646-0.706,4.237-2.667,4.237-2.667
			s3.139-3.688,2.509-8.788c-0.625-3.453-0.942-7.69-3.767-10.987c-4.236-7.454-13.653-1.57-13.653-1.57s-1.098,0.629-2.669,2.041
			c-1.568,1.413-1.489,4.944-1.489,4.944s0.549,3.374,2.041,3.531c0.942-1.256,1.885-1.962,1.885-1.962s1.645-0.707,2.039,0.393
			c0.392,1.099,1.177,3.373,1.177,3.373s0.235,1.57,0.706,3.846c0.472,2.274,2.199,0.468,2.199,0.468s1.645,0,0.625,1.099
			c-1.02,1.099-0.706,1.256-2.51,0.785s-1.177-2.903-1.177-2.903s-1.02-2.039-1.257-2.588c-0.47,1.256-2.824,0-2.824,0
			S133.383,69.862,133.854,70.885z M133.461,66.725l0.08,0.706c0,0,1.018-0.078,1.409-0.549c0.393-0.471,0-1.57,0-1.57h-0.549
			c0,0,0.237,0.707-0.078,1.178C134.009,66.959,133.461,66.725,133.461,66.725z"/>
		<path id="XMLID_164_" style="fill:#592314;" d="M158.96,56.221c-0.023,0.02-0.372-0.266-0.776-0.637
			c-3.015-2.76-6.595-4.32-10.299-4.483l-0.613-0.028l0.859-0.27c1.595-0.502,2.446-0.661,3.923-0.73
			c3.08-0.144,5.062,0.852,6.128,3.078C158.533,53.883,159.093,56.097,158.96,56.221z M153.4,55.058
			c-0.526-0.134-1.115-0.245-1.308-0.245c-0.347,0-0.339,0.016,0.617,1.257c1.424,1.85,2.641,3.71,3.234,4.945
			c0.442,0.921,0.531,1.236,0.57,2.009c0.034,0.663,0.102,0.958,0.246,1.069c1.1,0.838,2.216-2.021,1.68-4.302
			C157.886,57.436,156.084,55.743,153.4,55.058z M154.352,62.22c-0.029,0.03,0.088,0.54,0.26,1.135s0.397,1.543,0.501,2.106
			c0.038,0.204,0.068,0.443,0.094,0.694c0.025,0.333,0.043,0.704,0.058,1.162c0.017,0.502,0.02,1.025,0.011,1.474
			c-0.024,0.494-0.068,0.926-0.139,1.197c-0.092,0.352-0.151,0.639-0.133,0.639c0.186,0,1.185-0.53,1.501-0.795
			c0.691-0.58,0.92-1.189,0.854-2.262c-0.065-1.081-0.453-2.029-1.381-3.379C155.282,63.183,154.427,62.145,154.352,62.22z
			 M137.232,43.926l0.113-0.015l0.114-0.015l-0.015,0.093c-0.007,0.051-0.046,0.162-0.084,0.249c-0.039,0.085-0.07,0.164-0.07,0.164
			c0,0.033,0.03-0.005,0.079-0.1c0.031-0.061,0.136-0.231,0.231-0.378c0.097-0.147,0.171-0.27,0.167-0.274
			c-0.009-0.009-0.221,0.097-0.407,0.203L137.232,43.926z M131.351,55.906c0.236-0.146,0.413-0.355,0.413-0.49
			c0-0.197-0.09-0.236-0.556-0.236c-0.305,0-0.747-0.079-0.981-0.177c-0.164-0.069-0.293-0.099-0.364-0.092
			c0.021-0.005,0.034-0.016,0.054-0.016h0.093l-0.097-0.104c-0.053-0.057-0.123-0.154-0.156-0.217
			c-0.051-0.095-0.06-0.1-0.062-0.034c-0.001,0.044,0.009,0.159,0.023,0.257c0.018,0.124,0.036,0.166,0.064,0.137
			c0.007-0.007,0.029-0.007,0.042-0.012c-0.011,0.007-0.023,0.013-0.023,0.026c0,0.175,0.197,0.535,0.407,0.791
			c-0.063-0.072-0.129-0.145-0.176-0.216c-0.175-0.267-0.203-0.22-0.04,0.065c0.112,0.193,0.333,0.431,0.475,0.509
			c0.107,0.059,0.212,0.054,0.116-0.005c-0.102-0.064-0.227-0.185-0.345-0.317c0.069,0.08,0.139,0.15,0.203,0.195
			C130.793,56.216,130.856,56.213,131.351,55.906z M131.283,55.127l-0.399,0.006l0.384,0.025c0.431,0.028,0.504,0.063,0.504,0.25
			c0,0.162-0.167,0.357-0.472,0.55c-0.124,0.079-0.205,0.144-0.177,0.144c0.075,0,0.345-0.168,0.527-0.329
			c0.133-0.118,0.165-0.173,0.183-0.316c0.019-0.149,0.01-0.185-0.064-0.255C131.689,55.129,131.643,55.122,131.283,55.127z
			 M137.209,44.537c-0.851,1.68-1.315,3.911-1.432,6.894l-0.029,0.725l-0.708-0.766c-0.76-0.822-1.133-1.41-1.284-2.102
			c0.083,0.384,0.225,0.73,0.461,1.095c0.23,0.355,0.512,0.694,1.117,1.341c0.158,0.169,0.276,0.308,0.261,0.308
			s-0.212-0.185-0.44-0.412c-0.227-0.227-0.476-0.491-0.553-0.586c-0.397-0.494-0.745-1.101-0.895-1.568
			c-0.148-0.455-0.169-0.599-0.169-1.104c0.001-0.394,0.008-0.481,0.055-0.671c0.325-1.312,1.335-2.424,3.207-3.529
			c0.23-0.136,0.431-0.239,0.465-0.239c0.049,0,0.04,0.01-0.056,0.062c-0.185,0.097-0.588,0.358-0.934,0.603
			c-0.424,0.3-0.756,0.564-1.052,0.817c0.738-0.617,2.019-1.503,2.214-1.503C137.488,43.901,137.386,44.188,137.209,44.537z
			 M133.669,48.438c-0.001-0.14,0.004-0.272,0.013-0.399c-0.008,0.123-0.016,0.248-0.016,0.387c0,0.071,0.008,0.131,0.011,0.198
			C133.674,48.562,133.669,48.503,133.669,48.438z M134.084,46.687c-0.016,0.027-0.039,0.053-0.054,0.081
			c-0.153,0.275-0.247,0.561-0.303,0.889C133.789,47.307,133.904,46.994,134.084,46.687z M146.107,44.167
			c-1.224,0.501-2.986,1.429-4.167,2.194c-1.39,0.899-3.095,2.587-3.593,3.554l-0.331,0.644c0.03-0.038,0.092-0.151,0.221-0.396
			c0.192-0.37,0.401-0.716,0.449-0.745c0.04-0.025,0.02,0.015-0.093,0.193c-0.229,0.358-0.475,0.851-0.57,1.138
			c-0.023,0.067-0.046,0.122-0.054,0.122c-0.008,0-0.006-0.176,0.003-0.389c0.044-1.118,0.239-2.444,0.482-3.294
			c0.392-1.363,0.892-2.282,1.645-3.025c0.196-0.193,0.254-0.239,0.309-0.239c0.005,0,0.005,0.002,0.009,0.002
			c-0.051-0.018-0.007-0.058,0.261-0.238c1.03-0.688,2.272-0.905,3.755-0.656c0.649,0.109,1.327,0.31,1.988,0.589
			c0.342,0.143,0.61,0.276,0.565,0.278c-0.087,0.004-1.607,0.627-1.94,0.794c-0.074,0.038-0.147,0.067-0.163,0.065
			c-0.016-0.001,0.107-0.068,0.272-0.149c0.166-0.082,0.49-0.229,0.721-0.326c0.52-0.222,0.699-0.308,0.741-0.388
			C146.57,43.968,146.394,44.049,146.107,44.167z M138.555,47.197c-0.076,0.265-0.155,0.524-0.217,0.815
			c-0.127,0.596-0.235,1.356-0.304,2.137c-0.015,0.161-0.031,0.328-0.039,0.372c-0.006,0.042-0.002,0.054,0.009,0.048l0.075-0.783
			C138.173,48.82,138.335,47.962,138.555,47.197z M140.833,43.699c-0.075,0.048-0.161,0.085-0.231,0.138
			c-0.083,0.063-0.146,0.094-0.176,0.09c0.031,0.008-0.006,0.048-0.211,0.245c-0.018,0.018-0.033,0.041-0.051,0.059
			C140.373,44.027,140.597,43.852,140.833,43.699z M143.107,43.033c-0.489,0.004-0.668,0.027-1.055,0.125
			c-0.087,0.022-0.167,0.063-0.252,0.09c0.264-0.085,0.537-0.153,0.827-0.188C142.781,43.041,142.945,43.038,143.107,43.033z
			 M145.678,43.414c0.731,0.244,1.015,0.354,0.938,0.479c0.014-0.027,0.012-0.053,0.003-0.084c-0.035-0.113-0.976-0.451-1.719-0.618
			c-0.519-0.116-0.79-0.149-1.299-0.157C144.281,43.063,144.994,43.186,145.678,43.414z M134.168,53.333
			c-0.05,0.132-0.097,0.186-0.193,0.226c-0.096,0.04-0.14,0.055-0.141,0.041c0.008,0.036-0.354,0.163-0.669,0.234
			c-0.159,0.036-0.863,0.067-0.987,0.043c-0.031-0.006-0.136-0.031-0.23-0.058c-1.041-0.279-1.7-1.473-1.704-3.088
			c-0.001-0.742,0.111-1.293,0.32-1.568l0.063-0.082l0.117,0.192c0.156,0.259,0.159,0.284,0.024,0.139
			c-0.068-0.072-0.134-0.122-0.163-0.122c-0.018,0-0.032,0.015-0.048,0.024c0.099-0.052,0.241,0.117,0.47,0.49
			c0.619,1.006,1.193,1.654,2.179,2.46c0.671,0.548,0.887,0.796,0.863,0.99c0.011-0.101-0.032-0.21-0.143-0.351
			c-0.082-0.103-0.226-0.251-0.323-0.329c-0.242-0.2-0.186-0.211,0.08-0.018C134.183,52.919,134.271,53.061,134.168,53.333z
			 M130.352,51.296c-0.039-0.321-0.049-0.654-0.018-0.991c0.03-0.32,0.06-0.556,0.096-0.72c-0.028,0.111-0.053,0.246-0.074,0.443
			c-0.058,0.511-0.064,0.704-0.038,1.044C130.325,51.149,130.343,51.22,130.352,51.296z M131.303,53.375
			c-0.06-0.053-0.116-0.113-0.171-0.175c0.04,0.044,0.073,0.098,0.115,0.138C131.264,53.355,131.286,53.36,131.303,53.375z
			 M132.422,53.812c0.15,0.01,0.324,0,0.498-0.016c-0.187,0.017-0.38,0.018-0.566,0.002C132.379,53.8,132.396,53.81,132.422,53.812z
			 M134.065,53.267c-0.049,0.275-0.547,0.469-1.11,0.525c0.311-0.033,0.616-0.096,0.777-0.178c0.073-0.038,0.092-0.041,0.102-0.015
			c0.001-0.013,0.033-0.048,0.103-0.114C134.016,53.411,134.053,53.341,134.065,53.267z M135.817,50.974
			c-0.072,1.327-0.07,1.187-0.01,1.229c0.029,0.02,0.059,0.038,0.059,0.038c0.003,0,0.004-0.353,0.003-0.785
			c0-0.431,0.005-0.946,0.012-1.144C135.899,49.756,135.859,50.177,135.817,50.974z M146.433,48.136
			c0.583-0.067,1.498-0.116,2.249-0.115c1.88,0.001,3.236,0.224,4.859,0.796c0.578,0.205,1.071,0.35,1.098,0.325
			c0.124-0.126-0.963-1.71-1.665-2.427c-1.337-1.363-2.944-1.867-4.677-1.467c-1.671,0.386-4.006,1.831-5.561,3.442
			c-0.404,0.419-0.625,0.718-0.491,0.664c0.949-0.378,2.73-0.927,3.616-1.123C146.052,48.197,146.242,48.165,146.433,48.136z"/>
		<path id="XMLID_147_" style="fill:#7F1416;" d="M179.936,320.537c-1.114,0.427-2.016,0.338-2.005-0.2
			c0.012-0.538,0.894-3.486,1.963-6.552c4.663-13.382,8.302-80.074,4.813-88.195c-0.751-1.747-1.202,2.657-1.264,12.329
			c-0.088,13.848-3.557,56.541-4.851,59.696c-0.306,0.748-0.415-18.515-0.242-42.807c0.295-41.441,0.516-44.99,3.582-57.49
			c1.966-8.024,3.672-12.597,4.285-11.498c0.563,1.003,1.762,10.973,2.665,22.156C192.559,253.453,187.456,317.652,179.936,320.537z
			 M117.938,170.556c-0.032-0.839-0.098-1.66-0.205-2.363c-0.259-1.71-0.484-1.062-0.559,1.33c-0.219,0.219-0.348,0.879-0.309,1.823
			c0.034,0.83,0.14,1.304,0.295,1.42c0.055,2.629,0.28,3.644,0.554,2.223c0.204-1.055,0.282-2.661,0.233-4.223
			C117.947,170.694,117.943,170.625,117.938,170.556z M111.15,145.648l-4.029-4.314l0.593,29.218
			c0.463,22.85,1.111,30.841,2.974,36.665c2.032,6.357,2.539,7.017,3.466,4.513c1.623-4.385,3.128-44.926,2.003-53.931
			C115.408,151.807,114.23,148.948,111.15,145.648z M158.886,90.669c0,2.601-9.712,5.276-16.082,4.429
			c-4.645-0.617-5.795-0.458-4.302,0.593c1.616,1.139,1.169,1.439-2.167,1.456c-2.563,0.013-5.211-1.09-6.78-2.822
			c-1.985-2.194-3.617-2.674-7.149-2.101c-8.537,1.385-14.334,7.483-9.045,9.513c1.121,0.429,2.039,0.206,2.039-0.499
			c0-0.705,3.162,0.583,7.026,2.862c3.864,2.278,11.814,6.55,17.666,9.492c11.221,5.641,13.063,7.231,6.903,5.958
			c-3.438-0.712-3.357-0.555,1.02,1.955c2.616,1.501,4.888,2.754,5.048,2.785c0.161,0.031,0.932-1.139,1.714-2.599
			c1.248-2.332,0.379-3.36-7.086-8.392c-4.68-3.153-8.816-6.128-9.189-6.609c-0.374-0.481-3.432-2.193-6.795-3.802
			c-5.326-2.548-10.61-7.792-9.238-9.166c0.256-0.255,3.509,1.527,7.23,3.961c3.72,2.435,10.74,6.158,15.598,8.276
			c4.857,2.117,9.212,4.429,9.676,5.139c1.094,1.674,5.574,0.799,6.248-1.222c0.301-0.904-3.654-3.004-9.401-4.988l-9.921-3.427
			l12.911-0.162c12.116-0.153,13.188-0.401,17.438-4.036c2.931-2.508,3.983-4.209,2.98-4.828
			C172.677,90.856,158.886,89.368,158.886,90.669z"/>
		<polygon id="XMLID_65_" points="180.027,100.967 190.058,102.691 185.982,127.605 198.831,129.643 197.107,141.237 
			184.102,139.202 180.34,165.84 169.997,164.43 173.602,137.79 159.029,134.97 161.067,123.53 176.266,125.881 		"/>
		<path id="XMLID_62_" d="M68.108,114.552c0,0,1.411-18.334,4.938-27.032c3.525-8.697,10.105-16.452,15.511-22.094
			c5.405-5.641,6.58,2.117,5.405,4.935c-3.29,0.707-0.939-0.233-11.045,6.583C72.81,83.761,68.108,114.552,68.108,114.552
			 M202.79,70.597c0,0,7.99,1.177,15.749,11.754c7.755,10.576,10.106,32.905,10.106,32.905s-1.412-22.798-5.641-30.321
			c-4.231-7.521-10.576-14.807-10.576-14.807s-2.351-2.585-5.407-4.936c-3.056-2.351-4.468-0.47-4.701,0.47
			C202.085,66.602,202.79,70.597,202.79,70.597"/>
		<path id="XMLID_61_" style="fill:#B49900;" d="M133.981,83.158c0.5,0.306,0.961,0.56,1.022,0.564
			c0.22,0.01,0.108-2.695-0.182-4.39c-0.545-3.19-1.556-5.784-2.976-7.64c-1.979-2.586-3.143-4.399-4.845-7.546
			c-0.529-0.98-3.309-6.781-2.74-9.101c3.889-15.847,22.992-20.015,35.672-7.785c7.284,7.026,6.28,14.712,6.28,14.712
			c-0.143,2.165-0.419,3.662-0.971,5.238c-0.969,2.775-2.936,5.399-5.362,7.155l-0.697,0.505l-0.059,1.162
			c-0.038,0.736-0.166,1.381-0.349,1.762c-0.392,0.807-1.546,1.943-2.228,2.19c-0.305,0.109-0.525,0.27-0.487,0.357
			c0.365,0.849,0.433,1.359,0.278,2.086c-0.09,0.427-0.212,0.894-0.27,1.04c-0.09,0.229,0.078,0.201,1.227-0.2
			c4.052-1.411,8.176-3.978,11.45-7.125c2.66-2.557,4.325-4.831,5.801-7.92c2.087-4.374,3.044-9.398,2.637-13.859
			c-0.194-2.119-0.893-5.311-1.58-7.212c-2.472-6.839-7.45-12.321-14.122-15.552c-6.678-3.232-13.285-3.728-20.054-1.503
			c-4.056,1.334-8.18,3.774-11.163,6.608c-1.815,1.723-4.067,5.043-5.814,8.569c-2.878,5.808-4.032,10.82-3.867,16.791
			c0.077,2.731,0.284,3.998,1.036,6.342C123.44,74.082,127.941,79.453,133.981,83.158z"/>
		<path id="XMLID_43_" style="fill:#B49900;" d="M161.19,168.073l1,1.394l-0.255,0.669c-0.141,0.368-0.341,0.741-0.447,0.828
			c-0.225,0.187-3.937,0.321-4.792,0.173c-0.522-0.09-0.635-0.19-0.968-0.853c-0.355-0.708-0.386-0.954-0.515-4.268
			c-0.152-3.888-0.107-4.238,0.654-5.158c0.368-0.446,0.57-0.564,0.968-0.564c0.473,0,0.517,0.045,0.755,0.789
			C158.057,162.54,160.182,166.666,161.19,168.073z M135.518,160.746h-2.436h-2.436l-0.465,0.564
			c-0.255,0.309-0.529,0.794-0.607,1.075c-0.168,0.612-0.043,6.062,0.166,7.166c0.083,0.437,0.343,1.036,0.605,1.393l0.46,0.625
			l2.5-0.041l2.502-0.04l0.33-0.692c0.433-0.905,0.646-2.691,0.646-5.416c0-2.358-0.054-2.62-0.79-3.844L135.518,160.746z
			 M152.959,161.016l-0.31-0.421h-2.35c-2.247,0-2.362,0.015-2.647,0.338c-0.961,1.086-1.013,1.447-0.834,5.671
			c0.138,3.252,0.21,3.644,0.82,4.543l0.28,0.413l2.431-0.002c1.337-0.001,2.513-0.054,2.612-0.118
			c0.681-0.432,1.084-2.825,1.091-6.456c0.004-1.859-0.023-2.049-0.389-2.772C153.447,161.786,153.13,161.247,152.959,161.016z
			 M144.107,160.588l-2.492,0.041l-2.492,0.041l-0.457,0.653l-0.457,0.653l0.008,3.479c0.009,3.845,0.116,4.53,0.844,5.414
			l0.447,0.541h2.381c2.361,0,2.385-0.002,2.677-0.374c0.485-0.617,0.753-2.216,0.848-5.057c0.098-2.947,0.036-3.298-0.819-4.63
			L144.107,160.588z M124.461,160.629l-2.443,0.041l-0.441,0.545c-0.242,0.3-0.499,0.799-0.569,1.109
			c-0.069,0.31-0.072,2.092-0.005,3.961c0.126,3.487,0.246,4.159,0.87,4.862c0.205,0.231,0.542,0.262,2.76,0.262
			c2.517,0,2.528-0.001,2.769-0.368c0.563-0.859,0.702-1.754,0.779-4.984l0.074-3.175l-0.475-0.882
			C126.955,160.469,127.23,160.582,124.461,160.629z"/>
		<path id="XMLID_41_" style="fill:#B49900;" d="M57.893,59.201c-0.322-2.446-0.421-2.682-0.696-3.944
			c-0.352-1.616-0.907-3.521-1-3.428c-0.038,0.038-0.266,0.657-0.509,1.376c-0.825,2.456-1.822,3.815-2.802,3.816
			c-0.383,0.001-1.152-0.352-1.592-0.731c-0.237-0.203-1.08-1.227-1.745-2.561c-1.18-2.363-2.108-5.665-2.581-9.175
			c-0.246-1.83-0.241-8.05,0.008-9.819c0.103-0.732,0.162-1.358,0.129-1.389c-0.031-0.033-0.296,0.296-0.588,0.73
			c-2.071,3.085-3.442,6.408-4.201,10.184c-0.294,1.458-0.347,2.19-0.349,4.8l-0.003,3.079l1.797,9.044
			c0.988,4.974,2.269,9.514,1.62,10.845l-1.807-0.791c-1.064-0.466-1.978-0.846-2.031-0.846c-0.053,0,0.146,0.481,0.442,1.069
			c0.796,1.58,1.682,3.627,2.267,5.24c0.41,1.131,0.948,2.965,1.231,4.129c0.944,6.555-1.428,27.818-1.945,32.299
			c-0.418,3.614-0.468,4.449-0.399,6.685c0.104,3.353,0.565,5.697,1.787,9.087c0.254,0.703,0.656,1.666,0.893,2.141
			c0.237,0.475,0.461,0.864,0.495,0.864c0.098,0,6.153-3.178,6.286-3.3c0.067-0.06,0.016-1.15-0.112-2.422
			c-0.517-5.184-0.652-9.947-0.374-13.309c0.382-4.636,1.9-15.552,2.695-19.37c0.828-3.983,2.574-15.239,3.153-20.332
			C58.421,69.129,58.391,63.002,57.893,59.201z"/>
		<polygon id="XMLID_40_" style="fill:#B49900;" points="180.569,103.023 187.444,104.097 183.96,128.932 198.091,131.325 
			197.28,138.485 182.809,135.998 178.569,162.223 171.444,161.597 175.52,135.522 161.847,132.972 162.616,125.936 
			176.569,127.722 		"/>
		<path id="XMLID_35_" d="M139.25,75.93c-0.235,0.548,1.175,0.47,1.175,0.47s1.254-0.861,2.039-1.488
			c0.784-0.627,1.724-0.627,1.724-0.627s-0.784-1.019-2.038-0.784c-1.255,0.234-3.29,1.175-3.29,1.175S137.526,76.4,139.25,75.93"/>
		<path id="XMLID_3_" d="M146.85,60.966c-0.548-0.549-1.803-1.254-2.977-1.411c-1.176-0.157-3.056,0.391-3.999,0.861
			c-0.939,0.47-1.174,0.313-2.271,1.097c-1.096,0.782-0.157,1.723-0.157,1.723s1.959,2.585,4.935,1.882
			c2.979-0.707,2.979-2.978,2.979-2.978h1.724C147.086,62.14,147.398,61.513,146.85,60.966z M143.403,63.706
			c-0.706,0.47-2.508,0.47-2.508,0.47v-0.627c0,0,1.254,0.157,1.959-0.391c0.705-0.549,0.862-1.332,0.862-1.332l0.627-0.078
			C144.342,61.749,144.107,63.236,143.403,63.706z"/>
		<path id="XMLID_4_" style="fill:#A81F23;" d="M128.992,92.326c-0.293-0.6-0.678-1.646-0.625-1.699
			c0.015-0.015,2.345,1.37,5.178,3.078c2.833,1.708,5.191,3.129,5.243,3.158c0.1,0.058,0.097,0.058-0.627,0.025
			c-1.286-0.059-3.096-0.306-4.158-0.568c-1.121-0.276-2.171-0.725-2.787-1.189C130.332,94.465,129.558,93.489,128.992,92.326z
			 M154.43,110.878c-15.733-6.919-20.353-8.094-31.572-16.978C123.875,95.031,121.546,101.409,154.43,110.878z M150.034,119.337
			c0.05,0.048-0.193-0.01-1.18-0.281c-4.027-1.108-8.394-2.533-11.845-3.869c-6.703-2.596-11.513-5.358-16.466-9.458
			c-1.079-0.893-2.743-2.411-3.692-3.369l-0.507-0.515l-0.359-0.394c-0.197-0.217-0.344-0.394-0.326-0.394
			c0.043,0,4.792,2.789,4.792,2.789c1.877,1.1,4.684,2.734,6.236,3.63c0.548,0.317,1.057,0.612,1.489,0.865
			c4.166,2.266,11.454,6.257,11.49,6.244c0.03-0.01,5.427,2.5,7.841,3.597C148.887,118.805,150.024,119.327,150.034,119.337z
			 M119.155,103.69c-0.037-0.007-0.056-0.002-0.067,0.009c-0.002,0.002,0.002,0.006,0,0.008
			C119.103,103.697,119.127,103.693,119.155,103.69z M184.452,224.847c0.717,35.5-6.25,93.517-8.337,94.218
			C180.877,320.097,189.452,256.68,184.452,224.847z"/>
	</g>
</g>
<g>
</g>
<g>
</g>
<g>
</g>
<g>
</g>
<g>
</g>
<g>
</g>
<g>
</g>
<g>
</g>
<g>
</g>
<g>
</g>
<g>
</g>
<g>
</g>
<g>
</g>
<g>
</g>
<g>
</g>
</svg>
