<svg width="350" height="207" viewBox="0 0 350 207" fill="none" xmlns="http://www.w3.org/2000/svg">
<rect x="135.05" y="94.9463" width="8.08023" height="8.08001" rx="1.54203" fill="#D95E46"/>
<rect x="199.688" y="94.9463" width="8.08023" height="8.08001" rx="1.54203" fill="#D95E46"/>
<rect x="135.05" y="78.7983" width="8.08023" height="8.08001" rx="1.54203" fill="#D95E46"/>
<rect x="143.11" y="103.021" width="8.08023" height="8.08001" rx="1.54203" fill="#D95E46"/>
<rect x="143.11" y="70.7124" width="8.08023" height="8.08001" rx="1.54203" fill="#D95E46"/>
<rect x="151.181" y="70.7124" width="8.08023" height="8.08001" rx="1.54203" fill="#D95E46"/>
<rect x="159.263" y="70.7124" width="8.08023" height="8.08001" rx="1.54203" fill="#D95E46"/>
<rect x="159.263" y="62.623" width="8.08023" height="8.08001" rx="1.54203" fill="#D95E46"/>
<rect x="167.356" y="62.623" width="8.08023" height="8.08001" rx="1.54203" fill="#D95E46"/>
<rect x="159.263" y="54.5469" width="8.08023" height="8.08001" rx="1.54203" fill="#D95E46"/>
<rect x="167.356" y="46.478" width="8.08023" height="8.08001" rx="1.54203" fill="#D95E46"/>
<rect x="175.481" y="54.5469" width="8.08023" height="8.08001" rx="1.54203" fill="#D95E46"/>
<rect x="183.549" y="54.5469" width="8.08023" height="8.08001" rx="1.54203" fill="#D95E46"/>
<rect x="183.549" y="46.478" width="8.08023" height="8.08001" rx="1.54203" fill="#D95E46"/>
<rect x="191.612" y="38.3857" width="8.08023" height="8.08001" rx="1.54203" fill="#D95E46"/>
<rect x="199.688" y="30.3047" width="8.08023" height="8.08001" rx="1.54203" fill="#D95E46"/>
<rect x="207.76" y="54.5469" width="8.08023" height="8.08001" rx="1.54203" fill="#D95E46"/>
<rect x="199.688" y="38.3857" width="8.08023" height="8.08001" rx="1.54203" fill="#D95E46"/>
<rect x="207.76" y="30.3047" width="8.08023" height="8.08001" rx="1.54203" fill="#D95E46"/>
<rect x="240.094" y="30.3047" width="8.08023" height="8.08001" rx="1.54203" fill="#D95E46"/>
<rect x="248.181" y="22.2275" width="8.08023" height="8.08001" rx="1.54203" fill="#D95E46"/>
<rect x="215.838" y="54.5469" width="8.08023" height="8.08001" rx="1.54203" fill="#D95E46"/>
<rect x="207.76" y="38.3857" width="8.08023" height="8.08001" rx="1.54203" fill="#D95E46"/>
<rect x="240.094" y="38.3857" width="8.08023" height="8.08001" rx="1.54203" fill="#D95E46"/>
<rect x="248.181" y="30.3047" width="8.08023" height="8.08001" rx="1.54203" fill="#D95E46"/>
<rect x="215.838" y="30.3047" width="8.08023" height="8.08001" rx="1.54203" fill="#D95E46"/>
<rect x="223.924" y="22.2275" width="8.08023" height="8.08001" rx="1.54203" fill="#D95E46"/>
<rect x="223.924" y="54.5469" width="8.08023" height="8.08001" rx="1.54203" fill="#D95E46"/>
<rect x="231.979" y="62.623" width="8.08023" height="8.08001" rx="1.54203" fill="#D95E46"/>
<rect x="240.094" y="62.623" width="8.08023" height="8.08001" rx="1.54203" fill="#D95E46"/>
<rect x="231.979" y="46.478" width="8.08023" height="8.08001" rx="1.54203" fill="#D95E46"/>
<rect x="191.612" y="54.5469" width="8.08023" height="8.08001" rx="1.54203" fill="#D95E46"/>
<rect x="199.688" y="62.6265" width="8.08023" height="8.08001" rx="1.54203" fill="#D95E46"/>
<rect x="183.549" y="70.7124" width="8.08023" height="8.08001" rx="1.54203" fill="#D95E46"/>
<rect x="223.924" y="127.271" width="8.08023" height="8.08001" rx="1.54203" transform="rotate(-180 223.924 127.271)" fill="#D95E46"/>
<rect width="8.08023" height="8.08001" rx="1.54203" transform="matrix(-1 0 0 1 223.924 70.7124)" fill="#D95E46"/>
<rect width="8.08023" height="8.08001" rx="1.54203" transform="matrix(1 0 0 -1 183.549 127.271)" fill="#D95E46"/>
<rect x="183.549" y="78.7983" width="8.08023" height="8.08001" rx="1.54203" fill="#D95E46"/>
<rect x="223.924" y="119.197" width="8.08023" height="8.08001" rx="1.54203" transform="rotate(-180 223.924 119.197)" fill="#D95E46"/>
<rect width="8.08023" height="8.08001" rx="1.54203" transform="matrix(-1 0 0 1 223.924 78.7983)" fill="#D95E46"/>
<rect width="8.08023" height="8.08001" rx="1.54203" transform="matrix(1 0 0 -1 183.549 119.197)" fill="#D95E46"/>
<rect x="175.481" y="78.7983" width="8.08023" height="8.08001" rx="1.54203" fill="#D95E46"/>
<rect x="231.979" y="119.197" width="8.08023" height="8.08001" rx="1.54203" transform="rotate(-180 231.979 119.197)" fill="#D95E46"/>
<rect width="8.08023" height="8.08001" rx="1.54203" transform="matrix(-1 0 0 1 231.979 78.7983)" fill="#D95E46"/>
<rect width="8.08023" height="8.08001" rx="1.54203" transform="matrix(1 0 0 -1 175.481 119.197)" fill="#D95E46"/>
<rect x="183.549" y="86.8701" width="8.08023" height="8.08001" rx="1.54203" fill="#D95E46"/>
<rect x="223.924" y="111.113" width="8.08023" height="8.08001" rx="1.54203" transform="rotate(-180 223.924 111.113)" fill="#D95E46"/>
<rect width="8.08023" height="8.08001" rx="1.54203" transform="matrix(-1 0 0 1 223.924 86.8701)" fill="#D95E46"/>
<rect width="8.08023" height="8.08001" rx="1.54203" transform="matrix(1 0 0 -1 183.549 111.113)" fill="#D95E46"/>
<rect x="183.549" y="94.9463" width="8.08023" height="8.08001" rx="1.54203" fill="#D95E46"/>
<rect x="223.924" y="103.021" width="8.08023" height="8.08001" rx="1.54203" transform="rotate(-180 223.924 103.021)" fill="#D95E46"/>
<rect width="8.08023" height="8.08001" rx="1.54203" transform="matrix(-1 0 0 1 223.924 94.9463)" fill="#D95E46"/>
<rect width="8.08023" height="8.08001" rx="1.54203" transform="matrix(1 0 0 -1 183.549 103.021)" fill="#D95E46"/>
<rect x="175.481" y="86.8701" width="8.08023" height="8.08001" rx="1.54203" fill="#D95E46"/>
<rect x="231.979" y="111.113" width="8.08023" height="8.08001" rx="1.54203" transform="rotate(-180 231.979 111.113)" fill="#D95E46"/>
<rect width="8.08023" height="8.08001" rx="1.54203" transform="matrix(-1 0 0 1 231.979 86.8701)" fill="#D95E46"/>
<rect width="8.08023" height="8.08001" rx="1.54203" transform="matrix(1 0 0 -1 175.481 111.113)" fill="#D95E46"/>
<rect x="191.612" y="70.7124" width="8.08023" height="8.08001" rx="1.54203" fill="#D95E46"/>
<rect x="215.838" y="127.271" width="8.08023" height="8.08001" rx="1.54203" transform="rotate(-180 215.838 127.271)" fill="#D95E46"/>
<rect width="8.08023" height="8.08001" rx="1.54203" transform="matrix(-1 0 0 1 215.838 70.7124)" fill="#D95E46"/>
<rect width="8.08023" height="8.08001" rx="1.54203" transform="matrix(1 0 0 -1 191.612 127.271)" fill="#D95E46"/>
<rect x="191.612" y="78.7983" width="8.08023" height="8.08001" rx="1.54203" fill="#D95E46"/>
<rect x="215.838" y="119.197" width="8.08023" height="8.08001" rx="1.54203" transform="rotate(-180 215.838 119.197)" fill="#D95E46"/>
<rect width="8.08023" height="8.08001" rx="1.54203" transform="matrix(-1 0 0 1 215.838 78.7983)" fill="#D95E46"/>
<rect width="8.08023" height="8.08001" rx="1.54203" transform="matrix(1 0 0 -1 191.612 119.197)" fill="#D95E46"/>
<rect x="199.688" y="78.7983" width="8.08023" height="8.08001" rx="1.54203" fill="#D95E46"/>
<rect x="207.76" y="119.197" width="8.08023" height="8.08001" rx="1.54203" transform="rotate(-180 207.76 119.197)" fill="#D95E46"/>
<rect x="191.612" y="86.8701" width="8.08023" height="8.08001" rx="1.54203" fill="#D95E46"/>
<rect x="215.838" y="111.113" width="8.08023" height="8.08001" rx="1.54203" transform="rotate(-180 215.838 111.113)" fill="#D95E46"/>
<rect width="8.08023" height="8.08001" rx="1.54203" transform="matrix(-1 0 0 1 215.838 86.8701)" fill="#D95E46"/>
<rect width="8.08023" height="8.08001" rx="1.54203" transform="matrix(1 0 0 -1 191.612 111.113)" fill="#D95E46"/>
<rect x="175.481" y="38.3857" width="8.08023" height="8.08001" rx="1.54203" fill="#D95E46"/>
<rect x="167.356" y="38.3857" width="8.08023" height="8.08001" rx="1.54203" fill="#D95E46"/>
<rect x="175.481" y="30.3047" width="8.08023" height="8.08001" rx="1.54203" fill="#D95E46"/>
<rect x="167.356" y="30.3047" width="8.08023" height="8.08001" rx="1.54203" fill="#D95E46"/>
<rect x="175.481" y="22.2275" width="8.08023" height="8.08001" rx="1.54203" fill="#D95E46"/>
<rect x="143.11" y="78.7983" width="8.08023" height="8.08001" rx="1.54203" fill="#D95E46"/>
<path d="M54.5687 171.387C54.4615 170.708 54.2828 169.993 54.2828 169.315C54.2828 152.162 54.2828 135.01 54.2828 117.894C54.2828 115.428 54.2828 115.428 56.7128 115.428C71.1138 115.428 85.5148 115.464 99.9516 115.393C101.595 115.393 102.06 115.821 102.06 117.501C102.024 137.726 102.06 157.987 101.988 178.212C101.988 180.07 102.524 180.606 104.311 180.463C105.955 180.32 107.634 180.463 109.314 180.428C110.279 180.392 110.708 180.678 110.708 181.75C110.672 189.54 110.672 197.33 110.708 205.155C110.708 206.263 110.243 206.585 109.171 206.549C107.313 206.477 105.49 206.477 103.632 206.549C102.239 206.62 101.917 206.049 101.917 204.762C101.988 200.188 101.881 195.579 101.988 191.005C102.024 189.361 101.488 189.039 99.9516 189.039C82.5131 189.075 65.0746 189.075 47.6362 189.039C46.0996 189.039 45.5636 189.468 45.5993 191.041C45.7065 195.686 45.5993 200.331 45.6708 204.977C45.6708 206.156 45.3492 206.585 44.1699 206.513C42.276 206.442 40.3464 206.477 38.4524 206.513C37.4161 206.513 36.9873 206.156 36.9873 205.048C37.023 197.294 37.023 189.575 36.9873 181.821C36.9873 180.714 37.4161 180.356 38.4524 180.392C40.4178 180.428 42.3832 180.356 44.3486 180.428C45.3492 180.463 45.7065 180.07 45.6708 179.07C45.5993 177.176 45.7065 175.246 45.6351 173.352C45.5636 171.995 46.1353 171.601 47.4218 171.601C49.7445 171.566 52.1745 171.423 54.5687 171.387C54.4972 173.674 54.4615 175.997 54.2828 178.284C54.1756 179.927 54.7474 180.428 56.4269 180.428C68.0406 180.356 79.6543 180.356 91.2323 180.428C92.7689 180.428 93.3049 180.07 93.3049 178.462C93.2692 160.953 93.2692 143.479 93.3049 125.97C93.3049 124.469 92.8761 124.04 91.3753 124.076C82.6203 124.147 73.8653 124.147 65.1104 124.076C63.3237 124.04 62.9306 124.648 62.9663 126.291C63.0378 140.763 63.002 155.235 63.002 169.672C63.002 170.244 63.002 170.815 63.002 171.387C60.0718 171.387 57.3203 171.387 54.5687 171.387Z" fill="#D95E46"/>
<path d="M129.504 145.838C129.504 143.408 129.54 140.942 129.468 138.512C129.432 137.44 129.861 136.976 130.897 136.976C138.58 136.976 146.263 136.976 153.946 136.976C155.197 136.976 155.411 137.69 155.376 138.727C155.34 141.014 155.376 143.336 155.376 145.73C157.841 145.73 160.021 145.838 162.201 145.695C163.916 145.587 164.131 146.445 164.131 147.839C164.095 157.594 164.131 167.349 164.131 177.104C164.131 180.499 164.095 183.894 164.166 187.289C164.202 188.575 163.809 189.111 162.451 189.04C160.736 188.932 158.985 188.897 157.27 189.04C155.59 189.182 155.233 188.468 155.304 186.967C155.411 184.859 155.34 182.715 155.34 180.392C152.302 180.392 149.479 180.392 146.621 180.392L146.656 180.428C146.656 178.248 146.728 176.032 146.585 173.853C146.478 172.066 146.978 171.387 148.836 171.53C150.945 171.673 153.053 171.566 155.304 171.566C155.304 169.136 155.233 167.028 155.34 164.884C155.411 163.526 154.947 162.99 153.517 162.99C146.156 163.025 138.795 163.025 131.433 162.99C130.004 162.99 129.468 163.419 129.504 164.919C129.575 170.101 129.504 175.246 129.468 180.428L129.504 180.392C127.074 180.392 124.644 180.356 122.214 180.356C121.392 180.356 120.856 180.249 120.856 179.213C120.892 173.853 120.856 168.528 120.856 162.954C123.715 162.954 126.466 162.954 129.504 162.954C129.504 159.917 129.504 157.094 129.504 154.271L129.468 154.306C137.508 154.306 145.549 154.306 153.589 154.235C154.161 154.235 155.233 153.699 155.233 153.342C155.376 150.876 155.304 148.375 155.304 145.659C146.549 145.659 138.009 145.659 129.468 145.659L129.504 145.838Z" fill="#D95E46"/>
<path d="M301.245 180.571C298.993 180.499 296.742 180.356 294.491 180.428C292.99 180.463 292.49 179.892 292.561 178.462C292.633 176.283 292.597 174.067 292.597 171.602C290.31 171.602 288.094 171.53 285.879 171.637C284.307 171.709 283.878 171.173 283.878 169.6C283.949 158.023 283.949 146.409 283.878 134.832C283.878 133.188 284.342 132.616 285.986 132.723C288.094 132.866 290.239 132.759 292.597 132.759C292.597 130.329 292.633 128.078 292.597 125.863C292.561 124.505 292.99 123.933 294.419 124.004C296.742 124.112 299.065 124.004 301.388 123.969L301.352 123.933C301.352 126.327 301.281 128.686 301.388 131.08C301.459 132.473 300.852 132.831 299.601 132.831C297.421 132.795 295.206 132.831 292.668 132.831C292.668 134.689 292.668 136.44 292.668 138.191C292.668 140.049 292.74 141.871 292.633 143.729C292.561 145.266 293.062 145.766 294.67 145.766C304.854 145.695 315.038 145.766 325.223 145.695C327.045 145.695 327.653 146.231 327.474 148.017C327.331 149.625 327.367 151.233 327.474 152.841C327.581 154.164 327.081 154.449 325.866 154.414C315.682 154.378 305.497 154.378 295.313 154.378C292.704 154.378 292.668 154.378 292.668 157.058C292.668 161.811 292.668 166.563 292.668 171.602C295.098 171.602 297.314 171.673 299.565 171.566C300.923 171.494 301.531 171.816 301.423 173.317C301.245 175.747 301.316 178.177 301.281 180.606L301.245 180.571Z" fill="#D95E46"/>
<path d="M190.003 145.909C189.931 143.372 189.86 140.799 189.824 138.262C189.788 136.904 190.789 136.976 191.682 136.976C196.078 136.976 200.473 136.976 204.904 136.976C209.442 136.976 213.945 137.011 218.483 136.976C219.698 136.976 220.306 137.226 220.306 138.655C220.27 155.093 220.27 171.494 220.27 187.932C220.27 188.218 220.234 188.504 220.198 188.932C217.375 188.932 214.624 188.932 211.586 188.932C211.586 188.218 211.586 187.539 211.586 186.86C211.586 173.889 211.551 160.917 211.622 147.946C211.622 146.231 211.122 145.695 209.407 145.73C202.939 145.873 196.435 145.838 189.967 145.873L190.003 145.909Z" fill="#D95E46"/>
<path d="M244.856 136.976C244.856 154.485 244.856 171.673 244.856 189.039C242.354 189.039 239.924 189.075 237.494 189.004C237.101 189.004 236.672 188.396 236.422 187.967C236.244 187.646 236.386 187.146 236.386 186.753C236.386 171.03 236.386 155.307 236.386 139.62C236.386 137.047 236.386 137.047 238.959 137.047C240.889 136.976 242.854 136.976 244.856 136.976Z" fill="#D95E46"/>
<path d="M301.387 124.004C301.387 121.61 301.387 119.252 301.316 116.858C301.28 115.821 301.637 115.393 302.745 115.393C311.964 115.428 321.184 115.428 330.404 115.393C331.547 115.393 331.833 115.857 331.833 116.893C331.797 118.787 331.869 120.717 331.797 122.611C331.761 123.683 332.119 124.112 333.227 124.076C335.085 124.04 336.907 124.147 338.765 124.04C340.052 123.969 340.445 124.469 340.409 125.684C340.338 127.935 340.409 130.186 340.409 132.795C342.839 132.795 345.126 132.866 347.413 132.759C348.664 132.688 349.128 133.081 349.057 134.367C348.985 136.225 348.985 138.048 349.057 139.906C349.093 141.156 348.557 141.585 347.342 141.55C345.626 141.478 343.875 141.478 342.16 141.55C340.767 141.621 340.23 141.121 340.266 139.727C340.338 137.476 340.302 135.225 340.302 132.866C337.908 132.866 335.656 132.831 333.405 132.902C332.119 132.938 331.583 132.473 331.618 131.151C331.69 129.364 331.547 127.578 331.654 125.791C331.726 124.433 331.225 124.112 329.903 124.112C320.934 124.183 311.929 124.147 302.959 124.147C302.423 124.147 301.887 124.076 301.351 124.04C301.316 123.933 301.387 124.004 301.387 124.004Z" fill="#D95E46"/>
<path d="M189.931 145.873C189.895 156.522 189.895 167.171 189.86 177.819C189.86 180.428 189.86 180.428 187.215 180.428C185.25 180.428 183.32 180.428 181.105 180.428C181.105 183.358 181.105 186.109 181.105 189.04C178.389 189.04 175.887 189.075 173.422 189.004C173.064 189.004 172.421 188.325 172.421 187.932C172.314 185.788 172.385 183.644 172.35 181.5C172.35 180.464 172.957 180.392 173.743 180.392C176.102 180.392 178.46 180.392 181.069 180.392C181.069 179.499 181.069 178.82 181.069 178.105C181.069 168.171 181.069 158.237 181.069 148.303C181.069 145.731 181.069 145.695 183.713 145.731C185.786 145.766 187.858 145.838 189.931 145.909C190.003 145.909 189.931 145.873 189.931 145.873Z" fill="#D95E46"/>
<path d="M301.209 180.642C301.852 180.571 302.495 180.428 303.103 180.428C311.965 180.428 320.827 180.392 329.725 180.463C331.261 180.463 331.69 179.999 331.619 178.534C331.512 176.819 331.655 175.068 331.583 173.352C331.512 172.066 331.976 171.566 333.334 171.601C335.657 171.673 337.944 171.53 340.267 171.459L340.195 171.423C340.231 173.996 340.267 176.533 340.338 179.105C340.374 180.249 339.766 180.499 338.766 180.499C336.514 180.463 334.263 180.499 331.797 180.499C331.797 182.929 331.762 185.216 331.833 187.503C331.869 188.718 331.44 189.147 330.189 189.147C321.077 189.111 311.965 189.111 302.888 189.147C301.745 189.147 301.28 188.789 301.316 187.61C301.352 185.287 301.316 182.965 301.28 180.642C301.244 180.571 301.209 180.642 301.209 180.642Z" fill="#D95E46"/>
<path d="M146.621 180.428C146.657 182.858 146.729 185.288 146.657 187.753C146.657 188.182 145.907 188.968 145.478 188.968C140.261 189.04 135.008 189.04 129.504 189.04C129.504 186.11 129.504 183.287 129.504 180.428L129.469 180.464C135.186 180.464 140.94 180.464 146.657 180.464L146.621 180.428Z" fill="#D95E46"/>
<path d="M129.504 154.342C126.717 154.342 123.93 154.342 120.856 154.342C120.856 151.698 120.821 149.125 120.928 146.552C120.928 146.266 121.75 145.802 122.214 145.766C124.644 145.73 127.074 145.802 129.54 145.838L129.504 145.802C129.504 148.661 129.504 151.555 129.504 154.414V154.342Z" fill="#D95E46"/>
<path d="M340.266 171.423C340.266 169.064 340.302 166.67 340.266 164.312C340.266 163.347 340.588 162.918 341.624 162.918C343.697 162.954 345.769 162.882 347.842 162.989C348.235 163.025 348.949 163.704 348.949 164.097C349.057 166.241 349.057 168.349 348.949 170.493C348.949 170.887 348.413 171.53 348.163 171.53C345.519 171.53 342.875 171.423 340.23 171.351C340.195 171.387 340.266 171.423 340.266 171.423Z" fill="#D95E46"/>
<path d="M244.855 119.681C244.855 122.647 244.855 125.362 244.855 128.328C242.353 128.328 239.888 128.364 237.422 128.293C237.064 128.293 236.457 127.578 236.457 127.185C236.35 125.112 236.35 123.04 236.457 120.967C236.493 120.538 237.172 119.788 237.565 119.788C239.888 119.609 242.282 119.681 244.855 119.681Z" fill="#D95E46"/>
<path fill-rule="evenodd" clip-rule="evenodd" d="M33.3115 1.0001C33.1516 1.16021 33.1183 1.43892 33.1183 2.61903C33.1183 4.38309 33.1624 4.45323 34.2295 4.38516C35.3488 4.31376 35.8021 3.72901 35.4085 2.86417C35.3127 2.65387 35.3125 2.48256 35.4077 2.20939C35.6601 1.48425 35.2112 1.03297 34.0893 0.88416C33.6235 0.822443 33.4655 0.845977 33.3115 1.0001ZM30.493 1.24177C29.3148 2.06797 30.028 4.8143 31.3643 4.59719C32.4174 4.42612 32.8601 3.09419 32.2727 1.86413C31.9308 1.1481 31.0605 0.843784 30.493 1.24177ZM37.1513 1.29241C37.0398 1.5011 37.0465 1.583 37.1865 1.72305C37.3401 1.87693 37.3746 1.86747 37.497 1.63849C37.6085 1.4298 37.6019 1.3479 37.4619 1.20786C37.3083 1.05397 37.2737 1.06343 37.1513 1.29241ZM34.5086 1.52717C34.8857 1.72916 34.6762 2.33064 34.2287 2.33064C34.1331 2.33064 33.8096 1.97453 33.8096 1.8692C33.8096 1.55751 34.2045 1.36428 34.5086 1.52717ZM39.8371 1.51771C39.3568 1.72385 39.1663 2.17294 39.3181 2.74108C39.4629 3.28326 39.4223 3.48756 39.0737 3.96618C38.56 4.6716 39.1423 4.86413 39.6912 4.17025C40.2141 3.50937 40.5299 3.56797 40.6082 4.34041C40.7233 5.47542 41.1492 5.11042 41.4229 3.64237C41.6783 2.27088 41.6944 1.82283 41.4936 1.65614C41.2832 1.48137 40.1437 1.38608 39.8371 1.51771ZM27.4407 1.60596C26.8257 1.69905 26.7641 1.99783 27.0606 3.45296C27.2057 4.16541 27.3874 4.8241 27.4643 4.91685C27.7139 5.21794 27.9329 4.99829 27.9329 4.44711C27.9329 3.98764 27.9712 3.91474 28.3043 3.73835C30.1215 2.77707 29.5199 1.29161 27.4407 1.60596ZM31.3853 1.75142C32.0671 2.11676 31.9669 3.94565 31.2651 3.94565C30.6479 3.94565 30.3068 2.37666 30.8137 1.8692C31.0786 1.604 31.1013 1.59927 31.3853 1.75142ZM40.7786 2.17156C41.1789 2.57243 40.6377 3.16917 40.1708 2.84167C39.8659 2.62791 39.8404 2.27134 40.1185 2.10915C40.4046 1.94234 40.5647 1.95745 40.7786 2.17156ZM28.486 2.23835C28.8593 2.61199 28.3857 3.29249 27.8861 3.10054C27.643 3.00721 27.5278 2.4836 27.7037 2.27146C27.875 2.06485 28.295 2.04709 28.486 2.23835ZM24.4022 2.4453C23.0551 3.33148 24.2903 6.27865 25.7543 5.67164C26.304 5.44358 26.5505 5.03705 26.5476 4.36267C26.5412 2.85967 25.3672 1.81049 24.4022 2.4453ZM25.5043 3.21093C25.9818 3.81853 26.0862 4.9037 25.6822 5.05897C24.9667 5.33387 24.1716 3.92316 24.5953 3.13053C24.7665 2.81041 25.2212 2.85056 25.5043 3.21093ZM34.6239 3.02682C35.0303 3.24462 34.7844 3.83029 34.2864 3.83029C34.146 3.83029 33.8096 3.50475 33.8096 3.36886C33.8096 3.0334 34.2729 2.83879 34.6239 3.02682ZM46.2275 3.22466C46.1297 3.33575 45.8652 3.7958 45.6399 4.2472C45.4147 4.69859 45.0784 5.19579 44.8928 5.35221C44.1134 6.00872 44.0456 7.13184 44.8209 6.5449C45.2968 6.18452 46.1392 6.55621 46.1392 7.12642C46.1392 7.45092 46.4823 7.5146 46.7154 7.23336C46.8056 7.12458 47.0595 7.06032 47.3993 7.06032C48.0411 7.06032 48.3271 6.81242 48.93 5.7337C49.72 4.31999 50.2251 4.88651 49.4862 6.35767C48.9456 7.4342 48.8857 7.86944 49.2793 7.86471C49.4958 7.86218 49.6385 7.64819 50.1454 6.56693C50.908 4.94027 50.9086 4.95273 50.0497 4.51864C49.1414 4.05974 48.9943 4.118 48.4861 5.13672C47.9933 6.125 47.6874 6.48353 47.3368 6.48353C46.8896 6.48353 46.8943 6.09927 47.356 4.9315C47.8442 3.69659 47.8274 3.55932 47.1492 3.25119C46.5408 2.97468 46.4501 2.97203 46.2275 3.22466ZM21.6255 3.3361C21.1022 3.60073 21.074 3.82106 21.4272 4.88271C21.6652 5.59827 21.7208 5.93904 21.6666 6.35087C21.5412 7.3035 22.2842 8.12842 22.4535 7.22459C22.5679 6.61423 23.2052 6.35237 23.6948 6.71471C24.4173 7.24951 24.5739 6.7041 23.9559 5.80476C23.7332 5.48072 23.357 4.76112 23.1199 4.20567C22.6378 3.07677 22.4053 2.94146 21.6255 3.3361ZM22.6476 4.80715C23.0279 5.62088 23.0412 5.96442 22.6923 5.96442C22.5138 5.96442 22.4164 5.79727 22.222 5.15691C21.8253 3.85037 22.0963 3.62772 22.6476 4.80715ZM46.7958 4.37824C46.6556 5.07835 46.2682 5.79138 46.0282 5.79138C45.6977 5.79138 45.732 5.52906 46.1659 4.73897C46.5631 4.01556 46.9081 3.81806 46.7958 4.37824ZM18.8816 4.56939C18.5456 4.7159 17.9079 5.36156 17.9079 5.55536C17.9079 5.94965 18.2979 5.93477 18.6237 5.52813C19.2267 4.77554 19.8999 5.05286 19.4591 5.87225C19.2196 6.31741 19.3297 6.48815 19.7985 6.39851C20.0731 6.34591 20.443 6.62092 20.443 6.87759C20.443 7.18549 20.0035 7.44008 19.5885 7.3726C19.1069 7.29438 18.8257 7.52729 19.0602 7.81015C19.3846 8.20144 20.425 7.93208 20.8938 7.33545C21.2343 6.90205 21.194 6.57686 20.7311 6.0221C20.5092 5.75631 20.3277 5.43596 20.3277 5.31011C20.3277 4.69733 19.5278 4.28757 18.8816 4.56939ZM51.4525 5.83706C51.0957 6.03502 50.8729 6.44592 50.8677 6.91543C50.8645 7.22079 50.7737 7.35483 50.3739 7.64473C49.562 8.23351 49.953 8.59712 50.8533 8.09047C51.1022 7.95042 51.3879 7.86748 51.488 7.9059C51.6887 7.98307 51.7379 8.50449 51.555 8.61766C51.3434 8.74859 51.4206 9.25213 51.6524 9.25213C52.0058 9.25213 53.3987 7.18018 53.3987 6.65438C53.3987 6.13227 51.9881 5.53979 51.4525 5.83706ZM52.4538 6.5066C52.8623 6.91555 52.2107 7.61854 51.7825 7.23071C51.3902 6.87517 51.5612 6.36817 52.0736 6.36817C52.2067 6.36817 52.3778 6.43047 52.4538 6.5066ZM13.2123 8.11954C12.8156 8.42709 12.6082 8.67291 12.6095 8.83384C12.6131 9.22744 14.3139 11.3286 14.6291 11.3286C14.89 11.3286 16.1795 10.3696 16.1795 10.1755C16.1795 9.92674 15.9012 9.94531 15.4839 10.2217C14.9402 10.582 14.6176 10.6019 14.4487 10.286C14.2914 9.9918 14.3979 9.63477 14.6893 9.47869C14.9351 9.34695 14.9963 8.90386 14.7679 8.90974C14.6887 8.9117 14.5232 8.98957 14.4002 9.08278C13.5905 9.69591 13.1653 8.9312 13.9219 8.22267C14.6574 7.53398 14.0765 7.44954 13.2123 8.11954ZM35.3652 8.81319C34.8548 9.10297 34.8075 9.69049 35.2656 10.0512C35.659 10.3611 35.832 10.3526 36.177 10.0071C36.7939 9.38975 36.1131 8.38867 35.3652 8.81319ZM30.1053 9.25132C29.4074 9.95004 30.2995 10.9015 31.0779 10.2885C31.4705 9.97934 31.4815 9.56417 31.1069 9.18926C30.737 8.81884 30.5242 8.83199 30.1053 9.25132ZM56.6552 9.28097C56.5929 9.36033 56.4262 9.8145 56.2848 10.2903C55.9635 11.3719 55.7751 11.6012 55.2747 11.5198C54.7672 11.4374 54.6732 11.6509 55.0672 11.9904C55.4595 12.328 55.5414 12.3121 57.2567 11.566C58.9733 10.8192 59.1686 10.0549 57.4622 10.7621C56.9 10.995 56.7812 10.8051 57.0264 10.0659C57.2633 9.3518 57.0139 8.82461 56.6552 9.28097ZM40.2107 9.63961C39.6766 10.1743 40.1116 11.101 40.8156 10.9283C41.2563 10.8202 41.4532 10.5875 41.4532 10.175C41.4532 9.47477 40.6997 9.15003 40.2107 9.63961ZM11.4955 9.77435C11.4584 9.87125 11.5679 10.1525 11.7387 10.3994C12.296 11.2044 11.6247 11.6861 10.8522 11.0354C10.4761 10.7186 10.2671 10.715 10.2072 11.0245C10.1556 11.291 11.9965 13.232 12.3008 13.232C12.6438 13.232 12.6521 13.0145 12.324 12.6243C11.9419 12.1695 11.9379 11.7123 12.3145 11.5405C12.6079 11.4067 12.5901 11.3993 13.3795 11.9725C13.6646 12.1796 13.8749 12.108 13.8749 11.8041C13.8749 11.5832 11.9148 9.5982 11.6967 9.5982C11.6232 9.5982 11.5327 9.67745 11.4955 9.77435ZM25.2198 10.4582C24.534 11.1448 25.3717 12.1491 26.1313 11.5509C26.5988 11.1829 26.5408 10.5872 26.0104 10.3077C25.6507 10.1181 25.5381 10.1395 25.2198 10.4582ZM32.7098 10.6889C32.0239 11.3755 32.8616 12.3798 33.6212 11.7816C34.0887 11.4136 34.0308 10.8179 33.5004 10.5384C33.1406 10.3488 33.028 10.3702 32.7098 10.6889ZM37.4018 10.9034C37.0893 11.2365 37.0819 11.6052 37.3818 11.9054C37.7143 12.2383 38.2336 12.204 38.5277 11.8296C39.1051 11.0946 38.0426 10.2206 37.4018 10.9034ZM28.1905 11.2175C27.6147 11.449 27.6387 12.3759 28.2264 12.5996C28.6496 12.7606 28.7164 12.7466 29.0328 12.4297C29.6595 11.8023 29.021 10.8834 28.1905 11.2175ZM44.9472 11.3088C44.5349 11.7649 44.8827 12.5975 45.4854 12.5975C45.8059 12.5975 46.2545 12.154 46.2545 11.8371C46.2545 11.1856 45.3785 10.8317 44.9472 11.3088ZM58.0367 12.3846C57.0491 13.2613 56.8005 13.6322 57.0833 13.807C57.1451 13.8453 57.4053 13.7576 57.6614 13.612C58.2127 13.2988 58.3957 13.4328 58.2259 14.0253C58.0294 14.7113 58.0905 15.1562 58.3757 15.1146C58.5762 15.0853 58.6613 14.9469 58.7879 14.4432C58.9837 13.6656 59.1843 13.4294 59.7234 13.3423C61.0148 13.1336 61.0301 12.5233 59.7399 12.6763C59.1161 12.7502 58.9178 12.4811 59.3386 12.1315C59.5557 11.9512 59.5141 11.5165 59.2754 11.4712C59.1804 11.4532 58.6229 11.8642 58.0367 12.3846ZM42.0641 11.9138C41.6822 12.2145 41.6591 12.7246 42.0127 13.0544C42.5007 13.5097 43.2585 13.1639 43.2585 12.4861C43.2585 12.1522 42.8176 11.6746 42.5095 11.6746C42.4315 11.6746 42.2311 11.7823 42.0641 11.9138ZM9.18905 11.9712C9.14492 12.0862 9.27225 12.3089 9.53831 12.5817C10.3363 13.3998 9.77972 14.04 8.87263 13.3473C8.38348 12.9738 8.11338 12.9719 8.11338 13.3418C8.11338 14.0952 9.43553 14.524 10.199 14.0181C10.6647 13.7097 10.6681 13.7092 11.0545 13.9176C11.466 14.1394 11.8007 14.0975 11.8007 13.8241C11.8007 13.622 9.66368 11.79 9.42781 11.79C9.3347 11.79 9.22719 11.8716 9.18905 11.9712ZM34.8668 12.403C34.5438 12.7474 34.5491 13.0709 34.8829 13.3849C35.2486 13.7289 35.6955 13.7075 35.9906 13.3318C36.5958 12.5616 35.5381 11.6877 34.8668 12.403ZM20.5783 12.6337C20.2553 12.9781 20.2606 13.3017 20.5944 13.6157C20.9601 13.9597 21.407 13.9382 21.7021 13.5625C22.3073 12.7924 21.2496 11.9184 20.5783 12.6337ZM30.5204 12.65C30.0284 13.1425 30.3106 13.8953 30.9871 13.8953C31.338 13.8953 31.8507 13.4261 31.8507 13.105C31.8507 12.851 31.3217 12.3668 31.0441 12.3668C30.9116 12.3668 30.676 12.4943 30.5204 12.65ZM23.6274 12.952C23.1038 13.3643 23.4157 14.3279 24.0727 14.3279C24.5635 14.3279 25.0047 13.5116 24.7336 13.1051C24.4666 12.7048 24.0198 12.643 23.6274 12.952ZM39.2472 12.9481C38.7308 13.4297 39.0506 14.2125 39.764 14.2125C40.1815 14.2125 40.493 13.9026 40.493 13.4869C40.493 13.1287 40.0906 12.7129 39.744 12.7129C39.6094 12.7129 39.3859 12.8188 39.2472 12.9481ZM26.2779 13.6941C25.666 14.3067 26.3583 15.3162 27.1129 14.9118C27.8263 14.5296 27.5853 13.5204 26.7806 13.5204C26.5996 13.5204 26.3733 13.5986 26.2779 13.6941ZM46.5212 13.7519C45.7952 14.0448 46.0295 15.2508 46.8126 15.2508C47.4852 15.2508 47.792 14.465 47.3085 13.981C46.9367 13.6089 46.9014 13.5986 46.5212 13.7519ZM49.2589 13.9397C48.9494 14.3335 48.9578 14.5068 49.3029 14.8522C50.0118 15.562 51.0806 14.6215 50.3983 13.8883C50.0688 13.5342 49.5593 13.5573 49.2589 13.9397ZM32.6774 14.018C32.3544 14.3624 32.3597 14.686 32.6935 15C33.1795 15.4569 34.0401 15.1277 34.0401 14.4848C34.0401 13.8605 33.1208 13.5455 32.6774 14.018ZM36.8274 14.1017C36.5125 14.3954 36.5003 14.9163 36.8018 15.1896C37.5316 15.8507 38.5237 14.7919 37.8065 14.1172C37.4728 13.8035 37.1526 13.7984 36.8274 14.1017ZM60.0532 14.6939C58.9985 15.4725 58.7369 15.8099 59.0416 15.9985C59.1031 16.0366 59.3079 15.9877 59.4968 15.89C59.9766 15.6415 60.1325 15.6637 60.6765 16.0583C61.9374 16.9727 63.011 15.8086 62.1274 14.4851C61.5875 13.6763 61.407 13.6946 60.0532 14.6939ZM43.3938 14.3641C43.0502 14.7303 43.0716 15.1776 43.4469 15.473C44.2109 16.0748 45.1014 14.9967 44.389 14.3324C44.0577 14.0233 43.7031 14.0346 43.3938 14.3641ZM6.94264 14.4721C6.11587 15.1431 5.99972 15.826 6.71737 15.7974C7.32014 15.7734 8.4828 16.6255 8.5751 17.159C8.66648 17.6867 8.96216 17.6398 9.43253 17.0232C9.87743 16.4399 9.92353 16.0948 9.54937 16.1481C8.97737 16.2296 8.79185 16.1714 8.1786 15.7178C7.81816 15.4512 7.50485 15.1722 7.48227 15.0978C7.45968 15.0233 7.41002 14.8195 7.37176 14.6451C7.2949 14.2936 7.20652 14.258 6.94264 14.4721ZM28.8917 14.465C28.1514 14.8233 28.427 15.9429 29.2558 15.9429C29.521 15.9429 30.0071 15.4204 30.0071 15.1354C30.0071 14.6026 29.3829 14.2273 28.8917 14.465ZM61.6895 14.8401C61.9458 15.1491 61.7926 15.6499 61.4291 15.6917C60.8429 15.759 60.5825 15.3072 60.9641 14.885C61.1931 14.6317 61.501 14.6126 61.6895 14.8401ZM40.7435 15.0563C40.431 15.3894 40.4236 15.7581 40.7234 16.0583C41.056 16.3912 41.5752 16.3569 41.8694 15.9825C42.4468 15.2475 41.3843 14.3735 40.7435 15.0563ZM19.5412 15.4023C19.1976 15.7685 19.219 16.2158 19.5943 16.5113C20.3583 17.113 21.2488 16.035 20.5364 15.3706C20.2051 15.0616 19.8505 15.0729 19.5412 15.4023ZM16.5297 15.6186C15.8471 16.3521 16.9159 17.2926 17.625 16.5826C17.9701 16.2372 17.9786 16.0639 17.669 15.6701C17.3686 15.2877 16.8591 15.2646 16.5297 15.6186ZM22.3067 15.633C21.9933 15.9671 21.9882 16.2877 22.2911 16.6132C22.6206 16.9673 23.1301 16.9442 23.4305 16.5618C24.0357 15.7917 22.978 14.9177 22.3067 15.633ZM35.0772 15.4576C34.2163 15.7264 34.3632 16.9811 35.2556 16.9811C35.5547 16.9811 35.999 16.5266 35.999 16.2207C35.999 15.7399 35.4989 15.326 35.0772 15.4576ZM25.0793 15.8328C24.9358 15.89 24.7659 16.0748 24.7019 16.2434C24.3706 17.1157 25.5251 17.7135 26.0354 16.9338C26.4496 16.3011 25.7953 15.5478 25.0793 15.8328ZM31.0902 15.8004C30.6664 16.0838 30.6198 16.5669 30.9813 16.9286C31.6902 17.6384 32.7591 16.6979 32.0767 15.9647C31.8454 15.7162 31.3418 15.6324 31.0902 15.8004ZM38.4188 16.1736C38.1056 16.4872 38.1186 17.0344 38.4445 17.2629C39.0096 17.6592 39.6864 17.3345 39.6864 16.667C39.6864 16.3193 39.297 15.9429 38.9374 15.9429C38.7789 15.9429 38.5456 16.0467 38.4188 16.1736ZM47.1981 16.5242C46.732 16.9589 47.0723 17.904 47.6948 17.904C48.003 17.904 48.4438 17.4264 48.4438 17.0926C48.4438 16.7055 48.0556 16.289 47.6948 16.289C47.5603 16.289 47.3367 16.3949 47.1981 16.5242ZM44.6691 16.5313C44.2959 16.6705 44.1079 17.134 44.2754 17.502C44.5662 18.1411 45.4086 18.1391 45.7 17.4986C45.9405 16.9704 45.244 16.317 44.6691 16.5313ZM50.1204 16.6765C49.5863 17.2111 50.0213 18.1378 50.7254 17.9651C51.166 17.857 51.363 17.6244 51.363 17.2118C51.363 16.5116 50.6095 16.1869 50.1204 16.6765ZM27.3613 16.8876C26.6788 17.621 27.7475 18.5615 28.4566 17.8515C28.8018 17.5061 28.8102 17.3329 28.5007 16.939C28.2003 16.5566 27.6907 16.5335 27.3613 16.8876ZM5.28979 16.8665C5.25038 16.9303 5.28137 17.1573 5.35858 17.371C5.54652 17.8914 5.43682 18.1347 5.01404 18.1347C4.82645 18.1347 4.58965 18.2181 4.4879 18.32C4.18727 18.6209 4.46843 18.8269 5.17974 18.8269C6.01251 18.8269 6.10746 18.8797 6.56711 19.5991C7.16596 20.5363 7.59369 20.3349 7.17679 19.3119C6.99208 18.8586 7.16446 18.67 7.66698 18.7754C7.86402 18.8167 8.03629 18.7722 8.16074 18.6476C8.47013 18.3379 8.19185 18.1347 7.45795 18.1347C6.65791 18.1347 6.48599 18.0362 6.05134 17.329C5.71187 16.7767 5.44523 16.6147 5.28979 16.8665ZM32.8962 17.1697C32.5867 17.5636 32.5951 17.7368 32.9402 18.0822C33.446 18.5886 34.2706 18.2994 34.2706 17.6156C34.2706 16.9121 33.3366 16.6091 32.8962 17.1697ZM36.3971 17.2643C36.052 17.6097 36.0436 17.783 36.3531 18.1768C36.6658 18.5749 37.2856 18.5996 37.548 18.2243C38.109 17.4228 37.0887 16.5718 36.3971 17.2643ZM53.1264 17.1549C52.5146 17.7674 53.2069 18.7769 53.9615 18.3726C54.6749 17.9904 54.4338 16.9811 53.6292 16.9811C53.4482 16.9811 53.2218 17.0593 53.1264 17.1549ZM62.041 17.362C60.8003 17.6798 60.6006 17.7629 60.6006 17.9617C60.6006 18.1325 60.6902 18.2024 60.9463 18.2309C61.5496 18.2981 61.7264 18.5598 61.6393 19.2575C61.5235 20.1853 61.8265 20.0895 62.9103 18.8557C63.997 17.6185 64.1333 17.3641 63.8292 17.1415C63.5623 16.9462 63.7594 16.9218 62.041 17.362ZM41.9282 17.3797C41.2507 18.0578 42.166 19.1272 42.8952 18.5096C43.2916 18.1738 43.3276 17.732 42.9867 17.3906C42.6171 17.0207 42.29 17.0173 41.9282 17.3797ZM29.5986 17.6104C29.1754 18.0339 29.4454 18.9422 29.9943 18.9422C30.8934 18.9422 31.2034 17.7444 30.3849 17.4329C29.9835 17.2801 29.9123 17.2962 29.5986 17.6104ZM39.6948 18.0926C39.3853 18.4864 39.3937 18.6597 39.7388 19.0051C40.117 19.3838 40.6347 19.3833 40.883 19.0039C41.4276 18.1719 40.3075 17.3128 39.6948 18.0926ZM18.9029 18.1431C18.1424 18.742 18.9608 19.8951 19.7366 19.3179C20.1731 18.9932 20.2017 18.4644 19.8 18.1481C19.4136 17.8438 19.2839 17.8431 18.9029 18.1431ZM21.4444 18.0715C20.9994 18.517 21.1745 19.2071 21.7704 19.3568C22.1161 19.4437 22.5807 19.1714 22.6934 18.816C22.88 18.2275 21.8827 17.6328 21.4444 18.0715ZM24.2819 18.2509C23.7548 18.4635 23.6358 19.1081 24.0513 19.4989C24.7938 20.1972 25.7891 19.2007 25.0691 18.48C24.6974 18.1078 24.662 18.0976 24.2819 18.2509ZM16.1374 18.4892C15.6699 18.8572 15.7279 19.4529 16.2583 19.7324C16.618 19.922 16.7306 19.9006 17.0489 19.5819C17.7347 18.8953 16.897 17.891 16.1374 18.4892ZM34.501 18.3986C33.9334 18.6846 34.0953 19.6533 34.7364 19.8076C35.485 19.9877 35.9589 18.9689 35.3497 18.4892C34.9979 18.2121 34.8934 18.2009 34.501 18.3986ZM26.5822 18.6069C25.8418 18.8811 26.0665 20.0958 26.8576 20.0958C27.1322 20.0958 27.7025 19.6039 27.7025 19.3671C27.7025 18.8917 27.0354 18.439 26.5822 18.6069ZM31.1196 18.8071C30.7305 19.2375 31.1406 20.0958 31.7355 20.0958C31.9892 20.0958 32.5421 19.6198 32.5421 19.4013C32.5421 18.7198 31.5668 18.3124 31.1196 18.8071ZM37.3858 18.9346C37.0916 19.4849 37.4499 20.2112 38.0155 20.2112C38.6303 20.2112 39.0017 19.3081 38.5538 18.9024C38.2542 18.631 37.5376 18.6508 37.3858 18.9346ZM47.7525 19.0576C47.296 19.5145 47.6279 20.3265 48.271 20.3265C48.6408 20.3265 49.02 19.9469 49.02 19.5767C49.02 19.2065 48.6408 18.8269 48.271 18.8269C48.1126 18.8269 47.8792 18.9307 47.7525 19.0576ZM45.1546 19.2254C44.6303 19.7502 45.0754 20.6735 45.7705 20.503C46.4441 20.3377 46.6694 19.6932 46.2131 19.2364C45.8436 18.8664 45.5164 18.8631 45.1546 19.2254ZM13.1207 19.3408C12.7756 19.6862 12.7672 19.8594 13.0767 20.2533C13.3771 20.6357 13.8866 20.6587 14.2161 20.3047C14.8986 19.5713 13.8298 18.6307 13.1207 19.3408ZM42.9346 19.4081C42.4545 19.8557 42.8011 20.7879 43.4475 20.7879C43.7685 20.7879 44.1803 20.3162 44.1803 19.9487C44.1803 19.589 43.7786 19.1729 43.4313 19.1729C43.2967 19.1729 43.0732 19.2788 42.9346 19.4081ZM50.4228 19.4399C50.1094 19.7739 50.1043 20.0945 50.4072 20.4201C50.7367 20.7741 51.2462 20.751 51.5466 20.3686C52.1395 19.6142 51.0805 18.7391 50.4228 19.4399ZM64.7585 19.5714C64.5181 20.1475 63.1381 20.8371 62.6009 20.6496C62.0261 20.449 61.9533 20.6703 62.3407 21.4409C62.7481 22.2515 62.913 22.3197 63.1415 21.7721C63.3697 21.2255 64.7558 20.4998 65.2282 20.6796C65.3848 20.7391 65.5862 20.7879 65.676 20.7879C65.905 20.7879 66.0339 20.2136 65.8328 20.0892C65.7464 20.0357 65.6184 19.8207 65.5483 19.6113C65.3617 19.0536 64.9826 19.0345 64.7585 19.5714ZM28.1891 19.5833C27.6765 19.9426 28.0616 20.9033 28.7181 20.9033C29.0704 20.9033 29.4309 20.5039 29.4309 20.1137C29.4309 19.4926 28.7395 19.1973 28.1891 19.5833ZM3.75769 19.6574C3.55074 19.8646 3.58554 20.01 3.96188 20.5079C4.15028 20.757 4.30584 21.0518 4.30757 21.1629C4.31148 21.4065 4.33902 21.4051 3.73292 21.1911C3.19848 21.0023 2.88298 21.113 3.01008 21.4447C3.09293 21.6607 5.37967 22.749 5.75082 22.749C6.1948 22.749 6.19619 22.4159 5.75474 21.7845C5.27458 21.0979 5.34798 20.9579 6.08453 21.1551C6.53738 21.2764 6.6442 21.2741 6.72613 21.1413C6.90162 20.857 6.74779 20.7395 5.39465 20.1246C3.91855 19.4538 3.95162 19.4633 3.75769 19.6574ZM40.4419 19.8908C40.0501 20.4508 40.3523 21.134 40.9918 21.134C41.379 21.134 41.7605 20.7619 41.7605 20.3842C41.7605 19.7216 40.8093 19.3656 40.4419 19.8908ZM53.3035 20.132C52.6675 20.81 53.5188 21.8147 54.2449 21.243C54.6189 20.9485 54.6531 20.4287 54.3206 20.0958C54.0146 19.7895 53.6116 19.8039 53.3035 20.132ZM32.8962 20.3998C32.303 21.1547 33.3596 22.046 34.0401 21.3647C34.5149 20.8895 34.1597 20.0958 33.4724 20.0958C33.2451 20.0958 33.057 20.195 32.8962 20.3998ZM35.821 20.379C35.3905 20.8099 35.4494 21.3077 35.9626 21.5781C36.7864 22.0122 37.4669 20.9132 36.7324 20.3349C36.3391 20.0251 36.166 20.0335 35.821 20.379ZM23.3762 20.6097C23.031 20.9551 23.0226 21.1284 23.3321 21.5222C23.7601 22.067 24.7065 21.8091 24.7065 21.1476C24.7065 20.4362 23.8822 20.1029 23.3762 20.6097ZM21.0275 20.7458C20.718 21.1397 20.7264 21.3129 21.0716 21.6583C21.6832 22.2708 22.6661 21.6214 22.2694 20.8668C21.9902 20.3359 21.3951 20.2778 21.0275 20.7458ZM18.6264 20.6769C18.0506 20.9084 18.0747 21.8353 18.6623 22.059C19.0856 22.22 19.1523 22.2059 19.4687 21.889C20.0954 21.2617 19.457 20.3428 18.6264 20.6769ZM30.1307 20.8612C29.5375 21.6161 30.594 22.5075 31.2746 21.8262C31.57 21.5304 31.5683 21.1301 31.2701 20.8097C30.9407 20.4557 30.4311 20.4788 30.1307 20.8612ZM25.3027 21.0549C24.9898 21.3883 24.9873 21.5971 25.291 21.9836C25.7226 22.5329 26.6654 22.2259 26.6654 21.5362C26.6654 20.899 25.7519 20.5764 25.3027 21.0549ZM38.4943 20.9989C38.0545 21.4854 38.4044 22.2876 39.0565 22.2876C39.6678 22.2876 40.0371 21.3831 39.5908 20.9789C39.3112 20.7254 38.7319 20.736 38.4943 20.9989ZM56.3371 21.0412C55.8266 21.3309 55.7794 21.9185 56.2374 22.2792C56.747 22.6805 57.4318 22.3546 57.4318 21.7108C57.4318 21.1516 56.8113 20.7719 56.3371 21.0412ZM16.1012 21.2712C15.7007 21.465 15.5346 21.9925 15.764 22.3427C16.2809 23.1326 17.4411 22.5478 17.1063 21.6663C17.0177 21.4327 16.5308 21.0842 16.3736 21.1419C16.3619 21.1461 16.2394 21.2043 16.1012 21.2712ZM43.2074 21.3905C42.8461 21.9069 43.1992 22.749 43.777 22.749C44.0766 22.749 44.526 22.2716 44.526 21.9533C44.526 21.2688 43.5762 20.8633 43.2074 21.3905ZM45.7308 21.4172C45.0439 22.1048 45.9602 23.1812 46.6926 22.5472C47.1048 22.1904 47.1168 21.8644 46.7323 21.4793C46.3135 21.06 46.1006 21.0468 45.7308 21.4172ZM48.1244 21.5066C47.5971 21.7611 47.6464 22.6293 48.2015 22.8594C48.9911 23.1868 49.5779 22.2589 48.9676 21.6479C48.6589 21.3388 48.5205 21.3156 48.1244 21.5066ZM27.6604 21.7192C27.2524 22.0404 27.2524 22.5348 27.6604 22.856C28.4816 23.5028 29.3668 22.4282 28.5746 21.7461C28.1944 21.4186 28.0476 21.4142 27.6604 21.7192ZM34.346 21.9218C33.8932 22.4228 34.1512 23.1462 34.8313 23.2823C35.1804 23.3522 35.1938 23.3749 35.122 23.7733C34.9603 24.6716 34.5877 24.8209 34.4571 24.0397C34.3505 23.4024 34.2291 23.2827 33.6738 23.2673L33.1759 23.2537L33.2133 22.8317C33.2865 22.0067 32.4605 21.5513 31.9032 22.1094C31.3537 22.6593 31.741 23.4412 32.5629 23.4412C32.9394 23.4412 33.0144 23.4758 32.9577 23.6237C32.9193 23.724 32.8878 24.0096 32.8878 24.2581C32.8878 24.8967 32.5558 24.8767 32.251 24.2198C32.0239 23.7303 32.0228 23.7296 31.4186 23.7455L30.8137 23.7613V23.3907C30.8137 22.5754 29.872 22.2454 29.3917 22.8923C28.9377 23.5037 29.5101 24.2497 30.2715 24.0392L30.6722 23.9285L30.7491 24.5092C30.8443 25.2274 30.662 25.4937 30.3706 25.0624C29.8454 24.2853 29.8488 24.2871 29.259 24.4968C28.7613 24.6739 28.7196 24.6739 28.6676 24.4968C28.4327 23.6968 27.9311 23.38 27.4251 23.7119C26.5275 24.3007 27.3144 25.4977 28.2729 25.0015C28.5504 24.8578 28.6371 24.8499 28.6677 24.9656C28.6893 25.0472 28.7694 25.3083 28.8457 25.5458C29.0792 26.2729 28.8522 26.4001 28.2786 25.8637C27.84 25.4536 27.7278 25.4423 27.1973 25.7557L26.7942 25.9938L26.6133 25.6438C26.2706 24.9804 25.5863 24.8918 25.2128 25.4625C24.7544 26.1627 25.6299 26.903 26.3729 26.4433C26.7603 26.2035 26.7844 26.2015 26.857 26.4022C26.899 26.5185 27.035 26.7603 27.1593 26.9396C27.5105 27.4468 27.2618 27.5828 26.6132 27.2382C26.1728 27.0044 26.0544 26.9834 25.8596 27.1044C25.7324 27.1834 25.53 27.309 25.4097 27.3837C25.2271 27.4971 25.1311 27.4687 24.8248 27.2106C23.9866 26.5046 22.9527 27.4638 23.7218 28.2337C24.0644 28.5768 24.4825 28.5978 24.7641 28.2862C25.0348 27.9868 25.1028 27.994 25.5768 28.3727C26.201 28.8713 26.0188 29.2837 25.3326 28.9255C24.8308 28.6636 24.6353 28.7053 24.2995 29.146C23.934 29.6256 23.9845 29.8599 24.5334 30.2334C25.1285 30.638 25.075 30.8744 24.4091 30.783C23.7757 30.6961 23.5187 30.8142 23.3256 31.2812C23.1584 31.6851 23.1179 31.6947 22.6069 31.4507C21.6774 31.0069 20.971 32.2286 21.8499 32.7597C22.3616 33.0689 22.8679 32.7848 23.1273 32.0433C23.1479 31.9843 23.4106 32.0551 23.7111 32.2007C24.3682 32.5192 24.4207 32.8664 23.8026 32.8056C23.3085 32.757 22.8941 33.0383 22.7695 33.5068C22.695 33.7862 22.6139 33.8719 22.4495 33.8445C21.5098 33.6886 21.1344 33.8653 21.1344 34.4638C21.1344 35.0791 21.6422 35.431 22.2152 35.213C22.4923 35.1075 22.622 34.9199 22.7863 34.3868C22.8369 34.2226 22.9104 34.2173 23.4006 34.3417C24.1275 34.5262 24.2056 34.8092 23.5598 34.9184C23.0134 35.0108 22.7476 35.3216 22.7476 35.8679C22.7476 36.239 22.7381 36.2459 22.229 36.2459C21.3335 36.2459 20.9631 36.8925 21.5325 37.4624C22.0911 38.0218 22.8573 37.666 22.8611 36.8456L22.8628 36.4645L23.4667 36.4995C24.2665 36.5456 24.3674 36.845 23.6763 37.1219C23.1899 37.3166 23.0386 37.5811 23.1127 38.1068C23.1435 38.3253 23.0776 38.4015 22.7714 38.5015C21.9793 38.7605 21.7554 39.2006 22.1271 39.7684C22.5617 40.4324 23.6594 39.9006 23.5091 39.0989L23.4361 38.7087L24.034 38.5705C24.8664 38.3782 24.9778 38.5846 24.339 39.1358C23.8483 39.5593 23.8388 39.603 24.0751 40.3637C24.1421 40.5788 24.0971 40.6315 23.7762 40.7148C23.1835 40.8686 22.9087 41.3142 23.1357 41.7537C23.571 42.5964 24.7216 42.2262 24.5478 41.2993C24.4428 40.7388 24.4625 40.705 25.0181 40.4939C25.6621 40.2492 25.7994 40.4503 25.3519 40.9828C25.0032 41.3977 24.986 41.5513 25.2349 42.033C25.4163 42.3841 25.4146 42.3895 25.0045 42.7279C24.5127 43.1337 24.4516 43.605 24.8435 43.9704C25.5329 44.6136 26.5544 43.6795 25.974 42.9367C25.6677 42.5446 25.6779 42.5135 26.1999 42.2469C26.982 41.8474 27.2414 42.0009 26.7806 42.5906C26.4894 42.9632 26.4894 43.4227 26.7806 43.6865C27.0777 43.9557 27.0711 44.0432 26.723 44.4574C26.3502 44.9009 26.3555 45.28 26.7386 45.5815C27.4692 46.1569 28.3808 45.2896 27.8297 44.5432C27.5128 44.1142 27.5174 44.0879 27.9908 43.6286C28.5062 43.1286 28.7638 43.2746 28.4678 43.8991C28.2067 44.45 28.2225 44.5268 28.6842 44.9503L29.0898 45.3222L28.8379 45.6429C28.3488 46.2654 28.6146 46.9621 29.3445 46.9706C30.1097 46.9794 30.379 46.088 29.764 45.5818L29.4037 45.2853L29.7342 44.8055C30.1904 44.1432 30.4104 44.21 30.4104 45.011C30.4104 45.5954 30.4366 45.6556 30.7864 45.8742C31.0934 46.066 31.1503 46.1619 31.0962 46.3975C30.9046 47.2337 30.9076 47.299 31.1479 47.5396C31.6431 48.0353 32.4653 47.6824 32.4653 46.9743C32.4653 46.6088 32.3362 46.4386 31.8087 46.1091C31.6411 46.0043 31.6446 45.9485 31.8469 45.5034C32.1278 44.8862 32.4269 44.8454 32.4269 45.4245C32.4269 46.0144 32.5972 46.2548 33.1275 46.4138C33.6179 46.5609 33.6068 46.526 33.3997 47.2692C33.2237 47.9005 34.1909 48.3334 34.6809 47.8428C35.1845 47.3388 34.8843 46.5128 34.1977 46.5128C33.8363 46.5128 33.7995 46.3987 33.9725 45.8126C34.1745 45.1275 34.5214 45.0962 34.6281 45.7535C34.7144 46.2854 34.9763 46.5128 35.5025 46.5128C35.8667 46.5128 35.8838 46.5323 35.8838 46.9485C35.8838 47.7809 36.4953 48.1596 37.1256 47.7175C37.7212 47.2999 37.1788 46.1817 36.4576 46.3402L36.1161 46.4153L36.1526 45.8008C36.1982 45.0343 36.4758 44.8979 36.7336 45.5154C36.9646 46.0691 37.2596 46.2085 37.8587 46.0471L38.3346 45.9187L38.2633 45.2352C38.1774 44.4126 38.3021 44.3582 38.886 44.9636C39.2871 45.3794 39.4168 45.4042 40.0897 45.1931C40.2774 45.1343 40.3556 45.2063 40.5112 45.5813C40.8451 46.3864 41.8883 46.333 41.969 45.5067C42.0258 44.925 41.6502 44.629 40.9733 44.7216L40.4354 44.7952L40.2451 44.2617C40.0066 43.593 40.1952 43.4546 40.7306 43.9056C41.1314 44.2433 41.4943 44.2865 41.8249 44.0363C42.1363 43.8005 42.3083 43.8192 42.3968 44.0983C42.667 44.9506 43.9499 44.8011 43.9499 43.9173C43.9499 43.2725 43.367 42.953 42.8098 43.2921C42.3213 43.5895 42.3183 43.5884 42.0011 42.9898C41.6559 42.3382 41.7975 42.0755 42.2864 42.4604C42.7085 42.7929 43.1217 42.7698 43.5156 42.3921L43.8429 42.0781L44.0981 42.3811C44.6288 43.0117 45.0901 43.034 45.4996 42.4487C46.0408 41.675 44.8797 40.9394 44.1785 41.6118L43.876 41.902L43.5097 41.4456C43.0507 40.8739 43.0369 40.6918 43.4601 40.7961C44.3713 41.0207 44.4161 41.0158 44.796 40.6472L45.1641 40.2899L45.5077 40.5167C46.3499 41.0724 47.2609 40.2413 46.629 39.4936C46.2678 39.0664 45.8403 39.0554 45.4595 39.4635C45.0602 39.8914 45.0862 39.8885 44.5834 39.5625C43.9427 39.147 44.0417 38.9071 44.8428 38.9344C45.4867 38.9563 45.5105 38.9461 45.6969 38.5728C45.9579 38.05 45.9564 38.0507 46.3532 38.2562C47.0113 38.5969 47.6372 38.3198 47.6372 37.6879C47.6372 36.8573 46.4773 36.6573 46.1033 37.4234L45.8945 37.851L45.3831 37.6023C44.7279 37.2836 44.6756 36.9381 45.2826 36.9381C45.8722 36.9381 46.1146 36.766 46.2539 36.2481C46.3685 35.822 46.3952 35.7999 46.6686 35.904C47.5646 36.245 48.3799 35.3744 47.7525 34.7463C47.2496 34.2429 46.5296 34.5003 46.379 35.2372C46.3371 35.443 46.2529 35.5949 46.1921 35.5744C46.1314 35.5541 45.8596 35.478 45.5882 35.4053C44.9718 35.2404 44.9848 34.9891 45.6189 34.8111C46.1494 34.6622 46.4044 34.2787 46.3008 33.7858L46.2323 33.4599L46.7331 33.5343C47.8125 33.6947 48.2029 32.3616 47.1725 32.0341C46.7029 31.8849 46.1955 32.3347 46.2075 32.8894C46.217 33.3325 46.1949 33.3732 45.977 33.3146C45.8444 33.2789 45.5415 33.2491 45.3038 33.2482C44.7104 33.2461 44.7476 33.0069 45.3902 32.6943C45.9023 32.4452 45.9088 32.435 45.9088 31.8638C45.9088 31.3389 45.933 31.2855 46.1712 31.2855C46.8155 31.2855 47.2731 30.6538 47.0049 30.1347C46.5957 29.3424 45.6207 29.6735 45.6207 30.6046V31.107L45.056 31.2019C44.2226 31.3418 44.1224 31.1528 44.7451 30.6159C45.218 30.2081 45.2414 30.1601 45.1493 29.7826C45.0104 29.213 45.0046 29.2284 45.4466 29.0069C45.9663 28.7464 46.1353 28.3005 45.8688 27.8932C45.5966 27.4774 45.1576 27.3917 44.7753 27.6799C44.4708 27.9093 44.4439 28.0477 44.5483 28.8439C44.578 29.07 44.5029 29.1407 44.08 29.2855C43.3744 29.527 43.241 29.3499 43.7044 28.7871C44.1227 28.279 44.1438 28.1051 43.8346 27.7094C43.5362 27.3275 43.5443 27.2849 43.9548 27.0724C44.6478 26.7137 44.6657 25.9541 43.9882 25.6452C43.3099 25.3358 42.633 26.2335 43.0893 26.8374C43.325 27.1495 43.3162 27.1692 42.7872 27.5159C42.054 27.9964 41.8868 27.8446 42.3362 27.1066C42.6388 26.6098 42.6292 26.5193 42.2257 26.0592L41.8844 25.67L42.2241 25.4185C42.8902 24.9255 42.6646 24.018 41.8757 24.018C41.1531 24.018 40.8183 24.9572 41.3824 25.4016L41.6957 25.6482L41.2384 26.0401C40.6641 26.532 40.4369 26.5592 40.5441 26.1233C40.7685 25.2111 40.7635 25.1663 40.3954 24.7859L40.0385 24.4175L40.265 24.0735C40.5736 23.6049 40.5505 23.2724 40.1893 22.9882C39.362 22.3366 38.444 23.4025 39.213 24.1217C39.6404 24.5214 39.6375 24.4954 39.3119 24.9987C38.925 25.5965 38.4559 25.5455 38.6707 24.929C38.8409 24.4402 38.7084 24.0705 38.3026 23.9022C37.838 23.7095 37.815 23.6511 38.0155 23.1706C38.3397 22.3941 37.639 21.6707 36.981 22.1023C36.4036 22.4811 36.4708 23.2458 37.1048 23.511C37.3205 23.6012 37.497 23.6937 37.497 23.7164C37.497 23.9396 36.9864 24.8255 36.8578 24.8255C36.6691 24.8255 36.6676 24.8216 36.6328 24.1994C36.6041 23.6859 36.2648 23.3258 35.8095 23.3258C35.5418 23.3258 35.5333 23.3023 35.6048 22.7622C35.722 21.8776 34.8888 21.3214 34.346 21.9218ZM50.5704 21.994C49.8846 22.6806 50.7223 23.6849 51.4819 23.0867C51.9494 22.7187 51.8914 22.123 51.361 21.8435C51.0012 21.6539 50.8887 21.6753 50.5704 21.994ZM41.1216 22.1094C40.4198 22.8118 41.3596 23.8821 42.0844 23.206C42.4381 22.8762 42.415 22.366 42.033 22.0653C41.6396 21.7555 41.4666 21.7639 41.1216 22.1094ZM64.5885 22.3854C63.0856 22.9705 62.7853 23.5557 64.1295 23.2801C65.0759 23.086 65.3681 23.6984 64.5752 24.2139C63.8796 24.6659 63.8409 24.7158 64.0348 24.9098C64.2557 25.1311 66.7658 24.249 67.0171 23.862C67.1749 23.6189 66.9548 23.5351 66.3556 23.6101C65.3408 23.737 65.0562 23.0455 65.93 22.576C66.1662 22.4491 66.3767 22.2545 66.398 22.1434C66.4597 21.8211 65.8177 21.907 64.5885 22.3854ZM13.2359 22.3401C12.8908 22.6855 12.8824 22.8587 13.1919 23.2526C13.4948 23.6382 13.9737 23.654 14.3157 23.2896C15.0056 22.5544 13.9494 21.6257 13.2359 22.3401ZM2.61184 22.637C2.321 22.7541 1.892 23.3908 1.89143 23.7065C1.88947 24.6565 3.75066 25.6791 4.67895 25.2382C5.4117 24.8901 5.70646 23.9155 5.22491 23.4335C4.86586 23.074 4.63759 23.3091 4.80743 23.8634C5.02902 24.586 4.46255 24.8755 3.49554 24.5341C2.52323 24.1905 2.24253 23.5076 2.92803 23.1528C3.34067 22.9391 3.30587 22.3687 2.88978 22.5256C2.87918 22.5296 2.75404 22.5798 2.61184 22.637ZM20.7971 22.9376C20.196 23.7025 21.2729 24.594 21.9365 23.8808C22.2452 23.5492 22.2339 23.1941 21.9048 22.8845C21.539 22.5405 21.0922 22.5619 20.7971 22.9376ZM22.936 22.8728C22.5244 23.1969 22.5279 23.6883 22.9443 24.0161C23.7227 24.6291 24.6148 23.6777 23.9168 22.9789C23.5089 22.5706 23.3425 22.5526 22.936 22.8728ZM53.0575 22.8862C52.375 23.6196 53.4438 24.5602 54.1529 23.8501C54.498 23.5047 54.5064 23.3315 54.1969 22.9376C53.8965 22.5552 53.387 22.5322 53.0575 22.8862ZM25.3704 23.1035C25.0243 23.3055 24.9016 23.654 25.0503 24.0135C25.3041 24.6268 25.9817 24.6919 26.4024 24.1434C26.8499 23.56 26.0206 22.7243 25.3704 23.1035ZM18.6725 23.3342C18.2873 23.6375 18.2715 24.1169 18.6355 24.4593C19.1294 24.9238 19.8668 24.5927 19.8668 23.9065C19.8668 23.5727 19.426 23.0951 19.1178 23.0951C19.0398 23.0951 18.8394 23.2027 18.6725 23.3342ZM45.6694 23.4323C45.1569 23.9454 45.4573 24.7101 46.1715 24.7101C46.8499 24.7101 47.1411 23.8988 46.6421 23.3992C46.2541 23.0109 46.0847 23.0165 45.6694 23.4323ZM10.5856 23.609C10.2495 23.9454 10.2269 24.2448 10.5113 24.5964C10.8047 24.959 11.3144 24.936 11.6502 24.545C12.2968 23.7926 11.2881 22.9057 10.5856 23.609ZM43.4469 23.6803C42.9233 24.0926 43.2352 25.0562 43.8923 25.0562C44.383 25.0562 44.8242 24.2399 44.5531 23.8334C44.2861 23.4331 43.8394 23.3713 43.4469 23.6803ZM76.5105 23.6224C76.2343 23.899 76.2343 44.2092 76.5105 44.4859C76.7757 44.7514 79.5705 44.7514 79.8358 44.4859C80.1109 44.2104 80.1021 35.5012 79.8245 33.1812C79.5189 30.628 79.7814 30.5397 80.8692 32.83C81.8348 34.8634 81.6724 34.7463 83.5268 34.7463C85.4159 34.7463 85.3073 34.8222 86.2912 32.814C87.3693 30.6135 87.6396 30.692 87.3438 33.1203C87.0764 35.3164 87.0751 44.2185 87.3421 44.4859C87.6074 44.7514 90.4021 44.7514 90.6674 44.4859C90.9436 44.2092 90.9436 23.899 90.6674 23.6224C90.4207 23.3755 87.5515 23.3564 87.2194 23.5995C87.1005 23.6864 86.2947 25.2309 85.4286 27.0314C84.1462 29.6973 83.8074 30.3119 83.6037 30.3421C83.3812 30.3752 83.1748 30.0114 81.7382 27.0544C80.8497 25.2258 80.0372 23.6647 79.9326 23.5854C79.629 23.3552 76.7463 23.3865 76.5105 23.6224ZM94.3711 23.6224C94.0949 23.899 94.0949 44.2092 94.3711 44.4859C94.6364 44.7514 97.4312 44.7514 97.6964 44.4859C97.8542 44.3278 97.8775 43.78 97.8775 40.2258C97.8775 36.6716 97.9007 36.1238 98.0585 35.9657C98.3308 35.6933 104.568 35.6933 104.841 35.9657C104.998 36.1238 105.022 36.6716 105.022 40.2258C105.022 43.78 105.045 44.3278 105.203 44.4859C105.468 44.7514 108.263 44.7514 108.528 44.4859C108.804 44.2092 108.804 23.899 108.528 23.6224C108.263 23.3569 105.468 23.3569 105.203 23.6224C105.045 23.7803 105.022 24.3231 105.022 27.8248C105.022 31.3265 104.998 31.8692 104.841 32.0272C104.568 32.2997 98.3308 32.2997 98.0585 32.0272C97.9008 31.8692 97.8775 31.3265 97.8775 27.8248C97.8775 22.9806 98.0712 23.4412 96.0338 23.4412C94.8406 23.4412 94.517 23.4765 94.3711 23.6224ZM115.825 23.6431C115.726 23.754 114.862 26.0867 113.905 28.8267L112.166 33.8084V35.5381C112.166 37.8456 111.798 37.6302 115.738 37.6302C118.503 37.6302 118.973 37.6554 119.129 37.8115C119.285 37.9674 119.31 38.4335 119.31 41.1487C119.31 44.9969 119.137 44.6671 121.154 44.6671C123.17 44.6671 122.998 44.9969 122.998 41.1487C122.998 37.3084 122.834 37.6302 124.784 37.6302C126.635 37.6302 126.57 37.6955 126.57 35.8422C126.57 33.9888 126.635 34.0541 124.784 34.0541C122.932 34.0541 122.998 34.1194 122.998 32.2661C122.998 30.4066 123.071 30.478 121.154 30.478C119.237 30.478 119.31 30.4066 119.31 32.2661C119.31 34.1371 119.379 34.0705 117.484 34.0286L116.026 33.9965L115.992 33.7001C115.973 33.5363 116.705 31.2707 117.628 28.6358C118.924 24.9401 119.274 23.8197 119.186 23.6545C119.018 23.3407 116.102 23.3308 115.825 23.6431ZM130.208 23.6224C129.888 23.943 129.94 38.1857 130.265 39.3621C132.221 46.427 142.45 46.3027 144.256 39.1922C144.523 38.1392 144.517 23.8906 144.249 23.6224C144.041 23.414 141.401 23.3567 141.089 23.554C140.939 23.6487 140.908 24.643 140.858 30.9667L140.801 38.27L140.422 39.0389C139.104 41.7195 135.353 41.7195 134.035 39.0389L133.656 38.27L133.599 30.9667C133.549 24.643 133.518 23.6487 133.368 23.554C133.056 23.3567 130.416 23.414 130.208 23.6224ZM48.0354 23.9551C47.6933 24.2974 47.6861 24.4267 47.9817 24.912C48.3107 25.4525 48.9889 25.3423 49.2523 24.7056C49.5732 23.93 48.6371 23.3526 48.0354 23.9551ZM16.1374 24.0264C15.7554 24.3271 15.7324 24.8372 16.086 25.1671C16.574 25.6223 17.3318 25.2765 17.3318 24.5987C17.3318 24.2648 16.8909 23.7873 16.5828 23.7873C16.5048 23.7873 16.3044 23.8949 16.1374 24.0264ZM55.7767 24.0763C55.1649 24.6889 55.8572 25.6984 56.6118 25.2941C57.3252 24.9119 57.0841 23.9026 56.2795 23.9026C56.0984 23.9026 55.8721 23.9808 55.7767 24.0763ZM50.1723 24.5948C49.7282 25.0394 50.0921 25.8637 50.7323 25.8637C51.0181 25.8637 51.555 25.3878 51.555 25.1346C51.555 24.5065 50.6236 24.1429 50.1723 24.5948ZM65.7383 25.1802C64.1477 25.6118 63.7375 26.096 64.7583 26.3371C64.9433 26.3809 65.2371 26.4489 65.4114 26.4884C65.8662 26.5915 65.8019 26.8474 65.2674 27.0615C64.9439 27.1911 64.8065 27.3153 64.8065 27.4778C64.8065 27.8014 65.1824 27.7801 66.6325 27.3745C67.9544 27.0048 68.1522 26.8868 67.9608 26.5815C67.8465 26.3993 67.6997 26.3351 66.8901 26.1131C66.4228 25.9851 66.4805 25.7635 67.0439 25.5218C67.5973 25.2843 67.6616 25.1921 67.4337 24.9639C67.2533 24.7833 67.1561 24.7956 65.7383 25.1802ZM13.6444 25.1716C13.2003 25.6161 13.5642 26.4405 14.2044 26.4405C14.4902 26.4405 15.0272 25.9646 15.0272 25.7114C15.0272 25.0833 14.0958 24.7197 13.6444 25.1716ZM23.0996 25.2473C22.8259 25.5956 22.8698 25.9258 23.2313 26.2386C23.9268 26.8407 24.8952 25.8219 24.2456 25.1716C23.913 24.8386 23.3938 24.8729 23.0996 25.2473ZM20.8087 25.3231C20.3087 25.8561 20.6341 26.5559 21.3821 26.5559C21.6945 26.5559 22.1714 26.1028 22.1714 25.806C22.1714 25.1766 21.252 24.8509 20.8087 25.3231ZM52.6005 25.4755C52.291 25.8694 52.2994 26.0426 52.6445 26.388C53.1363 26.8805 53.9749 26.5635 53.9749 25.8852C53.9749 25.2139 53.0278 24.9316 52.6005 25.4755ZM1.33037 25.6041C0.741662 26.7067 0.814027 27.5139 1.51843 27.6997C3.49969 28.2223 3.98469 28.3128 4.11364 28.1837C4.3918 27.9052 4.02191 27.6636 2.8854 27.3816C1.68609 27.084 1.42405 26.8827 1.66051 26.4405C1.81791 26.146 2.11566 26.1484 3.33261 26.454C4.33419 26.7054 4.65648 26.69 4.65648 26.3905C4.65648 26.1471 4.39975 26.0349 3.07276 25.6982C1.69381 25.3482 1.47337 25.3363 1.33037 25.6041ZM18.7787 25.6587C18.2121 26.4684 19.2098 27.2975 19.9088 26.5978C20.2826 26.2235 20.2923 25.9789 19.9459 25.6531C19.5888 25.3174 19.0156 25.32 18.7787 25.6587ZM45.5943 25.5286C45.1813 25.6816 44.9433 26.143 45.1128 26.4616C45.4313 27.0601 45.9461 27.1803 46.3497 26.7503C46.9093 26.1538 46.3499 25.2488 45.5943 25.5286ZM58.4268 25.6414C57.9032 26.0537 58.2151 27.0173 58.8721 27.0173C59.1782 27.0173 59.6211 26.5397 59.6211 26.2098C59.6211 25.8799 59.1782 25.4023 58.8721 25.4023C58.7941 25.4023 58.5938 25.5099 58.4268 25.6414ZM47.6284 25.8548C47.2176 26.2661 47.2059 26.4806 47.5744 26.8494C48.3249 27.6009 49.3439 26.6026 48.6222 25.8229C48.2595 25.4311 48.0447 25.438 47.6284 25.8548ZM11.277 26.493C10.6653 27.1053 11.3139 28.0893 12.0676 27.6921C12.598 27.4126 12.656 26.8169 12.1885 26.4489C11.7951 26.1391 11.622 26.1475 11.277 26.493ZM16.754 26.5339C16.2395 26.9511 16.5647 27.8248 17.2344 27.8248C17.9333 27.8248 18.2581 27.0477 17.7565 26.5759C17.4316 26.2703 17.0965 26.2564 16.754 26.5339ZM55.0851 26.6796C54.6999 26.9829 54.6841 27.4623 55.0481 27.8047C55.542 28.2692 56.2795 27.9381 56.2795 27.2519C56.2795 26.9181 55.8386 26.4405 55.5305 26.4405C55.4525 26.4405 55.2521 26.5481 55.0851 26.6796ZM49.879 26.8391C49.1575 27.5613 49.9914 28.561 50.7905 27.9317C51.258 27.5637 51.2 26.968 50.6696 26.6885C50.3099 26.499 50.1973 26.5203 49.879 26.8391ZM21.7681 27.2705C21.2577 27.5603 21.2104 28.1478 21.6684 28.5085C22.4412 29.1172 23.2778 28.1143 22.5799 27.4158C22.2678 27.1033 22.1119 27.0754 21.7681 27.2705ZM14.3558 27.7457C13.6521 28.4956 14.6551 29.484 15.3817 28.7565C15.7746 28.3633 15.7651 28.0398 15.35 27.6806C15.0296 27.4032 14.6543 27.4277 14.3558 27.7457ZM35.7699 27.6447C36.0559 27.652 36.4174 27.7474 36.5734 27.8567C36.7293 27.966 37.0064 28.0555 37.1891 28.0555C37.3754 28.0555 37.6718 28.1822 37.8638 28.3439C38.0521 28.5025 38.3447 28.6661 38.5141 28.7073C38.6835 28.7484 39.0139 28.969 39.2481 29.1974C39.4825 29.426 39.7821 29.7167 39.9141 29.8436C40.4181 30.3285 40.923 31.012 41.047 31.3775C41.118 31.5866 41.2817 31.8921 41.4107 32.0564C41.5397 32.2205 41.6453 32.5071 41.6453 32.693C41.6453 32.879 41.7102 33.1444 41.7893 33.2831C41.9164 33.5054 41.9481 33.7695 41.9924 34.977C42.0119 35.5104 41.8485 36.6484 41.7314 36.795C41.6674 36.8751 41.5704 37.1803 41.5156 37.4735C41.4569 37.788 41.2979 38.1249 41.1274 38.2955C40.9686 38.4545 40.8387 38.6986 40.8387 38.8379C40.8387 38.994 40.6649 39.2311 40.3858 39.4556C40.1368 39.6559 39.9008 39.9215 39.8614 40.0457C39.822 40.17 39.683 40.3056 39.5525 40.347C39.422 40.3886 39.1265 40.5908 38.8958 40.7964C38.6652 41.002 38.3055 41.2285 38.0965 41.2996C37.8876 41.3706 37.5825 41.5345 37.4184 41.6636C37.2544 41.7928 36.9691 41.8985 36.7843 41.8985C36.5996 41.8985 36.3085 41.966 36.1373 42.0485C35.9316 42.1477 35.4749 42.1857 34.7891 42.161C34.2187 42.1405 33.5554 42.1239 33.3152 42.1241C33.0749 42.1244 32.6868 42.0218 32.4527 41.8962C32.2185 41.7706 31.8916 41.6678 31.7263 41.6678C31.5608 41.6678 31.3313 41.5635 31.216 41.436C31.1008 41.3087 30.8084 41.1449 30.566 41.0722C30.3238 40.9995 30.0445 40.8162 29.9454 40.6648C29.8463 40.5135 29.5847 40.3035 29.3641 40.1981C29.1434 40.0928 28.9345 39.8935 28.8998 39.7551C28.8651 39.6169 28.6593 39.3315 28.4425 39.1211C28.2256 38.9107 28.0481 38.6522 28.0481 38.5465C28.0481 38.441 27.9185 38.1633 27.7601 37.9296C27.5997 37.6931 27.472 37.3393 27.472 37.1317C27.472 36.9266 27.3986 36.6538 27.3091 36.5258C27.202 36.3727 27.1428 35.958 27.1366 35.3177C27.1212 33.7273 27.1729 33.2096 27.3857 32.8198C27.4965 32.6167 27.5872 32.3263 27.5872 32.1744C27.5872 32.0224 27.6862 31.8085 27.8072 31.6989C27.9281 31.5893 28.0929 31.3346 28.1733 31.133C28.2537 30.9314 28.5177 30.547 28.76 30.2787C29.0023 30.0105 29.2004 29.739 29.2004 29.6755C29.2004 29.6119 29.395 29.46 29.6326 29.3381C29.8703 29.2161 30.1811 28.9814 30.3231 28.8166C30.4653 28.6518 30.6785 28.5169 30.7968 28.5169C30.9152 28.5169 31.203 28.3872 31.4365 28.2285C31.6727 28.068 32.0261 27.9402 32.2335 27.9402C32.4384 27.9402 32.7263 27.8559 32.8731 27.7529C33.0597 27.622 33.2842 27.5839 33.6189 27.6261C33.8822 27.6594 34.2014 27.6415 34.3282 27.5865C34.4549 27.5313 34.7142 27.519 34.9043 27.5589C35.0945 27.5989 35.4839 27.6376 35.7699 27.6447ZM51.9885 27.7179C51.1859 28.1861 51.7171 29.2807 52.6351 29.05C52.9945 28.9597 53.2369 28.3996 53.0601 28.0687C52.8326 27.6432 52.374 27.4931 51.9885 27.7179ZM19.4429 27.8466C19.154 27.9864 18.887 28.5454 18.9859 28.8035C19.1382 29.2009 19.8357 29.3926 20.1846 29.133C20.9647 28.5525 20.3145 27.4247 19.4429 27.8466ZM46.9097 27.9535C46.2646 28.3291 46.6177 29.3244 47.3961 29.3244C47.6711 29.3244 48.0981 28.8463 48.0981 28.5384C48.0981 27.9955 47.4149 27.6593 46.9097 27.9535ZM8.85719 28.3387C8.51207 28.6841 8.50366 28.8574 8.81317 29.2512C9.11611 29.6368 9.595 29.6526 9.93701 29.2882C10.6269 28.553 9.57069 27.6243 8.85719 28.3387ZM57.5741 28.2905C57.3397 28.3847 57.0861 28.8088 57.0861 29.1065C57.0861 29.3128 57.6478 29.7859 57.8927 29.7859C58.2036 29.7859 58.6993 29.2896 58.6993 28.9784C58.6993 28.4518 58.0938 28.0815 57.5741 28.2905ZM17.4734 28.5963C16.9137 29.0697 17.2034 30.0166 17.9079 30.0166C18.2337 30.0166 18.7145 29.5146 18.7145 29.1745C18.7145 28.612 17.9023 28.2336 17.4734 28.5963ZM49.02 28.6323C48.5636 29.0892 48.8954 29.9012 49.5385 29.9012C49.8982 29.9012 50.2875 29.5248 50.2875 29.1771C50.2875 28.4836 49.5046 28.1471 49.02 28.6323ZM54.1633 29.1022C53.6397 29.5144 53.9516 30.478 54.6086 30.478C55.0994 30.478 55.5406 29.6618 55.2695 29.2552C55.0025 28.8549 54.5557 28.7931 54.1633 29.1022ZM12.2834 29.2136C11.9685 29.5073 11.9563 30.0282 12.2579 30.3015C12.9876 30.9627 13.9797 29.9038 13.2625 29.2292C12.9288 28.9154 12.6086 28.9103 12.2834 29.2136ZM22.6186 29.0945C22.2663 29.3007 22.1191 29.8617 22.3321 30.1871C22.7109 30.766 23.3963 30.7059 23.739 30.0638L23.9575 29.6543L23.5811 29.3164C23.1911 28.966 22.9379 28.9077 22.6186 29.0945ZM20.4658 29.8724C20.1043 30.1853 20.0604 30.5154 20.3341 30.8637C20.6489 31.2643 21.2678 31.2902 21.5311 30.9137C22.0481 30.1749 21.1408 29.288 20.4658 29.8724ZM15.5081 30.0528C15.1956 30.386 15.1883 30.7547 15.4881 31.0548C15.8197 31.3868 16.3399 31.3535 16.632 30.9816C17.2248 30.2271 16.1659 29.352 15.5081 30.0528ZM50.9807 30.0982C50.5614 30.6318 50.8536 31.2855 51.5115 31.2855C52.2695 31.2855 52.6215 30.5319 52.095 30.0367C51.7259 29.6897 51.2825 29.7141 50.9807 30.0982ZM59.794 30.3852C59.2835 30.6749 59.2363 31.2625 59.6943 31.6232C60.0877 31.933 60.2608 31.9246 60.6058 31.5791C61.2346 30.9496 60.5565 29.9523 59.794 30.3852ZM47.799 30.6313C47.2889 31.0706 47.6209 31.8674 48.3223 31.8874C49.0548 31.9082 49.3718 31.1658 48.8523 30.6459C48.4983 30.2914 48.1986 30.2872 47.799 30.6313ZM18.2737 30.9757C17.7737 31.5086 18.0991 32.2084 18.847 32.2084C19.1594 32.2084 19.6364 31.7554 19.6364 31.4586C19.6364 30.8292 18.7169 30.5034 18.2737 30.9757ZM56.0574 31.0127C55.7479 31.4065 55.7563 31.5798 56.1014 31.9252C56.8103 32.635 57.8792 31.6945 57.1968 30.9613C56.8674 30.6072 56.3578 30.6303 56.0574 31.0127ZM10.1457 30.9978C9.53382 31.6104 10.2261 32.6199 10.9808 32.2156C11.6941 31.8334 11.4531 30.8241 10.6484 30.8241C10.4674 30.8241 10.2411 30.9023 10.1457 30.9978ZM52.7158 31.4741C52.1106 32.2443 53.1683 33.1182 53.8396 32.4029C54.1626 32.0586 54.1573 31.735 53.8235 31.421C53.4577 31.077 53.0109 31.0984 52.7158 31.4741ZM50.1828 31.4113C49.3589 31.7411 49.5177 32.9006 50.3866 32.9006C51.099 32.9006 51.4046 31.9606 50.846 31.4874C50.5771 31.2596 50.5651 31.2582 50.1828 31.4113ZM13.414 31.6316C13.2872 31.7585 13.1835 31.9921 13.1835 32.1507C13.1835 32.7947 14.0764 33.148 14.5052 32.6736C15.1536 31.9565 14.0972 30.9477 13.414 31.6316ZM16.5336 32.0509C16.2556 32.4046 16.2502 32.4458 16.4296 32.8402C16.8071 33.6696 18.128 33.0842 17.8509 32.2102C17.6901 31.7032 16.8834 31.6057 16.5336 32.0509ZM20.0091 32.4434C19.6631 32.5825 19.468 33.0959 19.6278 33.4469C20.028 34.3264 21.3653 33.8106 21.0733 32.8895C21.0168 32.7115 20.4506 32.3001 20.3047 32.331C20.2857 32.3351 20.1527 32.3856 20.0091 32.4434ZM54.9337 32.9235C54.1929 33.2787 54.4692 34.4002 55.2977 34.4002C55.5551 34.4002 56.049 33.8812 56.049 33.6107C56.049 33.1004 55.3995 32.7001 54.9337 32.9235ZM58.296 32.923C57.7855 33.2128 57.7383 33.8003 58.1963 34.1611C58.5897 34.4709 58.7628 34.4625 59.1078 34.117C59.7246 33.4996 59.0438 32.4985 58.296 32.923ZM8.11787 33.2684C7.43537 34.0019 8.50413 34.9424 9.21325 34.2324C9.55836 33.887 9.56677 33.7137 9.25727 33.3199C8.95686 32.9375 8.44732 32.9144 8.11787 33.2684ZM48.2993 33.2755C47.7694 33.6807 48.1357 34.6309 48.8218 34.6309C49.1492 34.6309 49.5961 34.1888 49.5961 33.8649C49.5961 33.3253 48.7419 32.937 48.2993 33.2755ZM51.5595 33.3838C50.8577 34.1379 51.9257 35.0778 52.6549 34.3477C53 34.0023 53.0084 33.8291 52.6989 33.4352C52.3985 33.0528 51.889 33.0298 51.5595 33.3838ZM11.7733 33.3704C10.9706 33.8386 11.5018 34.9333 12.4199 34.7026C12.7793 34.6122 13.0217 34.0522 12.8448 33.7212C12.6174 33.2958 12.1588 33.1457 11.7733 33.3704ZM15.1003 33.6011C14.7184 33.9019 14.6953 34.412 15.049 34.7418C15.5477 35.207 16.2947 34.8689 16.2947 34.1779C16.2947 33.8396 15.8563 33.362 15.5457 33.362C15.4677 33.362 15.2673 33.4696 15.1003 33.6011ZM18.1747 33.8242C17.6497 34.036 17.5024 34.8412 17.9336 35.1435C18.763 35.7251 19.6667 34.573 18.8718 33.9472C18.5349 33.6818 18.5299 33.681 18.1747 33.8242ZM50.143 34.6598C49.6274 35.0541 49.9749 36.0152 50.6332 36.0152C50.9299 36.0152 51.4398 35.5243 51.4398 35.2386C51.4398 34.6396 50.6377 34.2815 50.143 34.6598ZM53.0112 35.0354C52.3993 35.6479 53.0916 36.6574 53.8463 36.2531C54.5597 35.8709 54.3186 34.8616 53.514 34.8616C53.3329 34.8616 53.1066 34.9399 53.0112 35.0354ZM56.3947 35.2077C55.9182 35.6847 56.2295 36.4767 56.8935 36.4767C57.5744 36.4767 57.8896 35.6925 57.3956 35.2278C57.0628 34.9149 56.6945 34.9076 56.3947 35.2077ZM16.4733 35.3645C15.9392 35.8992 16.3742 36.8258 17.0783 36.6532C17.9715 36.434 17.9715 35.3554 17.0783 35.1439C16.838 35.0871 16.7003 35.1372 16.4733 35.3645ZM19.8931 35.2342C19.3559 35.4935 19.416 36.3573 19.9879 36.5944C20.8437 36.9493 21.4555 35.6117 20.6132 35.2274C20.2651 35.0687 20.2357 35.0689 19.8931 35.2342ZM59.904 35.4909C59.2923 36.1032 59.9409 37.0872 60.6946 36.6901C61.225 36.4106 61.283 35.8148 60.8155 35.4469C60.4221 35.137 60.249 35.1454 59.904 35.4909ZM9.85024 35.7424C9.2492 36.5072 10.326 37.3987 10.9896 36.6856C11.2983 36.3539 11.287 35.9988 10.9579 35.6892C10.5922 35.3452 10.1453 35.3667 9.85024 35.7424ZM13.259 35.6494C12.8508 36.1009 13.2146 36.9381 13.8189 36.9381C14.1212 36.9381 14.5663 36.4853 14.5663 36.1776C14.5663 35.5262 13.6903 35.1723 13.259 35.6494ZM48.1736 36.1109C47.531 36.8218 48.5737 37.8463 49.2504 37.1688C49.5384 36.8805 49.5482 36.3427 49.2702 36.0908C48.9905 35.8373 48.4112 35.848 48.1736 36.1109ZM51.4599 36.7436C51.1827 37.0389 51.124 37.6464 51.3541 37.8375C52.142 38.4923 53.2021 37.4085 52.4551 36.7119C52.1238 36.4028 51.7691 36.4141 51.4599 36.7436ZM18.1908 37.1059C17.5555 37.7419 18.184 38.7259 18.9631 38.3149C19.5118 38.0255 19.5774 37.4359 19.1023 37.0619C18.7089 36.752 18.5358 36.7604 18.1908 37.1059ZM54.6035 37.1059C53.9965 37.7134 54.5593 38.5837 55.3749 38.2991C55.9884 38.085 56.0518 37.2483 55.4778 36.9407C55.1343 36.7567 54.9097 36.7992 54.6035 37.1059ZM15.2794 37.2887C14.9258 37.6185 14.9488 38.1286 15.3308 38.4293C16.1001 39.0352 16.9731 37.9763 16.2585 37.3042C15.9248 36.9905 15.6046 36.9854 15.2794 37.2887ZM57.9659 37.6387C57.5806 37.9419 57.5649 38.4214 57.9289 38.7637C58.4227 39.2282 59.1602 38.8971 59.1602 38.2109C59.1602 37.8771 58.7193 37.3995 58.4112 37.3995C58.3332 37.3995 58.1328 37.5071 57.9659 37.6387ZM11.9891 37.754C11.5216 38.122 11.5796 38.7177 12.11 38.9972C12.4698 39.1868 12.5823 39.1654 12.9006 38.8467C13.5865 38.1601 12.7487 37.1558 11.9891 37.754ZM49.7928 37.7474C49.2503 38.1746 49.5693 39.1299 50.2543 39.1299C50.4713 39.1299 51.0941 38.5043 51.0941 38.2864C51.0941 37.7149 50.2684 37.373 49.7928 37.7474ZM20.2382 38.0406C19.9153 38.2669 19.89 38.8954 20.1928 39.1697C20.6553 39.5887 21.48 39.2634 21.48 38.6619C21.48 37.9983 20.7904 37.6533 20.2382 38.0406ZM8.39627 38.2595C8.05115 38.6049 8.04274 38.7782 8.35225 39.172C8.65519 39.5576 9.13408 39.5734 9.47609 39.209C10.166 38.4739 9.10977 37.5451 8.39627 38.2595ZM17.0593 38.6769C16.6512 38.998 16.6512 39.4925 17.0593 39.8136C17.8133 40.4075 18.7037 39.3498 18.0231 38.6685C17.7287 38.3737 17.441 38.3761 17.0593 38.6769ZM52.4969 38.7047C52.1844 39.0378 52.1771 39.4065 52.4769 39.7067C52.8085 40.0387 53.3287 40.0053 53.6208 39.6334C54.2136 38.879 53.1547 38.0039 52.4969 38.7047ZM47.5304 38.8571C47.399 39.0242 47.2915 39.2248 47.2915 39.3029C47.2915 39.9398 48.3663 40.3097 48.7253 39.7963C49.296 38.9809 48.1442 38.0758 47.5304 38.8571ZM55.7558 39.5285C55.4106 39.8738 55.4022 40.0471 55.7117 40.4409C56.0121 40.8233 56.5217 40.8464 56.8511 40.4924C57.5336 39.7589 56.4649 38.8184 55.7558 39.5285ZM13.8833 39.6646C13.4824 40.1747 13.8079 40.8603 14.451 40.8603C14.7806 40.8603 15.2576 40.4168 15.2576 40.1104C15.2576 39.804 14.7806 39.3606 14.451 39.3606C14.2329 39.3606 14.0416 39.4631 13.8833 39.6646ZM19.2025 39.9417C18.5132 40.2189 18.7446 41.4371 19.4866 41.4371C19.8263 41.4371 20.3277 40.9557 20.3277 40.6296C20.3277 40.1029 19.7222 39.7326 19.2025 39.9417ZM50.6071 40.0239C50.2569 40.4232 50.2503 40.7214 50.585 41.032C51.1391 41.5461 51.9007 41.2566 51.9007 40.5321C51.9007 39.9066 51.0151 39.5587 50.6071 40.0239ZM10.6484 40.2835C9.96305 40.9696 10.9544 41.9789 11.6637 41.3172C12.1433 40.87 11.8222 40.0528 11.167 40.0528C11.0085 40.0528 10.7752 40.1566 10.6484 40.2835ZM59.182 40.4033C58.8284 40.7331 58.8514 41.2433 59.2334 41.544C60.0027 42.1499 60.8756 41.091 60.1611 40.4189C59.8274 40.1051 59.5072 40.1001 59.182 40.4033ZM21.3919 40.5185C20.8161 40.75 20.8402 41.6769 21.4278 41.9006C21.8511 42.0616 21.9178 42.0475 22.2342 41.7306C22.861 41.1033 22.2225 40.1844 21.3919 40.5185ZM48.6827 40.8182C48.0775 41.5883 49.1352 42.4622 49.8065 41.7469C50.1331 41.3989 50.1306 40.9249 49.8009 40.6938C49.4081 40.4182 48.9575 40.4684 48.6827 40.8182ZM16.1995 40.8965C15.887 41.2296 15.8796 41.5983 16.1795 41.8985C16.4735 42.1929 17.0064 42.1947 17.2707 41.9023C17.9311 41.1717 16.8734 40.1785 16.1995 40.8965ZM53.6492 41.0118C53.3367 41.345 53.3294 41.7137 53.6292 42.0138C53.9608 42.3458 54.481 42.3125 54.7731 41.9406C55.3659 41.1862 54.307 40.311 53.6492 41.0118ZM46.4588 41.2929C46.1441 41.6517 46.1186 41.9565 46.376 42.2841C46.8095 42.8358 47.7525 42.531 47.7525 41.8392C47.7525 41.2556 46.8324 40.8671 46.4588 41.2929ZM18.1584 41.9347C17.8432 42.2707 17.8402 42.5896 18.149 42.9215C18.4727 43.2693 19.0163 43.2159 19.3203 42.8064C19.8811 42.0509 18.8063 41.2444 18.1584 41.9347ZM13.0264 41.9569C12.4146 42.5694 13.1069 43.5789 13.8615 43.1746C14.5749 42.7924 14.3338 41.7831 13.5292 41.7831C13.3482 41.7831 13.1218 41.8613 13.0264 41.9569ZM51.2618 42.1817C50.9167 42.5271 50.9083 42.7003 51.2178 43.0942C51.6509 43.6456 52.5921 43.354 52.5921 42.6684C52.5921 42.0044 51.7475 41.6953 51.2618 42.1817ZM56.7449 42.2664C56.0624 42.9998 57.1311 43.9403 57.8403 43.2303C58.1854 42.8849 58.1938 42.7117 57.8843 42.3178C57.5839 41.9354 57.0743 41.9123 56.7449 42.2664ZM20.5161 42.8298C20.0022 43.2343 20.2906 44.2057 20.9246 44.2057C21.2625 44.2057 21.7105 43.7454 21.7105 43.3981C21.7105 43.0682 21.2676 42.5906 20.9615 42.5906C20.8835 42.5906 20.6831 42.6983 20.5161 42.8298ZM22.9692 42.8618C22.4989 43.0966 22.3202 43.5445 22.5542 43.9021C23.0813 44.7075 24.3496 44.0664 23.8986 43.2227C23.6976 42.8469 23.3048 42.6943 22.9692 42.8618ZM9.61978 43.1253C9.31027 43.5192 9.31868 43.6924 9.6638 44.0378C10.3727 44.7476 11.4416 43.8071 10.7592 43.0739C10.4297 42.7198 9.92018 42.7429 9.61978 43.1253ZM49.402 42.9386C48.8551 43.1569 48.7505 43.8367 49.2084 44.1972C49.6071 44.5112 49.8896 44.4991 50.2351 44.1532C50.8394 43.5483 50.2021 42.6192 49.402 42.9386ZM15.446 43.2912C14.6855 43.89 15.5039 45.0432 16.2797 44.466C16.7162 44.1413 16.7448 43.6125 16.3431 43.2962C15.9567 42.9919 15.827 42.9912 15.446 43.2912ZM47.2287 43.4506C46.5885 44.0914 47.3387 45.1174 48.0716 44.6035C48.6575 44.1926 48.6681 43.6356 48.0957 43.3392C47.65 43.1085 47.5588 43.1201 47.2287 43.4506ZM45.0133 43.36C44.7201 43.4781 44.515 44.0552 44.6561 44.3653C44.9267 44.9599 45.7205 45.004 46.0214 44.4413C46.3543 43.8186 45.6774 43.0926 45.0133 43.36ZM54.373 43.566C53.7711 44.1684 54.3479 45.1056 55.1227 44.7843C55.7729 44.5147 55.8089 43.6357 55.1794 43.3961C54.7561 43.235 54.6894 43.2491 54.373 43.566ZM18.0594 43.9757C17.4898 44.2055 17.437 44.9654 17.9666 45.3129C18.571 45.7092 19.338 45.1078 19.0661 44.4507C18.9603 44.1949 18.4888 43.8186 18.3346 43.8668C18.3217 43.8709 18.198 43.9199 18.0594 43.9757ZM12.3348 44.5602C11.9528 44.8609 11.9298 45.371 12.2834 45.7008C12.7714 46.156 13.5292 45.8103 13.5292 45.1324C13.5292 44.7986 13.0883 44.321 12.7802 44.321C12.7022 44.321 12.5018 44.4286 12.3348 44.5602ZM51.9091 44.7403C51.5996 45.1342 51.6081 45.3074 51.9532 45.6528C52.5648 46.2653 53.5477 45.6159 53.151 44.8613C52.8718 44.3304 52.2767 44.2723 51.9091 44.7403ZM20.0038 44.7869C19.4874 45.2686 19.8073 46.0514 20.5206 46.0514C21.1594 46.0514 21.4616 45.3677 21.0702 44.8082C20.8422 44.4823 20.3411 44.4724 20.0038 44.7869ZM24.6113 45.0494C24.2883 45.3937 24.2936 45.7173 24.6274 46.0313C25.3436 46.7048 26.3394 45.8554 25.7351 45.0864C25.4322 44.7008 24.9533 44.685 24.6113 45.0494ZM57.4518 45.1647C57.1384 45.4988 57.1333 45.8194 57.4363 46.1449C57.7657 46.499 58.2753 46.4759 58.5757 46.0935C59.1685 45.339 58.1096 44.4639 57.4518 45.1647ZM22.4751 45.2523C21.9969 45.6288 22.078 46.2835 22.6387 46.5737C23.0642 46.7941 23.6694 46.3507 23.6694 45.8188C23.6694 45.4907 23.2254 45.0132 22.9204 45.0132C22.8424 45.0132 22.642 45.1208 22.4751 45.2523ZM49.6232 45.1328C49.077 45.3524 49.0322 46.1336 49.5465 46.4709C50.1444 46.8632 50.9091 46.2567 50.6391 45.6043C50.5333 45.3485 50.0618 44.9722 49.9076 45.0204C49.8947 45.0245 49.7668 45.075 49.6232 45.1328ZM63.9516 45.4564C63.6639 46.0135 63.3086 47.0195 63.3086 47.2774C63.3085 47.4124 63.2307 47.5874 63.1356 47.6664C62.8985 47.8634 62.9203 48.2343 63.1933 48.6469C63.6005 49.2625 63.5161 49.4311 62.8476 49.3391C62.2135 49.2518 62.0358 49.5075 62.4731 49.8778C62.8094 50.1626 64.6945 51.0118 64.9904 51.0118C65.375 51.0118 65.3422 50.728 64.9217 50.4168C64.3444 49.9895 64.4639 49.7731 65.3471 49.6459C66.5069 49.479 66.2989 48.9992 65.0653 48.9956L64.1859 48.993L63.8694 48.5316C63.3827 47.8218 63.3719 47.6319 63.7911 47.1579C64.2399 46.6503 64.1876 46.6501 65.5476 47.1649C66.4035 47.4889 66.6924 47.5548 66.797 47.4502C67.0425 47.2044 66.7215 46.9317 65.7323 46.5456C64.5626 46.089 64.4608 46.0066 64.4608 45.5182C64.4608 45.0276 64.1901 44.9948 63.9516 45.4564ZM42.7976 45.4746C42.6708 45.6015 42.5671 45.8351 42.5671 45.9937C42.5671 46.6254 43.4584 46.9928 43.8744 46.5325C44.2941 46.0683 43.9369 45.2439 43.3161 45.2439C43.1577 45.2439 42.9243 45.3477 42.7976 45.4746ZM14.9644 45.8732C14.2785 46.5598 15.1162 47.5641 15.8758 46.9658C16.2839 46.6447 16.2839 46.1502 15.8758 45.8291C15.4824 45.5192 15.3094 45.5277 14.9644 45.8732ZM45.1022 45.8207C44.4128 46.5109 45.4073 47.46 46.1813 46.8505C46.556 46.5554 46.5701 46.1717 46.2183 45.8407C45.8849 45.5273 45.4038 45.5187 45.1022 45.8207ZM47.3492 45.7293C46.7488 46.074 46.6908 46.49 47.1852 46.9063C47.6137 47.2674 47.7468 47.2757 48.1402 46.9658C48.8497 46.4072 48.1295 45.2813 47.3492 45.7293ZM38.573 45.8206C38.1089 46.0079 38.1082 46.5457 38.5713 47.0608C38.8614 47.3834 39.1073 47.3888 39.498 47.0812C40.2464 46.4918 39.484 45.4528 38.573 45.8206ZM4.13737 46.6288C3.22959 47.5445 3.03093 47.6451 2.63835 47.3876C2.06577 47.012 1.89546 47.4133 2.41849 47.9059C2.83297 48.2961 6.03924 48.4185 6.03924 48.0441C6.03924 47.6866 5.79519 47.551 5.15197 47.551C4.41692 47.551 4.38327 47.436 4.90273 46.6983C5.23079 46.2324 5.29117 45.8207 5.03156 45.8207C4.98028 45.8207 4.5779 46.1843 4.13737 46.6288ZM54.8033 46.402C54.3372 46.8366 54.6774 47.7818 55.3 47.7818C55.6081 47.7818 56.049 47.3042 56.049 46.9703C56.049 46.5833 55.6608 46.1667 55.3 46.1667C55.1654 46.1667 54.9419 46.2726 54.8033 46.402ZM27.1839 46.4215C26.4308 46.8538 26.623 47.8971 27.4559 47.8971C28.2644 47.8971 28.5272 46.8224 27.8094 46.4509C27.4266 46.2527 27.474 46.2549 27.1839 46.4215ZM17.4671 46.7798C17.1536 47.1138 17.1486 47.4344 17.4515 47.76C17.7809 48.114 18.2905 48.0909 18.5909 47.7085C19.1961 46.9384 18.1384 46.0644 17.4671 46.7798ZM40.5809 46.8087C39.981 47.1346 40.1038 48.0256 40.7718 48.1935C41.6651 48.418 42.0713 47.1428 41.2287 46.7585C40.8912 46.6045 40.9677 46.5985 40.5809 46.8087ZM20.0575 47.0699C19.6171 47.557 19.9678 48.3585 20.6214 48.3585C20.9221 48.3585 21.3648 47.9033 21.3648 47.5942C21.3648 46.9916 20.4574 46.6276 20.0575 47.0699ZM22.3599 47.2783C21.9854 47.6534 21.973 48.0094 22.3228 48.3385C23.0653 49.0366 24.0275 48.1102 23.3711 47.3292C23.0057 46.8945 22.756 46.882 22.3599 47.2783ZM24.7149 47.3936C24.3962 47.7991 24.4131 47.9673 24.8128 48.3674C25.3209 48.876 26.0892 48.5602 26.0892 47.8427C26.0892 47.175 25.1323 46.8622 24.7149 47.3936ZM52.0914 47.3006C51.6839 47.7514 52.0468 48.5893 52.6497 48.5893C53.2645 48.5893 53.6359 47.6862 53.188 47.2805C52.9083 47.0271 52.329 47.0377 52.0914 47.3006ZM11.8091 47.6243C11.204 48.3944 12.2617 49.2684 12.933 48.553C13.256 48.2087 13.2507 47.8851 12.9169 47.5711C12.5511 47.2271 12.1043 47.2486 11.8091 47.6243ZM29.5638 47.6376C29.0241 48.0947 29.2145 48.8334 29.9149 48.9991C30.1551 49.056 30.2928 49.0058 30.5198 48.7786C31.2061 48.0915 30.3019 47.0122 29.5638 47.6376ZM42.8552 47.5735C42.3447 47.8633 42.2975 48.4508 42.7555 48.8116C43.2651 49.2129 43.9499 48.887 43.9499 48.2432C43.9499 47.6839 43.3294 47.3043 42.8552 47.5735ZM37.9902 47.7819C37.4897 47.9877 37.4908 48.7195 37.992 49.0937C38.2892 49.3157 38.3382 49.3209 38.6243 49.1602C39.5181 48.6578 38.9361 47.3928 37.9902 47.7819ZM49.5564 47.8774C49.1447 48.3327 49.4916 49.1661 50.0929 49.1661C50.4507 49.1661 50.8637 48.762 50.8637 48.4117C50.8637 47.7841 49.9708 47.4191 49.5564 47.8774ZM47.019 48.0209C46.4954 48.4332 46.8073 49.3968 47.4644 49.3968C47.7704 49.3968 48.2134 48.9192 48.2134 48.5893C48.2134 48.2593 47.7704 47.7818 47.4644 47.7818C47.3864 47.7818 47.186 47.8894 47.019 48.0209ZM44.6005 48.18C44.2091 48.5431 44.2161 48.7581 44.6324 49.1749C45.1488 49.692 45.9088 49.4189 45.9088 48.7164C45.9088 48.0081 45.1299 47.6888 44.6005 48.18ZM32.1521 48.4122C31.6161 49.2311 32.6049 50.0365 33.2963 49.3443C33.6275 49.0129 33.6384 48.9231 33.4033 48.4681C33.1645 48.0056 32.4394 47.9731 32.1521 48.4122ZM35.0707 48.3405C34.5423 48.769 34.8794 49.7428 35.5561 49.7428C35.6787 49.7428 35.9062 49.6154 36.0618 49.4596C36.7649 48.7558 35.8428 47.7147 35.0707 48.3405ZM14.7015 48.6255C14.3881 48.9596 14.383 49.2801 14.686 49.6057C15.0692 50.0175 15.6682 49.9346 15.9317 49.4332C16.3248 48.6856 15.2855 48.0032 14.7015 48.6255ZM5.87031 48.5829C5.83321 48.6429 5.30788 48.96 4.7028 49.2875C3.59464 49.8874 3.36418 50.1103 3.6042 50.3506C3.70146 50.4479 3.84043 50.4431 4.14947 50.3312C4.76273 50.1091 4.89858 50.3034 4.56764 50.929C4.24016 51.5479 4.22909 51.9347 4.53895 51.9347C4.68944 51.9347 4.84788 51.776 5.00459 51.4685C5.41804 50.6572 5.59203 50.5504 6.50016 50.5504C7.62538 50.5504 7.63667 50.0834 6.51503 49.9406C5.80014 49.8496 5.72628 49.7199 6.14502 49.2911C6.53899 48.8876 6.56273 48.8134 6.36189 48.6123C6.19619 48.4465 5.96319 48.4325 5.87031 48.5829ZM27.675 48.713C26.964 49.1279 27.3631 50.2043 28.2281 50.2043C28.4058 50.2043 28.8536 49.5612 28.8543 49.3051C28.8557 48.8504 28.0946 48.4684 27.675 48.713ZM39.865 49.0921C39.093 49.8649 40.1688 50.854 40.9827 50.1197C41.3971 49.7458 41.0991 49.0205 40.4699 48.8715C40.2297 48.8147 40.092 48.8649 39.865 49.0921ZM17.5823 49.3176C17.2387 49.6838 17.2601 50.1311 17.6354 50.4266C18.3994 51.0283 19.2899 49.9503 18.5775 49.2859C18.2462 48.9769 17.8916 48.9882 17.5823 49.3176ZM25.0655 49.3483C24.7823 49.7087 24.7769 49.7488 24.9566 50.1439C25.2158 50.7132 26.0773 50.6748 26.3221 50.083C26.6426 49.3085 25.5834 48.6892 25.0655 49.3483ZM54.9195 49.3679C54.5074 49.7247 54.4953 50.0507 54.8798 50.4358C55.2986 50.8551 55.5115 50.8683 55.8814 50.4979C56.5756 49.8029 55.6598 48.7271 54.9195 49.3679ZM22.8628 49.5121C22.7361 49.639 22.6323 49.8726 22.6323 50.0312C22.6323 50.1899 22.7361 50.4235 22.8628 50.5504C22.9896 50.6772 23.2229 50.7811 23.3813 50.7811C23.5398 50.7811 23.7731 50.6772 23.8999 50.5504C24.0266 50.4235 24.1303 50.1899 24.1303 50.0312C24.1303 49.8726 24.0266 49.639 23.8999 49.5121C23.7731 49.3852 23.5398 49.2814 23.3813 49.2814C23.2229 49.2814 22.9896 49.3852 22.8628 49.5121ZM20.2649 49.68C19.7407 50.2047 20.1858 51.1281 20.8808 50.9576C21.5545 50.7923 21.7798 50.1478 21.3234 49.6909C20.9539 49.321 20.6268 49.3176 20.2649 49.68ZM30.6293 49.7157C30.2055 49.9991 30.1589 50.4822 30.5204 50.8439C31.0827 51.407 31.7816 51.1349 31.7816 50.353C31.7816 49.7694 31.1072 49.3963 30.6293 49.7157ZM36.8788 49.8666C36.0839 50.4924 36.9876 51.6445 37.817 51.0629C38.3298 50.7034 37.9603 49.6275 37.3242 49.6275C37.2461 49.6275 37.0458 49.7351 36.8788 49.8666ZM41.671 49.9225C41.1785 50.2677 41.585 51.2425 42.2214 51.2425C42.4943 51.2425 43.028 50.7601 43.028 50.5134C43.028 49.9161 42.1964 49.5539 41.671 49.9225ZM33.5876 50.2775C33.2781 50.6714 33.2865 50.8446 33.6316 51.19C34.1374 51.6964 34.9619 51.4072 34.9619 50.7234C34.9619 50.0199 34.028 49.7169 33.5876 50.2775ZM44.0023 50.2568C43.308 50.9517 44.2239 52.0275 44.9641 51.3867C45.3763 51.0299 45.3884 50.7039 45.0039 50.3188C44.585 49.8995 44.3722 49.8863 44.0023 50.2568ZM51.9091 50.2775C51.5996 50.6714 51.6081 50.8446 51.9532 51.19C52.6621 51.8998 53.7309 50.9593 53.0485 50.2261C52.7191 49.872 52.2096 49.8951 51.9091 50.2775ZM46.6733 50.5588C46.1497 50.9711 46.4617 51.9347 47.1187 51.9347C47.4247 51.9347 47.8677 51.4571 47.8677 51.1271C47.8677 50.7972 47.4247 50.3196 47.1187 50.3196C47.0407 50.3196 46.8403 50.4273 46.6733 50.5588ZM49.1436 50.6236C48.8341 51.0174 48.8425 51.1907 49.1876 51.5361C49.6795 52.0286 50.518 51.7115 50.518 51.0332C50.518 50.362 49.5709 50.0797 49.1436 50.6236ZM28.2525 50.6369C27.8092 51.1423 28.1567 52.05 28.7936 52.05C29.0599 52.05 29.5461 51.5282 29.5461 51.2425C29.5461 50.6437 28.6249 50.2124 28.2525 50.6369ZM61.5426 50.6704C60.4819 51.5056 60.9568 52.8628 62.4878 53.3719C63.6856 53.7702 64.8845 52.7723 64.2934 51.869C64.0362 51.4761 63.8298 51.5695 63.8152 52.0852C63.8008 52.5915 63.6035 52.8575 63.2425 52.8575C62.8809 52.8575 62.7282 52.5579 62.8749 52.1365C63.0496 51.6349 62.8365 51.503 62.4423 51.8688C62.0786 52.2061 61.8987 52.2376 61.7006 51.9987C61.4593 51.7076 61.6078 51.3151 62.041 51.0986C62.272 50.9833 62.4443 50.8108 62.4443 50.6949C62.4443 50.3917 61.9149 50.3773 61.5426 50.6704ZM38.3678 51.1529C37.8069 51.9544 38.8271 52.8054 39.5187 52.1129C39.8638 51.7675 39.8722 51.5942 39.5627 51.2004C39.25 50.8023 38.6303 50.7776 38.3678 51.1529ZM6.49198 51.7083C5.26386 52.4958 4.93949 52.778 5.05264 52.9612C5.15047 53.1198 5.65518 53.1283 5.75117 52.9729C5.88668 52.7533 6.26993 52.8591 6.79607 53.2613C8.22285 54.3516 9.28469 52.8746 8.10451 51.4413C7.66214 50.9039 7.7761 50.885 6.49198 51.7083ZM26.0892 51.3579C25.6328 51.8148 25.9647 52.6268 26.6078 52.6268C27.2388 52.6268 27.6058 51.7345 27.146 51.3181C26.8602 51.0591 26.3692 51.0775 26.0892 51.3579ZM14.9788 51.4866C14.5771 51.8029 14.6057 52.3317 15.0422 52.6564C15.818 53.2336 16.6364 52.0805 15.8758 51.4816C15.4949 51.1816 15.3651 51.1823 14.9788 51.4866ZM31.6563 51.3332C31.0703 51.7062 31.458 52.8575 32.1697 52.8575C32.4207 52.8575 32.8878 52.3112 32.8878 52.0177C32.8878 51.4886 32.1 51.0507 31.6563 51.3332ZM35.1029 51.5375C34.6668 51.8432 34.761 52.5713 35.2712 52.8402C35.631 53.0297 35.7435 53.0084 36.0618 52.6897C36.7336 52.0172 35.8804 50.9922 35.1029 51.5375ZM40.6606 51.8718C40.0489 52.4841 40.6975 53.4681 41.4512 53.0709C41.9816 52.7914 42.0396 52.1957 41.5721 51.8277C41.1787 51.5179 41.0056 51.5263 40.6606 51.8718ZM23.8209 51.8279C23.2956 52.0235 23.1742 52.6766 23.5904 53.0682C24.0952 53.5429 24.8217 53.2552 24.8217 52.5804C24.8217 52.0232 24.3167 51.6435 23.8209 51.8279ZM17.9079 52.05C17.6059 52.3524 17.6151 52.7904 17.9297 53.0837C18.425 53.5456 19.1754 53.2117 19.1754 52.5293C19.1754 51.8826 18.3768 51.5806 17.9079 52.05ZM7.85987 52.0731C7.93592 52.1492 7.99815 52.3205 7.99815 52.4538C7.99815 52.587 7.93592 52.7583 7.85987 52.8344C7.56604 53.1286 6.96108 52.9212 6.96108 52.5263C6.96108 52.0889 7.56926 51.7822 7.85987 52.0731ZM20.8411 52.2179C20.496 52.5632 20.4876 52.7365 20.7971 53.1303C21.0975 53.5127 21.607 53.5358 21.9365 53.1818C22.619 52.4483 21.5502 51.5078 20.8411 52.2179ZM29.7492 52.4045C28.9638 52.8626 29.5535 54.1065 30.4029 53.7833C30.9631 53.57 31.0777 52.9959 30.646 52.5639C30.3453 52.2627 30.0747 52.2146 29.7492 52.4045ZM43.489 52.4858C42.8982 52.6763 42.7251 53.3656 43.165 53.7759C43.649 54.2273 44.4108 53.8856 44.4108 53.217C44.4108 52.7608 43.8979 52.354 43.489 52.4858ZM37.1093 52.7506C36.5606 53.1826 36.8673 54.1265 37.5562 54.1265C37.8883 54.1265 38.3036 53.6623 38.3036 53.291C38.3036 52.9888 37.845 52.5114 37.5546 52.5114C37.4766 52.5114 37.2762 52.6191 37.1093 52.7506ZM33.3399 53.0793C32.9291 53.4906 32.9174 53.7052 33.2859 54.074C33.7602 54.5489 34.6163 54.2115 34.6163 53.5497C34.6163 52.8635 33.8409 52.5778 33.3399 53.0793ZM45.7417 53.1296C45.3722 53.4996 45.3688 53.8271 45.7308 54.1893C46.4044 54.8638 47.4511 53.8112 46.7895 53.1247C46.496 52.8201 46.0487 52.8223 45.7417 53.1296ZM51.4922 53.1407C51.0691 53.5642 51.3391 54.4725 51.8879 54.4725C52.7733 54.4725 53.0748 53.3455 52.2859 52.9856C51.8908 52.8054 51.8117 52.8208 51.4922 53.1407ZM59.8463 53.1208C58.93 53.8436 59.1437 54.9641 60.3218 55.6124C61.431 56.2229 62.2953 56.0585 62.5442 55.1896C62.8934 53.9706 60.8019 52.3669 59.8463 53.1208ZM48.6469 53.212C47.8442 53.6803 48.3754 54.7749 49.2934 54.5442C49.6528 54.4538 49.8953 53.8938 49.7184 53.5628C49.4909 53.1374 49.0323 52.9873 48.6469 53.212ZM27.2616 53.7012C26.9482 54.0353 26.9431 54.3559 27.246 54.6814C27.5755 55.0355 28.085 55.0124 28.3854 54.63C28.9783 53.8755 27.9193 53.0004 27.2616 53.7012ZM60.8108 53.6573C61.6303 53.9692 62.1581 54.7636 61.822 55.1791C61.555 55.5093 61.0661 55.3965 60.4412 54.8611C59.6351 54.1703 59.8991 53.3103 60.8108 53.6573ZM39.3009 54.1067C38.8886 54.5627 39.2364 55.3954 39.8392 55.3954C40.1596 55.3954 40.6082 54.9518 40.6082 54.635C40.6082 53.9835 39.7322 53.6296 39.3009 54.1067ZM8.23506 54.4865C6.65388 55.086 6.19204 55.5108 7.12114 55.5108C7.74303 55.5108 8.05576 55.8452 8.05576 56.5101C8.05576 57.3589 8.29118 57.2284 9.23422 55.8568C10.5383 53.96 10.3402 53.6883 8.23506 54.4865ZM24.6113 54.3934C24.2883 54.7377 24.2936 55.0613 24.6274 55.3753C24.9932 55.7193 25.44 55.6979 25.7351 55.3221C26.3403 54.552 25.2826 53.6781 24.6113 54.3934ZM31.2118 54.6404C30.8667 54.9858 30.8583 55.159 31.1678 55.5529C31.4682 55.9353 31.9777 55.9583 32.3072 55.6043C32.9897 54.8709 31.9209 53.9303 31.2118 54.6404ZM21.9773 54.5887C21.4502 54.8013 21.3312 55.4459 21.7467 55.8368C22.4892 56.535 23.4845 55.5386 22.7645 54.8178C22.3928 54.4456 22.3574 54.4354 21.9773 54.5887ZM35.3294 54.7077C34.9758 55.0376 34.9988 55.5477 35.3808 55.8484C36.1501 56.4543 37.0231 55.3954 36.3085 54.7233C35.9748 54.4095 35.6546 54.4045 35.3294 54.7077ZM18.856 54.7298C18.3287 54.9843 18.3781 55.8524 18.9331 56.0826C19.7363 56.4156 20.3605 55.364 19.6784 54.827C19.3394 54.56 19.2339 54.5475 18.856 54.7298ZM41.8337 54.9424C41.4485 55.2457 41.4327 55.7251 41.7967 56.0675C42.2906 56.5319 43.028 56.2008 43.028 55.5147C43.028 55.1808 42.5872 54.7032 42.279 54.7032C42.201 54.7032 42.0006 54.8109 41.8337 54.9424ZM58.0515 55.3324C56.9084 56.0284 56.9431 56.4127 58.2537 57.576C59.2531 58.463 59.6294 58.6613 59.7971 58.3896C59.8629 58.283 59.7861 58.1376 59.3331 57.5107C59.251 57.3972 59.2925 57.2208 59.4771 56.8985C60.196 55.6428 59.2494 54.6029 58.0515 55.3324ZM28.9426 55.6345C28.1399 56.1028 28.6711 57.1974 29.5891 56.9667C29.9485 56.8764 30.191 56.3163 30.0141 55.9853C29.7866 55.5599 29.328 55.4098 28.9426 55.6345ZM44.4308 55.7777C44.1174 56.1118 44.1123 56.4323 44.4153 56.7579C44.7447 57.1119 45.2543 57.0889 45.5547 56.7064C46.1599 55.9363 45.1022 55.0624 44.4308 55.7777ZM11.0719 55.7881C11.0378 55.877 11.0379 56.0574 11.0723 56.1887C11.181 56.605 9.99347 57.7345 9.42688 57.7537C8.79635 57.775 8.77457 58.0904 9.36374 58.6664C9.91592 59.2061 10.2451 59.2026 10.2451 58.6567C10.2451 58.0812 11.323 57.0343 11.964 56.9872C12.367 56.9577 12.4403 56.9113 12.4744 56.6643C12.4963 56.5057 12.574 56.3026 12.6472 56.2128C12.76 56.0745 12.7404 56.071 12.5178 56.1898C12.2856 56.3136 12.2149 56.2892 11.904 55.978C11.5298 55.6033 11.1739 55.5221 11.0719 55.7881ZM58.9067 55.8799C59.2129 56.1864 58.9905 56.7797 58.5692 56.7797C58.3317 56.7797 58.0079 56.4802 58.0079 56.2606C58.0079 55.8571 58.6235 55.5964 58.9067 55.8799ZM37.5171 56.1238C37.0462 56.6256 37.3653 57.3565 38.0553 57.3565C38.7132 57.3565 39.0044 56.5509 38.5123 56.092C38.181 55.783 37.8263 55.7943 37.5171 56.1238ZM47.4799 56.096C46.9563 56.5083 47.2683 57.4718 47.9253 57.4718C48.4161 57.4718 48.8573 56.6556 48.5861 56.2491C48.3192 55.8488 47.8724 55.7869 47.4799 56.096ZM33.1914 56.3267C32.6995 56.7141 33.0045 57.7026 33.6161 57.7026C34.1251 57.7026 34.575 56.8956 34.2976 56.4798C34.0307 56.0795 33.5839 56.0176 33.1914 56.3267ZM26.0474 56.7227C25.4355 57.3353 26.1278 58.3448 26.8825 57.9404C27.5959 57.5582 27.3548 56.549 26.5502 56.549C26.3691 56.549 26.1428 56.6272 26.0474 56.7227ZM55.6282 57.6273C55.2893 57.9666 55.0119 58.3014 55.0119 58.3712C55.0119 58.7131 56.9296 60.7019 57.2593 60.7019C57.6339 60.7019 57.4053 60.1885 56.6828 59.4072C55.8891 58.5491 55.7505 58.155 56.1642 57.9333C56.4752 57.7666 56.6548 57.8791 57.5297 58.7881C58.2808 59.5684 58.6993 59.7531 58.6993 59.3043C58.6993 59.1037 57.2849 57.4639 56.798 57.1C56.5312 56.9007 56.2087 57.0461 55.6282 57.6273ZM23.2504 57.2607C22.4946 57.627 22.8196 58.7408 23.6822 58.7408C23.8882 58.7408 24.3608 58.1784 24.3608 57.9333C24.3608 57.4032 23.7365 57.0251 23.2504 57.2607ZM39.9232 57.4323C39.6495 57.7805 39.6934 58.1107 40.0549 58.4235C40.7504 59.0256 41.7188 58.0069 41.0691 57.3565C40.7366 57.0236 40.2173 57.0578 39.9232 57.4323ZM11.9345 58.649C11.4199 59.2388 10.9977 59.8122 10.9964 59.9232C10.9932 60.2032 11.3697 60.18 11.6376 59.8836C12.3966 59.0441 13.2722 59.748 12.545 60.6133C12.2181 61.0021 12.2247 61.2043 12.566 61.255C12.8151 61.292 14.6815 59.3111 14.6815 59.0097C14.6815 58.7116 14.3416 58.7154 13.983 59.0175C13.2241 59.6568 12.3435 58.9937 13.0733 58.3324C13.2029 58.2151 13.2937 58.0129 13.275 57.8831C13.2038 57.3874 12.8678 57.5794 11.9345 58.649ZM30.6033 57.8541C30.1766 58.3089 30.3849 58.9587 31.0161 59.1426C31.3867 59.2504 32.0141 58.6223 31.9064 58.2513C31.7201 57.6104 31.0296 57.3999 30.6033 57.8541ZM35.3277 58.0849C35.0143 58.4189 35.0092 58.7395 35.3121 59.0651C35.6416 59.4191 36.1511 59.396 36.4515 59.0136C37.0567 58.2435 35.999 57.3695 35.3277 58.0849ZM42.8176 58.3156C42.5042 58.6497 42.4991 58.9702 42.8021 59.2958C43.1315 59.6498 43.6411 59.6267 43.9415 59.2443C44.5466 58.4742 43.489 57.6002 42.8176 58.3156ZM27.8177 59.0869C27.3736 59.5314 27.7375 60.3558 28.3777 60.3558C28.6635 60.3558 29.2004 59.8799 29.2004 59.6267C29.2004 58.9986 28.269 58.635 27.8177 59.0869ZM37.8511 59.6215C37.5416 60.0154 37.55 60.1886 37.8951 60.534C38.3869 61.0265 39.2254 60.7095 39.2254 60.0312C39.2254 59.3599 38.2784 59.0776 37.8511 59.6215ZM32.781 59.8523C32.1799 60.6171 33.2568 61.5086 33.9204 60.7954C34.2291 60.4638 34.2178 60.1087 33.8887 59.7991C33.523 59.4551 33.0761 59.4765 32.781 59.8523ZM14.829 59.891C13.965 60.4183 13.4625 61.563 13.7916 62.2539C14.3257 63.3753 15.8285 63.0079 16.515 61.5881C17.1489 60.2771 16.0343 59.1553 14.829 59.891ZM50.7113 60.3721C50.3539 60.5576 50.2964 60.6313 50.4061 60.7635C50.5502 60.9375 51.0964 60.7474 51.2726 60.4619C51.4344 60.1999 51.1354 60.1522 50.7113 60.3721ZM15.926 60.3789C16.2541 60.7074 15.9823 61.4974 15.3609 62.0209C14.2823 62.9294 13.9175 61.5267 14.9878 60.5859C15.4058 60.2185 15.7008 60.1535 15.926 60.3789ZM51.752 60.6585C51.707 60.7035 51.6703 61.0691 51.6703 61.471C51.6703 62.3123 51.5 62.426 51.0941 61.8555C50.8345 61.4905 50.4698 61.3986 50.3651 61.6719C50.2648 61.9336 51.8718 64.3933 52.1431 64.3933C52.43 64.3933 52.5726 64.0199 52.5117 63.4287C52.4296 62.6331 52.5805 62.5436 53.1097 63.0734C53.6006 63.5648 53.937 63.4788 53.7274 62.9155C53.3154 61.8079 52.049 60.3611 51.752 60.6585ZM49.3162 62.152C49.2102 62.2583 49.1345 62.5331 49.1335 62.8153C49.1305 63.6083 48.9633 63.7208 48.5455 63.2109C48.1778 62.7622 47.9048 62.6625 47.799 62.9385C47.717 63.1525 48.9764 65.6528 49.212 65.7433C49.5965 65.891 49.769 65.6147 49.769 64.851C49.769 63.9627 49.9363 63.8603 50.3404 64.5012C50.6644 65.0151 51.0941 65.1496 51.0941 64.7371C51.0941 64.4773 50.132 62.488 49.8538 62.1727C49.6345 61.9241 49.5473 61.9207 49.3162 62.152ZM19.3931 63.3806C18.4465 65.2654 18.4481 65.2943 19.5292 65.8393C20.7498 66.4548 20.7648 66.4484 21.5256 64.999C22.2573 63.6049 22.2868 63.3534 21.7392 63.1762C21.5332 63.1095 21.3025 62.9928 21.2264 62.9166C21.1505 62.8406 20.9753 62.7783 20.8373 62.7783C20.6994 62.7783 20.5219 62.7005 20.443 62.6053C20.1276 62.2248 19.8827 62.4056 19.3931 63.3806ZM16.9861 62.8312C16.9861 63.0222 17.8821 63.5858 18.1857 63.5858C18.5327 63.5858 18.3377 63.2045 17.8494 62.9276C17.319 62.6269 16.9861 62.5897 16.9861 62.8312ZM46.7273 63.4993C46.6735 63.642 46.593 63.9269 46.5483 64.1325C46.4322 64.6672 46.2622 64.711 45.9202 64.2946C45.5646 63.8615 45.2149 63.8099 45.2228 64.1915C45.233 64.6837 46.1944 66.87 46.4198 66.9133C46.7023 66.9678 46.834 66.7244 46.7052 66.3853C46.4463 65.7037 46.7687 65.5807 47.5165 66.0761C48.1813 66.5166 48.7854 66.2849 48.2047 65.812C48.0646 65.6979 47.7697 65.451 47.5494 65.2634L47.1489 64.9221L47.225 64.0809C47.2972 63.283 47.2889 63.2398 47.063 63.2398C46.9219 63.2398 46.7851 63.3454 46.7273 63.4993ZM22.5435 63.73C22.1616 64.2005 21.551 66.4603 21.7471 66.6773C22.4816 67.4898 24.1303 67.2126 24.1303 66.2766C24.1303 66.0468 24.2673 65.6252 24.4447 65.3094L24.759 64.7496L24.5203 64.4272C24.034 63.7707 22.8496 63.353 22.5435 63.73ZM23.82 64.5218C24.0062 64.8195 23.8318 65.0855 23.4504 65.0855C23.2073 65.0855 23.0872 65.0173 23.0339 64.8492C22.8786 64.3592 23.5446 64.0819 23.82 64.5218ZM25.3204 64.7682C25.2575 64.9109 25.0578 65.5929 24.8768 66.2837L24.5476 67.5396L24.7922 67.738C25.0791 67.9706 26.42 68.2613 26.5597 68.1214C26.7176 67.9633 26.5134 67.7587 26.0393 67.5998C25.0975 67.2842 25.1896 66.6666 26.1875 66.608C26.8998 66.5661 26.9523 66.3889 26.3482 66.0658C25.5968 65.6639 25.7259 65.2585 26.6055 65.2585C27.5613 65.2585 27.6485 64.9504 26.7669 64.6883C25.8901 64.4277 25.4601 64.4515 25.3204 64.7682ZM28.883 64.6529C28.9401 64.8265 29.3729 64.9049 29.641 64.7903C29.8021 64.7214 29.7863 64.693 29.5461 64.6197C29.0929 64.4812 28.8308 64.4944 28.883 64.6529ZM42.4754 64.924C42.3551 65.1391 43.0553 67.5841 43.3105 67.84C43.508 68.0381 44.0915 67.9428 44.6062 67.6286C45.7653 66.9206 45.4528 65.809 44.0572 65.6754C43.3455 65.6074 43.307 65.5875 43.0856 65.1723C42.8385 64.7086 42.6407 64.6282 42.4754 64.924ZM40.3783 65.1693C40.1404 65.2902 39.8677 65.571 39.7116 65.856L39.4476 66.3382L39.7013 67.1249C40.0182 68.1079 40.4411 68.5462 41.0725 68.5462C41.6162 68.5462 42.2214 68.0851 42.2214 67.6708C42.2214 67.3119 41.9877 67.3162 41.6453 67.681C41.0892 68.2736 40.4767 67.8435 40.3121 66.7444C40.1739 65.8224 40.5519 65.3868 41.2062 65.7136C41.6864 65.9534 41.8757 65.9396 41.8757 65.6649C41.8757 65.1672 40.9718 64.8679 40.3783 65.1693ZM28.0554 65.4604C27.8909 65.8752 27.5566 68.0691 27.6292 68.2585C27.7548 68.5863 28.2334 68.4546 28.5757 67.9983C29.1561 67.2245 29.3157 67.2464 29.3157 68.0997C29.3157 68.7566 29.7275 68.9088 29.9 68.3155C30.5935 65.9296 30.2918 64.6776 29.331 65.9542C28.7986 66.6617 28.6243 66.6323 28.6243 65.8353C28.6243 65.1358 28.2755 64.9059 28.0554 65.4604ZM37.6122 65.5084C36.782 65.6393 36.8054 65.6156 36.8092 66.3278C36.8147 67.3558 37.019 68.694 37.1978 68.8729C37.4235 69.0988 37.6122 68.9434 37.6122 68.5318C37.6122 68.01 37.7789 67.7944 38.3512 67.5756C38.8603 67.381 39.3407 66.834 39.3407 66.4489C39.3407 66.1242 38.3267 65.3781 37.9792 65.4472C37.9358 65.4559 37.7707 65.4835 37.6122 65.5084ZM23.2282 65.7378C23.4871 65.9725 23.5036 66.4203 23.2567 66.5151C22.6231 66.7585 22.1226 66.1677 22.6205 65.7641C22.9466 65.4997 22.9646 65.4989 23.2282 65.7378ZM30.9473 65.8642C30.8896 65.9751 30.8061 66.6425 30.7618 67.347C30.6678 68.8412 30.7201 68.9495 31.5928 69.0682C32.4061 69.1787 32.4676 69.2078 32.68 69.5828C32.9219 70.0097 33.1733 69.9434 33.3503 69.4063C33.4605 69.0723 33.4454 68.9728 33.2426 68.6956C33.0244 68.3972 33.0141 68.2872 33.1055 67.2196C33.2172 65.9123 33.1877 65.7513 32.8444 65.8004C32.5739 65.839 32.4514 66.3415 32.4354 67.4792C32.4232 68.3437 31.9849 68.7794 31.5577 68.3517C31.3917 68.1855 31.375 68.0098 31.4427 67.1428C31.5463 65.8174 31.3009 65.184 30.9473 65.8642ZM34.686 65.8734C34.516 66.1487 33.6975 68.8493 33.7458 68.9754C33.8385 69.2169 34.0912 69.1451 34.4434 68.7769C34.8478 68.3545 35.2301 68.3352 35.5856 68.7193C35.8741 69.0308 36.2026 69.0965 36.2931 68.8606C36.3545 68.7005 35.4845 66.1641 35.2862 65.9247C35.149 65.7593 34.7761 65.7273 34.686 65.8734ZM38.3233 66.1993C38.6068 66.4561 38.5889 66.7643 38.2779 66.9823C37.959 67.206 37.9031 67.2059 37.678 66.9807C37.1515 66.4535 37.7731 65.7008 38.3233 66.1993ZM44.4602 66.4203C44.6858 66.6463 44.6856 66.7012 44.4572 67.0274C44.2134 67.3759 43.8154 67.3159 43.6731 66.9093C43.4801 66.3574 44.0461 66.0058 44.4602 66.4203Z" fill="#D95E46"/>
</svg>
