<svg width="310" height="40" viewBox="0 0 310 40" fill="none" xmlns="http://www.w3.org/2000/svg">
<path d="M15.0254 0H294.858V40H15.0254V0Z" fill="#D95E46"/>
<path d="M12.0203 3.63636H15.0254V7.27273H12.0203V3.63636Z" fill="#D95E46"/>
<path d="M297.863 3.63636H294.858V7.27273H297.863V3.63636Z" fill="#D95E46"/>
<path d="M12.0203 7.27273H15.0254V10.9091H12.0203V7.27273Z" fill="#D95E46"/>
<path d="M297.863 7.27273H294.858V10.9091H297.863V7.27273Z" fill="#D95E46"/>
<path d="M9.01521 7.27273H12.0203V10.9091H9.01521V7.27273Z" fill="#D95E46"/>
<path d="M300.868 7.27273H297.863V10.9091H300.868V7.27273Z" fill="#D95E46"/>
<path d="M12.0203 10.9091H15.0254V14.5455H12.0203V10.9091Z" fill="#D95E46"/>
<path d="M297.863 10.9091H294.858V14.5455H297.863V10.9091Z" fill="#D95E46"/>
<path d="M9.01521 10.9091H12.0203V14.5455H9.01521V10.9091Z" fill="#D95E46"/>
<path d="M300.868 10.9091H297.863V14.5455H300.868V10.9091Z" fill="#D95E46"/>
<path d="M6.01014 10.9091H9.01521V14.5455H6.01014V10.9091Z" fill="#D95E46"/>
<path d="M303.873 10.9091H300.868V14.5455H303.873V10.9091Z" fill="#D95E46"/>
<path d="M12.0203 14.5455H15.0254V18.1818H12.0203V14.5455Z" fill="#D95E46"/>
<path d="M297.863 14.5455H294.858V18.1818H297.863V14.5455Z" fill="#D95E46"/>
<path d="M12.0203 18.1818H15.0254V21.8182H12.0203V18.1818Z" fill="#D95E46"/>
<path d="M297.863 18.1818H294.858V21.8182H297.863V18.1818Z" fill="#D95E46"/>
<path d="M9.01521 14.5455H12.0203V18.1818H9.01521V14.5455Z" fill="#D95E46"/>
<path d="M300.868 14.5455H297.863V18.1818H300.868V14.5455Z" fill="#D95E46"/>
<path d="M9.01521 18.1818H12.0203V21.8182H9.01521V18.1818Z" fill="#D95E46"/>
<path d="M300.868 18.1818H297.863V21.8182H300.868V18.1818Z" fill="#D95E46"/>
<path d="M6.01014 14.5455H9.01521V18.1818H6.01014V14.5455Z" fill="#D95E46"/>
<path d="M303.873 14.5455H300.868V18.1818H303.873V14.5455Z" fill="#D95E46"/>
<path d="M6.01014 18.1818H9.01521V21.8182H6.01014V18.1818Z" fill="#D95E46"/>
<path d="M303.873 18.1818H300.868V21.8182H303.873V18.1818Z" fill="#D95E46"/>
<path d="M3.00507 14.5455H6.01014V18.1818H3.00507V14.5455Z" fill="#D95E46"/>
<path d="M306.878 14.5455H303.873V18.1818H306.878V14.5455Z" fill="#D95E46"/>
<path d="M3.00507 18.1818H6.01014V21.8182H3.00507V18.1818Z" fill="#D95E46"/>
<path d="M306.878 18.1818H303.873V21.8182H306.878V18.1818Z" fill="#D95E46"/>
<path d="M0 18.1818H3.00507V21.8182H0V18.1818Z" fill="#D95E46"/>
<path d="M309.883 18.1818H306.878V21.8182H309.883V18.1818Z" fill="#D95E46"/>
<path d="M12.0203 21.8182H15.0254V25.4545H12.0203V21.8182Z" fill="#D95E46"/>
<path d="M297.863 21.8182H294.858V25.4545H297.863V21.8182Z" fill="#D95E46"/>
<path d="M9.01521 21.8182H12.0203V25.4545H9.01521V21.8182Z" fill="#D95E46"/>
<path d="M300.868 21.8182H297.863V25.4545H300.868V21.8182Z" fill="#D95E46"/>
<path d="M6.01014 21.8182H9.01521V25.4545H6.01014V21.8182Z" fill="#D95E46"/>
<path d="M303.873 21.8182H300.868V25.4545H303.873V21.8182Z" fill="#D95E46"/>
<path d="M3.00507 21.8182H6.01014V25.4545H3.00507V21.8182Z" fill="#D95E46"/>
<path d="M306.878 21.8182H303.873V25.4545H306.878V21.8182Z" fill="#D95E46"/>
<path d="M12.0203 25.4545H15.0254V29.0909H12.0203V25.4545Z" fill="#D95E46"/>
<path d="M297.863 25.4545H294.858V29.0909H297.863V25.4545Z" fill="#D95E46"/>
<path d="M9.01521 25.4545H12.0203V29.0909H9.01521V25.4545Z" fill="#D95E46"/>
<path d="M300.868 25.4545H297.863V29.0909H300.868V25.4545Z" fill="#D95E46"/>
<path d="M6.01014 25.4545H9.01521V29.0909H6.01014V25.4545Z" fill="#D95E46"/>
<path d="M303.873 25.4545H300.868V29.0909H303.873V25.4545Z" fill="#D95E46"/>
<path d="M12.0203 29.0909H15.0254V32.7273H12.0203V29.0909Z" fill="#D95E46"/>
<path d="M297.863 29.0909H294.858V32.7273H297.863V29.0909Z" fill="#D95E46"/>
<path d="M9.01521 29.0909H12.0203V32.7273H9.01521V29.0909Z" fill="#D95E46"/>
<path d="M300.868 29.0909H297.863V32.7273H300.868V29.0909Z" fill="#D95E46"/>
<path d="M12.0203 32.7273H15.0254V36.3636H12.0203V32.7273Z" fill="#D95E46"/>
<path d="M297.863 32.7273H294.858V36.3636H297.863V32.7273Z" fill="#D95E46"/>
</svg>
