<svg width="711" height="274" viewBox="0 0 711 274" fill="none" xmlns="http://www.w3.org/2000/svg">
<g clip-path="url(#clip0_1546_21150)">
<path d="M136.29 29.7799C137.867 30.7568 139.697 31.244 141.55 31.1799C144.49 31.1799 146.92 29.6799 146.92 26.2999C146.92 21.6099 135.98 21.0299 135.98 14.7799C135.98 10.9499 139.33 8.54995 143.54 8.54995C145.134 8.54714 146.716 8.81425 148.22 9.33995L147.84 11.4899C146.482 10.8631 144.996 10.5586 143.5 10.5999C141.04 10.5999 138.34 11.5999 138.34 14.7099C138.34 19.4899 149.28 19.5299 149.28 26.4999C149.28 31.3199 145.14 33.2399 141.45 33.2399C139.601 33.2787 137.763 32.9384 136.05 32.2399L136.29 29.8099" fill="black"/>
<path d="M167.81 17.71C166.635 17.1789 165.369 16.8801 164.08 16.83C159.88 16.83 157.52 19.83 157.52 24.11C157.52 28.11 159.91 31.39 163.84 31.39C165.187 31.3662 166.519 31.0986 167.77 30.6L167.98 32.6C166.535 33.0668 165.018 33.2767 163.5 33.22C157.89 33.22 155.16 28.94 155.16 24.09C155.16 18.72 158.61 14.96 163.77 14.96C165.201 14.958 166.623 15.1876 167.98 15.64L167.81 17.64" fill="black"/>
<path d="M174.3 7.18994H176.46V18.3299H176.53C177.02 17.3105 177.791 16.4531 178.754 15.8592C179.716 15.2654 180.829 14.9603 181.96 14.9799C186.64 14.9799 187.91 18.0899 187.91 22.3999V32.8299H185.76V22.4299C185.76 19.4299 185.17 16.8299 181.62 16.8299C177.79 16.8299 176.46 20.4499 176.46 23.4899V32.8299H174.3V7.18994Z" fill="black"/>
<path d="M213.89 32.83H211.29L206.54 17.75H206.47L201.72 32.83H199.12L193.52 15.39H195.88L200.46 30.47H200.52L205.37 15.39H207.97L212.58 30.47H212.65L217.47 15.39H219.62L213.88 32.83" fill="black"/>
<path d="M235.87 22.88C235.87 19.83 234.64 16.83 231.43 16.83C228.22 16.83 226.3 20.01 226.3 22.88H235.87ZM236.94 32.28C235.325 32.9193 233.607 33.2582 231.87 33.28C226.1 33.28 223.94 29.38 223.94 24.15C223.94 18.92 226.88 15.02 231.29 15.02C236.22 15.02 238.23 19.02 238.23 23.67V24.76H226.3C226.3 28.46 228.3 31.43 232.05 31.43C233.758 31.374 235.43 30.9294 236.94 30.13V32.32" fill="black"/>
<path d="M245 15.39H247.16V32.83H245V15.39ZM247.16 10.74H245V7.87H247.16V10.74Z" fill="black"/>
<path d="M253.65 31.02L264.15 17.24H254.06V15.39H266.64V17.24L256.15 30.98H266.64V32.83H253.64V31.02" fill="black"/>
<path d="M283.73 22.88C283.73 19.83 282.5 16.83 279.29 16.83C276.08 16.83 274.16 20.01 274.16 22.88H283.73ZM284.8 32.28C283.185 32.9193 281.467 33.2582 279.73 33.28C273.96 33.28 271.8 29.38 271.8 24.15C271.8 18.92 274.75 15.02 279.15 15.02C284.08 15.02 286.15 19.02 286.15 23.67V24.76H274.16C274.16 28.46 276.16 31.43 279.91 31.43C281.617 31.374 283.29 30.9294 284.8 30.13V32.32" fill="black"/>
<path d="M292.86 19.29C292.894 17.9886 292.851 16.6863 292.73 15.39H294.88V18.74H294.95C295.74 16.74 297.21 14.98 299.43 14.98C299.937 14.9863 300.441 15.0569 300.93 15.19V17.44C300.419 17.3026 299.89 17.2353 299.36 17.24C295.94 17.24 295.02 21.07 295.02 24.24V32.86H292.86V19.29Z" fill="black"/>
<path d="M306.92 15.39H309.07V32.83H306.92V15.39ZM309.07 10.74H306.92V7.87H309.07V10.74Z" fill="black"/>
<path d="M315.84 30.3C317.247 31.0062 318.797 31.3792 320.37 31.39C322.42 31.39 324.23 30.26 324.23 28.28C324.23 24.14 315.85 24.79 315.85 19.73C315.85 16.28 318.65 14.98 321.53 14.98C322.997 15.012 324.448 15.2787 325.83 15.77L325.63 17.65C324.41 17.1245 323.099 16.8458 321.77 16.83C319.54 16.83 318.01 17.51 318.01 19.73C318.01 22.98 326.59 22.57 326.59 28.28C326.59 31.97 323.13 33.28 320.5 33.28C318.833 33.3163 317.174 33.0381 315.61 32.46L315.82 30.34" fill="black"/>
<path d="M344.48 17.71C343.309 17.1778 342.045 16.8788 340.76 16.83C336.55 16.83 334.19 19.83 334.19 24.11C334.19 28.11 336.59 31.39 340.52 31.39C341.867 31.3662 343.198 31.0986 344.45 30.6L344.66 32.6C343.214 33.0668 341.698 33.2767 340.18 33.22C334.57 33.22 331.84 28.94 331.84 24.09C331.84 18.72 335.29 14.96 340.45 14.96C341.881 14.958 343.302 15.1876 344.66 15.64L344.48 17.64" fill="black"/>
<path d="M350.98 7.18994H353.13V18.3299H353.2C353.693 17.3105 354.467 16.4533 355.431 15.8597C356.395 15.2661 357.509 14.9608 358.64 14.9799C363.32 14.9799 364.64 18.0899 364.64 22.3999V32.8299H362.48V22.4299C362.48 19.4299 361.9 16.8299 358.35 16.8299C354.52 16.8299 353.18 20.4499 353.18 23.4899V32.8299H351.03V7.18994" fill="black"/>
<path d="M383.29 22.88C383.29 19.83 382.06 16.83 378.84 16.83C375.62 16.83 373.71 20.01 373.71 22.88H383.29ZM384.35 32.28C382.739 32.9195 381.024 33.2584 379.29 33.28C373.51 33.28 371.36 29.38 371.36 24.15C371.36 18.92 374.3 15.02 378.71 15.02C383.63 15.02 385.65 19.02 385.65 23.67V24.76H373.71C373.71 28.46 375.71 31.43 379.46 31.43C381.168 31.374 382.84 30.9294 384.35 30.13V32.32" fill="black"/>
<path d="M403.8 8.95996H415.49V10.96H406.16V19.48H415.01V21.48H406.16V30.68H415.9V32.68H403.8V8.95996Z" fill="black"/>
<path d="M423.37 15.39H425.52V32.83H423.37V15.39ZM425.52 10.74H423.37V7.87H425.52V10.74Z" fill="black"/>
<path d="M440.07 31.3899C443.9 31.3899 445.23 27.2899 445.23 24.1099C445.23 20.9299 443.9 16.8299 440.07 16.8299C435.97 16.8299 434.91 20.7199 434.91 24.1099C434.91 27.4999 435.97 31.3899 440.07 31.3899ZM447.37 32.8299H445.21V30.0599H445.15C444.667 31.0746 443.89 31.9205 442.92 32.4877C441.95 33.0548 440.831 33.3169 439.71 33.2399C434.92 33.2399 432.53 29.2399 432.53 24.1099C432.53 18.9799 434.58 14.9799 439.71 14.9799C440.843 14.9559 441.959 15.2591 442.924 15.8533C443.889 16.4475 444.662 17.3074 445.15 18.3299H445.21V7.18994H447.37V32.8299Z" fill="black"/>
<path d="M461.61 30.9799C465.51 30.9799 466.91 27.2899 466.91 24.1099C466.91 19.8999 465.68 16.8299 461.75 16.8299C457.65 16.8299 456.59 20.7199 456.59 24.1099C456.59 27.4999 457.95 30.9799 461.61 30.9799ZM469.07 31.3899C469.07 36.2499 466.88 40.2099 460.9 40.2099C459.108 40.1645 457.332 39.8545 455.63 39.2899L455.8 37.1299C457.394 37.9276 459.148 38.3517 460.93 38.3699C466.47 38.3699 466.93 34.3699 466.93 29.3699H466.86C466.446 30.4235 465.712 31.3205 464.761 31.9342C463.81 32.5479 462.69 32.8472 461.56 32.7899C455.98 32.7899 454.21 27.9299 454.21 24.0699C454.21 18.7699 456.26 14.9399 461.39 14.9399C463.71 14.9399 465.21 15.2499 466.82 17.3299H466.89V15.3299H469.05V31.3299" fill="black"/>
<path d="M487.56 22.88C487.56 19.83 486.33 16.83 483.12 16.83C479.91 16.83 477.99 20.01 477.99 22.88H487.56ZM488.62 32.28C487.009 32.9203 485.294 33.2593 483.56 33.28C477.78 33.28 475.63 29.38 475.63 24.15C475.63 18.92 478.57 15.02 482.98 15.02C487.9 15.02 489.92 19.02 489.92 23.67V24.76H477.99C477.99 28.46 479.99 31.43 483.73 31.43C485.437 31.374 487.11 30.9294 488.62 30.13V32.32" fill="black"/>
<path d="M496.69 19.49C496.712 18.1218 496.665 16.7534 496.55 15.39H498.64V18.5H498.71C499.42 16.93 500.71 14.98 504.35 14.98C508.66 14.98 510.29 17.85 510.29 21.68V32.83H508.14V22.23C508.14 18.95 506.98 16.83 504.01 16.83C500.07 16.83 498.84 20.28 498.84 23.18V32.83H496.69V19.49Z" fill="black"/>
<path d="M525.17 31.39C528.93 31.39 530.95 28.14 530.95 24.11C530.95 20.08 528.95 16.83 525.17 16.83C521.39 16.83 519.37 20.07 519.37 24.11C519.37 28.15 521.37 31.39 525.17 31.39ZM525.17 14.98C530.81 14.98 533.31 19.36 533.31 24.11C533.31 28.86 530.81 33.24 525.17 33.24C519.53 33.24 517.03 28.86 517.03 24.11C517.03 19.36 519.53 14.98 525.17 14.98Z" fill="black"/>
<path d="M538.7 30.3C540.113 31.0082 541.67 31.3812 543.25 31.39C545.25 31.39 547.11 30.26 547.11 28.28C547.11 24.14 538.74 24.79 538.74 19.73C538.74 16.28 541.54 14.98 544.41 14.98C545.88 15.0117 547.335 15.2785 548.72 15.77L548.52 17.65C547.297 17.1235 545.982 16.8447 544.65 16.83C542.43 16.83 540.89 17.51 540.89 19.73C540.89 22.98 549.47 22.57 549.47 28.28C549.47 31.97 546.02 33.28 543.39 33.28C541.723 33.3173 540.064 33.039 538.5 32.46L538.7 30.34" fill="black"/>
<path d="M554.67 30.3C556.082 31.0092 557.639 31.3823 559.22 31.39C561.22 31.39 563.08 30.26 563.08 28.28C563.08 24.14 554.7 24.79 554.7 19.73C554.7 16.28 557.51 14.98 560.38 14.98C561.846 15.012 563.298 15.2787 564.68 15.77L564.48 17.65C563.26 17.123 561.948 16.8442 560.62 16.83C558.4 16.83 556.86 17.51 556.86 19.73C556.86 22.98 565.44 22.57 565.44 28.28C565.44 31.97 561.99 33.28 559.35 33.28C557.683 33.3163 556.024 33.0381 554.46 32.46L554.67 30.34" fill="black"/>
<path d="M582.6 22.88C582.6 19.83 581.37 16.83 578.16 16.83C574.95 16.83 573.02 20.01 573.02 22.88H582.6ZM583.66 32.28C582.049 32.9203 580.334 33.2593 578.6 33.28C572.82 33.28 570.67 29.38 570.67 24.15C570.67 18.92 573.61 15.02 578.02 15.02C582.94 15.02 584.96 19.02 584.96 23.67V24.76H573.02C573.02 28.46 575.02 31.43 578.77 31.43C580.478 31.374 582.15 30.9294 583.66 30.13V32.32" fill="black"/>
<path d="M591.73 19.49C591.752 18.1218 591.705 16.7534 591.59 15.39H593.68V18.5H593.75C594.46 16.93 595.75 14.98 599.39 14.98C603.69 14.98 605.33 17.85 605.33 21.68V32.83H603.18V22.23C603.18 18.95 602.02 16.83 599.04 16.83C595.11 16.83 593.88 20.28 593.88 23.18V32.83H591.73V19.49Z" fill="black"/>
<path d="M612.07 30.3C613.483 31.0092 615.04 31.3823 616.62 31.39C618.62 31.39 620.48 30.26 620.48 28.28C620.48 24.14 612.1 24.79 612.1 19.73C612.1 16.28 614.9 14.98 617.78 14.98C619.247 15.012 620.698 15.2787 622.08 15.77L621.88 17.65C620.66 17.1245 619.349 16.8458 618.02 16.83C615.8 16.83 614.26 17.51 614.26 19.73C614.26 22.98 622.84 22.57 622.84 28.28C622.84 31.97 619.38 33.28 616.75 33.28C615.083 33.3163 613.424 33.0381 611.86 32.46L612.07 30.34" fill="black"/>
<path d="M640.72 17.71C639.545 17.1789 638.279 16.8801 636.99 16.83C632.79 16.83 630.43 19.83 630.43 24.11C630.43 28.11 632.82 31.39 636.75 31.39C638.1 31.3652 639.435 31.0976 640.69 30.6L640.89 32.6C639.445 33.0668 637.928 33.2767 636.41 33.22C630.8 33.22 628.07 28.94 628.07 24.09C628.07 18.72 631.52 14.96 636.69 14.96C638.118 14.9586 639.536 15.1882 640.89 15.64L640.72 17.64" fill="black"/>
<path d="M647.22 7.18994H649.37V18.3299H649.43C649.923 17.3113 650.697 16.4548 651.661 15.8613C652.625 15.2678 653.738 14.962 654.87 14.9799C659.55 14.9799 660.87 18.0899 660.87 22.3999V32.8299H658.67V22.4299C658.67 19.4299 658.09 16.8299 654.53 16.8299C650.7 16.8299 649.37 20.4499 649.37 23.4899V32.8299H647.22V7.18994Z" fill="black"/>
<path d="M678.7 24.04H678.09C674.36 24.04 669.92 24.42 669.92 28.25C669.92 30.53 671.55 31.39 673.54 31.39C678.6 31.39 678.7 26.98 678.7 25.1V24.04ZM678.9 30.04H678.84C678.302 31.0348 677.501 31.8618 676.523 32.43C675.546 32.9982 674.43 33.2854 673.3 33.26C668.3 33.26 667.55 29.91 667.55 28.33C667.55 22.49 673.78 22.22 678.29 22.22H678.7V21.32C678.7 18.32 677.64 16.85 674.7 16.85C672.887 16.8199 671.105 17.3166 669.57 18.28V16.18C671.187 15.4533 672.928 15.0458 674.7 14.98C679.01 14.98 680.82 16.93 680.82 21.48V29.17C680.785 30.3928 680.845 31.6165 681 32.83H678.87V30.02" fill="black"/>
<path d="M690.12 17.24H686.6V15.39H690.12V14.13C690.12 10.47 690.25 6.77995 694.73 6.77995C695.413 6.75543 696.093 6.87115 696.73 7.11995L696.59 8.99996C696.057 8.74114 695.472 8.61098 694.88 8.61995C691.94 8.61995 692.25 11.8 692.25 13.89V15.39H696.18V17.24H692.27V32.83H690.12V17.24Z" fill="black"/>
<path d="M710.22 17.2401H706.22V28.5201C706.22 30.0901 706.81 31.3901 708.55 31.3901C709.237 31.3924 709.918 31.2528 710.55 30.98L710.69 32.7601C709.846 33.0664 708.957 33.2287 708.06 33.2401C704.23 33.2401 704.06 30.6001 704.06 27.4201V17.2401H700.64V15.3901H704.06V11.1901L706.21 10.4301V15.4301H710.21V17.2801" fill="black"/>
<path d="M153.04 58.7899C151.36 58.0645 149.539 57.7229 147.71 57.7899C141.52 57.7899 138.03 62.1699 138.03 68.0799C138.03 73.9899 141.42 78.3699 147.71 78.3699C149.54 78.4594 151.366 78.1168 153.04 77.3699L153.18 79.4299C151.88 80.2099 149.18 80.4299 147.71 80.4299C140.18 80.4299 135.71 75.4299 135.71 68.0899C135.71 60.7499 140.36 55.7499 147.71 55.7499C149.572 55.714 151.425 56.0156 153.18 56.6399L153.04 58.8299" fill="black"/>
<path d="M167.84 78.5999C171.6 78.5999 173.62 75.3499 173.62 71.3099C173.62 67.2699 171.62 64.0299 167.84 64.0299C164.06 64.0299 162.07 67.2799 162.07 71.3099C162.07 75.3399 164.08 78.5999 167.84 78.5999ZM167.84 62.1899C173.48 62.1899 175.98 66.5599 175.98 71.3099C175.98 76.0599 173.48 80.4399 167.84 80.4399C162.2 80.4399 159.71 76.0699 159.71 71.3099C159.71 66.5499 162.2 62.1899 167.84 62.1899Z" fill="black"/>
<path d="M182.71 66.65C182.71 65.32 182.71 63.95 182.58 62.55H184.66V65.66H184.73C185.163 64.5421 185.946 63.5947 186.963 62.96C187.98 62.3253 189.176 62.0376 190.37 62.14C194.68 62.14 196.32 65.01 196.32 68.84V79.98H194.17V69.38C194.17 66.1 193.01 63.98 190.03 63.98C186.1 63.98 184.87 67.44 184.87 70.34V79.98H182.71V66.65Z" fill="black"/>
<path d="M205.86 64.39H202.37V62.6H205.89V61.33C205.89 57.67 206.02 53.98 210.5 53.98C211.183 53.9555 211.864 54.0712 212.5 54.32L212.37 56.15C211.833 55.8959 211.244 55.7693 210.65 55.78C207.72 55.78 208.02 58.96 208.02 61.04V62.6H211.95V64.44H208.02V80.03H205.87V64.39" fill="black"/>
<path d="M225.48 55.8101H228.18L223.88 60.7301H222.3L225.48 55.8101ZM229.07 70.0301C229.07 67.0301 227.84 63.9801 224.63 63.9801C221.42 63.9801 219.5 67.1601 219.5 70.0301H229.07ZM230.13 79.4301C228.518 80.0704 226.803 80.4093 225.07 80.4301C219.29 80.4301 217.14 76.5301 217.14 71.3001C217.14 66.0701 220.08 62.1801 224.49 62.1801C229.41 62.1801 231.43 66.1801 231.43 70.8301V71.9201H219.5C219.5 75.6101 221.5 78.5901 225.24 78.5901C226.948 78.5365 228.621 78.0917 230.13 77.2901V79.4701" fill="black"/>
<path d="M244.69 78.6C248.52 78.6 249.86 74.49 249.86 71.31C249.86 68.13 248.52 64.03 244.69 64.03C240.59 64.03 239.53 67.93 239.53 71.31C239.53 74.69 240.59 78.6 244.69 78.6ZM252.01 80.03H249.86V77.26H249.79C249.308 78.2755 248.531 79.1222 247.561 79.6895C246.59 80.2568 245.471 80.5183 244.35 80.44C239.57 80.44 237.17 76.44 237.17 71.31C237.17 66.18 239.22 62.19 244.35 62.19C245.483 62.1646 246.599 62.4674 247.565 63.0617C248.53 63.656 249.303 64.5167 249.79 65.54H249.86V54.34H252.01V79.98" fill="black"/>
<path d="M266.92 55.8101H269.62L265.31 60.7301H263.74L266.92 55.8101ZM270.5 70.0301C270.5 67.0301 269.27 63.9801 266.06 63.9801C262.85 63.9801 260.93 67.1601 260.93 70.0301H270.5ZM271.57 79.4301C269.959 80.0686 268.244 80.4075 266.51 80.4301C260.73 80.4301 258.57 76.5301 258.57 71.3001C258.57 66.0701 261.52 62.1801 265.92 62.1801C270.85 62.1801 272.87 66.1801 272.87 70.8301V71.9201H260.93C260.93 75.6101 262.93 78.5901 266.68 78.5901C268.388 78.534 270.06 78.0894 271.57 77.2901V79.4701" fill="black"/>
<path d="M279.63 66.44C279.664 65.1419 279.62 63.843 279.5 62.55H281.65V65.9H281.72C282.51 63.9 283.98 62.14 286.2 62.14C286.706 62.148 287.209 62.2151 287.7 62.34V64.6C287.19 64.4542 286.661 64.3835 286.13 64.39C282.71 64.39 281.79 68.22 281.79 71.39V80H279.63V66.44Z" fill="black"/>
<path d="M303.5 71.2H302.88C299.16 71.2 294.71 71.57 294.71 75.4C294.71 77.69 296.35 78.55 298.33 78.55C303.39 78.55 303.5 74.14 303.5 72.26V71.2ZM303.7 77.2H303.63C303.092 78.1937 302.29 79.0194 301.312 79.5858C300.334 80.1523 299.219 80.4375 298.09 80.41C293.09 80.41 292.35 77.06 292.35 75.49C292.35 69.64 298.57 69.37 303.09 69.37H303.5V68.48C303.5 65.48 302.44 64 299.5 64C297.685 63.9659 295.901 64.4667 294.37 65.44V63.35C295.987 62.6266 297.729 62.2225 299.5 62.16C303.81 62.16 305.62 64.11 305.62 68.65V76.34C305.586 77.5626 305.643 78.7859 305.79 80H303.67V77.2" fill="black"/>
<path d="M320.97 64.39H316.97V75.68C316.97 77.25 317.55 78.55 319.29 78.55C319.978 78.5523 320.659 78.4127 321.29 78.14L321.42 79.91C320.578 80.2219 319.688 80.3843 318.79 80.39C314.96 80.39 314.79 77.76 314.79 74.58V64.39H311.37V62.6H314.79V58.34L316.94 57.59V62.59H320.94V64.43" fill="black"/>
<path d="M327.5 62.6H329.65V80.03H327.5V62.6ZM329.65 57.95H327.5V55.03H329.65V57.9" fill="black"/>
<path d="M344.55 78.5999C348.32 78.5999 350.33 75.3499 350.33 71.3099C350.33 67.2699 348.33 64.0299 344.55 64.0299C340.77 64.0299 338.78 67.2799 338.78 71.3099C338.78 75.3399 340.79 78.5999 344.55 78.5999ZM344.55 62.1899C350.2 62.1899 352.69 66.5599 352.69 71.3099C352.69 76.0599 350.2 80.4399 344.55 80.4399C338.9 80.4399 336.42 76.0699 336.42 71.3099C336.42 66.5499 338.91 62.1899 344.55 62.1899Z" fill="black"/>
<path d="M359.43 66.65C359.452 65.2819 359.405 63.9135 359.29 62.55H361.37V65.66H361.44C361.873 64.5421 362.656 63.5947 363.673 62.96C364.69 62.3253 365.886 62.0376 367.08 62.14C371.39 62.14 373.08 65.01 373.08 68.84V79.98H370.93V69.38C370.93 66.1 369.77 63.98 366.79 63.98C362.86 63.98 361.63 67.44 361.63 70.34V79.98H359.48V66.65" fill="black"/>
<path d="M391.6 77.45C393.012 78.1627 394.569 78.5392 396.15 78.55C398.2 78.55 400.01 77.42 400.01 75.44C400.01 71.3 391.63 71.95 391.63 66.89C391.63 63.44 394.43 62.14 397.31 62.14C398.776 62.1677 400.228 62.4311 401.61 62.92L401.41 64.8C400.189 64.2792 398.878 64.0008 397.55 63.98C395.32 63.98 393.78 64.67 393.78 66.89C393.78 70.14 402.37 69.73 402.37 75.44C402.37 79.13 398.91 80.44 396.28 80.44C394.605 80.4774 392.938 80.1922 391.37 79.6L391.58 77.48" fill="black"/>
<path d="M422.5 75.88C422.478 77.2481 422.524 78.6165 422.64 79.98H420.55V76.87H420.48C419.77 78.44 418.48 80.39 414.84 80.39C410.54 80.39 408.84 77.52 408.84 73.69V62.6H411V73.19C411 76.48 412.16 78.6 415.14 78.6C419.07 78.6 420.3 75.14 420.3 72.24V62.6H422.45V75.93" fill="black"/>
<path d="M430.57 62.6H432.72V80.03H430.57V62.6ZM432.72 57.95H430.57V55.03H432.72V57.9" fill="black"/>
<path d="M439.49 77.45C440.902 78.1627 442.459 78.5392 444.04 78.55C446.09 78.55 447.9 77.42 447.9 75.44C447.9 71.3 439.52 71.95 439.52 66.89C439.52 63.44 442.33 62.14 445.2 62.14C446.669 62.1684 448.124 62.4317 449.51 62.92L449.3 64.8C448.079 64.2783 446.768 63.9997 445.44 63.98C443.22 63.98 441.68 64.67 441.68 66.89C441.68 70.14 450.26 69.73 450.26 75.44C450.26 79.13 446.81 80.44 444.17 80.44C442.506 80.4816 440.849 80.2033 439.29 79.62L439.49 77.5" fill="black"/>
<path d="M455.46 77.45C456.872 78.1627 458.429 78.5392 460.01 78.55C462.06 78.55 463.87 77.42 463.87 75.44C463.87 71.3 455.49 71.95 455.49 66.89C455.49 63.44 458.29 62.14 461.17 62.14C462.639 62.1684 464.094 62.4317 465.48 62.92L465.27 64.8C464.049 64.2792 462.738 64.0008 461.41 63.98C459.19 63.98 457.65 64.67 457.65 66.89C457.65 70.14 466.23 69.73 466.23 75.44C466.23 79.13 462.77 80.44 460.14 80.44C458.473 80.4812 456.813 80.2029 455.25 79.62L455.46 77.5" fill="black"/>
<path d="M483.37 70.0301C483.37 67.0301 482.14 63.98 478.93 63.98C475.72 63.98 473.8 67.1601 473.8 70.0301H483.37ZM484.43 79.4301C482.819 80.0695 481.104 80.4084 479.37 80.4301C473.59 80.4301 471.44 76.53 471.44 71.3C471.44 66.07 474.38 62.1801 478.79 62.1801C483.71 62.1801 485.73 66.1801 485.73 70.8301V71.9201H473.82C473.82 75.6101 475.82 78.59 479.56 78.59C481.268 78.534 482.94 78.0894 484.45 77.2901V79.4701" fill="black"/>
<path d="M153.04 105.94C151.358 105.219 149.539 104.878 147.71 104.94C141.52 104.94 138.03 109.31 138.03 115.23C138.03 121.15 141.42 125.52 147.71 125.52C149.54 125.605 151.365 125.262 153.04 124.52L153.18 126.52C151.88 127.31 149.18 127.52 147.71 127.52C140.18 127.52 135.71 122.52 135.71 115.18C135.71 107.84 140.36 102.83 147.71 102.83C149.572 102.794 151.425 103.096 153.18 103.72L153.04 105.91" fill="black"/>
<path d="M167.84 125.7C171.6 125.7 173.62 122.45 173.62 118.42C173.62 114.39 171.62 111.14 167.84 111.14C164.06 111.14 162.07 114.39 162.07 118.42C162.07 122.45 164.08 125.7 167.84 125.7ZM167.84 109.29C173.48 109.29 175.98 113.67 175.98 118.42C175.98 123.17 173.48 127.55 167.84 127.55C162.2 127.55 159.71 123.17 159.71 118.42C159.71 113.67 162.2 109.29 167.84 109.29Z" fill="black"/>
<path d="M182.71 113.81C182.71 112.47 182.71 111.1 182.58 109.7H184.66V112.81H184.73C185.163 111.692 185.946 110.745 186.963 110.11C187.98 109.475 189.176 109.188 190.37 109.29C194.68 109.29 196.32 112.16 196.32 115.99V127.14H194.17V116.54C194.17 113.26 193.01 111.14 190.03 111.14C186.1 111.14 184.87 114.59 184.87 117.5V127.14H182.71V113.81Z" fill="black"/>
<path d="M205.86 111.6H202.37V109.7H205.89V108.44C205.89 104.78 206.02 101.09 210.5 101.09C211.183 101.065 211.864 101.181 212.5 101.43L212.37 103.31C211.834 103.052 211.245 102.922 210.65 102.93C207.72 102.93 208.02 106.11 208.02 108.2V109.7H211.95V111.6H208.02V127.19H205.87V111.6" fill="black"/>
<path d="M229.07 117.19C229.07 114.19 227.84 111.14 224.63 111.14C221.42 111.14 219.5 114.32 219.5 117.19H229.07ZM230.13 126.59C228.518 127.23 226.803 127.569 225.07 127.59C219.29 127.59 217.14 123.69 217.14 118.46C217.14 113.23 220.08 109.33 224.49 109.33C229.41 109.33 231.43 113.33 231.43 117.98V119.08H219.5C219.5 122.77 221.5 125.74 225.24 125.74C226.948 125.686 228.621 125.242 230.13 124.44V126.6" fill="black"/>
<path d="M244.69 125.7C248.52 125.7 249.86 121.6 249.86 118.42C249.86 115.24 248.52 111.14 244.69 111.14C240.59 111.14 239.53 115.04 239.53 118.42C239.53 121.8 240.59 125.7 244.69 125.7ZM252.01 127.14H249.86V124.37H249.79C249.317 125.392 248.547 126.246 247.58 126.823C246.613 127.399 245.494 127.67 244.37 127.6C239.59 127.6 237.19 123.6 237.19 118.47C237.19 113.34 239.24 109.34 244.37 109.34C245.503 109.316 246.619 109.619 247.584 110.213C248.549 110.808 249.322 111.667 249.81 112.69H249.88V101.5H252.03V127.14" fill="black"/>
<path d="M270.5 117.19C270.5 114.19 269.27 111.14 266.06 111.14C262.85 111.14 260.93 114.32 260.93 117.19H270.5ZM271.57 126.59C269.959 127.229 268.244 127.567 266.51 127.59C260.73 127.59 258.57 123.69 258.57 118.46C258.57 113.23 261.52 109.33 265.92 109.33C270.85 109.33 272.87 113.33 272.87 117.98V119.08H260.93C260.93 122.77 262.93 125.74 266.68 125.74C268.388 125.684 270.06 125.239 271.57 124.44V126.6" fill="black"/>
<path d="M279.63 113.6C279.663 112.299 279.62 110.996 279.5 109.7H281.65V113.05H281.72C282.51 111.1 283.98 109.29 286.2 109.29C286.707 109.296 287.211 109.367 287.7 109.5V111.75C287.188 111.613 286.66 111.545 286.13 111.55C282.71 111.55 281.79 115.38 281.79 118.55V127.17H279.63V113.6Z" fill="black"/>
<path d="M303.5 118.35H302.88C299.16 118.35 294.71 118.73 294.71 122.56C294.71 124.85 296.35 125.7 298.33 125.7C303.39 125.7 303.5 121.29 303.5 119.41V118.35ZM303.7 124.35H303.63C303.094 125.346 302.293 126.175 301.315 126.743C300.337 127.311 299.22 127.598 298.09 127.57C293.09 127.57 292.35 124.22 292.35 122.64C292.35 116.8 298.57 116.53 303.09 116.53H303.5V115.6C303.5 112.6 302.44 111.12 299.5 111.12C297.682 111.102 295.899 111.617 294.37 112.6V110.52C295.986 109.793 297.728 109.386 299.5 109.32C303.81 109.32 305.62 111.27 305.62 115.82V123.51C305.587 124.732 305.644 125.956 305.79 127.17H303.67V124.36" fill="black"/>
<path d="M311.84 125.33L322.37 111.6H312.25V109.7H324.83V111.6L314.37 125.29H324.87V127.14H311.87V125.33" fill="black"/>
<path d="M331.29 109.7H333.44V127.14H331.29V109.7ZM333.44 105.05H331.29V102.18H333.44V105.05Z" fill="black"/>
<path d="M348.37 125.7C352.13 125.7 354.15 122.45 354.15 118.42C354.15 114.39 352.15 111.14 348.37 111.14C344.59 111.14 342.59 114.39 342.59 118.42C342.59 122.45 344.59 125.7 348.37 125.7ZM348.37 109.29C354.01 109.29 356.51 113.67 356.51 118.42C356.51 123.17 353.99 127.6 348.37 127.6C342.75 127.6 340.23 123.22 340.23 118.47C340.23 113.72 342.73 109.34 348.37 109.34" fill="black"/>
<path d="M363.22 113.81C363.242 112.439 363.196 111.067 363.08 109.7H365.17V112.81H365.24C365.95 111.24 367.24 109.29 370.88 109.29C375.19 109.29 376.83 112.16 376.83 115.99V127.14H374.67V116.54C374.67 113.26 373.51 111.14 370.54 111.14C366.6 111.14 365.37 114.59 365.37 117.5V127.14H363.22V113.81Z" fill="black"/>
<path d="M395.53 117.19C395.53 114.19 394.3 111.14 391.08 111.14C387.86 111.14 385.95 114.32 385.95 117.19H395.53ZM396.59 126.59C394.978 127.229 393.263 127.567 391.53 127.59C385.75 127.59 383.6 123.69 383.6 118.46C383.6 113.23 386.54 109.33 390.95 109.33C395.87 109.33 397.89 113.33 397.89 117.98V119.08H385.95C385.95 122.77 387.95 125.74 391.7 125.74C393.407 125.684 395.08 125.239 396.59 124.44V126.6" fill="black"/>
<path d="M416.08 124.09C417.663 125.076 419.505 125.567 421.37 125.5C424.31 125.5 426.74 123.99 426.74 120.61C426.74 115.92 415.8 115.34 415.8 109.09C415.8 105.26 419.15 102.86 423.35 102.86C424.946 102.863 426.531 103.13 428.04 103.65L427.66 105.81C426.302 105.179 424.816 104.875 423.32 104.92C420.86 104.92 418.16 105.92 418.16 109.02C418.16 113.81 429.09 113.84 429.09 120.81C429.09 125.63 424.96 127.55 421.27 127.55C419.417 127.588 417.576 127.248 415.86 126.55L416.11 124.12" fill="black"/>
<path d="M442.29 127.14H439.77L433.85 109.7H436.21L441.03 124.78H441.1L446.16 109.7H448.37L442.25 127.14" fill="black"/>
<path d="M454.09 109.7H456.24V127.14H454.09V109.7ZM456.24 105.05H454.09V102.18H456.24V105.05Z" fill="black"/>
<path d="M462.74 125.33L473.24 111.6H463.15V109.7H475.73V111.6L465.24 125.34H475.73V127.19H462.73V125.38" fill="black"/>
<path d="M480.59 125.33L491.08 111.6H481V109.7H493.58V111.6L483.08 125.34H493.58V127.19H480.58V125.38" fill="black"/>
<path d="M510.67 117.19C510.67 114.19 509.44 111.14 506.22 111.14C503 111.14 501.09 114.32 501.09 117.19H510.67ZM511.73 126.59C510.119 127.229 508.404 127.568 506.67 127.59C500.89 127.59 498.74 123.69 498.74 118.46C498.74 113.23 501.68 109.33 506.09 109.33C511.01 109.33 513.03 113.33 513.03 117.98V119.08H501.09C501.09 122.77 503.09 125.74 506.84 125.74C508.548 125.684 510.22 125.239 511.73 124.44V126.6" fill="black"/>
<path d="M519.8 113.6C519.836 112.298 519.789 110.996 519.66 109.7H521.82V113.05H521.88C522.67 111.1 524.14 109.29 526.36 109.29C526.87 109.296 527.378 109.366 527.87 109.5V111.75C527.355 111.613 526.823 111.546 526.29 111.55C522.88 111.55 521.95 115.38 521.95 118.55V127.17H519.8V113.6Z" fill="black"/>
<path d="M543.659 118.35H543.049C539.319 118.35 534.87 118.73 534.87 122.56C534.87 124.85 536.52 125.7 538.5 125.7C543.56 125.7 543.659 121.29 543.659 119.41V118.35ZM543.87 124.35H543.799C543.262 125.345 542.46 126.172 541.483 126.74C540.505 127.308 539.39 127.595 538.26 127.57C533.26 127.57 532.52 124.22 532.52 122.64C532.52 116.8 538.74 116.53 543.25 116.53H543.659V115.6C543.659 112.6 542.599 111.12 539.659 111.12C537.855 111.108 536.086 111.623 534.57 112.6V110.52C536.186 109.792 537.928 109.385 539.7 109.32C544 109.32 545.82 111.27 545.82 115.82V123.51C545.788 124.732 545.842 125.955 545.979 127.17H543.87V124.36" fill="black"/>
<path d="M153.04 153.09C151.358 152.369 149.539 152.028 147.71 152.09C141.52 152.09 138.03 156.46 138.03 162.38C138.03 168.3 141.42 172.67 147.71 172.67C149.54 172.755 151.365 172.412 153.04 171.67L153.18 173.67C151.88 174.46 149.18 174.67 147.71 174.67C140.18 174.67 135.71 169.67 135.71 162.33C135.71 154.99 140.36 149.99 147.71 149.99C149.572 149.954 151.425 150.256 153.18 150.88L153.04 153.06" fill="black"/>
<path d="M167.84 172.86C171.6 172.86 173.62 169.61 173.62 165.57C173.62 161.53 171.62 158.29 167.84 158.29C164.06 158.29 162.07 161.54 162.07 165.57C162.07 169.6 164.08 172.86 167.84 172.86ZM167.84 156.44C173.48 156.44 175.98 160.82 175.98 165.57C175.98 170.32 173.48 174.7 167.84 174.7C162.2 174.7 159.71 170.32 159.71 165.57C159.71 160.82 162.2 156.44 167.84 156.44Z" fill="black"/>
<path d="M182.71 160.96C182.71 159.62 182.71 158.26 182.58 156.85H184.66V159.97H184.73C185.16 158.849 185.942 157.899 186.96 157.262C187.977 156.625 189.174 156.337 190.37 156.44C194.68 156.44 196.32 159.32 196.32 163.15V174.29H194.17V163.69C194.17 160.41 193.01 158.29 190.03 158.29C186.1 158.29 184.87 161.74 184.87 164.65V174.29H182.71V160.96Z" fill="black"/>
<path d="M205.86 158.7H202.37V156.85H205.89V155.6C205.89 151.94 206.02 148.25 210.5 148.25C211.183 148.226 211.864 148.341 212.5 148.59L212.37 150.47C211.833 150.216 211.244 150.089 210.65 150.1C207.72 150.1 208.02 153.28 208.02 155.36V156.86H211.95V158.71H208.02V174.3H205.87V158.7" fill="black"/>
<path d="M229.07 164.34C229.07 161.34 227.84 158.29 224.63 158.29C221.42 158.29 219.5 161.47 219.5 164.34H229.07ZM230.13 173.74C228.518 174.38 226.803 174.719 225.07 174.74C219.29 174.74 217.14 170.84 217.14 165.61C217.14 160.38 220.08 156.48 224.49 156.48C229.41 156.48 231.43 160.48 231.43 165.13V166.23H219.5C219.5 169.92 221.5 172.9 225.24 172.9C226.948 172.846 228.621 172.402 230.13 171.6V173.78" fill="black"/>
<path d="M244.69 172.86C248.52 172.86 249.86 168.75 249.86 165.57C249.86 162.39 248.52 158.29 244.69 158.29C240.59 158.29 239.53 162.19 239.53 165.57C239.53 168.95 240.59 172.86 244.69 172.86ZM252.01 174.29H249.86V171.52H249.79C249.31 172.532 248.536 173.377 247.57 173.944C246.603 174.511 245.489 174.774 244.37 174.7C239.59 174.7 237.19 170.7 237.19 165.57C237.19 160.44 239.24 156.44 244.37 156.44C245.503 156.416 246.619 156.719 247.584 157.313C248.549 157.908 249.322 158.767 249.81 159.79H249.88V148.65H252.03V174.29" fill="black"/>
<path d="M270.5 164.34C270.5 161.34 269.27 158.29 266.06 158.29C262.85 158.29 260.93 161.47 260.93 164.34H270.5ZM271.57 173.74C269.959 174.379 268.244 174.717 266.51 174.74C260.73 174.74 258.57 170.84 258.57 165.61C258.57 160.38 261.52 156.48 265.92 156.48C270.85 156.48 272.87 160.48 272.87 165.13V166.23H260.93C260.93 169.92 262.93 172.9 266.68 172.9C268.388 172.844 270.06 172.399 271.57 171.6V173.78" fill="black"/>
<path d="M279.63 160.75C279.663 159.449 279.62 158.146 279.5 156.85H281.65V160.2H281.72C282.51 158.26 283.98 156.44 286.2 156.44C286.706 156.451 287.21 156.521 287.7 156.65V158.91C287.19 158.764 286.661 158.693 286.13 158.7C282.71 158.7 281.79 162.53 281.79 165.7V174.32H279.63V160.75Z" fill="black"/>
<path d="M303.5 165.5H302.88C299.16 165.5 294.71 165.88 294.71 169.71C294.71 172 296.35 172.86 298.33 172.86C303.39 172.86 303.5 168.44 303.5 166.56V165.5ZM303.7 171.5H303.63C303.092 172.494 302.29 173.319 301.312 173.886C300.334 174.452 299.219 174.738 298.09 174.71C293.09 174.71 292.35 171.36 292.35 169.79C292.35 163.94 298.57 163.67 303.09 163.67H303.5V162.78C303.5 159.78 302.44 158.3 299.5 158.3C297.685 158.266 295.901 158.767 294.37 159.74V157.6C295.986 156.873 297.728 156.466 299.5 156.4C303.81 156.4 305.62 158.35 305.62 162.9V170.6C305.587 171.823 305.644 173.046 305.79 174.26H303.67V171.46" fill="black"/>
<path d="M311.84 172.48L322.37 158.7H312.25V156.85H324.83V158.7L314.37 172.44H324.87V174.29H311.87V172.48" fill="black"/>
<path d="M331.29 156.85H333.44V174.29H331.29V156.85ZM333.44 152.2H331.29V149.33H333.44V152.2Z" fill="black"/>
<path d="M355.15 170.19C355.128 171.558 355.174 172.927 355.29 174.29H353.2V171.18H353.14C352.42 172.75 351.14 174.7 347.49 174.7C343.19 174.7 341.55 171.83 341.55 168V156.85H343.7V167.45C343.7 170.74 344.86 172.86 347.84 172.86C351.77 172.86 353 169.4 353 166.5V156.85H355.15V170.19Z" fill="black"/>
<path d="M363.22 160.96C363.242 159.588 363.195 158.217 363.08 156.85H365.17V159.97H365.24C365.95 158.39 367.24 156.44 370.88 156.44C375.19 156.44 376.83 159.32 376.83 163.15V174.29H374.67V163.69C374.67 160.41 373.51 158.29 370.54 158.29C366.6 158.29 365.37 161.74 365.37 164.65V174.29H363.22V160.96Z" fill="black"/>
<path d="M395.37 171.76C396.781 172.473 398.339 172.849 399.92 172.86C401.97 172.86 403.78 171.73 403.78 169.74C403.78 165.61 395.4 166.26 395.4 161.2C395.4 157.74 398.21 156.44 401.08 156.44C402.549 156.473 404.004 156.739 405.39 157.23L405.18 159.11C403.959 158.588 402.648 158.31 401.32 158.29C399.1 158.29 397.56 158.97 397.56 161.2C397.56 164.44 406.14 164.03 406.14 169.74C406.14 173.44 402.69 174.74 400.05 174.74C398.386 174.782 396.729 174.503 395.17 173.92L395.37 171.8" fill="black"/>
<path d="M418.74 174.29H416.21L410.3 156.85H412.66L417.48 171.93H417.54L422.6 156.85H424.86L418.74 174.29Z" fill="black"/>
<path d="M430.54 156.85H432.69V174.29H430.54V156.85ZM432.69 152.2H430.54V149.33H432.69V152.2Z" fill="black"/>
<path d="M439.18 172.48L449.68 158.7H439.59V156.85H452.17V158.7L441.68 172.44H452.17V174.29H439.17V172.48" fill="black"/>
<path d="M458.64 160.75C458.676 159.448 458.629 158.146 458.5 156.85H460.65V160.2H460.72C461.51 158.26 462.98 156.44 465.2 156.44C465.71 156.452 466.216 156.522 466.71 156.65V158.91C466.196 158.765 465.664 158.694 465.13 158.7C461.71 158.7 460.79 162.53 460.79 165.7V174.32H458.64V160.75Z" fill="black"/>
<path d="M482.5 165.5H481.89C478.16 165.5 473.71 165.88 473.71 169.71C473.71 172 475.35 172.86 477.34 172.86C482.4 172.86 482.5 168.44 482.5 166.56V165.5ZM482.71 171.5H482.64C482.101 172.492 481.298 173.317 480.321 173.883C479.344 174.449 478.229 174.735 477.1 174.71C472.1 174.71 471.36 171.36 471.36 169.79C471.36 163.94 477.58 163.67 482.09 163.67H482.5V162.78C482.5 159.78 481.44 158.3 478.5 158.3C476.689 158.265 474.908 158.766 473.38 159.74V157.6C474.993 156.872 476.732 156.465 478.5 156.4C482.81 156.4 484.62 158.35 484.62 162.9V170.6C484.587 171.823 484.644 173.046 484.79 174.26H482.68V171.46" fill="black"/>
<path d="M96.8902 7.92C96.8902 7.92 78.8002 0 48.5302 0C18.2602 0 0.170153 7.92 0.170153 7.92C0.170153 7.92 -1.45985 42.98 5.37015 62.81C17.4902 97.67 48.4802 107.46 48.4802 107.46C48.4802 107.46 79.4802 97.67 91.5802 62.81C98.4502 42.98 96.8302 7.92 96.8302 7.92" fill="#FF0000"/>
<path d="M80.6595 38.15V57.46H58.1195V80H38.8095V57.46H16.2695V38.15H38.8095V15.6H58.1195V38.15H80.6595Z" fill="white"/>
<path d="M143.94 266.3C141.587 266.359 139.241 266.021 137 265.3L137.41 261.12C139.271 262.048 141.332 262.501 143.41 262.44C146.76 262.44 148.41 261.28 148.41 258.94C148.434 258.261 148.249 257.591 147.88 257.02C147.521 256.503 146.995 256.125 146.39 255.95C145.822 255.767 145.24 255.63 144.65 255.54C144.046 255.466 143.438 255.433 142.83 255.44C142.242 255.433 141.654 255.466 141.07 255.54V251.94C141.36 251.94 141.77 251.94 142.29 251.94C142.932 251.944 143.574 251.901 144.21 251.81C144.847 251.71 145.473 251.549 146.08 251.33C146.686 251.134 147.219 250.762 147.61 250.26C147.992 249.743 148.189 249.113 148.17 248.47C148.17 246.47 146.653 245.47 143.62 245.47C141.692 245.403 139.773 245.776 138.01 246.56L137.63 242.82C139.833 242.14 142.124 241.787 144.43 241.77C146.592 241.666 148.737 242.198 150.6 243.3C151.373 243.818 151.995 244.531 152.404 245.367C152.813 246.203 152.995 247.132 152.93 248.06C152.956 249.261 152.524 250.427 151.72 251.32C150.823 252.282 149.661 252.957 148.38 253.26V253.33C149.789 253.488 151.083 254.179 152 255.26C152.893 256.3 153.38 257.629 153.37 259C153.445 260.058 153.25 261.117 152.804 262.079C152.358 263.041 151.675 263.874 150.82 264.5C148.767 265.795 146.364 266.424 143.94 266.3Z" fill="black"/>
<path d="M162.09 266.23C160.553 266.294 159.048 265.772 157.88 264.77C157.328 264.266 156.895 263.646 156.612 262.954C156.328 262.262 156.201 261.516 156.24 260.77C156.225 259.931 156.432 259.103 156.842 258.37C157.251 257.637 157.848 257.027 158.57 256.6C160.615 255.493 162.929 254.98 165.25 255.12C166.09 255.12 166.92 255.12 167.74 255.22C167.785 254.687 167.719 254.152 167.547 253.646C167.375 253.14 167.1 252.675 166.74 252.28C165.853 251.585 164.734 251.252 163.61 251.35C161.721 251.372 159.874 251.912 158.27 252.91L158.1 249.37C160.058 248.42 162.215 247.954 164.39 248.01C169.45 248.01 171.98 250.39 171.98 255.15C171.98 255.59 171.98 256.45 171.98 257.74C171.98 259.03 171.98 259.9 171.98 260.36C171.98 262.28 172.06 264.14 172.22 265.93H168.22C168.167 265.469 168.143 265.004 168.15 264.54C168.15 264.24 168.15 263.73 168.22 263.01H168.15C167.535 264.053 166.644 264.906 165.574 265.474C164.505 266.042 163.299 266.304 162.09 266.23ZM163.45 262.93C164.032 262.95 164.611 262.847 165.15 262.628C165.69 262.409 166.177 262.079 166.58 261.66C167.472 260.592 167.91 259.217 167.8 257.83C167.37 257.83 166.87 257.77 166.31 257.77C164.888 257.694 163.465 257.912 162.13 258.41C161.776 258.573 161.466 258.82 161.228 259.13C160.99 259.439 160.83 259.802 160.763 260.186C160.696 260.571 160.724 260.966 160.844 261.338C160.963 261.71 161.172 262.047 161.45 262.32C162.022 262.757 162.732 262.973 163.45 262.93Z" fill="black"/>
<path d="M185.01 265.89V248.38H201.22V265.89H196.74V251.75H189.49V265.89H185.01Z" fill="black"/>
<path d="M206.37 245.05V240.7H210.93V245.05H206.37ZM206.37 265.89V248.38H210.93V265.89H206.37Z" fill="black"/>
<path d="M213.84 270.52V262.46H215.37C216.138 261.285 216.696 259.986 217.02 258.62C217.384 256.864 217.548 255.073 217.51 253.28V248.38H231.59V262.46H233.59V270.52H229.59V265.89H217.82V270.52H213.84ZM219.84 262.46H227.08V251.75H221.57V253.92C221.583 257.707 221.013 260.553 219.86 262.46H219.84Z" fill="black"/>
<path d="M240.29 265.89V251.75H234.71V248.38H250.52V251.75H244.78V265.89H240.29Z" fill="black"/>
<path d="M253.37 273.03V253.69C253.37 251.37 253.31 249.61 253.2 248.38H257.55C257.64 249.38 257.68 250.27 257.68 251.2H257.75C258.375 250.197 259.249 249.373 260.286 248.807C261.323 248.241 262.489 247.953 263.67 247.97C264.697 247.93 265.72 248.131 266.655 248.557C267.591 248.982 268.415 249.62 269.06 250.42C270.466 252.298 271.174 254.607 271.06 256.95C271.172 259.376 270.444 261.767 269 263.72C268.355 264.554 267.52 265.223 266.566 265.671C265.612 266.12 264.564 266.335 263.51 266.3C262.376 266.334 261.254 266.058 260.265 265.501C259.277 264.944 258.459 264.128 257.9 263.14H257.83C257.9 263.82 257.93 265.23 257.93 267.39V273.03H253.37ZM259.11 261.2C259.46 261.704 259.928 262.114 260.474 262.393C261.02 262.672 261.627 262.812 262.24 262.8C262.833 262.813 263.42 262.675 263.945 262.399C264.47 262.122 264.916 261.717 265.24 261.22C266.009 259.984 266.386 258.544 266.32 257.09C266.396 255.66 266.018 254.243 265.24 253.04C264.905 252.559 264.455 252.17 263.931 251.908C263.407 251.646 262.826 251.52 262.24 251.54C261.627 251.529 261.02 251.668 260.473 251.945C259.925 252.222 259.454 252.629 259.1 253.13C258.26 254.29 257.834 255.699 257.89 257.13C257.831 258.582 258.253 260.012 259.09 261.2H259.11Z" fill="black"/>
<path d="M274.87 265.89V248.38H279.37V253.11C279.37 255.37 279.29 257.703 279.13 260.11H279.2L286.78 248.34H291.44V265.85H286.95V261.02C286.95 258.873 287.017 256.643 287.15 254.33H287.08L279.54 265.85L274.87 265.89Z" fill="black"/>
<path d="M296.37 265.89V248.38H303.07L307.37 261.6L311.68 248.34H318.37V265.85H314.16V258.6C314.16 256.34 314.23 254 314.36 251.6H314.29L309.5 265.91H305.22L300.47 251.6H300.37C300.51 253.707 300.58 256.167 300.58 258.98V265.91L296.37 265.89Z" fill="black"/>
<path d="M334.47 265.89L331.27 261.78C329.823 259.9 328.76 258.47 328.08 257.49H328.01V265.89H323.37V248.38H327.99V256.3H328.06L328.94 255.17L330.13 253.62L331.13 252.36L334.13 248.36H339.37L332.29 256.66L340.15 265.87L334.47 265.89Z" fill="black"/>
<path d="M342.73 265.89V248.38H347.22V253.11C347.22 255.37 347.14 257.703 346.98 260.11H347.05L354.63 248.34H359.29V265.85H354.8V261.02C354.8 258.873 354.87 256.643 355.01 254.33H354.94L347.37 265.89H342.73Z" fill="black"/>
<path d="M373.13 265.89V242.16H377.95V261.85H385.95V242.16H390.78V261.85H398.78V242.16H403.6V265.89H373.13Z" fill="black"/>
<path d="M408.86 265.89V248.38H417.91C418.869 248.367 419.825 248.488 420.75 248.74C421.583 248.987 422.329 249.466 422.9 250.12C423.528 250.83 423.857 251.754 423.82 252.7C423.82 254.92 422.677 256.253 420.39 256.7C421.441 256.877 422.415 257.36 423.19 258.09C423.549 258.452 423.829 258.883 424.013 259.358C424.198 259.833 424.282 260.341 424.26 260.85C424.26 264.183 421.96 265.85 417.36 265.85L408.86 265.89ZM413.28 255.35H416.37C418.25 255.35 419.19 254.68 419.19 253.35C419.19 252.02 418.19 251.35 416.19 251.35H413.26L413.28 255.35ZM413.28 262.83H416.68C417.496 262.883 418.306 262.661 418.98 262.2C419.24 261.999 419.448 261.739 419.587 261.442C419.726 261.144 419.792 260.818 419.78 260.49C419.78 259.1 418.71 258.41 416.58 258.41H413.28V262.83Z" fill="black"/>
<path d="M436.43 266.3C433.888 266.428 431.397 265.548 429.5 263.85C428.615 262.962 427.928 261.897 427.481 260.726C427.035 259.554 426.841 258.302 426.91 257.05C426.865 255.854 427.058 254.662 427.476 253.541C427.895 252.42 428.532 251.393 429.35 250.52C430.168 249.672 431.155 249.006 432.248 248.567C433.34 248.127 434.513 247.924 435.69 247.97C440.81 247.97 443.37 251.087 443.37 257.32C443.375 257.685 443.352 258.049 443.3 258.41H431.57C431.559 259.029 431.691 259.641 431.957 260.2C432.222 260.759 432.614 261.248 433.1 261.63C434.215 262.469 435.587 262.893 436.98 262.83C438.783 262.855 440.554 262.359 442.08 261.4L442.15 265.14C440.355 265.95 438.4 266.347 436.43 266.3ZM431.5 255.3H439.19C439.19 252.58 437.96 251.22 435.52 251.22C434.509 251.199 433.531 251.581 432.8 252.28C432.009 253.083 431.545 254.153 431.5 255.28V255.3Z" fill="black"/>
<path d="M447.18 265.89V248.38H451.67V253.11C451.67 255.37 451.59 257.703 451.43 260.11H451.5L459.08 248.34H463.74V265.85H459.25V261.02C459.25 258.873 459.316 256.643 459.45 254.33H459.37L451.82 265.85L447.18 265.89ZM455.54 245.97C454.222 246.031 452.932 245.58 451.94 244.71C451.044 243.884 450.358 242.855 449.94 241.71L451.94 240.52C452.22 241.246 452.715 241.869 453.358 242.306C454.001 242.744 454.762 242.976 455.54 242.97C456.31 242.94 457.057 242.695 457.696 242.262C458.334 241.829 458.838 241.225 459.15 240.52L461.15 241.71C460.734 242.856 460.048 243.886 459.15 244.71C458.155 245.581 456.861 246.033 455.54 245.97Z" fill="black"/>
<path d="M482.98 270.52V265.89H468.7V248.38H473.19V262.46H480.43V248.38H484.92V262.46H486.92V270.52H482.98Z" fill="black"/>
<path d="M494.64 266.23C493.103 266.294 491.598 265.772 490.43 264.77C489.878 264.266 489.445 263.646 489.161 262.954C488.878 262.262 488.751 261.517 488.79 260.77C488.764 259.921 488.966 259.08 489.376 258.336C489.786 257.592 490.388 256.972 491.12 256.54C493.165 255.434 495.479 254.921 497.8 255.06C498.64 255.06 499.47 255.06 500.29 255.16C500.335 254.628 500.269 254.092 500.097 253.586C499.925 253.08 499.65 252.615 499.29 252.22C498.402 251.525 497.284 251.192 496.16 251.29C494.271 251.312 492.424 251.852 490.82 252.85L490.65 249.31C492.608 248.36 494.765 247.894 496.94 247.95C502 247.95 504.53 250.33 504.53 255.09C504.53 255.53 504.53 256.39 504.53 257.68C504.53 258.97 504.53 259.84 504.53 260.3C504.53 262.22 504.61 264.08 504.77 265.87H500.77C500.717 265.409 500.693 264.944 500.7 264.48C500.7 264.18 500.7 263.67 500.77 262.95H500.7C500.094 264.005 499.206 264.871 498.135 265.45C497.065 266.029 495.855 266.299 494.64 266.23ZM496 262.93C496.582 262.95 497.161 262.847 497.7 262.628C498.239 262.409 498.727 262.079 499.13 261.66C500.022 260.592 500.46 259.217 500.35 257.83C499.92 257.83 499.42 257.77 498.86 257.77C497.438 257.695 496.015 257.913 494.68 258.41C494.325 258.573 494.016 258.82 493.778 259.13C493.539 259.439 493.38 259.802 493.313 260.186C493.246 260.571 493.274 260.966 493.394 261.338C493.513 261.71 493.721 262.047 494 262.32C494.572 262.757 495.282 262.973 496 262.93Z" fill="black"/>
<path d="M508.99 273.03V253.69C508.99 251.37 508.93 249.61 508.82 248.38H513.17C513.26 249.38 513.31 250.27 513.31 251.2H513.37C513.992 250.197 514.864 249.372 515.899 248.806C516.935 248.24 518.1 247.952 519.28 247.97C520.308 247.928 521.331 248.128 522.267 248.554C523.203 248.979 524.026 249.618 524.67 250.42C526.083 252.295 526.791 254.606 526.67 256.95C526.782 259.376 526.054 261.767 524.61 263.72C523.965 264.554 523.131 265.223 522.176 265.671C521.222 266.12 520.174 266.335 519.12 266.3C517.987 266.331 516.866 266.053 515.878 265.497C514.89 264.94 514.071 264.126 513.51 263.14H513.44C513.51 263.82 513.55 265.23 513.55 267.39V273.03H508.99ZM514.74 261.2C515.087 261.705 515.553 262.115 516.098 262.394C516.643 262.674 517.248 262.813 517.86 262.8C518.454 262.814 519.041 262.677 519.566 262.4C520.091 262.124 520.536 261.717 520.86 261.22C521.638 259.987 522.018 258.546 521.95 257.09C522.028 255.658 521.646 254.24 520.86 253.04C520.526 252.559 520.076 252.169 519.552 251.907C519.028 251.645 518.446 251.519 517.86 251.54C517.246 251.53 516.638 251.669 516.089 251.946C515.54 252.223 515.067 252.629 514.71 253.13C513.878 254.293 513.456 255.701 513.51 257.13C513.455 258.586 513.888 260.019 514.74 261.2Z" fill="black"/>
<path d="M530.65 245.05V240.7H535.2V245.05H530.65ZM530.65 265.89V248.38H535.2V265.89H530.65Z" fill="black"/>
<path d="M537.31 244.88V240.88H541.22V244.88H537.31ZM540.44 265.88V248.38H545V265.89L540.44 265.88ZM548.26 240.88V244.88H544.37V240.88H548.26Z" fill="black"/>
</g>
<defs>
<clipPath id="clip0_1546_21150">
<rect width="710.7" height="273.03" fill="white"/>
</clipPath>
</defs>
</svg>
