<svg width="31" height="25" viewBox="0 0 31 25" fill="none" xmlns="http://www.w3.org/2000/svg">
<path d="M30.1301 3.74043C28.9803 4.24202 27.83 4.55525 26.6807 4.68106C27.9789 3.89116 28.8569 2.77533 29.3145 1.33357C28.1271 2.04799 26.8598 2.53688 25.5122 2.80026C24.325 1.52146 22.8662 0.881836 21.135 0.881836C19.4782 0.881836 18.0657 1.47414 16.897 2.65899C15.7285 3.84384 15.1443 5.27613 15.1443 6.95611C15.1443 7.40738 15.1937 7.87135 15.2927 8.34778C12.8444 8.22244 10.5477 7.59874 8.40241 6.47668C6.25709 5.35438 4.43639 3.8593 2.94031 1.9912C2.39624 2.93137 2.12421 3.95325 2.12421 5.05661C2.12421 6.09719 2.36528 7.06275 2.84766 7.95283C3.32981 8.84291 3.97905 9.56379 4.79516 10.1155C3.83063 10.0778 2.92802 9.8207 2.08733 9.34427V9.41952C2.08733 10.8864 2.54171 12.1745 3.45046 13.2843C4.35922 14.3941 5.50609 15.0928 6.89085 15.3811C6.37159 15.519 5.84596 15.588 5.31441 15.588C4.96817 15.588 4.59096 15.5566 4.18302 15.4943C4.56638 16.7103 5.27116 17.71 6.29738 18.4936C7.3236 19.2775 8.48595 19.6815 9.78421 19.7069C7.60816 21.4367 5.12911 22.3019 2.34707 22.3019C1.81529 22.3019 1.33314 22.2772 0.900391 22.2269C3.68243 24.0446 6.7488 24.9534 10.0997 24.9534C12.2264 24.9534 14.2233 24.612 16.09 23.9288C17.9573 23.2455 19.5522 22.3303 20.8753 21.1828C22.1981 20.0358 23.3388 18.7162 24.297 17.2241C25.2551 15.7322 25.969 14.1746 26.4391 12.5509C26.909 10.9271 27.1439 9.30064 27.1439 7.67052C27.1439 7.31943 27.1378 7.05629 27.1252 6.88063C28.3001 6.01594 29.3018 4.9689 30.1301 3.74043Z" fill="#262626"/>
</svg>
