<svg width="1055" height="213" viewBox="0 0 1055 213" fill="none" xmlns="http://www.w3.org/2000/svg">
<path d="M20.5476 42.9463L18.9773 42.3247L18.9716 42.3389L18.9662 42.3533L20.5476 42.9463ZM26.0489 34.1653L24.8201 33.0067L24.8201 33.0067L26.0489 34.1653ZM34.4068 28.3465L33.7454 26.7925L33.7334 26.7977L34.4068 28.3465ZM55.7774 28.3465L55.0915 29.8899L55.1059 29.8963L55.1205 29.9024L55.7774 28.3465ZM63.8178 34.0595L62.5536 35.1793L62.5705 35.1984L62.588 35.217L63.8178 34.0595ZM70.8003 56.8055V58.4943H72.4892V56.8055H70.8003ZM25.9431 56.8055V55.1166H24.0672L24.2635 56.9823L25.9431 56.8055ZM32.1851 69.9241L31.0276 71.1539L31.0276 71.1539L32.1851 69.9241ZM51.4398 74.5791L51.7292 76.243L51.7568 76.2381L51.7842 76.2324L51.4398 74.5791ZM56.2006 73.2037L56.8018 74.7819L56.8341 74.7696L56.8659 74.756L56.2006 73.2037ZM60.2208 71.0878L61.1383 72.5057L61.148 72.4995L61.1576 72.493L60.2208 71.0878ZM63.3946 68.3371L64.6284 67.1838L63.3401 65.8056L62.1124 67.238L63.3946 68.3371ZM67.9438 73.2037L69.1717 74.3633L70.2613 73.2097L69.1776 72.0504L67.9438 73.2037ZM58.5281 79.3398L59.1305 80.9176L59.1429 80.9129L59.1553 80.9079L58.5281 79.3398ZM34.9357 79.5514L34.2862 81.1104L34.3001 81.1162L34.3141 81.1218L34.9357 79.5514ZM26.1547 73.7327L24.9433 74.9095L24.9519 74.9183L24.9605 74.9269L26.1547 73.7327ZM20.5476 64.9517L18.9662 65.5447L18.9716 65.559L18.9773 65.5733L20.5476 64.9517ZM63.5004 50.6693V52.3582H65.3279L65.1841 50.5364L63.5004 50.6693ZM61.8077 43.3695L63.3652 42.7163L63.3652 42.7163L61.8077 43.3695ZM57.9991 37.7623L56.8049 38.9565L56.8181 38.9698L56.8317 38.9828L57.9991 37.7623ZM52.3919 34.1653L51.7204 35.7149L51.7511 35.7282L51.7823 35.7403L52.3919 34.1653ZM37.6864 34.1653L38.2961 35.7403L38.3091 35.7352L38.3221 35.73L37.6864 34.1653ZM31.9735 37.8681L33.1409 39.0886L33.1544 39.0756L33.1677 39.0623L31.9735 37.8681ZM27.9532 43.4753L26.433 42.7397L26.4233 42.7598L26.4141 42.7801L27.9532 43.4753ZM25.9431 50.6693L24.2695 50.4432L24.0107 52.3582H25.9431V50.6693ZM20.3321 53.949C20.3321 50.1831 20.9368 46.7183 22.1289 43.5393L18.9662 42.3533C17.6193 45.9451 16.9544 49.8155 16.9544 53.949H20.3321ZM22.1179 43.5679C23.385 40.3668 25.1076 37.6256 27.2777 35.3239L24.8201 33.0067C22.3353 35.6421 20.3903 38.7549 18.9773 42.3247L22.1179 43.5679ZM27.2777 35.3239C29.4417 33.0287 32.0363 31.2188 35.0802 29.8954L33.7334 26.7977C30.2885 28.2955 27.3111 30.3647 24.8201 33.0067L27.2777 35.3239ZM35.068 29.9006C38.1582 28.5856 41.5283 27.9195 45.1979 27.9195V24.5418C41.1091 24.5418 37.2851 25.2863 33.7455 26.7925L35.068 29.9006ZM45.1979 27.9195C48.8684 27.9195 52.1575 28.5859 55.0915 29.8899L56.4633 26.8032C53.0495 25.286 49.2856 24.5418 45.1979 24.5418V27.9195ZM55.1205 29.9024C58.0725 31.1488 60.542 32.9081 62.5536 35.1793L65.0821 32.9397C62.7208 30.2737 59.83 28.2244 56.4343 26.7907L55.1205 29.9024ZM62.588 35.217C64.6703 37.4294 66.2819 40.1137 67.4098 43.2985L70.5938 42.1709C69.3237 38.5848 67.4793 35.4856 65.0477 32.902L62.588 35.217ZM67.4098 43.2985C68.5386 46.4857 69.1114 49.9607 69.1114 53.7374H72.4892C72.4892 49.6147 71.863 45.7545 70.5938 42.1709L67.4098 43.2985ZM69.1114 53.7374V56.8055H72.4892V53.7374H69.1114ZM70.8003 55.1166H25.9431V58.4943H70.8003V55.1166ZM24.2635 56.9823C24.866 62.7053 27.1083 67.4652 31.0276 71.1539L33.3426 68.6942C30.0677 65.612 28.1488 61.6262 27.6227 56.6287L24.2635 56.9823ZM31.0276 71.1539C35.0021 74.8946 40.2451 76.6911 46.5732 76.6911V73.3134C40.9112 73.3134 36.5621 71.7244 33.3426 68.6942L31.0276 71.1539ZM46.5732 76.6911C48.2938 76.6911 50.0128 76.5414 51.7292 76.243L51.1504 72.9152C49.6223 73.1809 48.097 73.3134 46.5732 73.3134V76.6911ZM51.7842 76.2324C53.5566 75.8632 55.2301 75.3807 56.8018 74.7819L55.5993 71.6255C54.2088 72.1552 52.7084 72.5896 51.0953 72.9257L51.7842 76.2324ZM56.8659 74.756C58.4237 74.0884 59.8497 73.3395 61.1383 72.5057L59.3033 69.6699C58.1938 70.3878 56.9397 71.0495 55.5353 71.6514L56.8659 74.756ZM61.1576 72.493C62.5341 71.5753 63.7143 70.5593 64.6769 69.4362L62.1124 67.238C61.3822 68.0899 60.4465 68.9076 59.284 69.6826L61.1576 72.493ZM62.1609 69.4904L66.7101 74.357L69.1776 72.0504L64.6284 67.1838L62.1609 69.4904ZM66.716 72.0441C64.5159 74.3736 61.5965 76.2935 57.9008 77.7718L59.1553 80.9079C63.2179 79.2829 66.5757 77.112 69.1717 74.3633L66.716 72.0441ZM57.9256 77.7621C54.2458 79.1671 50.3598 79.8727 46.2558 79.8727V83.2504C50.7565 83.2504 55.052 82.4748 59.1305 80.9176L57.9256 77.7621ZM46.2558 79.8727C42.2772 79.8727 38.7187 79.2325 35.5573 77.9811L34.3141 81.1218C37.9237 82.5505 41.9118 83.2504 46.2558 83.2504V79.8727ZM35.5853 77.9925C32.393 76.6623 29.6537 74.8432 27.3489 72.5385L24.9605 74.9269C27.5929 77.5593 30.7076 79.6193 34.2862 81.1104L35.5853 77.9925ZM27.3661 72.5559C25.132 70.2561 23.3809 67.5208 22.1179 64.3301L18.9773 65.5733C20.3944 69.1535 22.3814 72.2722 24.9433 74.9095L27.3661 72.5559ZM22.1289 64.3587C20.9368 61.1796 20.3321 57.7149 20.3321 53.949H16.9544C16.9544 58.0825 17.6193 61.9528 18.9662 65.5447L22.1289 64.3587ZM65.1841 50.5364C64.9602 47.7009 64.3601 45.0889 63.3652 42.7163L60.2502 44.0226C61.0891 46.0229 61.6175 48.2775 61.8168 50.8023L65.1841 50.5364ZM63.3652 42.7163C62.3637 40.3282 60.9656 38.2628 59.1665 36.5419L56.8317 38.9828C58.277 40.3652 59.4179 42.0378 60.2502 44.0226L63.3652 42.7163ZM59.1933 36.5681C57.4642 34.839 55.392 33.5156 53.0016 32.5903L51.7823 35.7403C53.7647 36.5077 55.4306 37.5823 56.8049 38.9565L59.1933 36.5681ZM53.0635 32.6156C50.704 31.5932 48.0719 31.1011 45.1979 31.1011V34.4788C47.6841 34.4788 49.8481 34.9036 51.7204 35.7149L53.0635 32.6156ZM45.1979 31.1011C42.2573 31.1011 39.534 31.5918 37.0508 32.6006L38.3221 35.73C40.3527 34.905 42.6371 34.4788 45.1979 34.4788V31.1011ZM37.0767 32.5903C34.676 33.5196 32.5714 34.8818 30.7793 36.6739L33.1677 39.0623C34.6199 37.6101 36.3239 36.5037 38.2961 35.7403L37.0767 32.5903ZM30.8061 36.6477C29.0268 38.3496 27.5715 40.3868 26.433 42.7397L29.4735 44.2109C30.4509 42.1909 31.6758 40.4899 33.1409 39.0886L30.8061 36.6477ZM26.4141 42.7801C25.3531 45.1293 24.6419 47.6872 24.2695 50.4432L27.6168 50.8955C27.9497 48.4322 28.5785 46.1941 29.4924 44.1704L26.4141 42.7801ZM25.9431 52.3582H63.5004V48.9805H25.9431V52.3582ZM122.665 26.3364L123.894 25.1778L120.976 22.0833V26.3364H122.665ZM129.647 33.7421L128.418 34.9007L129.801 36.3671L131.003 34.7492L129.647 33.7421ZM136.524 28.135L137.232 29.6684L137.24 29.6645L137.249 29.6605L136.524 28.135ZM156.413 28.8755L155.493 30.2915L155.501 30.2967L155.509 30.3018L156.413 28.8755ZM162.973 36.7044L161.425 37.3813L162.871 40.6848L164.483 37.4597L162.973 36.7044ZM170.167 28.8755L169.322 27.4132L169.315 27.4173L169.308 27.4215L170.167 28.8755ZM195.24 31.4146L196.471 30.2579L196.471 30.2579L195.24 31.4146ZM200.213 80.292V81.9809H201.902V80.292H200.213ZM193.124 80.292H191.435V81.9809H193.124V80.292ZM189.633 36.5986L188.371 37.7206L188.387 37.7391L188.404 37.7572L189.633 36.5986ZM168.897 37.5507L170.19 38.6377L170.196 38.6305L170.202 38.6233L168.897 37.5507ZM164.983 80.292V81.9809H166.672V80.292H164.983ZM157.895 80.292H156.206V81.9809H157.895V80.292ZM154.403 36.7044L153.143 37.8285L153.151 37.8371L153.158 37.8456L154.403 36.7044ZM133.667 37.5507L132.377 36.4611L132.37 36.4696L132.363 36.4781L133.667 37.5507ZM129.753 80.292V81.9809H131.442V80.292H129.753ZM122.665 80.292H120.976V81.9809H122.665V80.292ZM121.436 27.495L128.418 34.9007L130.876 32.5835L123.894 25.1778L121.436 27.495ZM131.003 34.7492C132.671 32.504 134.742 30.8176 137.232 29.6684L135.816 26.6015C132.805 27.9914 130.291 30.0431 128.292 32.735L131.003 34.7492ZM137.249 29.6605C139.811 28.4431 142.767 27.8137 146.151 27.8137V24.436C142.342 24.436 138.879 25.1466 135.799 26.6094L137.249 29.6605ZM146.151 27.8137C149.909 27.8137 152.995 28.668 155.493 30.2915L157.334 27.4595C154.189 25.4155 150.434 24.436 146.151 24.436V27.8137ZM155.509 30.3018C158.094 31.941 160.068 34.2785 161.425 37.3813L164.52 36.0274C162.915 32.3593 160.516 29.4776 157.318 27.4492L155.509 30.3018ZM164.483 37.4597C166.038 34.3496 168.217 31.9894 171.026 30.3295L169.308 27.4215C165.91 29.4292 163.293 32.2882 161.462 35.9491L164.483 37.4597ZM171.012 30.3379C173.887 28.6765 177.323 27.8137 181.381 27.8137V24.436C176.834 24.436 172.794 25.407 169.322 27.4132L171.012 30.3379ZM181.381 27.8137C186.952 27.8137 191.083 29.4583 194.01 32.5713L196.471 30.2579C192.767 26.3179 187.659 24.436 181.381 24.436V27.8137ZM194.01 32.5713C196.93 35.6782 198.524 40.3472 198.524 46.8607H201.902C201.902 39.8324 200.18 34.204 196.471 30.2579L194.01 32.5713ZM198.524 46.8607V80.292H201.902V46.8607H198.524ZM200.213 78.6031H193.124V81.9809H200.213V78.6031ZM194.813 80.292V48.1302H191.435V80.292H194.813ZM194.813 48.1302C194.813 42.7051 193.61 38.3542 190.862 35.44L188.404 37.7572C190.312 39.78 191.435 43.1169 191.435 48.1302H194.813ZM190.895 35.4765C188.231 32.4795 184.396 31.1011 179.688 31.1011V34.4788C183.727 34.4788 186.521 35.6394 188.371 37.7206L190.895 35.4765ZM179.688 31.1011C174.665 31.1011 170.563 32.8658 167.593 36.4781L170.202 38.6233C172.451 35.888 175.543 34.4788 179.688 34.4788V31.1011ZM167.605 36.4638C164.661 39.9649 163.294 44.7008 163.294 50.4577H166.672C166.672 45.212 167.915 41.3432 170.19 38.6377L167.605 36.4638ZM163.294 50.4577V80.292H166.672V50.4577H163.294ZM164.983 78.6031H157.895V81.9809H164.983V78.6031ZM159.583 80.292V48.1302H156.206V80.292H159.583ZM159.583 48.1302C159.583 42.8264 158.371 38.5335 155.648 35.5632L153.158 37.8456C155.091 39.9534 156.206 43.2778 156.206 48.1302H159.583ZM155.664 35.5802C152.944 32.5306 149.122 31.1011 144.459 31.1011V34.4788C148.399 34.4788 151.208 35.6589 153.143 37.8285L155.664 35.5802ZM144.459 31.1011C139.496 31.1011 135.408 32.8714 132.377 36.4611L134.958 38.6404C137.287 35.8823 140.393 34.4788 144.459 34.4788V31.1011ZM132.363 36.4781C129.435 40.0395 128.064 44.7625 128.064 50.4577H131.442C131.442 45.2914 132.681 41.4097 134.972 38.6233L132.363 36.4781ZM128.064 50.4577V80.292H131.442V50.4577H128.064ZM129.753 78.6031H122.665V81.9809H129.753V78.6031ZM124.354 80.292V26.3364H120.976V80.292H124.354ZM254.512 80.9268H252.823V85.1168L255.729 82.0979L254.512 80.9268ZM254.512 0.945583V-0.743293H252.823V0.945583H254.512ZM261.6 0.945583H263.289V-0.743293H261.6V0.945583ZM261.6 36.4928H259.911V41.8779L262.987 37.4572L261.6 36.4928ZM270.17 28.8755L269.391 27.3771L269.378 27.3837L270.17 28.8755ZM291.964 28.2408L291.265 29.7782L291.279 29.7849L291.294 29.7912L291.964 28.2408ZM305.294 64.8459L303.712 64.2529L303.712 64.2529L305.294 64.8459ZM300.004 73.6269L298.758 72.4873L298.749 72.4971L298.74 72.5071L300.004 73.6269ZM292.069 79.4456L292.739 80.9961L292.754 80.9898L292.768 80.9831L292.069 79.4456ZM271.016 79.1282L270.261 80.6388L270.28 80.6486L270.3 80.6578L271.016 79.1282ZM262.658 72.4631L263.961 71.3884L262.755 69.9269L261.441 71.292L262.658 72.4631ZM288.578 73.3095L289.277 74.847L289.277 74.847L288.578 73.3095ZM294.608 68.8661L293.346 67.7441L293.346 67.7441L294.608 68.8661ZM298.629 62.201L300.203 62.8131L300.205 62.8059L300.208 62.7987L298.629 62.201ZM298.629 45.3796L297.049 45.9773L297.052 45.9845L297.055 45.9917L298.629 45.3796ZM294.503 38.7145L293.24 39.8365L293.262 39.8612L293.285 39.8851L294.503 38.7145ZM288.366 34.2711L287.668 35.8086L287.676 35.8125L287.685 35.8163L288.366 34.2711ZM273.026 34.2711L272.344 32.7259L272.336 32.7297L272.327 32.7336L273.026 34.2711ZM266.89 38.7145L265.651 37.567L265.649 37.5689L266.89 38.7145ZM262.87 45.3796L264.444 45.9917L264.447 45.9845L264.449 45.9773L262.87 45.3796ZM262.87 62.201L261.29 62.7987L261.293 62.8059L261.296 62.8131L262.87 62.201ZM273.132 73.3095L272.433 74.847L272.442 74.8509L272.45 74.8547L273.132 73.3095ZM256.201 80.9268V0.945583H252.823V80.9268H256.201ZM254.512 2.63446H261.6V-0.743293H254.512V2.63446ZM259.911 0.945583V36.4928H263.289V0.945583H259.911ZM262.987 37.4572C265.092 34.4311 267.745 32.0739 270.961 30.3674L269.378 27.3837C265.682 29.3447 262.623 32.0656 260.214 35.5283L262.987 37.4572ZM270.949 30.3739C274.219 28.6733 277.829 27.8137 281.807 27.8137V24.436C277.322 24.436 273.173 25.4101 269.391 27.3771L270.949 30.3739ZM281.807 27.8137C285.252 27.8137 288.397 28.4748 291.265 29.7782L292.662 26.7033C289.323 25.1855 285.697 24.436 281.807 24.436V27.8137ZM291.294 29.7912C294.181 31.0377 296.663 32.8029 298.758 35.0933L301.25 32.8141C298.831 30.1674 295.953 28.1239 292.633 26.6903L291.294 29.7912ZM298.758 35.0933C300.858 37.3902 302.512 40.1277 303.712 43.3277L306.875 42.1417C305.536 38.5708 303.664 35.4543 301.25 32.8141L298.758 35.0933ZM303.712 43.3277C304.905 46.5067 305.509 49.9715 305.509 53.7374H308.887C308.887 49.6039 308.222 45.7335 306.875 42.1417L303.712 43.3277ZM305.509 53.7374C305.509 57.5777 304.903 61.0771 303.712 64.2529L306.875 65.4389C308.223 61.8438 308.887 57.9376 308.887 53.7374H305.509ZM303.712 64.2529C302.512 67.4529 300.858 70.1904 298.758 72.4873L301.25 74.7665C303.664 72.1263 305.536 69.0098 306.875 65.4389L303.712 64.2529ZM298.74 72.5071C296.716 74.7923 294.266 76.5922 291.37 77.9081L292.768 80.9831C296.08 79.4779 298.919 77.3986 301.268 74.7467L298.74 72.5071ZM291.4 77.8951C288.521 79.1382 285.401 79.7669 282.019 79.7669V83.1446C285.831 83.1446 289.411 82.4332 292.739 80.9961L291.4 77.8951ZM282.019 79.7669C278.221 79.7669 274.802 79.0354 271.732 77.5986L270.3 80.6578C273.86 82.3244 277.776 83.1446 282.019 83.1446V79.7669ZM271.771 77.6177C268.74 76.1018 266.14 74.0292 263.961 71.3884L261.356 73.5379C263.832 76.5395 266.804 78.9103 270.261 80.6388L271.771 77.6177ZM261.441 71.292L253.295 79.7556L255.729 82.0979L263.875 73.6343L261.441 71.292ZM280.961 76.5853C283.934 76.5853 286.714 76.0121 289.277 74.847L287.879 71.772C285.788 72.7228 283.489 73.2076 280.961 73.2076V76.5853ZM289.277 74.847C291.818 73.6918 294.021 72.0694 295.871 69.9881L293.346 67.7441C291.811 69.4715 289.993 70.8113 287.879 71.772L289.277 74.847ZM295.871 69.9881C297.706 67.9236 299.148 65.5263 300.203 62.8131L297.055 61.5889C296.135 63.9539 294.896 66 293.346 67.7441L295.871 69.9881ZM300.208 62.7987C301.274 59.9821 301.799 56.9566 301.799 53.7374H298.421C298.421 56.5838 297.958 59.2007 297.049 61.6033L300.208 62.7987ZM301.799 53.7374C301.799 50.5188 301.274 47.5226 300.203 44.7674L297.055 45.9917C297.958 48.3147 298.421 50.8904 298.421 53.7374H301.799ZM300.208 44.7819C299.148 41.9796 297.656 39.5575 295.72 37.5439L293.285 39.8851C294.876 41.539 296.135 43.5603 297.049 45.9773L300.208 44.7819ZM295.765 37.5924C293.907 35.5018 291.661 33.8787 289.048 32.7259L287.685 35.8163C289.868 36.7793 291.713 38.1185 293.24 39.8365L295.765 37.5924ZM289.065 32.7336C286.502 31.5685 283.722 30.9953 280.749 30.9953V34.373C283.277 34.373 285.576 34.8578 287.668 35.8086L289.065 32.7336ZM280.749 30.9953C277.776 30.9953 274.968 31.5685 272.344 32.7259L273.708 35.8163C275.881 34.8577 278.221 34.373 280.749 34.373V30.9953ZM272.327 32.7336C269.792 33.8858 267.564 35.5007 265.651 37.567L268.129 39.8619C269.742 38.1197 271.605 36.7723 273.725 35.8086L272.327 32.7336ZM265.649 37.5689C263.793 39.5797 262.345 41.9935 261.29 44.7819L264.449 45.9773C265.369 43.5464 266.602 41.5168 268.131 39.86L265.649 37.5689ZM261.296 44.7674C260.224 47.5226 259.7 50.5188 259.7 53.7374H263.078C263.078 50.8904 263.54 48.3147 264.444 45.9917L261.296 44.7674ZM259.7 53.7374C259.7 56.9566 260.225 59.9821 261.29 62.7987L264.449 61.6033C263.54 59.2007 263.078 56.5838 263.078 53.7374H259.7ZM261.296 62.8131C262.356 65.5401 263.842 67.9458 265.757 70.0135L268.235 67.7187C266.623 65.9778 265.358 63.9401 264.444 61.5889L261.296 62.8131ZM265.757 70.0135C267.67 72.0799 269.898 73.6948 272.433 74.847L273.831 71.772C271.711 70.8083 269.848 69.4609 268.235 67.7187L265.757 70.0135ZM272.45 74.8547C275.079 76.0145 277.923 76.5853 280.961 76.5853V73.2076C278.356 73.2076 275.981 72.7205 273.814 71.7643L272.45 74.8547ZM366.805 34.3769L365.579 35.5384L366.931 36.9656L368.138 35.4137L366.805 34.3769ZM373.999 28.3465L373.229 26.8434L373.221 26.8473L373.214 26.8512L373.999 28.3465ZM386.165 26.4422L385.785 28.0879L385.785 28.0879L386.165 26.4422ZM388.598 27.2886H390.287V26.2448L389.354 25.778L388.598 27.2886ZM388.598 35.9638L387.297 37.0406L390.287 40.6535V35.9638H388.598ZM375.268 34.2711L374.536 32.7494L374.524 32.7549L374.513 32.7605L375.268 34.2711ZM370.507 38.1855L371.809 39.2611L371.821 39.2476L371.832 39.2338L370.507 38.1855ZM367.334 44.11L365.731 43.576L365.724 43.598L365.717 43.6202L367.334 44.11ZM366.276 80.292V81.9809H367.964V80.292H366.276ZM359.187 80.292H357.498V81.9809H359.187V80.292ZM359.187 26.3364L360.413 25.1749L357.498 22.0981V26.3364H359.187ZM368.138 35.4137C369.966 33.0629 372.178 31.2099 374.784 29.8419L373.214 26.8512C370.177 28.4454 367.593 30.6126 365.471 33.34L368.138 35.4137ZM374.769 29.8497C377.407 28.4984 380.314 27.8137 383.52 27.8137V24.436C379.814 24.436 376.374 25.2324 373.229 26.8434L374.769 29.8497ZM383.52 27.8137C384.225 27.8137 384.979 27.9019 385.785 28.0879L386.545 24.7966C385.517 24.5594 384.508 24.436 383.52 24.436V27.8137ZM385.785 28.0879C386.596 28.275 387.278 28.5164 387.843 28.7992L389.354 25.778C388.509 25.3555 387.568 25.0326 386.545 24.7966L385.785 28.0879ZM386.909 27.2886V35.9638H390.287V27.2886H386.909ZM389.899 34.887C387.838 32.3961 384.966 31.2069 381.51 31.2069V34.5846C384.12 34.5846 385.973 35.4408 387.297 37.0406L389.899 34.887ZM381.51 31.2069C379.017 31.2069 376.684 31.7151 374.536 32.7494L376.001 35.7928C377.661 34.9933 379.489 34.5846 381.51 34.5846V31.2069ZM374.513 32.7605C372.446 33.7938 370.668 35.2611 369.183 37.1372L371.832 39.2338C373.026 37.7244 374.423 36.5821 376.023 35.7817L374.513 32.7605ZM369.205 37.1099C367.713 38.9168 366.562 41.0832 365.731 43.576L368.936 44.6441C369.656 42.4818 370.622 40.6986 371.809 39.2611L369.205 37.1099ZM365.717 43.6202C364.957 46.1296 364.587 48.8719 364.587 51.8331H367.964C367.964 49.1519 368.3 46.7455 368.95 44.5998L365.717 43.6202ZM364.587 51.8331V80.292H367.964V51.8331H364.587ZM366.276 78.6031H359.187V81.9809H366.276V78.6031ZM360.876 80.292V26.3364H357.498V80.292H360.876ZM357.961 27.4979L365.579 35.5384L368.031 33.2154L360.413 25.1749L357.961 27.4979ZM435.313 42.8405L433.754 42.1909L433.748 42.2049L433.742 42.2189L435.313 42.8405ZM441.026 34.0595L442.237 35.2363L442.237 35.2363L441.026 34.0595ZM449.489 28.3465L450.134 29.9075L450.142 29.9041L450.151 29.9006L449.489 28.3465ZM471.072 28.3465L470.41 29.9006L470.424 29.9066L470.439 29.9123L471.072 28.3465ZM479.641 34.0595L478.43 35.2363L478.43 35.2363L479.641 34.0595ZM485.248 42.8405L483.678 43.4621L483.683 43.4761L483.689 43.4901L485.248 42.8405ZM485.248 64.9517L483.689 64.3021L483.683 64.3161L483.678 64.3301L485.248 64.9517ZM479.641 73.7327L478.43 72.5559L478.43 72.5559L479.641 73.7327ZM471.072 79.5514L471.704 81.1172L471.719 81.1115L471.733 81.1055L471.072 79.5514ZM449.489 79.5514L448.828 81.1055L448.842 81.1115L448.856 81.1172L449.489 79.5514ZM440.92 73.7327L442.131 72.5559L442.131 72.5559L440.92 73.7327ZM435.313 64.9517L436.883 64.3301L436.883 64.3301L435.313 64.9517ZM468.215 73.4153L467.55 71.863L467.542 71.8665L467.533 71.8701L468.215 73.4153ZM474.563 68.9719L473.324 67.8245L473.324 67.8245L474.563 68.9719ZM478.689 62.3068L477.124 61.6723L477.119 61.6835L477.115 61.6947L478.689 62.3068ZM478.689 45.4854L477.109 46.083L477.119 46.1092L477.13 46.1349L478.689 45.4854ZM474.563 38.8203L473.324 39.9677L473.334 39.9794L473.345 39.9908L474.563 38.8203ZM468.215 34.3769L467.533 35.9221L467.542 35.9257L467.55 35.9292L468.215 34.3769ZM452.346 34.3769L451.68 32.8246L451.672 32.8281L451.664 32.8317L452.346 34.3769ZM446.104 38.8203L447.321 39.9908L447.332 39.9794L447.343 39.9677L446.104 38.8203ZM441.872 45.4854L440.307 44.8508L440.302 44.862L440.298 44.8732L441.872 45.4854ZM441.872 62.3068L440.292 62.9045L440.295 62.9117L440.298 62.9189L441.872 62.3068ZM445.998 68.9719L444.759 70.1193L444.77 70.1315L444.782 70.1434L445.998 68.9719ZM452.346 73.4153L451.664 74.9605L451.672 74.9641L451.68 74.9676L452.346 73.4153ZM434.991 53.8432C434.991 50.0882 435.628 46.6335 436.883 43.4621L433.742 42.2189C432.318 45.8184 431.614 49.6988 431.614 53.8432H434.991ZM436.872 43.4901C438.206 40.2876 439.997 37.5427 442.237 35.2363L439.814 32.8827C437.259 35.5134 435.241 38.6225 433.754 42.1909L436.872 43.4901ZM442.237 35.2363C444.471 32.9365 447.098 31.1614 450.134 29.9075L448.845 26.7856C445.391 28.2119 442.376 30.2454 439.814 32.8827L442.237 35.2363ZM450.151 29.9006C453.241 28.5856 456.611 27.9195 460.28 27.9195V24.5418C456.192 24.5418 452.368 25.2863 448.828 26.7925L450.151 29.9006ZM460.28 27.9195C463.95 27.9195 467.32 28.5856 470.41 29.9006L471.733 26.7925C468.193 25.2863 464.369 24.5418 460.28 24.5418V27.9195ZM470.439 29.9123C473.544 31.1679 476.202 32.9428 478.43 35.2363L480.852 32.8827C478.284 30.2391 475.228 28.2054 471.704 26.7808L470.439 29.9123ZM478.43 35.2363C480.664 37.5361 482.415 40.2714 483.678 43.4621L486.818 42.2189C485.401 38.6387 483.414 35.52 480.852 32.8827L478.43 35.2363ZM483.689 43.4901C485.008 46.6543 485.675 50.0992 485.675 53.8432H489.053C489.053 49.6879 488.31 45.7976 486.807 42.1909L483.689 43.4901ZM485.675 53.8432C485.675 57.662 485.006 61.1415 483.689 64.3021L486.807 65.6013C488.311 61.991 489.053 58.0648 489.053 53.8432H485.675ZM483.678 64.3301C482.415 67.5208 480.664 70.2561 478.43 72.5559L480.852 74.9095C483.414 72.2722 485.401 69.1535 486.818 65.5733L483.678 64.3301ZM478.43 72.5559C476.195 74.8559 473.528 76.6705 470.41 77.9974L471.733 81.1055C475.244 79.6111 478.291 77.5466 480.852 74.9095L478.43 72.5559ZM470.439 77.9857C467.341 79.2377 463.961 79.8727 460.28 79.8727V83.2504C464.358 83.2504 468.172 82.5452 471.704 81.1172L470.439 77.9857ZM460.28 79.8727C456.6 79.8727 453.22 79.2377 450.122 77.9857L448.856 81.1172C452.389 82.5452 456.203 83.2504 460.28 83.2504V79.8727ZM450.151 77.9974C447.032 76.6705 444.366 74.8559 442.131 72.5559L439.708 74.9095C442.27 77.5466 445.316 79.6111 448.828 81.1055L450.151 77.9974ZM442.131 72.5559C439.897 70.2561 438.146 67.5208 436.883 64.3301L433.742 65.5733C435.16 69.1535 437.147 72.2722 439.708 74.9095L442.131 72.5559ZM436.883 64.3301C435.629 61.1622 434.991 57.6728 434.991 53.8432H431.614C431.614 58.054 432.316 61.9703 433.742 65.5733L436.883 64.3301ZM460.28 76.6911C463.382 76.6911 466.263 76.1226 468.897 74.9605L467.533 71.8701C465.371 72.8239 462.962 73.3134 460.28 73.3134V76.6911ZM468.88 74.9676C471.559 73.8198 473.872 72.2034 475.802 70.1193L473.324 67.8245C471.727 69.549 469.809 70.8949 467.55 71.863L468.88 74.9676ZM475.802 70.1193C477.717 68.0516 479.202 65.6459 480.263 62.9189L477.115 61.6947C476.2 64.0458 474.935 66.0836 473.324 67.8245L475.802 70.1193ZM480.254 62.9413C481.4 60.1151 481.965 57.0766 481.965 53.8432H478.587C478.587 56.6754 478.094 59.2793 477.124 61.6723L480.254 62.9413ZM481.965 53.8432C481.965 50.6104 481.4 47.6009 480.248 44.8358L477.13 46.1349C478.094 48.448 478.587 51.0104 478.587 53.8432H481.965ZM480.268 44.8877C479.208 42.0854 477.716 39.6633 475.78 37.6497L473.345 39.9908C474.936 41.6448 476.195 43.6661 477.109 46.083L480.268 44.8877ZM475.802 37.6728C473.872 35.5887 471.559 33.9724 468.88 32.8245L467.55 35.9292C469.809 36.8972 471.727 38.2432 473.324 39.9677L475.802 37.6728ZM468.897 32.8317C466.263 31.6696 463.382 31.1011 460.28 31.1011V34.4788C462.962 34.4788 465.371 34.9682 467.533 35.9221L468.897 32.8317ZM460.28 31.1011C457.242 31.1011 454.37 31.672 451.68 32.8246L453.011 35.9292C455.259 34.9659 457.676 34.4788 460.28 34.4788V31.1011ZM451.664 32.8317C449.057 33.9818 446.786 35.5975 444.865 37.6728L447.343 39.9677C448.948 38.2344 450.838 36.8878 453.027 35.9221L451.664 32.8317ZM444.886 37.6497C442.959 39.6542 441.437 42.0633 440.307 44.8508L443.437 46.1199C444.423 43.6882 445.722 41.654 447.321 39.9908L444.886 37.6497ZM440.298 44.8732C439.227 47.6284 438.702 50.6246 438.702 53.8432H442.08C442.08 50.9961 442.543 48.4205 443.446 46.0975L440.298 44.8732ZM438.702 53.8432C438.702 57.0624 439.227 60.0879 440.292 62.9045L443.452 61.7091C442.542 59.3065 442.08 56.6896 442.08 53.8432H438.702ZM440.298 62.9189C441.358 65.6459 442.844 68.0516 444.759 70.1193L447.237 67.8245C445.625 66.0836 444.36 64.0458 443.446 61.6947L440.298 62.9189ZM444.782 70.1434C446.766 72.2044 449.063 73.8131 451.664 74.9605L453.027 71.8701C450.832 70.9016 448.897 69.548 447.215 67.8004L444.782 70.1434ZM451.68 74.9676C454.37 76.1202 457.242 76.6911 460.28 76.6911V73.3134C457.676 73.3134 455.259 72.8263 453.011 71.863L451.68 74.9676ZM542.579 4.11944L543.813 2.96637L542.579 1.64579L541.345 2.96637L542.579 4.11944ZM548.609 10.5729L549.834 11.7362L550.93 10.5825L549.843 9.41988L548.609 10.5729ZM542.579 16.9207L541.355 18.0839L542.579 19.3728L543.804 18.0839L542.579 16.9207ZM536.549 10.5729L535.315 9.41988L534.228 10.5825L535.324 11.7362L536.549 10.5729ZM538.982 27.3944V25.7055H537.293V27.3944H538.982ZM546.07 27.3944H547.759V25.7055H546.07V27.3944ZM546.07 80.292V81.9809H547.759V80.292H546.07ZM538.982 80.292H537.293V81.9809H538.982V80.292ZM541.345 5.27251L547.375 11.726L549.843 9.41988L543.813 2.96637L541.345 5.27251ZM547.385 9.40974L541.355 15.7574L543.804 18.0839L549.834 11.7362L547.385 9.40974ZM543.804 15.7574L537.773 9.40974L535.324 11.7362L541.355 18.0839L543.804 15.7574ZM537.783 11.726L543.813 5.27251L541.345 2.96637L535.315 9.41988L537.783 11.726ZM538.982 29.0833H546.07V25.7055H538.982V29.0833ZM544.382 27.3944V80.292H547.759V27.3944H544.382ZM546.07 78.6031H538.982V81.9809H546.07V78.6031ZM540.671 80.292V27.3944H537.293V80.292H540.671ZM634.739 28.8755L633.948 30.3674L633.96 30.3739L634.739 28.8755ZM643.414 36.4928L642.028 37.4572L645.103 41.8779V36.4928H643.414ZM643.414 0.945583V-0.743293H641.726V0.945583H643.414ZM650.503 0.945583H652.192V-0.743293H650.503V0.945583ZM650.503 80.9268L649.279 82.0904L652.192 85.1546V80.9268H650.503ZM642.356 72.3574L643.58 71.1937L642.251 69.795L641.041 71.2984L642.356 72.3574ZM633.893 79.1282L634.621 80.6518L634.628 80.6486L634.635 80.6452L633.893 79.1282ZM612.84 79.4456L612.127 80.977L612.149 80.9868L612.17 80.9961L612.84 79.4456ZM604.905 73.6269L603.658 74.7665L603.658 74.7665L604.905 73.6269ZM599.615 64.8459L601.197 64.2529L601.197 64.2529L599.615 64.8459ZM599.615 42.7347L601.197 43.3277L601.197 43.3277L599.615 42.7347ZM604.905 33.9537L603.676 32.7951L603.667 32.8045L603.658 32.8141L604.905 33.9537ZM613.051 28.2408L613.721 29.7912L613.735 29.7849L613.75 29.7782L613.051 28.2408ZM631.883 73.2037L632.564 74.7489L632.564 74.7489L631.883 73.2037ZM638.019 68.8661L636.78 67.7187L636.778 67.7206L638.019 68.8661ZM642.145 62.201L643.719 62.8131L643.722 62.8059L643.724 62.7987L642.145 62.201ZM638.019 38.8203L636.757 39.9423L636.779 39.967L636.801 39.9908L638.019 38.8203ZM631.883 34.3769L631.184 35.9144L631.192 35.9183L631.201 35.9221L631.883 34.3769ZM616.542 34.3769L617.224 35.9221L617.224 35.9221L616.542 34.3769ZM610.3 38.8203L609.061 37.6728L609.059 37.6747L610.3 38.8203ZM606.28 45.4854L607.854 46.0975L607.857 46.0903L607.86 46.083L606.28 45.4854ZM606.28 62.201L604.701 62.7987L604.703 62.8059L604.706 62.8131L606.28 62.201ZM610.3 68.8661L609.038 69.9881L609.049 70L609.059 70.0116L610.3 68.8661ZM616.331 73.2037L615.632 74.7412L615.641 74.7451L615.649 74.7489L616.331 73.2037ZM623.207 27.8137C627.186 27.8137 630.755 28.6734 633.948 30.3674L635.531 27.3837C631.811 25.4101 627.692 24.436 623.207 24.436V27.8137ZM633.96 30.3739C637.245 32.0823 639.928 34.4387 642.028 37.4572L644.801 35.5283C642.387 32.0581 639.286 29.3363 635.518 27.3771L633.96 30.3739ZM645.103 36.4928V0.945583H641.726V36.4928H645.103ZM643.414 2.63446H650.503V-0.743293H643.414V2.63446ZM648.814 0.945583V80.9268H652.192V0.945583H648.814ZM651.727 79.7632L643.58 71.1937L641.132 73.521L649.279 82.0904L651.727 79.7632ZM641.041 71.2984C638.868 73.9985 636.242 76.0985 633.15 77.6113L634.635 80.6452C638.174 78.9136 641.19 76.4997 643.672 73.4163L641.041 71.2984ZM633.164 77.6047C630.173 79.0353 626.794 79.7669 622.996 79.7669V83.1446C627.238 83.1446 631.124 82.3245 634.621 80.6518L633.164 77.6047ZM622.996 79.7669C619.539 79.7669 616.384 79.1364 613.509 77.8951L612.17 80.9961C615.502 82.435 619.118 83.1446 622.996 83.1446V79.7669ZM613.552 77.9143C610.721 76.5977 608.258 74.7913 606.151 72.4873L603.658 74.7665C606.066 77.3996 608.892 79.4723 612.127 80.977L613.552 77.9143ZM606.151 72.4873C604.051 70.1904 602.397 67.4529 601.197 64.2529L598.034 65.4389C599.373 69.0098 601.245 72.1263 603.658 74.7665L606.151 72.4873ZM601.197 64.2529C600.006 61.0771 599.4 57.5777 599.4 53.7374H596.022C596.022 57.9376 596.686 61.8438 598.034 65.4389L601.197 64.2529ZM599.4 53.7374C599.4 49.9715 600.004 46.5067 601.197 43.3277L598.034 42.1417C596.687 45.7335 596.022 49.6039 596.022 53.7374H599.4ZM601.197 43.3277C602.397 40.1277 604.051 37.3902 606.151 35.0933L603.658 32.8141C601.245 35.4543 599.373 38.5708 598.034 42.1417L601.197 43.3277ZM606.134 35.1123C608.304 32.8104 610.829 31.0398 613.721 29.7912L612.382 26.6903C609.066 28.1219 606.161 30.1598 603.676 32.7951L606.134 35.1123ZM613.75 29.7782C616.618 28.4748 619.762 27.8137 623.207 27.8137V24.436C619.317 24.436 615.691 25.1855 612.352 26.7033L613.75 29.7782ZM624.054 76.4795C627.092 76.4795 629.936 75.9087 632.564 74.7489L631.201 71.6585C629.034 72.6147 626.658 73.1018 624.054 73.1018V76.4795ZM632.564 74.7489C635.163 73.6023 637.402 72.0241 639.26 70.0116L636.778 67.7206C635.25 69.3757 633.398 70.6893 631.201 71.6585L632.564 74.7489ZM639.258 70.0135C641.173 67.9458 642.658 65.5401 643.719 62.8131L640.571 61.5889C639.656 63.9401 638.391 65.9778 636.78 67.7187L639.258 70.0135ZM643.724 62.7987C644.79 59.9821 645.315 56.9566 645.315 53.7374H641.937C641.937 56.5838 641.474 59.2007 640.565 61.6033L643.724 62.7987ZM645.315 53.7374C645.315 50.5188 644.79 47.5226 643.719 44.7674L640.571 45.9917C641.474 48.3147 641.937 50.8904 641.937 53.7374H645.315ZM643.719 44.7674C642.656 42.0354 641.165 39.6554 639.236 37.6497L636.801 39.9908C638.399 41.6527 639.658 43.6456 640.571 45.9917L643.719 44.7674ZM639.281 37.6982C637.423 35.6076 635.178 33.9845 632.564 32.8317L631.201 35.9221C633.384 36.8851 635.229 38.2243 636.757 39.9423L639.281 37.6982ZM632.582 32.8394C630.018 31.6742 627.239 31.1011 624.265 31.1011V34.4788C626.794 34.4788 629.092 34.9636 631.184 35.9144L632.582 32.8394ZM624.265 31.1011C621.292 31.1011 618.484 31.6743 615.861 32.8317L617.224 35.9221C619.397 34.9635 621.738 34.4788 624.265 34.4788V31.1011ZM615.861 32.8317C613.254 33.9818 610.983 35.5975 609.061 37.6728L611.54 39.9677C613.145 38.2344 615.035 36.8878 617.224 35.9221L615.861 32.8317ZM609.059 37.6747C607.203 39.6855 605.756 42.0993 604.701 44.8877L607.86 46.083C608.78 43.6522 610.012 41.6226 611.541 39.9658L609.059 37.6747ZM604.706 44.8732C603.637 47.6239 603.11 50.5841 603.11 53.7374H606.488C606.488 50.9662 606.949 48.425 607.854 46.0975L604.706 44.8732ZM603.11 53.7374C603.11 56.9566 603.635 59.9821 604.701 62.7987L607.86 61.6033C606.951 59.2007 606.488 56.5838 606.488 53.7374H603.11ZM604.706 62.8131C605.761 65.5263 607.203 67.9236 609.038 69.9881L611.563 67.7441C610.012 66 608.774 63.9539 607.854 61.5889L604.706 62.8131ZM609.059 70.0116C610.909 72.015 613.105 73.5924 615.632 74.7412L617.03 71.6662C614.902 70.6991 613.078 69.3848 611.541 67.7206L609.059 70.0116ZM615.649 74.7489C618.272 75.9063 621.08 76.4795 624.054 76.4795V73.1018C621.526 73.1018 619.185 72.6171 617.013 71.6585L615.649 74.7489ZM704.096 42.9463L702.526 42.3247L702.52 42.3389L702.515 42.3533L704.096 42.9463ZM709.598 34.1653L708.369 33.0067L708.369 33.0067L709.598 34.1653ZM717.955 28.3465L717.294 26.7925L717.282 26.7977L717.955 28.3465ZM739.326 28.3465L738.64 29.8899L738.654 29.8963L738.669 29.9024L739.326 28.3465ZM747.366 34.0595L746.102 35.1793L746.119 35.1984L746.137 35.217L747.366 34.0595ZM754.349 56.8055V58.4943H756.038V56.8055H754.349ZM709.492 56.8055V55.1166H707.616L707.812 56.9823L709.492 56.8055ZM715.734 69.9241L714.576 71.1539L714.576 71.1539L715.734 69.9241ZM734.988 74.5791L735.278 76.243L735.305 76.2381L735.333 76.2324L734.988 74.5791ZM739.749 73.2037L740.35 74.7819L740.383 74.7696L740.414 74.756L739.749 73.2037ZM743.769 71.0878L744.687 72.5057L744.697 72.4995L744.706 72.493L743.769 71.0878ZM746.943 68.3371L748.177 67.1838L746.889 65.8056L745.661 67.238L746.943 68.3371ZM751.492 73.2037L752.72 74.3633L753.81 73.2097L752.726 72.0504L751.492 73.2037ZM742.077 79.3398L742.679 80.9176L742.692 80.9129L742.704 80.9079L742.077 79.3398ZM718.484 79.5514L717.835 81.1104L717.849 81.1162L717.863 81.1218L718.484 79.5514ZM709.703 73.7327L708.492 74.9095L708.5 74.9183L708.509 74.9269L709.703 73.7327ZM704.096 64.9517L702.515 65.5447L702.52 65.559L702.526 65.5733L704.096 64.9517ZM747.049 50.6693V52.3582H748.876L748.733 50.5364L747.049 50.6693ZM745.356 43.3695L746.914 42.7163L746.914 42.7163L745.356 43.3695ZM741.548 37.7623L740.353 38.9565L740.367 38.9698L740.38 38.9828L741.548 37.7623ZM735.941 34.1653L735.269 35.7149L735.3 35.7282L735.331 35.7403L735.941 34.1653ZM721.235 34.1653L721.845 35.7403L721.858 35.7352L721.871 35.73L721.235 34.1653ZM715.522 37.8681L716.689 39.0886L716.703 39.0756L716.716 39.0623L715.522 37.8681ZM711.502 43.4753L709.982 42.7397L709.972 42.7598L709.963 42.7801L711.502 43.4753ZM709.492 50.6693L707.818 50.4432L707.559 52.3582H709.492V50.6693ZM703.881 53.949C703.881 50.1831 704.485 46.7183 705.678 43.5393L702.515 42.3533C701.168 45.9451 700.503 49.8155 700.503 53.949H703.881ZM705.666 43.5679C706.934 40.3668 708.656 37.6256 710.826 35.3239L708.369 33.0067C705.884 35.6421 703.939 38.7549 702.526 42.3247L705.666 43.5679ZM710.826 35.3239C712.99 33.0287 715.585 31.2188 718.629 29.8954L717.282 26.7977C713.837 28.2955 710.86 30.3647 708.369 33.0067L710.826 35.3239ZM718.617 29.9006C721.707 28.5856 725.077 27.9195 728.746 27.9195V24.5418C724.658 24.5418 720.834 25.2863 717.294 26.7925L718.617 29.9006ZM728.746 27.9195C732.417 27.9195 735.706 28.5859 738.64 29.8899L740.012 26.8032C736.598 25.286 732.834 24.5418 728.746 24.5418V27.9195ZM738.669 29.9024C741.621 31.1488 744.091 32.9081 746.102 35.1793L748.631 32.9397C746.269 30.2737 743.379 28.2244 739.983 26.7907L738.669 29.9024ZM746.137 35.217C748.219 37.4294 749.83 40.1137 750.958 43.2985L754.142 42.1709C752.872 38.5848 751.028 35.4856 748.596 32.902L746.137 35.217ZM750.958 43.2985C752.087 46.4857 752.66 49.9607 752.66 53.7374H756.038C756.038 49.6147 755.412 45.7545 754.142 42.1709L750.958 43.2985ZM752.66 53.7374V56.8055H756.038V53.7374H752.66ZM754.349 55.1166H709.492V58.4943H754.349V55.1166ZM707.812 56.9823C708.415 62.7053 710.657 67.4652 714.576 71.1539L716.891 68.6942C713.616 65.612 711.697 61.6262 711.171 56.6287L707.812 56.9823ZM714.576 71.1539C718.551 74.8946 723.794 76.6911 730.122 76.6911V73.3134C724.46 73.3134 720.111 71.7244 716.891 68.6942L714.576 71.1539ZM730.122 76.6911C731.842 76.6911 733.561 76.5414 735.278 76.243L734.699 72.9152C733.171 73.1809 731.646 73.3134 730.122 73.3134V76.6911ZM735.333 76.2324C737.105 75.8632 738.779 75.3807 740.35 74.7819L739.148 71.6255C737.757 72.1552 736.257 72.5896 734.644 72.9257L735.333 76.2324ZM740.414 74.756C741.972 74.0884 743.398 73.3395 744.687 72.5057L742.852 69.6699C741.742 70.3878 740.488 71.0495 739.084 71.6514L740.414 74.756ZM744.706 72.493C746.083 71.5753 747.263 70.5593 748.226 69.4362L745.661 67.238C744.931 68.0899 743.995 68.9076 742.833 69.6826L744.706 72.493ZM745.709 69.4904L750.259 74.357L752.726 72.0504L748.177 67.1838L745.709 69.4904ZM750.265 72.0441C748.065 74.3736 745.145 76.2935 741.449 77.7718L742.704 80.9079C746.766 79.2829 750.124 77.112 752.72 74.3633L750.265 72.0441ZM741.474 77.7621C737.794 79.1671 733.908 79.8727 729.804 79.8727V83.2504C734.305 83.2504 738.601 82.4748 742.679 80.9176L741.474 77.7621ZM729.804 79.8727C725.826 79.8727 722.267 79.2325 719.106 77.9811L717.863 81.1218C721.472 82.5505 725.46 83.2504 729.804 83.2504V79.8727ZM719.134 77.9925C715.942 76.6623 713.202 74.8432 710.898 72.5385L708.509 74.9269C711.141 77.5593 714.256 79.6193 717.835 81.1104L719.134 77.9925ZM710.915 72.5559C708.681 70.2561 706.929 67.5208 705.666 64.3301L702.526 65.5733C703.943 69.1535 705.93 72.2722 708.492 74.9095L710.915 72.5559ZM705.678 64.3587C704.485 61.1796 703.881 57.7149 703.881 53.949H700.503C700.503 58.0825 701.168 61.9528 702.515 65.5447L705.678 64.3587ZM748.733 50.5364C748.509 47.7009 747.909 45.0889 746.914 42.7163L743.799 44.0226C744.638 46.0229 745.166 48.2775 745.365 50.8023L748.733 50.5364ZM746.914 42.7163C745.912 40.3282 744.514 38.2628 742.715 36.5419L740.38 38.9828C741.826 40.3652 742.967 42.0378 743.799 44.0226L746.914 42.7163ZM742.742 36.5681C741.013 34.839 738.941 33.5156 736.55 32.5903L735.331 35.7403C737.313 36.5077 738.979 37.5823 740.353 38.9565L742.742 36.5681ZM736.612 32.6156C734.253 31.5932 731.62 31.1011 728.746 31.1011V34.4788C731.233 34.4788 733.397 34.9036 735.269 35.7149L736.612 32.6156ZM728.746 31.1011C725.806 31.1011 723.083 31.5918 720.599 32.6006L721.871 35.73C723.901 34.905 726.186 34.4788 728.746 34.4788V31.1011ZM720.625 32.5903C718.225 33.5196 716.12 34.8818 714.328 36.6739L716.716 39.0623C718.169 37.6101 719.873 36.5037 721.845 35.7403L720.625 32.5903ZM714.355 36.6477C712.575 38.3496 711.12 40.3868 709.982 42.7397L713.022 44.2109C714 42.1909 715.224 40.4899 716.689 39.0886L714.355 36.6477ZM709.963 42.7801C708.902 45.1293 708.19 47.6872 707.818 50.4432L711.165 50.8955C711.498 48.4322 712.127 46.1941 713.041 44.1704L709.963 42.7801ZM709.492 52.3582H747.049V48.9805H709.492V52.3582ZM813.831 34.3769L812.605 35.5384L813.957 36.9656L815.164 35.4137L813.831 34.3769ZM821.025 28.3465L820.255 26.8434L820.247 26.8473L820.24 26.8512L821.025 28.3465ZM833.191 26.4422L832.811 28.0879L832.811 28.0879L833.191 26.4422ZM835.624 27.2886H837.313V26.2448L836.38 25.778L835.624 27.2886ZM835.624 35.9638L834.323 37.0406L837.313 40.6535V35.9638H835.624ZM822.294 34.2711L821.562 32.7494L821.55 32.7549L821.539 32.7605L822.294 34.2711ZM817.533 38.1855L818.836 39.2611L818.847 39.2476L818.858 39.2338L817.533 38.1855ZM814.36 44.11L812.757 43.576L812.75 43.598L812.743 43.6202L814.36 44.11ZM813.302 80.292V81.9809H814.991V80.292H813.302ZM806.213 80.292H804.525V81.9809H806.213V80.292ZM806.213 26.3364L807.439 25.1749L804.525 22.0981V26.3364H806.213ZM815.164 35.4137C816.992 33.0629 819.204 31.2099 821.81 29.8419L820.24 26.8512C817.203 28.4454 814.619 30.6126 812.498 33.34L815.164 35.4137ZM821.795 29.8497C824.433 28.4984 827.341 27.8137 830.546 27.8137V24.436C826.84 24.436 823.4 25.2324 820.255 26.8434L821.795 29.8497ZM830.546 27.8137C831.252 27.8137 832.005 27.9019 832.811 28.0879L833.571 24.7966C832.543 24.5594 831.534 24.436 830.546 24.436V27.8137ZM832.811 28.0879C833.622 28.275 834.304 28.5164 834.869 28.7992L836.38 25.778C835.535 25.3555 834.594 25.0326 833.571 24.7966L832.811 28.0879ZM833.936 27.2886V35.9638H837.313V27.2886H833.936ZM836.926 34.887C834.864 32.3961 831.992 31.2069 828.536 31.2069V34.5846C831.146 34.5846 832.999 35.4408 834.323 37.0406L836.926 34.887ZM828.536 31.2069C826.043 31.2069 823.71 31.7151 821.562 32.7494L823.027 35.7928C824.687 34.9933 826.515 34.5846 828.536 34.5846V31.2069ZM821.539 32.7605C819.472 33.7938 817.695 35.2611 816.209 37.1372L818.858 39.2338C820.053 37.7244 821.449 36.5821 823.05 35.7817L821.539 32.7605ZM816.231 37.1099C814.739 38.9168 813.588 41.0832 812.757 43.576L815.962 44.6441C816.683 42.4818 817.648 40.6986 818.836 39.2611L816.231 37.1099ZM812.743 43.6202C811.983 46.1296 811.613 48.8719 811.613 51.8331H814.991C814.991 49.1519 815.326 46.7455 815.976 44.5998L812.743 43.6202ZM811.613 51.8331V80.292H814.991V51.8331H811.613ZM813.302 78.6031H806.213V81.9809H813.302V78.6031ZM807.902 80.292V26.3364H804.525V80.292H807.902ZM804.987 27.4979L812.605 35.5384L815.057 33.2154L807.439 25.1749L804.987 27.4979ZM882.762 42.9463L881.192 42.3247L881.186 42.3389L881.181 42.3533L882.762 42.9463ZM888.263 34.1653L887.035 33.0067L887.035 33.0067L888.263 34.1653ZM896.621 28.3465L895.96 26.7925L895.948 26.7977L896.621 28.3465ZM917.992 28.3465L917.306 29.8899L917.32 29.8963L917.335 29.9024L917.992 28.3465ZM926.032 34.0595L924.768 35.1793L924.785 35.1984L924.802 35.217L926.032 34.0595ZM933.015 56.8055V58.4943H934.704V56.8055H933.015ZM888.158 56.8055V55.1166H886.282L886.478 56.9823L888.158 56.8055ZM894.399 69.9241L893.242 71.1539L893.242 71.1539L894.399 69.9241ZM913.654 74.5791L913.944 76.243L913.971 76.2381L913.999 76.2324L913.654 74.5791ZM918.415 73.2037L919.016 74.7819L919.049 74.7696L919.08 74.756L918.415 73.2037ZM922.435 71.0878L923.353 72.5057L923.362 72.4995L923.372 72.493L922.435 71.0878ZM925.609 68.3371L926.843 67.1838L925.555 65.8056L924.327 67.238L925.609 68.3371ZM930.158 73.2037L931.386 74.3633L932.476 73.2097L931.392 72.0504L930.158 73.2037ZM920.742 79.3398L921.345 80.9176L921.357 80.9129L921.37 80.9079L920.742 79.3398ZM897.15 79.5514L896.501 81.1104L896.515 81.1162L896.529 81.1218L897.15 79.5514ZM888.369 73.7327L887.158 74.9095L887.166 74.9183L887.175 74.9269L888.369 73.7327ZM882.762 64.9517L881.181 65.5447L881.186 65.559L881.192 65.5733L882.762 64.9517ZM925.715 50.6693V52.3582H927.542L927.398 50.5364L925.715 50.6693ZM924.022 43.3695L925.58 42.7163L925.58 42.7163L924.022 43.3695ZM920.214 37.7623L919.019 38.9565L919.033 38.9698L919.046 38.9828L920.214 37.7623ZM914.606 34.1653L913.935 35.7149L913.966 35.7282L913.997 35.7403L914.606 34.1653ZM899.901 34.1653L900.51 35.7403L900.524 35.7352L900.536 35.73L899.901 34.1653ZM894.188 37.8681L895.355 39.0886L895.369 39.0756L895.382 39.0623L894.188 37.8681ZM890.168 43.4753L888.647 42.7397L888.638 42.7598L888.628 42.7801L890.168 43.4753ZM888.158 50.6693L886.484 50.4432L886.225 52.3582H888.158V50.6693ZM882.547 53.949C882.547 50.1831 883.151 46.7183 884.343 43.5393L881.181 42.3533C879.834 45.9451 879.169 49.8155 879.169 53.949H882.547ZM884.332 43.5679C885.599 40.3668 887.322 37.6256 889.492 35.3239L887.035 33.0067C884.55 35.6421 882.605 38.7549 881.192 42.3247L884.332 43.5679ZM889.492 35.3239C891.656 33.0287 894.251 31.2188 897.295 29.8954L895.948 26.7977C892.503 28.2955 889.526 30.3647 887.035 33.0067L889.492 35.3239ZM897.282 29.9006C900.373 28.5856 903.743 27.9195 907.412 27.9195V24.5418C903.324 24.5418 899.5 25.2863 895.96 26.7925L897.282 29.9006ZM907.412 27.9195C911.083 27.9195 914.372 28.5859 917.306 29.8899L918.678 26.8032C915.264 25.286 911.5 24.5418 907.412 24.5418V27.9195ZM917.335 29.9024C920.287 31.1488 922.756 32.9081 924.768 35.1793L927.297 32.9397C924.935 30.2737 922.044 28.2244 918.649 26.7907L917.335 29.9024ZM924.802 35.217C926.885 37.4294 928.496 40.1137 929.624 43.2985L932.808 42.1709C931.538 38.5848 929.694 35.4856 927.262 32.902L924.802 35.217ZM929.624 43.2985C930.753 46.4857 931.326 49.9607 931.326 53.7374H934.704C934.704 49.6147 934.077 45.7545 932.808 42.1709L929.624 43.2985ZM931.326 53.7374V56.8055H934.704V53.7374H931.326ZM933.015 55.1166H888.158V58.4943H933.015V55.1166ZM886.478 56.9823C887.08 62.7053 889.323 67.4652 893.242 71.1539L895.557 68.6942C892.282 65.612 890.363 61.6262 889.837 56.6287L886.478 56.9823ZM893.242 71.1539C897.217 74.8946 902.459 76.6911 908.788 76.6911V73.3134C903.126 73.3134 898.777 71.7244 895.557 68.6942L893.242 71.1539ZM908.788 76.6911C910.508 76.6911 912.227 76.5414 913.944 76.243L913.365 72.9152C911.837 73.1809 910.311 73.3134 908.788 73.3134V76.6911ZM913.999 76.2324C915.771 75.8632 917.444 75.3807 919.016 74.7819L917.814 71.6255C916.423 72.1552 914.923 72.5896 913.31 72.9257L913.999 76.2324ZM919.08 74.756C920.638 74.0884 922.064 73.3395 923.353 72.5057L921.518 69.6699C920.408 70.3878 919.154 71.0495 917.75 71.6514L919.08 74.756ZM923.372 72.493C924.749 71.5753 925.929 70.5593 926.891 69.4362L924.327 67.238C923.597 68.0899 922.661 68.9076 921.498 69.6826L923.372 72.493ZM924.375 69.4904L928.924 74.357L931.392 72.0504L926.843 67.1838L924.375 69.4904ZM928.93 72.0441C926.73 74.3736 923.811 76.2935 920.115 77.7718L921.37 80.9079C925.432 79.2829 928.79 77.112 931.386 74.3633L928.93 72.0441ZM920.14 77.7621C916.46 79.1671 912.574 79.8727 908.47 79.8727V83.2504C912.971 83.2504 917.266 82.4748 921.345 80.9176L920.14 77.7621ZM908.47 79.8727C904.492 79.8727 900.933 79.2325 897.772 77.9811L896.529 81.1218C900.138 82.5505 904.126 83.2504 908.47 83.2504V79.8727ZM897.8 77.9925C894.607 76.6623 891.868 74.8432 889.563 72.5385L887.175 74.9269C889.807 77.5593 892.922 79.6193 896.501 81.1104L897.8 77.9925ZM889.581 72.5559C887.346 70.2561 885.595 67.5208 884.332 64.3301L881.192 65.5733C882.609 69.1535 884.596 72.2722 887.158 74.9095L889.581 72.5559ZM884.343 64.3587C883.151 61.1796 882.547 57.7149 882.547 53.949H879.169C879.169 58.0825 879.834 61.9528 881.181 65.5447L884.343 64.3587ZM927.398 50.5364C927.175 47.7009 926.575 45.0889 925.58 42.7163L922.465 44.0226C923.304 46.0229 923.832 48.2775 924.031 50.8023L927.398 50.5364ZM925.58 42.7163C924.578 40.3282 923.18 38.2628 921.381 36.5419L919.046 38.9828C920.491 40.3652 921.632 42.0378 922.465 44.0226L925.58 42.7163ZM921.408 36.5681C919.679 34.839 917.606 33.5156 915.216 32.5903L913.997 35.7403C915.979 36.5077 917.645 37.5823 919.019 38.9565L921.408 36.5681ZM915.278 32.6156C912.918 31.5932 910.286 31.1011 907.412 31.1011V34.4788C909.899 34.4788 912.062 34.9036 913.935 35.7149L915.278 32.6156ZM907.412 31.1011C904.472 31.1011 901.748 31.5918 899.265 32.6006L900.536 35.73C902.567 34.905 904.852 34.4788 907.412 34.4788V31.1011ZM899.291 32.5903C896.89 33.5196 894.786 34.8818 892.994 36.6739L895.382 39.0623C896.834 37.6101 898.538 36.5037 900.51 35.7403L899.291 32.5903ZM893.02 36.6477C891.241 38.3496 889.786 40.3868 888.647 42.7397L891.688 44.2109C892.665 42.1909 893.89 40.4899 895.355 39.0886L893.02 36.6477ZM888.628 42.7801C887.568 45.1293 886.856 47.6872 886.484 50.4432L889.831 50.8955C890.164 48.4322 890.793 46.1941 891.707 44.1704L888.628 42.7801ZM888.158 52.3582H925.715V48.9805H888.158V52.3582ZM1018.42 28.8755L1017.62 30.3674L1017.64 30.3739L1018.42 28.8755ZM1027.09 36.4928L1025.71 37.4572L1028.78 41.8779V36.4928H1027.09ZM1027.09 0.945583V-0.743293H1025.4V0.945583H1027.09ZM1034.18 0.945583H1035.87V-0.743293H1034.18V0.945583ZM1034.18 80.9268L1032.96 82.0904L1035.87 85.1546V80.9268H1034.18ZM1026.03 72.3574L1027.26 71.1937L1025.93 69.795L1024.72 71.2984L1026.03 72.3574ZM1017.57 79.1282L1018.3 80.6518L1018.31 80.6486L1018.31 80.6452L1017.57 79.1282ZM996.517 79.4456L995.804 80.977L995.826 80.9868L995.847 80.9961L996.517 79.4456ZM988.582 73.6269L987.336 74.7665L987.336 74.7665L988.582 73.6269ZM983.292 64.8459L984.874 64.2529L984.874 64.2529L983.292 64.8459ZM983.292 42.7347L984.874 43.3277L984.874 43.3277L983.292 42.7347ZM988.582 33.9537L987.353 32.7951L987.344 32.8045L987.336 32.8141L988.582 33.9537ZM996.728 28.2408L997.398 29.7912L997.412 29.7849L997.427 29.7782L996.728 28.2408ZM1015.56 73.2037L1016.24 74.7489L1016.24 74.7489L1015.56 73.2037ZM1021.7 68.8661L1020.46 67.7187L1020.45 67.7206L1021.7 68.8661ZM1025.82 62.201L1027.4 62.8131L1027.4 62.8059L1027.4 62.7987L1025.82 62.201ZM1021.7 38.8203L1020.43 39.9423L1020.46 39.967L1020.48 39.9908L1021.7 38.8203ZM1015.56 34.3769L1014.86 35.9144L1014.87 35.9183L1014.88 35.9221L1015.56 34.3769ZM1000.22 34.3769L1000.9 35.9221L1000.9 35.9221L1000.22 34.3769ZM993.978 38.8203L992.738 37.6728L992.737 37.6747L993.978 38.8203ZM989.957 45.4854L991.531 46.0975L991.534 46.0903L991.537 46.083L989.957 45.4854ZM989.957 62.201L988.378 62.7987L988.38 62.8059L988.383 62.8131L989.957 62.201ZM993.978 68.8661L992.715 69.9881L992.726 70L992.737 70.0116L993.978 68.8661ZM1000.01 73.2037L999.309 74.7412L999.318 74.7451L999.326 74.7489L1000.01 73.2037ZM1006.88 27.8137C1010.86 27.8137 1014.43 28.6734 1017.62 30.3674L1019.21 27.3837C1015.49 25.4101 1011.37 24.436 1006.88 24.436V27.8137ZM1017.64 30.3739C1020.92 32.0823 1023.61 34.4387 1025.71 37.4572L1028.48 35.5283C1026.06 32.0581 1022.96 29.3363 1019.2 27.3771L1017.64 30.3739ZM1028.78 36.4928V0.945583H1025.4V36.4928H1028.78ZM1027.09 2.63446H1034.18V-0.743293H1027.09V2.63446ZM1032.49 0.945583V80.9268H1035.87V0.945583H1032.49ZM1035.4 79.7632L1027.26 71.1937L1024.81 73.521L1032.96 82.0904L1035.4 79.7632ZM1024.72 71.2984C1022.54 73.9985 1019.92 76.0985 1016.83 77.6113L1018.31 80.6452C1021.85 78.9136 1024.87 76.4997 1027.35 73.4163L1024.72 71.2984ZM1016.84 77.6047C1013.85 79.0353 1010.47 79.7669 1006.67 79.7669V83.1446C1010.92 83.1446 1014.8 82.3245 1018.3 80.6518L1016.84 77.6047ZM1006.67 79.7669C1003.22 79.7669 1000.06 79.1364 997.186 77.8951L995.847 80.9961C999.179 82.435 1002.79 83.1446 1006.67 83.1446V79.7669ZM997.229 77.9143C994.398 76.5977 991.935 74.7913 989.828 72.4873L987.336 74.7665C989.743 77.3996 992.569 79.4723 995.804 80.977L997.229 77.9143ZM989.828 72.4873C987.728 70.1904 986.074 67.4529 984.874 64.2529L981.711 65.4389C983.05 69.0098 984.922 72.1263 987.336 74.7665L989.828 72.4873ZM984.874 64.2529C983.683 61.0771 983.077 57.5777 983.077 53.7374H979.699C979.699 57.9376 980.363 61.8438 981.711 65.4389L984.874 64.2529ZM983.077 53.7374C983.077 49.9715 983.681 46.5067 984.874 43.3277L981.711 42.1417C980.364 45.7335 979.699 49.6039 979.699 53.7374H983.077ZM984.874 43.3277C986.074 40.1277 987.728 37.3902 989.828 35.0933L987.336 32.8141C984.922 35.4543 983.05 38.5708 981.711 42.1417L984.874 43.3277ZM989.811 35.1123C991.981 32.8104 994.506 31.0398 997.398 29.7912L996.059 26.6903C992.743 28.1219 989.838 30.1598 987.353 32.7951L989.811 35.1123ZM997.427 29.7782C1000.29 28.4748 1003.44 27.8137 1006.88 27.8137V24.436C1002.99 24.436 999.368 25.1855 996.029 26.7033L997.427 29.7782ZM1007.73 76.4795C1010.77 76.4795 1013.61 75.9087 1016.24 74.7489L1014.88 71.6585C1012.71 72.6147 1010.34 73.1018 1007.73 73.1018V76.4795ZM1016.24 74.7489C1018.84 73.6023 1021.08 72.0241 1022.94 70.0116L1020.45 67.7206C1018.93 69.3757 1017.08 70.6893 1014.88 71.6585L1016.24 74.7489ZM1022.94 70.0135C1024.85 67.9458 1026.34 65.5401 1027.4 62.8131L1024.25 61.5889C1023.33 63.9401 1022.07 65.9778 1020.46 67.7187L1022.94 70.0135ZM1027.4 62.7987C1028.47 59.9821 1028.99 56.9566 1028.99 53.7374H1025.61C1025.61 56.5838 1025.15 59.2007 1024.24 61.6033L1027.4 62.7987ZM1028.99 53.7374C1028.99 50.5188 1028.47 47.5226 1027.4 44.7674L1024.25 45.9917C1025.15 48.3147 1025.61 50.8904 1025.61 53.7374H1028.99ZM1027.4 44.7674C1026.33 42.0354 1024.84 39.6554 1022.91 37.6497L1020.48 39.9908C1022.08 41.6527 1023.34 43.6456 1024.25 45.9917L1027.4 44.7674ZM1022.96 37.6982C1021.1 35.6076 1018.85 33.9845 1016.24 32.8317L1014.88 35.9221C1017.06 36.8851 1018.91 38.2243 1020.43 39.9423L1022.96 37.6982ZM1016.26 32.8394C1013.7 31.6742 1010.92 31.1011 1007.94 31.1011V34.4788C1010.47 34.4788 1012.77 34.9636 1014.86 35.9144L1016.26 32.8394ZM1007.94 31.1011C1004.97 31.1011 1002.16 31.6743 999.538 32.8317L1000.9 35.9221C1003.07 34.9635 1005.41 34.4788 1007.94 34.4788V31.1011ZM999.538 32.8317C996.931 33.9818 994.66 35.5975 992.738 37.6728L995.217 39.9677C996.822 38.2344 998.712 36.8878 1000.9 35.9221L999.538 32.8317ZM992.737 37.6747C990.88 39.6855 989.433 42.0993 988.378 44.8877L991.537 46.083C992.457 43.6522 993.689 41.6226 995.219 39.9658L992.737 37.6747ZM988.383 44.8732C987.314 47.6239 986.787 50.5841 986.787 53.7374H990.165C990.165 50.9662 990.626 48.425 991.531 46.0975L988.383 44.8732ZM986.787 53.7374C986.787 56.9566 987.312 59.9821 988.378 62.7987L991.537 61.6033C990.628 59.2007 990.165 56.5838 990.165 53.7374H986.787ZM988.383 62.8131C989.438 65.5263 990.88 67.9236 992.715 69.9881L995.24 67.7441C993.689 66 992.451 63.9539 991.531 61.5889L988.383 62.8131ZM992.737 70.0116C994.586 72.015 996.782 73.5924 999.309 74.7412L1000.71 71.6662C998.579 70.6991 996.755 69.3848 995.219 67.7206L992.737 70.0116ZM999.326 74.7489C1001.95 75.9063 1004.76 76.4795 1007.73 76.4795V73.1018C1005.2 73.1018 1002.86 72.6171 1000.69 71.6585L999.326 74.7489ZM158.564 132.394L160.105 131.701L159.656 130.706H158.564V132.394ZM175.703 170.481L174.163 171.174L175.692 174.571L177.239 171.182L175.703 170.481ZM193.583 131.336L195.119 130.635L193.583 127.271L192.046 130.635L193.583 131.336ZM211.462 170.481L209.926 171.182L211.469 174.56L213.001 171.177L211.462 170.481ZM228.707 132.394V130.706H227.617L227.168 131.698L228.707 132.394ZM236.641 132.394L238.172 133.109L239.293 130.706H236.641V132.394ZM211.462 186.35L209.931 187.063L211.46 190.348L212.992 187.064L211.462 186.35ZM193.583 147.946L195.114 147.233L193.583 143.945L192.052 147.233L193.583 147.946ZM175.703 186.35L174.172 187.062L175.702 190.354L177.234 187.063L175.703 186.35ZM150.63 132.394V130.706H147.983L149.098 133.106L150.63 132.394ZM157.024 133.087L174.163 171.174L177.243 169.788L160.105 131.701L157.024 133.087ZM177.239 171.182L195.119 132.038L192.046 130.635L174.167 169.779L177.239 171.182ZM192.046 132.038L209.926 171.182L212.998 169.779L195.119 130.635L192.046 132.038ZM213.001 171.177L230.245 133.091L227.168 131.698L209.924 169.784L213.001 171.177ZM228.707 134.083H236.641V130.706H228.707V134.083ZM235.111 131.68L209.932 185.636L212.992 187.064L238.172 133.109L235.111 131.68ZM212.993 185.637L195.114 147.233L192.052 148.659L209.931 187.063L212.993 185.637ZM192.052 147.233L174.172 185.637L177.234 187.063L195.114 148.659L192.052 147.233ZM177.235 185.638L152.161 131.683L149.098 133.106L174.172 187.062L177.235 185.638ZM150.63 134.083H158.564V130.706H150.63V134.083ZM287.288 109.119L288.522 107.966L287.288 106.646L286.054 107.966L287.288 109.119ZM293.319 115.573L294.543 116.736L295.639 115.583L294.553 114.42L293.319 115.573ZM287.288 121.921L286.064 123.084L287.288 124.373L288.513 123.084L287.288 121.921ZM281.258 115.573L280.024 114.42L278.938 115.583L280.034 116.736L281.258 115.573ZM283.691 132.394V130.706H282.002V132.394H283.691ZM290.78 132.394H292.468V130.706H290.78V132.394ZM290.78 185.292V186.981H292.468V185.292H290.78ZM283.691 185.292H282.002V186.981H283.691V185.292ZM286.054 110.273L292.085 116.726L294.553 114.42L288.522 107.966L286.054 110.273ZM292.094 114.41L286.064 120.757L288.513 123.084L294.543 116.736L292.094 114.41ZM288.513 120.757L282.482 114.41L280.034 116.736L286.064 123.084L288.513 120.757ZM282.492 116.726L288.522 110.273L286.054 107.966L280.024 114.42L282.492 116.726ZM283.691 134.083H290.78V130.706H283.691V134.083ZM289.091 132.394V185.292H292.468V132.394H289.091ZM290.78 183.603H283.691V186.981H290.78V183.603ZM285.38 185.292V132.394H282.002V185.292H285.38ZM344.536 122.661L343.324 121.485L342.847 121.976V122.661H344.536ZM351.624 115.361H353.313V111.198L350.412 114.185L351.624 115.361ZM351.624 133.452H349.935V135.141H351.624V133.452ZM372.254 133.452L373.486 134.607L376.153 131.763H372.254V133.452ZM365.906 140.223V141.912H366.638L367.139 141.378L365.906 140.223ZM351.624 140.223V138.534H349.935V140.223H351.624ZM354.057 176.934L355.322 175.815L355.322 175.815L354.057 176.934ZM366.118 179.05L366.528 180.689L366.559 180.681L366.591 180.671L366.118 179.05ZM370.773 177.04H372.462V174.057L369.904 175.592L370.773 177.04ZM370.773 183.705L371.619 185.167L372.462 184.679V183.705H370.773ZM365.695 185.609L365.299 183.968L365.285 183.971L365.695 185.609ZM348.45 182.012L347.183 183.129L347.197 183.145L347.212 183.16L348.45 182.012ZM346.225 169.423V122.661H342.847V169.423H346.225ZM345.748 123.838L352.836 116.538L350.412 114.185L343.324 121.485L345.748 123.838ZM349.935 115.361V133.452H353.313V115.361H349.935ZM351.624 135.141H372.254V131.763H351.624V135.141ZM371.022 132.297L364.674 139.068L367.139 141.378L373.486 134.607L371.022 132.297ZM365.906 138.534H351.624V141.912H365.906V138.534ZM349.935 140.223V167.836H353.313V140.223H349.935ZM349.935 167.836C349.935 172.205 350.758 175.753 352.792 178.053L355.322 175.815C354.113 174.447 353.313 171.93 353.313 167.836H349.935ZM352.792 178.053C354.831 180.358 357.795 181.374 361.357 181.374V177.996C358.431 177.996 356.528 177.178 355.322 175.815L352.792 178.053ZM361.357 181.374C362.998 181.374 364.724 181.139 366.528 180.689L365.708 177.412C364.127 177.807 362.678 177.996 361.357 177.996V181.374ZM366.591 180.671C368.413 180.14 370.099 179.414 371.642 178.488L369.904 175.592C368.626 176.359 367.209 176.973 365.645 177.429L366.591 180.671ZM369.084 177.04V183.705H372.462V177.04H369.084ZM369.927 182.243C368.767 182.915 367.239 183.499 365.299 183.968L366.091 187.251C368.242 186.732 370.099 186.047 371.619 185.167L369.927 182.243ZM365.285 183.971C363.44 184.432 361.603 184.661 359.77 184.661V188.039C361.888 188.039 364 187.774 366.105 187.248L365.285 183.971ZM359.77 184.661C355.256 184.661 351.977 183.333 349.689 180.864L347.212 183.16C350.284 186.475 354.552 188.039 359.77 188.039V184.661ZM349.718 180.896C347.467 178.341 346.225 174.597 346.225 169.423H342.847C342.847 175.11 344.214 179.759 347.183 183.129L349.718 180.896ZM421.142 185.292H419.453V186.981H421.142V185.292ZM421.142 105.946V104.257H419.453V105.946H421.142ZM428.23 105.946H429.919V104.257H428.23V105.946ZM428.23 140.646H426.541V146.171L429.63 141.591L428.23 140.646ZM436.059 133.664L436.827 135.168L436.84 135.161L436.853 135.154L436.059 133.664ZM462.507 137.367L461.251 138.495L461.256 138.501L461.261 138.506L462.507 137.367ZM468.115 185.292V186.981H469.803V185.292H468.115ZM461.026 185.292H459.337V186.981H461.026V185.292ZM456.9 142.551L455.622 143.655L455.629 143.663L455.636 143.671L456.9 142.551ZM432.779 143.503L431.48 142.424L431.477 142.427L432.779 143.503ZM428.23 185.292V186.981H429.919V185.292H428.23ZM422.83 185.292V105.946H419.453V185.292H422.83ZM421.142 107.634H428.23V104.257H421.142V107.634ZM426.541 105.946V140.646H429.919V105.946H426.541ZM429.63 141.591C431.52 138.788 433.915 136.656 436.827 135.168L435.29 132.16C431.855 133.916 429.03 136.439 426.83 139.702L429.63 141.591ZM436.853 135.154C439.747 133.611 443.134 132.814 447.061 132.814V129.436C442.667 129.436 438.718 130.331 435.264 132.174L436.853 135.154ZM447.061 132.814C453.232 132.814 457.889 134.753 461.251 138.495L463.764 136.238C459.649 131.658 454.009 129.436 447.061 129.436V132.814ZM461.261 138.506C464.63 142.193 466.426 147.483 466.426 154.611H469.803C469.803 146.929 467.861 140.722 463.754 136.227L461.261 138.506ZM466.426 154.611V185.292H469.803V154.611H466.426ZM468.115 183.603H461.026V186.981H468.115V183.603ZM462.715 185.292V155.881H459.337V185.292H462.715ZM462.715 155.881C462.715 149.847 461.28 144.946 458.164 141.43L455.636 143.671C458.022 146.362 459.337 150.348 459.337 155.881H462.715ZM458.178 141.447C455.112 137.896 450.793 136.207 445.474 136.207V139.585C450.03 139.585 453.328 140.998 455.622 143.655L458.178 141.447ZM445.474 136.207C439.671 136.207 434.939 138.256 431.48 142.424L434.078 144.582C436.825 141.273 440.558 139.585 445.474 139.585V136.207ZM431.477 142.427C428.112 146.497 426.541 152.079 426.541 158.949H429.919C429.919 152.559 431.381 147.844 434.081 144.579L431.477 142.427ZM426.541 158.949V185.292H429.919V158.949H426.541ZM428.23 183.603H421.142V186.981H428.23V183.603ZM590.819 211.847H589.13V213.535H590.819V211.847ZM590.819 131.336L592.05 130.18L589.13 127.073V131.336H590.819ZM599.071 140.117L597.84 141.274L599.173 142.693L600.39 141.172L599.071 140.117ZM607.323 133.558L608.052 135.082L608.058 135.078L608.065 135.075L607.323 133.558ZM628.376 133.241L627.677 134.778L627.692 134.785L627.707 134.791L628.376 133.241ZM636.311 138.954L635.047 140.073L635.055 140.083L635.064 140.093L636.311 138.954ZM641.601 169.952L640.019 169.359L640.019 169.359L641.601 169.952ZM636.311 178.733L635.064 177.593L635.064 177.593L636.311 178.733ZM628.27 184.551L628.94 186.102L628.955 186.096L628.969 186.089L628.27 184.551ZM606.477 183.811L605.661 185.29L605.679 185.3L605.697 185.309L606.477 183.811ZM597.907 176.088L599.294 175.123L596.218 170.703V176.088H597.907ZM597.907 211.847V213.535H599.596V211.847H597.907ZM599.071 167.095L597.482 167.669L597.489 167.688L597.497 167.707L599.071 167.095ZM603.091 173.76L601.829 174.882L601.84 174.895L601.852 174.908L603.091 173.76ZM609.227 178.31L608.49 179.829L608.518 179.842L608.546 179.855L609.227 178.31ZM624.673 178.31L625.355 179.855L625.355 179.855L624.673 178.31ZM630.809 173.972L629.57 172.824L629.568 172.826L630.809 173.972ZM634.935 167.307L636.509 167.919L636.512 167.912L636.515 167.904L634.935 167.307ZM634.935 150.485L633.356 151.083L633.359 151.09L633.361 151.097L634.935 150.485ZM630.915 143.82L629.653 144.942L629.663 144.954L629.674 144.966L630.915 143.82ZM624.779 139.377L624.08 140.914L624.089 140.918L624.097 140.922L624.779 139.377ZM609.439 139.377L610.121 140.922L610.121 140.922L609.439 139.377ZM603.197 143.82L601.958 142.673L601.956 142.675L603.197 143.82ZM599.177 150.485L600.751 151.097L600.754 151.09L600.756 151.083L599.177 150.485ZM592.508 211.847V131.336H589.13V211.847H592.508ZM589.588 132.493L597.84 141.274L600.302 138.961L592.05 130.18L589.588 132.493ZM600.39 141.172C602.488 138.549 605.038 136.523 608.052 135.082L606.594 132.035C603.119 133.696 600.167 136.044 597.752 139.062L600.39 141.172ZM608.065 135.075C611.129 133.576 614.539 132.814 618.326 132.814V129.436C614.071 129.436 610.147 130.296 606.581 132.041L608.065 135.075ZM618.326 132.814C621.695 132.814 624.805 133.473 627.677 134.778L629.075 131.703C625.74 130.187 622.15 129.436 618.326 129.436V132.814ZM627.707 134.791C630.588 136.036 633.029 137.795 635.047 140.073L637.575 137.834C635.22 135.175 632.371 133.126 629.046 131.69L627.707 134.791ZM635.064 140.093C637.164 142.39 638.819 145.128 640.019 148.328L643.182 147.142C641.843 143.571 639.971 140.454 637.557 137.814L635.064 140.093ZM640.019 148.328C641.21 151.503 641.816 155.003 641.816 158.843H645.194C645.194 154.643 644.53 150.737 643.182 147.142L640.019 148.328ZM641.816 158.843C641.816 162.683 641.21 166.183 640.019 169.359L643.182 170.545C644.53 166.95 645.194 163.043 645.194 158.843H641.816ZM640.019 169.359C638.819 172.559 637.164 175.296 635.064 177.593L637.557 179.872C639.971 177.232 641.843 174.116 643.182 170.545L640.019 169.359ZM635.064 177.593C632.964 179.89 630.471 181.696 627.571 183.014L628.969 186.089C632.276 184.586 635.143 182.512 637.557 179.872L635.064 177.593ZM627.601 183.001C624.726 184.242 621.571 184.873 618.114 184.873V188.25C621.992 188.25 625.608 187.541 628.94 186.102L627.601 183.001ZM618.114 184.873C614.135 184.873 610.526 184.013 607.256 182.312L605.697 185.309C609.48 187.276 613.629 188.25 618.114 188.25V184.873ZM607.292 182.332C604.064 180.553 601.402 178.155 599.294 175.123L596.521 177.052C598.926 180.51 601.978 183.26 605.661 185.29L607.292 182.332ZM596.218 176.088V211.847H599.596V176.088H596.218ZM597.907 210.158H590.819V213.535H597.907V210.158ZM596.007 158.843C596.007 161.982 596.493 164.929 597.482 167.669L600.659 166.522C599.815 164.184 599.384 161.629 599.384 158.843H596.007ZM597.497 167.707C598.552 170.421 599.994 172.818 601.829 174.882L604.353 172.638C602.803 170.894 601.565 168.848 600.645 166.483L597.497 167.707ZM601.852 174.908C603.757 176.966 605.973 178.609 608.49 179.829L609.964 176.79C607.826 175.753 605.951 174.363 604.33 172.613L601.852 174.908ZM608.546 179.855C611.169 181.012 613.977 181.585 616.95 181.585V178.208C614.422 178.208 612.082 177.723 609.909 176.764L608.546 179.855ZM616.95 181.585C619.924 181.585 622.732 181.012 625.355 179.855L623.992 176.764C621.819 177.723 619.478 178.208 616.95 178.208V181.585ZM625.355 179.855C627.954 178.708 630.193 177.13 632.05 175.117L629.568 172.826C628.041 174.482 626.189 175.795 623.992 176.764L625.355 179.855ZM632.049 175.119C633.963 173.052 635.449 170.646 636.509 167.919L633.361 166.695C632.447 169.046 631.182 171.084 629.57 172.824L632.049 175.119ZM636.515 167.904C637.581 165.088 638.105 162.062 638.105 158.843H634.728C634.728 161.69 634.265 164.306 633.356 166.709L636.515 167.904ZM638.105 158.843C638.105 155.625 637.581 152.628 636.509 149.873L633.361 151.097C634.265 153.421 634.728 155.996 634.728 158.843H638.105ZM636.515 149.888C635.46 147.099 634.012 144.685 632.156 142.675L629.674 144.966C631.204 146.623 632.436 148.652 633.356 151.083L636.515 149.888ZM632.178 142.698C630.319 140.608 628.074 138.985 625.461 137.832L624.097 140.922C626.28 141.885 628.126 143.224 629.653 144.942L632.178 142.698ZM625.478 137.839C622.915 136.674 620.135 136.101 617.162 136.101V139.479C619.69 139.479 621.989 139.964 624.08 140.914L625.478 137.839ZM617.162 136.101C614.188 136.101 611.38 136.674 608.757 137.832L610.121 140.922C612.293 139.964 614.634 139.479 617.162 139.479V136.101ZM608.757 137.832C606.15 138.982 603.879 140.598 601.958 142.673L604.436 144.968C606.041 143.234 607.931 141.888 610.121 140.922L608.757 137.832ZM601.956 142.675C600.1 144.685 598.652 147.099 597.597 149.888L600.756 151.083C601.676 148.652 602.908 146.623 604.438 144.966L601.956 142.675ZM597.603 149.873C596.531 152.628 596.007 155.625 596.007 158.843H599.384C599.384 155.996 599.847 153.421 600.751 151.097L597.603 149.873ZM693.378 164.027L691.906 163.199L691.902 163.207L691.897 163.215L693.378 164.027ZM698.668 158.314L697.731 156.909L697.721 156.916L697.711 156.923L698.668 158.314ZM706.92 154.717L706.494 153.083L706.485 153.085L706.92 154.717ZM722.472 153.659L722.295 155.339L722.341 155.344L722.388 155.346L722.472 153.659ZM727.233 153.977L727.098 155.66L728.922 155.806V153.977H727.233ZM726.81 147.417L725.13 147.597L725.133 147.627L725.138 147.656L726.81 147.417ZM725.223 142.339L723.756 143.177L723.765 143.193L723.774 143.208L725.223 142.339ZM721.414 138.954L720.685 140.477L720.698 140.483L720.71 140.489L721.414 138.954ZM705.016 139.694L705.624 141.27L705.64 141.264L705.655 141.257L705.016 139.694ZM697.081 144.878H695.392V149.049L698.294 146.053L697.081 144.878ZM697.081 135.674L696.165 134.255L695.392 134.754V135.674H697.081ZM705.227 132.394L705.62 134.037L705.62 134.037L705.227 132.394ZM729.454 136.203L728.247 137.384L728.254 137.391L728.26 137.397L729.454 136.203ZM734.321 186.033L733.093 187.192L736.01 190.28V186.033H734.321ZM728.925 180.32L730.153 179.16L729.191 178.141L728.012 178.899L728.925 180.32ZM719.298 184.869L718.774 183.263L718.764 183.267L719.298 184.869ZM702.053 185.504L702.572 183.896L702.572 183.896L702.053 185.504ZM696.446 182.436L695.342 183.714L695.342 183.714L696.446 182.436ZM692.849 177.675L691.316 178.382L691.316 178.382L692.849 177.675ZM701.736 177.675L700.687 178.998L700.712 179.018L700.737 179.037L701.736 177.675ZM719.615 178.415L720.183 180.006L720.194 180.002L720.204 179.998L719.615 178.415ZM727.233 174.078L728.335 175.357L728.922 174.852V174.078H727.233ZM727.233 160.324H728.922V158.959L727.587 158.673L727.233 160.324ZM722.26 159.584L722.167 161.27L722.172 161.27L722.26 159.584ZM703.852 162.44L704.667 163.919L704.679 163.913L704.69 163.907L703.852 162.44ZM693.269 171.433C693.269 168.936 693.81 166.752 694.859 164.839L691.897 163.215C690.548 165.675 689.891 168.428 689.891 171.433H693.269ZM694.85 164.855C695.986 162.836 697.568 161.12 699.625 159.706L697.711 156.923C695.254 158.612 693.31 160.705 691.906 163.199L694.85 164.855ZM699.605 159.719C701.754 158.286 704.329 157.156 707.355 156.349L706.485 153.085C703.163 153.971 700.237 155.239 697.731 156.909L699.605 159.719ZM707.346 156.351C710.429 155.547 713.881 155.137 717.711 155.137V151.759C713.642 151.759 709.899 152.195 706.494 153.083L707.346 156.351ZM717.711 155.137C719.505 155.137 721.03 155.206 722.295 155.339L722.649 151.98C721.233 151.831 719.585 151.759 717.711 151.759V155.137ZM722.388 155.346C723.778 155.416 725.348 155.52 727.098 155.66L727.367 152.293C725.591 152.151 723.987 152.044 722.556 151.972L722.388 155.346ZM728.922 153.977C728.922 151.514 728.777 149.246 728.481 147.178L725.138 147.656C725.406 149.538 725.544 151.643 725.544 153.977H728.922ZM728.489 147.237C728.256 145.068 727.667 143.13 726.671 141.47L723.774 143.208C724.471 144.369 724.939 145.816 725.13 147.597L728.489 147.237ZM726.689 141.501C725.651 139.685 724.1 138.327 722.118 137.418L720.71 140.489C722.113 141.132 723.101 142.031 723.756 143.177L726.689 141.501ZM722.143 137.43C720.2 136.501 717.694 136.101 714.749 136.101V139.479C717.447 139.479 719.384 139.855 720.685 140.477L722.143 137.43ZM714.749 136.101C711.146 136.101 707.685 136.778 704.376 138.131L705.655 141.257C708.554 140.072 711.581 139.479 714.749 139.479V136.101ZM704.407 138.119C701.089 139.401 698.235 141.26 695.868 143.703L698.294 146.053C700.301 143.982 702.735 142.386 705.624 141.27L704.407 138.119ZM698.77 144.878V135.674H695.392V144.878H698.77ZM697.997 137.093C699.985 135.811 702.512 134.78 705.62 134.037L704.835 130.752C701.454 131.56 698.55 132.716 696.165 134.255L697.997 137.093ZM705.62 134.037C708.726 133.294 712.014 132.92 715.489 132.92V129.542C711.77 129.542 708.217 129.943 704.835 130.752L705.62 134.037ZM715.489 132.92C721.247 132.92 725.41 134.485 728.247 137.384L730.661 135.022C727.01 131.291 721.863 129.542 715.489 129.542V132.92ZM728.26 137.397C731.086 140.223 732.632 144.487 732.632 150.485H736.01C736.01 143.929 734.312 138.672 730.649 135.009L728.26 137.397ZM732.632 150.485V186.033H736.01V150.485H732.632ZM735.549 184.873L730.153 179.16L727.698 181.479L733.093 187.192L735.549 184.873ZM728.012 178.899C725.175 180.723 722.097 182.178 718.774 183.263L719.822 186.474C723.411 185.302 726.751 183.725 729.839 181.74L728.012 178.899ZM718.764 183.267C715.538 184.342 712.368 184.873 709.248 184.873V188.25C712.757 188.25 716.288 187.653 719.832 186.471L718.764 183.267ZM709.248 184.873C706.79 184.873 704.57 184.541 702.572 183.896L701.535 187.111C703.91 187.877 706.485 188.25 709.248 188.25V184.873ZM702.572 183.896C700.575 183.252 698.911 182.333 697.55 181.157L695.342 183.714C697.085 185.218 699.159 186.345 701.535 187.111L702.572 183.896ZM697.55 181.157C696.178 179.972 695.127 178.579 694.383 176.967L691.316 178.382C692.265 180.438 693.611 182.219 695.342 183.714L697.55 181.157ZM694.383 176.967C693.653 175.387 693.269 173.553 693.269 171.433H689.891C689.891 173.968 690.353 176.295 691.316 178.382L694.383 176.967ZM696.979 171.115C696.979 174.35 698.213 177.036 700.687 178.998L702.786 176.352C701.169 175.069 700.357 173.383 700.357 171.115H696.979ZM700.737 179.037C703.252 180.881 706.654 181.691 710.729 181.691V178.313C707.045 178.313 704.452 177.572 702.735 176.313L700.737 179.037ZM710.729 181.691C713.896 181.691 717.05 181.125 720.183 180.006L719.047 176.825C716.256 177.822 713.486 178.313 710.729 178.313V181.691ZM720.204 179.998C723.389 178.813 726.111 177.274 728.335 175.357L726.13 172.799C724.263 174.408 721.908 175.76 719.026 176.832L720.204 179.998ZM728.922 174.078V160.324H725.544V174.078H728.922ZM727.587 158.673C725.563 158.239 723.811 157.974 722.349 157.897L722.172 161.27C723.39 161.334 724.952 161.563 726.879 161.976L727.587 158.673ZM722.354 157.897C721.049 157.825 719.642 157.789 718.134 157.789V161.167C719.589 161.167 720.933 161.201 722.167 161.27L722.354 157.897ZM718.134 157.789C711.916 157.789 706.825 158.796 703.014 160.974L704.69 163.907C707.791 162.135 712.221 161.167 718.134 161.167V157.789ZM703.037 160.961C701.092 162.033 699.556 163.427 698.514 165.171C697.471 166.916 696.979 168.918 696.979 171.115H700.357C700.357 169.434 700.729 168.05 701.414 166.904C702.1 165.756 703.156 164.752 704.667 163.919L703.037 160.961ZM791.878 109.119L793.112 107.966L791.878 106.646L790.644 107.966L791.878 109.119ZM797.908 115.573L799.132 116.736L800.228 115.583L799.142 114.42L797.908 115.573ZM791.878 121.921L790.653 123.084L791.878 124.373L793.102 123.084L791.878 121.921ZM785.847 115.573L784.613 114.42L783.527 115.583L784.623 116.736L785.847 115.573ZM788.281 132.394V130.706H786.592V132.394H788.281ZM795.369 132.394H797.058V130.706H795.369V132.394ZM795.369 185.292V186.981H797.058V185.292H795.369ZM788.281 185.292H786.592V186.981H788.281V185.292ZM790.644 110.273L796.674 116.726L799.142 114.42L793.112 107.966L790.644 110.273ZM796.684 114.41L790.653 120.757L793.102 123.084L799.132 116.736L796.684 114.41ZM793.102 120.757L787.072 114.41L784.623 116.736L790.653 123.084L793.102 120.757ZM787.081 116.726L793.112 110.273L790.644 107.966L784.613 114.42L787.081 116.726ZM788.281 134.083H795.369V130.706H788.281V134.083ZM793.68 132.394V185.292H797.058V132.394H793.68ZM795.369 183.603H788.281V186.981H795.369V183.603ZM789.97 185.292V132.394H786.592V185.292H789.97ZM858.118 139.377L856.892 140.538L858.234 141.955L859.443 140.423L858.118 139.377ZM865.947 133.241L865.261 131.697L865.254 131.7L865.248 131.703L865.947 133.241ZM891.972 137.049L890.724 138.187L890.729 138.193L890.735 138.199L891.972 137.049ZM897.474 185.292V186.981H899.163V185.292H897.474ZM890.385 185.292H888.697V186.981H890.385V185.292ZM886.365 142.233L885.111 143.365L885.119 143.373L885.127 143.381L886.365 142.233ZM862.244 142.868L861.011 141.714L861.011 141.714L862.244 142.868ZM857.589 185.292V186.981H859.278V185.292H857.589ZM850.501 185.292H848.812V186.981H850.501V185.292ZM850.501 131.336L851.727 130.175L848.812 127.098V131.336H850.501ZM859.443 140.423C861.393 137.954 863.788 136.077 866.646 134.778L865.248 131.703C861.899 133.225 859.075 135.439 856.792 138.33L859.443 140.423ZM866.633 134.784C869.556 133.485 872.948 132.814 876.844 132.814V129.436C872.558 129.436 868.686 130.175 865.261 131.697L866.633 134.784ZM876.844 132.814C882.968 132.814 887.514 134.662 890.724 138.187L893.221 135.912C889.236 131.537 883.697 129.436 876.844 129.436V132.814ZM890.735 138.199C894.024 141.741 895.785 146.882 895.785 153.871H899.163C899.163 146.331 897.256 140.258 893.21 135.9L890.735 138.199ZM895.785 153.871V185.292H899.163V153.871H895.785ZM897.474 183.603H890.385V186.981H897.474V183.603ZM892.074 185.292V155.14H888.697V185.292H892.074ZM892.074 155.14C892.074 149.191 890.681 144.405 887.604 141.085L885.127 143.381C887.41 145.845 888.697 149.664 888.697 155.14H892.074ZM887.619 141.102C884.599 137.755 880.236 136.207 874.834 136.207V139.585C879.587 139.585 882.912 140.928 885.111 143.365L887.619 141.102ZM874.834 136.207C869.161 136.207 864.487 138.001 861.011 141.714L863.477 144.022C866.208 141.105 869.927 139.585 874.834 139.585V136.207ZM861.011 141.714C857.531 145.431 855.9 150.55 855.9 156.833H859.278C859.278 151.126 860.75 146.935 863.477 144.022L861.011 141.714ZM855.9 156.833V185.292H859.278V156.833H855.9ZM857.589 183.603H850.501V186.981H857.589V183.603ZM852.189 185.292V131.336H848.812V185.292H852.189ZM849.275 132.498L856.892 140.538L859.344 138.215L851.727 130.175L849.275 132.498Z" fill="white"/>
<path d="M542.464 0L552.164 10.3418L542.464 20.5141L532.763 10.3418L542.464 0Z" fill="#D95E46"/>
</svg>
