<svg width="300" height="58" viewBox="0 0 300 58" fill="none" xmlns="http://www.w3.org/2000/svg">
<g clip-path="url(#clip0_1305_1891)">
<path d="M11.9062 32.4224C18.7971 32.4224 23.8016 37.5726 23.8016 44.7529C23.8016 51.8875 18.7971 57.0356 11.8975 57.0356C4.99785 57.0356 -0.00878906 51.8875 -0.00878906 44.7529C-8.56528e-05 37.5726 5.00872 32.4224 11.9062 32.4224ZM11.9062 51.6025C15.307 51.6025 17.7636 48.7217 17.7636 44.7529C17.7636 40.7385 15.307 37.8555 11.9062 37.8555C8.55101 37.8555 6.04878 40.7385 6.04878 44.7529C6.04878 48.7217 8.55101 51.6068 11.9062 51.6068V51.6025Z" fill="#348A8D"/>
<path d="M28.5886 32.9905H34.6353V35.682C35.6067 34.6368 36.7862 33.8064 38.0977 33.2443C39.4093 32.6822 40.824 32.4008 42.2508 32.4182C47.3053 32.4182 50.519 35.682 50.519 40.9215V56.4658H44.4702V42.3445C44.4702 39.5572 42.8165 37.8557 40.2186 37.8557C36.9134 37.8557 34.644 40.5951 34.644 44.4224V56.4701H28.5886V32.9905Z" fill="#348A8D"/>
<path d="M77.9456 42.9037C77.955 44.1824 77.7148 45.4507 77.2385 46.6374H61.1763C61.8291 49.6597 64.105 51.6919 67.5538 51.6919C70.3824 51.6919 72.5147 50.2733 72.6561 48.3846H78.0414C77.6062 53.3456 72.9869 56.9357 66.9859 56.9357C59.8534 56.9357 55.1296 51.7398 55.1296 44.751C55.1296 37.5706 60.1841 32.4204 67.1273 32.4204C73.5047 32.4226 77.9456 36.8113 77.9456 42.9037ZM72.3711 42.0072C71.8989 39.4092 69.9624 37.6142 67.1752 37.6142C64.3879 37.6142 62.2621 39.3548 61.4113 42.0072H72.3711Z" fill="#348A8D"/>
<path d="M86.6838 0H94.6344V23.7799C97.711 20.329 102.061 18.3033 107.237 18.3033C115.414 18.3033 120.664 23.5536 120.664 31.9567V56.261H112.709V33.7649C112.709 28.5885 109.633 25.4379 104.833 25.4379C98.7555 25.4379 94.6301 30.314 94.6301 36.9917V56.2697H86.6838V0Z" fill="#348A8D"/>
<path d="M164.771 34.2C164.771 36.1583 164.397 37.9512 163.646 40.127H137.016C137.916 45.9779 142.116 49.9532 148.493 49.9532C153.67 49.9532 157.495 47.3291 157.795 43.7281H164.921C164.246 51.3892 157.12 56.9377 147.825 56.9377C136.574 56.9377 129.148 48.7608 129.148 37.7336C129.148 26.4061 136.948 18.3032 147.901 18.3032C157.869 18.3032 164.771 24.9809 164.771 34.2ZM157.495 33.9824C157.194 28.8061 153.519 25.205 147.967 25.205C142.566 25.205 138.515 28.7299 137.316 33.9824H157.495Z" fill="#348A8D"/>
<path d="M196.203 34.5068V31.9567C196.203 28.2795 192.678 25.4291 188.176 25.4291C183.825 25.4291 180.674 28.1315 180.374 31.5063H173.098C173.775 23.8538 180.15 18.3032 188.777 18.3032C197.554 18.3032 204.156 24.004 204.156 31.8066V47.4727C204.156 49.2743 205.281 50.4754 206.93 50.4754C207.594 50.488 208.246 50.3049 208.806 49.9488V55.4363C207.531 56.3371 205.731 56.8615 203.93 56.8615C200.405 56.8615 197.705 54.9859 196.654 52.1355C193.803 55.2122 189.678 57.0856 184.876 57.0856C177.223 57.0856 171.603 52.4358 171.603 45.46C171.603 38.6322 176.93 34.5068 185.18 34.5068H196.203ZM186.077 49.8857C191.327 49.8857 196.203 46.2085 196.203 41.0343V40.4338H186.527C182.476 40.4338 179.549 42.1593 179.549 45.1598C179.549 48.0101 182.249 49.8857 186.077 49.8857Z" fill="#348A8D"/>
<path d="M215.929 0H223.88V46.5089C223.88 48.8348 225.231 50.26 227.331 50.26C228.232 50.26 229.13 50.1099 229.807 49.7356V55.5104C228.124 56.414 226.241 56.8788 224.33 56.8616C219.154 56.8616 215.929 53.7109 215.929 48.5346V0Z" fill="#348A8D"/>
<path d="M247.74 25.4293V44.2591C247.74 47.8602 249.916 50.11 253.515 50.11C255.091 50.11 256.816 49.6596 257.567 49.0591V55.0622C256.067 56.111 253.433 56.8617 250.591 56.8617C243.913 56.8617 239.788 52.51 239.788 45.5342V25.4293H233.478V19.1194H239.788V11.1013L247.74 8.02686V19.1237H257.567V25.4337L247.74 25.4293Z" fill="#348A8D"/>
<path d="M266.02 0H273.973V23.7799C277.047 20.329 281.399 18.3033 286.575 18.3033C294.752 18.3033 300.002 23.5536 300.002 31.9567V56.261H292.049V33.7649C292.049 28.5885 288.975 25.4379 284.173 25.4379C278.098 25.4379 273.973 30.314 273.973 36.9917V56.2697H266.02V0Z" fill="#348A8D"/>
</g>
<defs>
<clipPath id="clip0_1305_1891">
<rect width="300" height="57.0857" fill="white"/>
</clipPath>
</defs>
</svg>
