<svg width="243" height="176" viewBox="0 0 243 176" fill="none" xmlns="http://www.w3.org/2000/svg">
<g clip-path="url(#clip0_1305_1870)">
<path d="M128.607 38.6619L91.4704 1.5255C90.543 0.571805 89.2759 0.0236822 87.9458 0.000749506C86.6157 -0.0221832 85.3306 0.481939 84.3708 1.40309L54.9366 30.8373C49.0705 36.8258 48.6185 46.656 53.1382 52.7293C53.1382 52.7293 53.7126 53.5108 53.6184 53.6144C53.5242 53.718 52.7427 53.1248 52.7427 53.1248C46.66 48.6051 36.8204 49.0665 30.8413 54.9326L1.42592 84.348C0.500253 85.2999 -0.0121251 86.5789 0.00021794 87.9066C0.012561 89.2344 0.548629 90.5036 1.49183 91.4382L30.8036 120.769C36.7921 126.654 46.6412 127.115 52.7145 122.586C52.7145 122.586 53.496 122.002 53.5996 122.106C53.7031 122.209 53.1099 122.982 53.1099 122.982C48.5903 129.055 49.0517 138.894 54.9272 144.883L84.3802 174.336C85.3245 175.231 86.5791 175.725 87.8802 175.715C89.1814 175.704 90.4277 175.19 91.3574 174.279L128.522 137.124C131.204 134.281 132.735 130.543 132.816 126.635V49.0853C132.741 45.2118 131.242 41.5015 128.607 38.6619Z" fill="#4C0055"/>
<path d="M53.1321 52.7283C53.1321 52.7283 53.7065 53.5098 53.6123 53.6134L87.858 87.8874V55.4778C87.858 52.1389 86.5317 48.9368 84.1708 46.5759C81.8099 44.215 78.6078 42.8887 75.2689 42.8887H50.0907C50.0048 46.4124 51.0728 49.8677 53.1321 52.7283Z" fill="#9A0064"/>
<path d="M53.6154 53.6135C53.5024 53.6982 52.7397 53.1239 52.7397 53.1239C49.8719 51.0728 46.4155 50.0088 42.8907 50.0919V75.2701C42.8869 76.9257 43.2098 78.5658 43.8408 80.0964C44.4718 81.6271 45.3985 83.0182 46.5679 84.1902C47.7373 85.3622 49.1264 86.292 50.6556 86.9265C52.1848 87.5609 53.8241 87.8875 55.4797 87.8875H87.8611L53.6154 53.6135Z" fill="#74005F"/>
<path d="M53.6122 122.106C53.6969 122.219 53.1225 122.982 53.1225 122.982C51.0702 125.849 50.0061 129.306 50.0906 132.831H75.2688C78.6076 132.831 81.8097 131.505 84.1706 129.144C86.5315 126.783 87.8579 123.581 87.8579 120.242V87.8887L53.6122 122.106Z" fill="#74005F"/>
<path d="M30.8004 54.9336L1.4227 84.3489C0.960396 84.8135 0.596282 85.3664 0.352024 85.9746C0.107765 86.5828 -0.0116463 87.234 0.000894701 87.8893H30.3013C31.9566 87.8881 33.5954 87.5607 35.124 86.9258C36.6527 86.2909 38.0413 85.361 39.2104 84.1893C40.3795 83.0175 41.3063 81.6269 41.9377 80.0968C42.5692 78.5667 42.8929 76.9272 42.8904 75.272V50.0938C38.387 50.0872 34.0553 51.8212 30.8004 54.9336Z" fill="#9A0064"/>
<path d="M128.602 38.6613L91.4657 1.52489C90.5118 0.560635 89.2156 0.0123636 87.8594 -0.000488281V30.2906C87.8594 31.9466 88.1859 33.5864 88.8202 35.1161C89.4545 36.6459 90.3842 38.0356 91.556 39.2057C92.7279 40.3758 94.119 41.3034 95.6497 41.9355C97.1804 42.5675 98.8207 42.8915 100.477 42.8891H131.455C130.727 41.3416 129.765 39.9156 128.602 38.6613Z" fill="#9A0064"/>
<path d="M131.43 42.8887H100.48C97.1409 42.8887 93.9388 44.215 91.5779 46.5759C89.217 48.9368 87.8906 52.1389 87.8906 55.4778V87.8874L131.872 43.9056C131.712 43.529 131.552 43.1994 131.43 42.8887Z" fill="#74005F"/>
<path d="M87.8594 87.8889H120.25C123.589 87.8889 126.791 86.5626 129.152 84.2017C131.513 81.8408 132.839 78.6387 132.839 75.2999V49.0859C132.839 47.3036 132.504 45.5372 131.851 43.8789L87.8594 87.8889Z" fill="#9A0064"/>
<path d="M120.25 87.8887H87.8594L131.841 131.87C132.494 130.212 132.829 128.446 132.83 126.663V100.45C132.825 97.1164 131.497 93.9216 129.139 91.5665C126.78 89.2114 123.583 87.8887 120.25 87.8887Z" fill="#74005F"/>
<path d="M100.477 132.83C98.8215 132.827 97.1819 133.151 95.6519 133.782C94.1218 134.414 92.7311 135.341 91.5594 136.51C90.3876 137.679 89.4578 139.067 88.8229 140.596C88.188 142.125 87.8606 143.763 87.8594 145.419V175.719C89.1716 175.707 90.4291 175.192 91.3715 174.279L128.536 137.123C129.72 135.853 130.695 134.404 131.427 132.83H100.477Z" fill="#74005F"/>
<path d="M87.861 175.72V145.419C87.8585 142.081 86.5314 138.88 84.171 136.52C81.8106 134.16 78.61 132.833 75.2719 132.83H50.0938C50.0955 137.323 51.8329 141.641 54.943 144.882L84.396 174.335C85.3219 175.238 86.5682 175.736 87.861 175.72Z" fill="#9A0064"/>
<path d="M42.8938 75.2715C42.8963 76.9267 42.5725 78.5662 41.9411 80.0963C41.3096 81.6264 40.3829 83.0171 39.2138 84.1888C38.0446 85.3606 36.6561 86.2905 35.1274 86.9253C33.5987 87.5602 31.9599 87.8876 30.3047 87.8888C37.2536 87.8888 42.8938 92.9546 42.8938 96.3632C42.8938 91.0902 48.5433 87.8888 55.4829 87.8888C53.8273 87.8888 52.1879 87.5623 50.6587 86.9278C49.1295 86.2934 47.7404 85.3636 46.571 84.1916C45.4017 83.0196 44.4749 81.6284 43.8439 80.0978C43.2129 78.5672 42.8901 76.9271 42.8938 75.2715Z" fill="#74005F"/>
<path d="M52.7303 122.586C52.7303 122.586 53.5118 122.003 53.6154 122.106L87.8611 87.8887H55.4797C48.5213 87.8887 42.8906 91.0807 42.8906 96.363V125.665C46.4174 125.731 49.8703 124.651 52.7303 122.586Z" fill="#9A0064"/>
<path d="M78.6696 78.1053C78.6696 72.6252 76.7017 68.8965 68.2085 68.8965C65.8303 68.9096 63.4635 69.226 61.1654 69.8381C60.7329 69.9142 60.3448 70.15 60.0779 70.4988C59.8111 70.8476 59.6851 71.2839 59.7248 71.7213V73.6044C59.7159 73.8301 59.7664 74.0542 59.8712 74.2542C59.9761 74.4542 60.1316 74.6232 60.3222 74.7443C60.5129 74.8653 60.732 74.9342 60.9576 74.944C61.1832 74.9539 61.4075 74.9043 61.6079 74.8003C63.6148 74.1413 65.7104 73.7921 67.8224 73.7645C71.6547 73.7645 72.8976 74.8003 72.8976 77.4367V78.7361L67.0974 79.1975C61.2501 79.6589 57.625 82.0223 57.625 87.6718C57.625 91.8054 59.8566 95.9484 66.5231 95.9484C69.1179 95.9214 71.6493 95.143 73.811 93.7074C73.9482 94.1762 74.2257 94.5917 74.6062 94.8981C74.9866 95.2044 75.4517 95.387 75.939 95.4211H77.7563C78.8485 95.4211 79.5453 95.0351 79.4323 93.9805C78.909 91.6252 78.6531 89.2183 78.6696 86.8056V78.1053ZM72.8694 89.5456C71.2474 90.6795 69.3118 91.2787 67.3328 91.2593C64.1691 91.2593 63.3405 89.3761 63.3405 87.427C63.3405 84.7341 64.847 83.7548 67.4364 83.4347L72.8694 82.8226V89.5456Z" fill="white"/>
<path d="M93.1872 95.9297C93.8149 95.9861 94.4646 96.0144 95.1363 96.0144C97.0461 96.0187 98.9473 95.7589 100.786 95.2423C101.22 95.1683 101.61 94.9333 101.879 94.5843C102.148 94.2353 102.275 93.7978 102.236 93.3591V91.3912C102.236 90.5155 101.511 89.8941 100.353 90.2613C98.7687 90.7813 97.103 91.0079 95.4376 90.9298C90.4189 90.9298 88.9689 87.5118 88.9689 82.4555C88.9689 77.3991 90.4189 73.9811 95.4376 73.9811C97.103 73.903 98.7687 74.1296 100.353 74.6497C101.492 75.0169 102.236 74.3954 102.236 73.5198V71.5518C102.275 71.1131 102.148 70.6756 101.879 70.3266C101.61 69.9776 101.22 69.7427 100.786 69.6686C98.9473 69.1521 97.0461 68.8923 95.1363 68.8965C85.984 68.8965 83.1875 74.3766 83.1875 82.4555C83.1875 89.9223 85.5791 95.1764 93.1872 95.9297Z" fill="white"/>
<path d="M120.662 69.9973H116.001V63.5286C116.015 63.3068 115.972 63.0852 115.876 62.8847C115.781 62.6841 115.636 62.5111 115.455 62.3821C115.274 62.253 115.064 62.1722 114.843 62.1471C114.622 62.122 114.399 62.1535 114.193 62.2386L111.708 62.9636C110.568 63.2743 110.201 63.7357 110.201 64.8468V69.9973L107.244 70.195C105.917 70.2798 105.305 70.76 105.305 71.7675V73.1893C105.312 73.4224 105.368 73.6514 105.469 73.8616C105.57 74.0718 105.713 74.2587 105.891 74.4102C106.068 74.5618 106.275 74.6747 106.498 74.7417C106.722 74.8087 106.956 74.8284 107.188 74.7994H110.182V87.9817C110.182 93.5654 113.553 96.0512 119.297 96.0512C119.888 96.0697 120.478 96.0191 121.058 95.9005C122.244 95.6369 122.611 95.0154 122.611 94.2433V92.2754C122.611 91.4939 122.14 90.9289 121.058 91.089C120.782 91.1099 120.505 91.1099 120.229 91.089C117.64 91.089 115.982 90.2133 115.982 87.2567V74.7806H120.643C121.933 74.7806 122.611 74.517 122.611 73.1705V71.598C122.63 70.2421 121.952 69.9973 120.662 69.9973Z" fill="white"/>
<path d="M31.2551 77.4367V100.694V105.863C31.2135 106.136 31.2348 106.414 31.3174 106.678C31.3999 106.941 31.5416 107.181 31.7315 107.381C31.9215 107.581 32.1546 107.735 32.4131 107.831C32.6716 107.927 32.9486 107.962 33.223 107.935H35.1062C35.3805 107.962 35.6576 107.927 35.9161 107.831C36.1746 107.735 36.4077 107.581 36.5976 107.381C36.7875 107.181 36.9292 106.941 37.0118 106.678C37.0944 106.414 37.1157 106.136 37.0741 105.863V93.9617C39.1446 95.2653 41.5387 95.9633 43.9854 95.9767C51.5181 95.9767 54.3429 90.8638 54.3429 82.4366C54.3429 75.8454 52.9399 68.8965 43.1097 68.8965C36.1043 68.8965 31.2551 73.0771 31.2551 77.4367ZM42.6295 91.0616C41.5929 91.1144 40.5572 90.9424 39.5933 90.5572C38.6295 90.172 37.7605 89.5828 37.0459 88.83V76.0714C37.7615 75.0451 39.8706 73.8022 42.6295 73.8022C47.6859 73.8022 48.4674 77.6251 48.4674 82.4366C48.4674 87.2481 47.6859 91.0616 42.6295 91.0616Z" fill="white"/>
<path d="M159.645 62.069C159.645 66.3626 158.232 68.9237 154.409 68.9237C152.885 68.9498 151.395 68.4697 150.172 67.5584L149.701 68.613H147.969V48.9902H150.907V56.2311C151.955 55.5694 153.169 55.2169 154.409 55.2142C158.232 55.2142 159.645 57.8035 159.645 62.069ZM150.907 58.4532V65.6753C151.761 66.1812 152.738 66.4449 153.731 66.4379C156.302 66.4379 156.697 64.4983 156.697 62.069C156.697 59.6396 156.302 57.7 153.731 57.7C152.74 57.6957 151.765 57.9557 150.907 58.4532Z" fill="#74005F"/>
<path d="M165.242 55.5254V64.4988C165.242 65.8358 165.92 66.4385 167.305 66.4385C168.359 66.4575 169.399 66.1941 170.318 65.6758V55.5254H173.246V68.6135H171.523L171.052 67.5589C169.809 68.4305 168.333 68.9064 166.815 68.9243C163.491 68.9243 162.305 67.2765 162.305 64.7624V55.5254H165.242Z" fill="#74005F"/>
<path d="M178.508 49.7441C178.881 49.7441 179.245 49.8546 179.554 50.0615C179.864 50.2684 180.105 50.5626 180.248 50.9067C180.391 51.2508 180.428 51.6294 180.355 51.9947C180.283 52.36 180.103 52.6956 179.84 52.9589C179.576 53.2223 179.241 53.4017 178.876 53.4743C178.51 53.547 178.132 53.5097 177.788 53.3672C177.443 53.2246 177.149 52.9833 176.942 52.6736C176.735 52.3639 176.625 51.9998 176.625 51.6273C176.625 51.1279 176.823 50.6489 177.177 50.2957C177.53 49.9425 178.009 49.7441 178.508 49.7441ZM177.039 65.3934V55.5255H179.977V65.3652C179.977 66.0996 180.241 66.3633 181.069 66.3633V68.7455C180.878 68.7605 180.686 68.7605 180.495 68.7455C178.113 68.7926 177.039 67.6438 177.039 65.3934Z" fill="#74005F"/>
<path d="M184.156 65.3928V48.9902H187.103V65.3645C187.103 66.099 187.358 66.3626 188.196 66.3626V68.7448C188.005 68.7605 187.812 68.7605 187.621 68.7448C185.22 68.7919 184.156 67.6432 184.156 65.3928Z" fill="#74005F"/>
<path d="M199.129 56.2311V48.9902H202.057V68.613H200.334L199.863 67.5584C198.641 68.4697 197.15 68.9498 195.626 68.9237C191.803 68.9237 190.391 66.3626 190.391 62.069C190.391 57.7753 191.803 55.2142 195.626 55.2142C196.866 55.2169 198.08 55.5694 199.129 56.2311ZM193.347 62.069C193.347 64.4983 193.733 66.4379 196.304 66.4379C197.297 66.4412 198.272 66.1778 199.129 65.6753V58.4532C198.269 57.9586 197.295 57.6989 196.304 57.7C193.696 57.7 193.347 59.6396 193.347 62.069Z" fill="#74005F"/>
<path d="M206.805 49.7441C207.178 49.7441 207.542 49.8546 207.851 50.0615C208.161 50.2684 208.402 50.5626 208.545 50.9067C208.687 51.2508 208.725 51.6294 208.652 51.9947C208.579 52.36 208.4 52.6956 208.137 52.9589C207.873 53.2223 207.538 53.4017 207.172 53.4743C206.807 53.547 206.429 53.5097 206.084 53.3672C205.74 53.2246 205.446 52.9833 205.239 52.6736C205.032 52.3639 204.922 51.9998 204.922 51.6273C204.922 51.1279 205.12 50.6489 205.473 50.2957C205.827 49.9425 206.306 49.7441 206.805 49.7441ZM205.336 65.3934V55.5255H208.265V65.3652C208.265 66.0996 208.528 66.3633 209.366 66.3633V68.7455C209.175 68.7605 208.983 68.7605 208.792 68.7455C206.41 68.7926 205.336 67.6438 205.336 65.3934Z" fill="#74005F"/>
<path d="M220.191 68.6137V59.6403C220.191 58.3033 219.513 57.7006 218.129 57.7006C217.076 57.6863 216.038 57.9459 215.116 58.4539V68.6137H212.188V55.5256H213.911L214.391 56.5707C215.634 55.7025 217.111 55.2299 218.628 55.2148C221.952 55.2148 223.129 56.8626 223.129 59.3767V68.6137H220.191Z" fill="#74005F"/>
<path d="M231.138 65.1584C230.631 65.165 230.124 65.1304 229.622 65.0549C229.409 65.2507 229.278 65.5198 229.255 65.8081C229.255 66.2601 229.49 66.4861 230.046 66.5708L234.754 67.1452C237.353 67.4559 238.266 68.6329 238.266 70.808C238.266 74.1789 234.707 75.5159 230.912 75.5159C227.409 75.5159 224.867 74.386 224.867 71.6931C224.886 70.9169 225.166 70.1696 225.661 69.5717C226.156 68.9738 226.839 68.5602 227.598 68.3975C227.286 68.21 227.029 67.9448 226.851 67.6279C226.672 67.311 226.579 66.9532 226.581 66.5896C226.597 66.1689 226.712 65.758 226.917 65.3899C227.121 65.0219 227.409 64.7071 227.758 64.4711C226.27 63.633 225.668 62.1171 225.668 60.2057C225.668 57.2208 227.127 55.234 231.129 55.234C231.943 55.2179 232.756 55.3226 233.539 55.5448H238.068V57.428L236.185 57.9552C236.45 58.6854 236.581 59.4573 236.571 60.2339C236.609 63.1717 235.131 65.1584 231.138 65.1584ZM230.197 69.0001C228.86 69.2355 227.664 69.8381 227.664 71.0999C227.664 72.5593 228.709 73.1337 231.11 73.1337C233.511 73.1337 235.432 72.4558 235.432 70.8833C235.432 69.9982 234.989 69.6027 233.916 69.4709L230.197 69.0001ZM231.138 62.8327C233.342 62.8327 233.841 61.6745 233.841 60.1868C233.841 58.6991 233.342 57.5409 231.138 57.5409C228.935 57.5409 228.445 58.6991 228.445 60.1868C228.445 61.6745 228.944 62.8327 231.138 62.8327Z" fill="#74005F"/>
<path d="M147.969 92.465V76.0625H150.907V92.4462C150.907 93.1712 151.161 93.3878 151.999 93.3878V95.77C151.809 95.8014 151.617 95.8172 151.424 95.8171C149.042 95.8642 147.969 94.7154 147.969 92.465Z" fill="#74005F"/>
<path d="M154.328 89.1399C154.328 85.1099 155.477 82.2852 160.138 82.2852C164.799 82.2852 165.938 85.1099 165.938 89.1399C165.938 93.17 164.789 95.9947 160.138 95.9947C155.486 95.9947 154.328 93.17 154.328 89.1399ZM162.981 89.1399C162.981 86.3152 162.624 84.7521 160.157 84.7521C157.69 84.7521 157.332 86.3434 157.332 89.1399C157.332 91.9365 157.69 93.5372 160.157 93.5372C162.624 93.5372 162.981 91.9459 162.981 89.1399Z" fill="#74005F"/>
<path d="M174.45 93.4056C175.622 93.4366 176.787 93.2317 177.878 92.803V95.3453C176.732 95.8043 175.505 96.0253 174.272 95.995C169.639 95.995 168.227 93.2267 168.227 89.1402C168.227 85.0537 169.639 82.2854 174.272 82.2854C175.506 82.2581 176.733 82.4824 177.878 82.9445V85.4774C176.787 85.0488 175.622 84.8439 174.45 84.8748C171.918 84.8748 171.183 86.6073 171.183 89.1402C171.183 91.6731 171.918 93.4056 174.45 93.4056Z" fill="#74005F"/>
<path d="M185.222 84.7994C183.823 84.8032 182.438 85.0682 181.136 85.5809V83.048C182.509 82.5355 183.964 82.277 185.43 82.2854C189.723 82.2854 190.712 84.1685 190.712 86.9462V95.6842H188.989L188.518 94.639C187.391 95.526 185.997 96.0041 184.563 95.9949C181.192 95.9949 180.062 93.9046 180.062 91.8143C180.062 88.9895 181.946 87.7842 184.855 87.5489L187.784 87.3135V86.6543C187.746 85.3267 187.106 84.7994 185.222 84.7994ZM185.034 89.6392C183.725 89.7993 182.972 90.2983 182.972 91.6542C182.939 91.9234 182.97 92.1965 183.061 92.4519C183.152 92.7073 183.301 92.9382 183.496 93.1262C183.691 93.3143 183.928 93.4544 184.187 93.5355C184.445 93.6167 184.719 93.6367 184.987 93.5939C185.997 93.6111 186.986 93.3078 187.812 92.7276V89.3285L185.034 89.6392Z" fill="#74005F"/>
<path d="M193.875 92.465V76.0625H196.803V92.4462C196.803 93.1712 197.067 93.3878 197.896 93.3878V95.77C197.706 95.8014 197.514 95.8172 197.321 95.8171C194.939 95.8642 193.875 94.7154 193.875 92.465Z" fill="#74005F"/>
<path d="M150.907 120.553V127.794H147.969V108.171H149.701L150.172 109.226C151.395 108.314 152.885 107.834 154.409 107.86C158.232 107.86 159.645 110.422 159.645 114.715C159.645 119.009 158.232 121.57 154.409 121.57C153.169 121.567 151.955 121.215 150.907 120.553ZM156.688 114.715C156.688 112.286 156.292 110.346 153.722 110.346C152.729 110.339 151.752 110.603 150.897 111.109V118.331C151.755 118.828 152.73 119.088 153.722 119.084C156.292 119.084 156.688 117.126 156.688 114.715Z" fill="#74005F"/>
<path d="M170.149 110.486C169.682 110.369 169.2 110.318 168.718 110.335C167.55 110.287 166.392 110.557 165.366 111.117V121.22H162.438V108.132H164.161L164.631 109.187C165.815 108.277 167.272 107.795 168.765 107.821C169.231 107.822 169.695 107.876 170.149 107.981V110.486Z" fill="#74005F"/>
<path d="M171.359 114.714C171.359 110.684 172.508 107.859 177.169 107.859C181.83 107.859 182.979 110.684 182.979 114.714C182.979 118.744 181.83 121.569 177.169 121.569C172.508 121.569 171.359 118.744 171.359 114.714ZM180.022 114.714C180.022 111.889 179.655 110.317 177.197 110.317C174.74 110.317 174.372 111.918 174.372 114.714C174.372 117.511 174.74 119.111 177.197 119.111C179.655 119.111 180.022 117.511 180.022 114.714Z" fill="#74005F"/>
<path d="M200.57 112.021C200.57 110.788 199.864 110.345 198.687 110.345C197.687 110.335 196.705 110.616 195.862 111.155C195.92 111.633 195.949 112.114 195.947 112.596V121.258H193.038V112.021C193.038 110.788 192.35 110.345 191.154 110.345C190.185 110.341 189.234 110.605 188.405 111.108V121.258H185.477V108.17H187.2L187.68 109.225C188.818 108.365 190.199 107.887 191.625 107.859C193.377 107.859 194.45 108.358 194.977 109.168C196.209 108.324 197.665 107.868 199.158 107.859C202.246 107.859 203.48 109.535 203.48 112.021V121.258H200.57V112.021Z" fill="#74005F"/>
<path d="M208.391 102.389C208.763 102.389 209.128 102.499 209.437 102.706C209.747 102.913 209.988 103.207 210.131 103.551C210.273 103.895 210.311 104.274 210.238 104.639C210.165 105.005 209.986 105.34 209.723 105.603C209.459 105.867 209.124 106.046 208.758 106.119C208.393 106.192 208.014 106.154 207.67 106.012C207.326 105.869 207.032 105.628 206.825 105.318C206.618 105.008 206.508 104.644 206.508 104.272C206.508 103.772 206.706 103.293 207.059 102.94C207.413 102.587 207.892 102.389 208.391 102.389ZM206.922 118.019V108.17H209.86V118.019C209.86 118.754 210.124 119.017 210.962 119.017V121.399C210.767 121.415 210.572 121.415 210.378 121.399C207.996 121.437 206.922 120.288 206.922 118.019Z" fill="#74005F"/>
<path d="M218.597 113.405C222.523 113.744 223.54 114.921 223.54 117.36C223.54 119.611 222.156 121.569 217.975 121.569C216.504 121.593 215.04 121.354 213.653 120.863V118.349C214.899 118.822 216.219 119.07 217.552 119.083C219.642 119.083 220.668 118.612 220.668 117.464C220.668 116.522 220.245 115.995 218.493 115.844C214.539 115.505 213.578 114.272 213.578 112.021C213.578 109.771 215.038 107.859 218.889 107.859C220.27 107.792 221.649 108.016 222.938 108.519V111.051C221.661 110.56 220.304 110.311 218.936 110.317C217.392 110.317 216.431 110.76 216.431 111.937C216.431 112.859 216.902 113.245 218.597 113.405Z" fill="#74005F"/>
<path d="M231.353 107.859C235.967 107.859 236.692 110.891 236.692 114.507C236.692 114.95 236.692 115.364 236.692 115.788H228.529C228.576 117.746 229.282 119.036 231.956 119.036C233.38 119.063 234.794 118.794 236.108 118.245V120.759C234.641 121.327 233.077 121.602 231.504 121.569C227.135 121.569 225.562 118.951 225.562 114.714C225.562 110.477 227.135 107.859 231.353 107.859ZM228.529 113.744H233.754C233.754 111.965 233.651 110.402 231.372 110.402C229.093 110.402 228.651 111.786 228.529 113.744Z" fill="#74005F"/>
<path d="M241.055 117.746C241.428 117.746 241.792 117.857 242.101 118.063C242.411 118.27 242.652 118.564 242.795 118.909C242.937 119.253 242.975 119.631 242.902 119.997C242.829 120.362 242.65 120.698 242.387 120.961C242.123 121.224 241.788 121.404 241.422 121.476C241.057 121.549 240.679 121.512 240.334 121.369C239.99 121.227 239.696 120.985 239.489 120.676C239.282 120.366 239.172 120.002 239.172 119.629C239.172 119.13 239.37 118.651 239.723 118.298C240.077 117.944 240.556 117.746 241.055 117.746Z" fill="#74005F"/>
</g>
<defs>
<clipPath id="clip0_1305_1870">
<rect width="242.969" height="175.72" fill="white"/>
</clipPath>
</defs>
</svg>
