<svg width="160" height="200" viewBox="0 0 160 200" fill="none" xmlns="http://www.w3.org/2000/svg">
<g clip-path="url(#clip0_1305_1729)">
<path d="M8.63902 170.686L8.5838 172.16L8.52435 172.636C8.49887 172.879 8.4479 173.265 8.37146 173.795C8.33292 174.136 8.27621 174.475 8.20158 174.81C8.17976 174.884 8.1418 174.953 8.09042 175.011C8.03903 175.069 7.97548 175.115 7.90429 175.145C7.76253 175.215 7.60752 175.252 7.44987 175.256C7.34082 175.272 7.22964 175.262 7.12512 175.227C7.02061 175.192 6.92564 175.133 6.84775 175.055C6.76986 174.977 6.71118 174.882 6.67637 174.778C6.64155 174.673 6.63156 174.562 6.64719 174.453C6.64719 174.406 6.7024 174.029 6.80858 173.26C6.938 172.499 7.01181 171.73 7.02942 170.958C6.60551 171.245 6.20246 171.561 5.82328 171.905C5.12112 172.497 4.52654 173.021 4.03956 173.476C3.58938 173.901 3.15619 174.288 2.73574 174.636C2.65924 174.741 2.59645 174.855 2.54887 174.976C2.28131 175.54 1.95005 175.825 1.54659 175.825C1.32573 175.814 1.11433 175.732 0.943522 175.591C0.857842 175.544 0.784462 175.476 0.729182 175.395C0.673901 175.314 0.638234 175.221 0.625 175.124C0.625 174.865 0.854336 174.474 1.31301 173.948C2.32263 172.939 3.4042 172.005 4.54919 171.153C5.13527 170.699 5.60669 170.304 5.96768 169.956C5.74057 169.728 5.48674 169.528 5.21172 169.361C4.81749 169.097 4.45793 168.785 4.14148 168.431C3.98622 168.258 3.81247 168.103 3.62335 167.968C3.16025 167.652 2.73303 167.286 2.34927 166.877C2.21197 166.708 2.133 166.499 2.12418 166.282C2.12564 166.181 2.14833 166.082 2.19077 165.99C2.23322 165.899 2.29445 165.817 2.3705 165.751C2.49839 165.615 2.67263 165.532 2.8589 165.518C2.99367 165.54 3.12594 165.576 3.25387 165.624C3.45999 165.686 3.64894 165.795 3.80597 165.942L4.80401 166.881C5.56173 167.659 6.38594 168.37 7.26725 169.004C7.26725 168.682 7.29273 168.18 7.29273 167.505V167.284C7.29273 166.636 7.27999 166.211 7.25451 166.01C7.22691 165.815 7.21131 165.617 7.20779 165.42C7.20395 165.3 7.2276 165.182 7.27694 165.073C7.32627 164.964 7.39996 164.867 7.49234 164.791C7.66796 164.632 7.89664 164.544 8.13363 164.545C8.36315 164.519 8.59412 164.581 8.77917 164.719C8.90745 164.888 8.96805 165.098 8.94904 165.309C8.94904 165.501 8.91507 166.159 8.85561 167.327C8.83438 167.705 8.82588 168.019 8.82588 168.265C8.81748 168.542 8.83454 168.82 8.87685 169.094C8.96544 169.048 9.04354 168.984 9.10618 168.907C9.16035 168.842 9.2185 168.781 9.28031 168.724C11.6246 166.255 12.9822 165.022 13.3531 165.025C13.548 165.028 13.734 165.107 13.8713 165.246C13.9439 165.306 14.0027 165.381 14.0438 165.466C14.0848 165.551 14.1071 165.644 14.1091 165.738C13.919 166.078 13.6752 166.385 13.3871 166.647C12.9072 167.165 12.5377 167.577 12.2192 167.887C11.9007 168.197 11.2297 168.83 10.1552 169.786C10.1552 169.816 10.5799 170.168 11.3316 170.848C12.0833 171.527 12.525 171.884 12.6057 171.926C13.5995 172.495 14.1006 172.992 14.1006 173.421C14.083 173.616 13.9919 173.797 13.8458 173.927C13.788 174.002 13.7151 174.065 13.6318 174.111C13.5484 174.157 13.4565 174.185 13.3616 174.194C12.9001 174.194 11.8582 173.448 10.2359 171.956C9.83667 171.567 9.41094 171.207 8.96178 170.877C8.90282 170.852 8.84831 170.818 8.8004 170.775C8.7556 170.732 8.69985 170.701 8.63902 170.686Z" fill="#9A0064"/>
<path d="M18.2982 166.435C18.241 166.691 18.1496 166.938 18.0264 167.17C17.8416 167.564 17.6992 167.977 17.6017 168.401C17.5167 168.8 17.3851 169.616 17.2067 170.839C17.2067 170.894 17.16 171.153 17.0835 171.625C16.9462 172.327 16.8441 173.036 16.7777 173.748L16.9137 174.224C16.9604 174.394 16.8372 174.568 16.5399 174.75C16.3156 174.909 16.0532 175.004 15.7797 175.027C15.338 175.027 15.1172 174.743 15.1172 174.177C15.1598 172.911 15.3421 171.653 15.6608 170.427L16.2936 167.03C16.2936 166.923 16.3233 166.868 16.3276 166.851L16.4635 166.299C16.5175 166.043 16.5885 165.79 16.6758 165.543C16.7348 165.414 16.8254 165.301 16.9391 165.216C17.0351 165.124 17.1593 165.067 17.2916 165.055C17.5401 165.066 17.7751 165.171 17.9499 165.348C18.056 165.438 18.1407 165.551 18.198 165.678C18.2553 165.805 18.2837 165.943 18.2812 166.082L18.2982 166.435Z" fill="#9A0064"/>
<path d="M28.7918 165.559C28.7361 166.274 28.6268 166.984 28.4648 167.682C28.0262 169.893 27.7761 172.136 27.7173 174.388C27.7172 174.525 27.6852 174.659 27.624 174.781C27.5628 174.902 27.4741 175.008 27.3648 175.089C27.1594 175.271 26.8959 175.373 26.6216 175.378C26.4213 175.377 26.2293 175.298 26.0865 175.157C26.012 175.099 25.9513 175.025 25.9087 174.941C25.8661 174.856 25.8427 174.763 25.8402 174.669C25.8845 174.146 25.9568 173.625 26.0568 173.11C26.1728 172.509 26.2437 171.9 26.2691 171.288C26.2691 171.152 26.2394 171.084 26.1799 171.084C26.0525 171.084 25.6831 171.114 25.0715 171.178C24.4599 171.241 24.0565 171.267 23.8738 171.267C23.6912 171.267 23.343 171.297 22.6592 171.348C22.2779 171.358 21.8983 171.404 21.5253 171.484C21.5253 171.484 21.4743 171.98 21.4234 172.97C21.4192 173.613 21.3219 174.253 21.1346 174.868C21.0989 175.017 21.015 175.15 20.8959 175.246C20.7768 175.342 20.6292 175.396 20.4763 175.399C20.3427 175.409 20.2089 175.385 20.0871 175.329C19.9653 175.274 19.8596 175.188 19.7798 175.081C19.6371 174.897 19.558 174.672 19.5547 174.439C19.5773 174.125 19.6313 173.813 19.7161 173.509C19.801 173.138 20.0587 171.031 20.489 167.186L20.6249 165.95C20.6509 165.783 20.737 165.632 20.867 165.525C20.9927 165.408 21.1581 165.343 21.3299 165.342C21.5801 165.338 21.8244 165.419 22.0222 165.572C22.1107 165.633 22.1842 165.713 22.2371 165.806C22.2901 165.9 22.3212 166.004 22.328 166.111V166.273C22.2953 166.91 22.2014 167.543 22.0477 168.162C21.9014 168.746 21.8104 169.342 21.7758 169.942C21.7758 170.001 21.8778 170.031 22.0816 170.031C22.8546 170.031 23.7648 169.984 24.8124 169.891C25.8614 169.797 26.4305 169.683 26.5112 169.547C26.647 169.045 26.7379 168.532 26.783 168.014C26.8877 167.209 26.9515 166.4 26.9741 165.589C26.9741 165.487 27.0803 165.345 27.2926 165.164C27.4583 165.005 27.6751 164.91 27.9042 164.896C28.1166 164.899 28.324 164.961 28.503 165.075C28.5902 165.12 28.6632 165.188 28.7141 165.272C28.7651 165.356 28.7919 165.452 28.7918 165.551V165.559Z" fill="#9A0064"/>
<path d="M33.8923 175.399H32.7456C32.0236 175.399 31.3866 175.017 30.826 174.253C30.3157 173.629 30.0181 172.858 29.9766 172.053C29.9936 170.936 30.2729 169.839 30.792 168.851C31.2748 167.835 31.9751 166.937 32.8433 166.222C33.5079 165.624 34.3586 165.275 35.2513 165.232L35.8246 165.169C36.1617 165.131 36.5005 165.111 36.8396 165.109C37.308 165.094 37.7735 165.188 38.1987 165.385C38.6064 165.601 38.9799 165.875 39.3071 166.201C39.693 166.575 39.9929 167.028 40.1863 167.53C40.3961 168.044 40.5043 168.593 40.5048 169.148C40.5048 169.876 40.1296 170.75 39.3793 171.773C38.6414 172.783 37.7332 173.656 36.6953 174.355C35.8833 174.97 34.9087 175.333 33.8923 175.399ZM38.7975 169.216C38.8187 168.209 38.5597 167.479 38.0161 167.037C37.6549 166.676 37.1874 166.441 36.6825 166.366C36.526 166.378 36.3709 166.405 36.2196 166.447C36.0212 166.497 35.8198 166.534 35.6165 166.557C34.9959 166.715 34.4131 166.996 33.9025 167.382C33.392 167.769 32.9639 168.254 32.6437 168.808C31.959 169.768 31.56 170.901 31.4927 172.078C31.4754 172.61 31.6641 173.127 32.0193 173.522C32.1667 173.707 32.3532 173.857 32.5654 173.961C32.7776 174.066 33.0103 174.122 33.2467 174.125C34.1172 174.088 34.9594 173.806 35.676 173.31C36.506 172.799 37.2451 172.153 37.8632 171.399C38.4662 170.66 38.7763 170.125 38.789 169.781L38.7975 169.216Z" fill="#9A0064"/>
<path d="M48.9552 169.58L47.1672 170.574C46.7517 170.799 46.315 170.983 45.8634 171.122C45.4326 171.271 44.9812 171.351 44.5256 171.36C44.2735 171.374 44.0212 171.336 43.7844 171.249C43.5476 171.161 43.3315 171.025 43.1496 170.85C42.8141 170.51 42.6484 169.699 42.6484 168.425C42.6659 167.744 42.7484 167.065 42.8948 166.399C43.0604 165.592 43.3195 165.125 43.6167 164.985C43.836 164.875 44.0734 164.806 44.3175 164.781C44.4032 164.785 44.4859 164.814 44.5559 164.864C44.6259 164.913 44.6802 164.982 44.7125 165.062C44.8223 165.281 44.8748 165.525 44.8654 165.771C44.7854 166.239 44.6805 166.703 44.5511 167.16C44.3718 167.792 44.2649 168.443 44.2326 169.1C44.2085 169.326 44.2576 169.554 44.3727 169.75C44.4275 169.807 44.4937 169.851 44.567 169.879C44.6403 169.908 44.7189 169.92 44.7974 169.916C45.4071 169.811 45.9972 169.613 46.5471 169.33C47.1738 169.085 47.7684 168.766 48.3181 168.378C48.6069 168.132 48.8065 167.954 48.9212 167.839C49.0751 167.532 49.1342 167.186 49.0911 166.845C49.0911 166.624 49.0911 166.387 49.0571 166.136C49.0296 165.962 49.0412 165.784 49.0912 165.615C49.1411 165.446 49.2282 165.29 49.3459 165.159C49.4523 165.048 49.5802 164.96 49.7219 164.9C49.8636 164.84 50.016 164.81 50.1698 164.811C50.375 164.817 50.5711 164.897 50.7219 165.036C50.8065 165.11 50.8736 165.201 50.9184 165.304C50.9633 165.407 50.9846 165.519 50.981 165.631C50.9592 165.936 50.9181 166.239 50.8578 166.539C50.7601 167.083 50.6242 168.238 50.4331 170.005C50.242 171.772 50.1486 172.978 50.1188 173.615C50.1188 174.074 50.0764 174.435 50.0551 174.706C50.0481 174.833 50.0142 174.957 49.9556 175.07C49.897 175.183 49.8151 175.282 49.7154 175.36C49.5115 175.522 49.2577 175.608 48.9976 175.603C48.8868 175.603 48.778 175.573 48.6835 175.515C48.5889 175.458 48.5124 175.374 48.4625 175.275C48.3338 175.036 48.2694 174.766 48.2757 174.494C48.3171 173.788 48.4122 173.087 48.5602 172.396C48.6494 172.022 48.7768 171.084 48.9552 169.58Z" fill="#9A0064"/>
<path d="M60.5245 167.165C60.206 167.144 59.862 167.131 59.4883 167.131C58.8215 167.131 58.1675 167.165 57.5262 167.229C57.1409 167.225 56.7601 167.311 56.4135 167.479C56.2173 167.838 56.0742 168.222 55.9888 168.622C55.8346 169.083 55.7265 169.558 55.666 170.04C55.8571 170.002 56.0907 169.96 56.337 169.9C57.044 169.721 57.7639 169.597 58.4902 169.531C58.751 169.529 59.006 169.608 59.2207 169.756C59.3221 169.813 59.4066 169.897 59.4655 169.997C59.5244 170.098 59.5557 170.212 59.5562 170.329C59.5627 170.411 59.5512 170.493 59.5226 170.57C59.494 170.647 59.449 170.717 59.3906 170.775C59.2802 170.873 59.1995 170.945 59.1443 170.987C58.9173 171.058 58.6812 171.095 58.4435 171.098C57.7385 171.158 57.0388 171.268 56.3498 171.429C56.0048 171.483 55.6716 171.595 55.3645 171.76C55.2378 172.059 55.1618 172.376 55.1394 172.699C55.078 173.056 55.0368 173.416 55.0162 173.778C55.0177 173.812 55.0289 173.844 55.0485 173.872C55.068 173.9 55.0952 173.922 55.1266 173.935C55.3106 173.938 55.4943 173.921 55.6745 173.884C55.9548 173.816 56.647 173.688 57.747 173.493C58.4039 173.362 59.0674 173.265 59.7346 173.204C59.9918 173.206 60.245 173.269 60.4736 173.387C60.5917 173.443 60.6901 173.533 60.756 173.646C60.8219 173.759 60.8523 173.889 60.843 174.02C60.843 174.648 60.046 174.963 58.452 174.963C57.7029 174.945 56.9551 175.034 56.2308 175.226C55.7805 175.345 55.322 175.43 54.8591 175.481C54.7766 175.484 54.6958 175.505 54.6212 175.54C54.5063 175.585 54.3836 175.607 54.2603 175.604C53.6232 175.604 53.3047 175.256 53.3047 174.555C53.3059 174.335 53.3432 174.117 53.4151 173.909C53.8256 171.573 54.1328 169.927 54.3367 168.97C54.4727 168.412 54.5608 167.844 54.6 167.271C54.5618 167.144 54.5193 167.008 54.4684 166.847C54.4185 166.71 54.3899 166.567 54.3834 166.422C54.3834 166.34 54.4017 166.26 54.4369 166.186C54.4722 166.113 54.5236 166.048 54.5873 165.997C54.714 165.879 54.8811 165.814 55.0544 165.815C55.1898 165.819 55.3198 165.868 55.4239 165.955C55.4495 165.983 55.4779 166.009 55.5089 166.031C55.7339 166.031 56.4984 165.959 57.8107 165.81C59.123 165.662 59.8365 165.594 59.9597 165.594C60.8091 165.594 61.2338 165.861 61.2338 166.401C61.221 166.808 60.9874 167.055 60.5245 167.165Z" fill="#9A0064"/>
<path d="M73.7467 169.058C73.6394 168.494 73.4975 167.936 73.322 167.389C73.2583 167.512 73.1903 167.657 73.1224 167.814C72.9015 168.314 72.6534 168.802 72.3791 169.275C72.1923 169.572 71.9544 170.048 71.5977 170.71C71.241 171.373 70.7483 172.239 70.124 173.288C69.7423 173.983 69.2958 174.64 68.7905 175.25C68.619 175.465 68.3708 175.605 68.0982 175.641C67.9813 175.655 67.8628 175.645 67.7498 175.612C67.6367 175.579 67.5314 175.524 67.4399 175.45C67.3014 175.279 67.2344 175.062 67.2531 174.843C67.2531 174.503 67.5121 174.031 68.0345 173.42C68.5569 172.808 69.4233 171.424 70.6931 169.173L72.7104 165.572C72.7659 165.455 72.8542 165.358 72.9644 165.292C73.0746 165.225 73.2019 165.193 73.3305 165.198C73.5005 165.204 73.6684 165.239 73.8274 165.3C73.9804 165.341 74.1244 165.41 74.252 165.504C74.3737 165.646 74.4648 165.813 74.5196 165.992C74.6215 166.255 74.7362 166.616 74.8636 167.083C74.957 167.468 75.1595 168.176 75.4709 169.207C75.7824 170.238 76.1306 171.248 76.5157 172.239C76.7141 172.835 76.9642 173.412 77.2631 173.964C77.3635 174.099 77.4889 174.215 77.6326 174.303C77.9639 174.503 78.1295 174.728 78.1295 174.97C78.1169 175.185 78.0209 175.386 77.862 175.531C77.7383 175.635 77.5949 175.714 77.4402 175.762C77.2855 175.81 77.1228 175.827 76.9616 175.811C76.8356 175.813 76.7111 175.782 76.6006 175.722C76.2474 175.473 75.9435 175.16 75.7045 174.8C75.5361 174.48 75.3941 174.146 75.2798 173.802L74.3922 171.322C74.2138 170.727 73.9972 169.993 73.7467 169.058Z" fill="#9A0064"/>
<path d="M82.6107 166.421C82.551 166.678 82.4597 166.926 82.3389 167.16C82.1535 167.553 82.0111 167.964 81.9142 168.387C81.8292 168.791 81.6976 169.602 81.5192 170.829C81.5192 170.88 81.4725 171.139 81.396 171.611C81.2586 172.313 81.1566 173.022 81.0902 173.734L81.2262 174.21C81.2729 174.38 81.1497 174.554 80.8524 174.736C80.6281 174.895 80.3657 174.99 80.0922 175.013C79.6505 175.013 79.4297 174.729 79.4297 174.163C79.4721 172.898 79.6544 171.642 79.9733 170.417L80.6061 167.02C80.6143 166.961 80.6256 166.903 80.6401 166.846L80.776 166.289C80.83 166.033 80.901 165.78 80.9883 165.533C81.0485 165.405 81.1389 165.293 81.2516 165.206C81.3476 165.114 81.4718 165.058 81.6041 165.045C81.8526 165.056 82.0876 165.161 82.2624 165.338C82.3685 165.428 82.4532 165.541 82.5105 165.668C82.5678 165.795 82.5962 165.933 82.5937 166.073L82.6107 166.421Z" fill="#9A0064"/>
<path d="M86.3945 171.153L86.5346 170.899C86.696 170.632 87.2736 169.44 88.2674 167.323C88.7345 166.325 89.0148 165.747 89.1168 165.581C89.2373 165.399 89.4045 165.252 89.6009 165.157C89.8088 165.038 90.0415 164.97 90.2804 164.957C90.7348 164.957 91.0279 165.055 91.1553 165.25C91.3906 165.824 91.5464 166.427 91.6182 167.042C91.6819 167.42 91.7499 167.739 91.8178 168.002C91.8576 168.142 91.8902 168.284 91.9155 168.427C92.1411 169.489 92.4246 170.538 92.7649 171.57C92.9435 172.202 93.2003 172.81 93.5293 173.379C93.6702 173.361 93.8121 173.352 93.954 173.353C94.1724 173.33 94.3921 173.381 94.5783 173.498C94.7046 173.66 94.7612 173.867 94.7355 174.071C94.7355 174.691 94.6902 175.608 94.5996 176.823C94.5656 177.248 94.5486 177.481 94.5486 177.52C94.5433 177.612 94.519 177.702 94.4774 177.785C94.4357 177.867 94.3776 177.94 94.3065 177.999C94.2243 178.077 94.1274 178.137 94.0217 178.176C93.916 178.215 93.8035 178.233 93.6907 178.229C93.571 178.227 93.4545 178.19 93.3552 178.123C93.2606 178.07 93.1759 178.001 93.1047 177.919C93.0441 177.809 93.0189 177.683 93.0325 177.558C93.0325 177.384 93.0579 177.031 93.1174 176.5C93.1768 175.969 93.1853 175.706 93.1853 175.579C93.1853 175.082 93.1386 174.835 93.0452 174.835C92.1958 174.835 89.7382 175.019 85.6725 175.388C85.2775 175.422 85.0694 175.464 85.0524 175.519C84.8592 176.077 84.756 176.662 84.7466 177.252V177.592C84.7617 177.702 84.7531 177.814 84.7215 177.921C84.6899 178.028 84.636 178.127 84.5633 178.211C84.4906 178.295 84.4008 178.363 84.2999 178.41C84.199 178.457 84.0893 178.482 83.9779 178.484H83.9142C83.8236 178.497 83.7312 178.49 83.6433 178.464C83.5554 178.439 83.474 178.395 83.4046 178.335C83.3347 178.265 83.2807 178.182 83.2462 178.089C83.2118 177.997 83.1977 177.898 83.205 177.8C83.205 177.532 83.2772 176.844 83.4173 175.727C83.4428 175.515 83.4598 175.303 83.4725 175.141C83.469 174.917 83.5246 174.696 83.6339 174.5C83.706 174.405 83.7981 174.326 83.9038 174.271C84.0095 174.215 84.1261 174.183 84.2455 174.177C84.4923 174.105 84.702 173.941 84.8316 173.719L84.9547 173.536C85.1926 173.193 85.6725 172.399 86.3945 171.153ZM86.5813 173.999L91.6522 173.574C91.5248 173.06 91.3634 172.508 91.1553 171.918C90.9472 171.327 90.8113 170.894 90.7306 170.644C90.4475 169.667 90.2493 168.846 90.136 168.18L89.9492 167.267C89.8855 167.416 89.5245 168.168 88.8492 169.527C88.1739 170.886 87.7025 171.833 87.4095 172.372C87.0936 172.892 86.8099 173.431 86.5601 173.986L86.5813 173.999Z" fill="#9A0064"/>
<path d="M103.79 167.155C103.476 167.155 103.128 167.121 102.754 167.121C102.091 167.121 101.437 167.155 100.792 167.219C100.408 167.217 100.029 167.303 99.6833 167.47C99.4852 167.827 99.342 168.212 99.2586 168.612C99.1024 169.072 98.9942 169.548 98.9359 170.031C99.127 169.992 99.3606 169.95 99.6069 169.89C100.312 169.711 101.031 169.588 101.756 169.521C102.018 169.519 102.275 169.597 102.491 169.746C102.591 169.804 102.675 169.888 102.734 169.988C102.793 170.089 102.825 170.203 102.826 170.319C102.833 170.402 102.821 170.485 102.793 170.563C102.764 170.64 102.719 170.711 102.66 170.77C102.55 170.867 102.465 170.935 102.41 170.978C102.183 171.05 101.947 171.088 101.709 171.092C101.004 171.149 100.304 171.258 99.6154 171.419C99.271 171.475 98.9382 171.587 98.6301 171.751C98.5059 172.049 98.4313 172.366 98.4092 172.689C98.345 173.046 98.3024 173.406 98.2818 173.768C98.2837 173.802 98.2955 173.836 98.3159 173.863C98.3362 173.891 98.3642 173.913 98.3965 173.925C98.579 173.928 98.7614 173.911 98.9401 173.874C99.2247 173.81 99.9169 173.679 101.013 173.483C101.67 173.352 102.333 173.255 103 173.195C103.259 173.196 103.514 173.258 103.743 173.377C103.861 173.434 103.958 173.525 104.023 173.637C104.089 173.75 104.118 173.88 104.109 174.01C104.109 174.639 103.314 174.953 101.718 174.953C100.969 174.935 100.221 175.024 99.4965 175.216C99.0475 175.335 98.5904 175.42 98.1289 175.471C98.0451 175.474 97.9627 175.494 97.8869 175.53C97.7733 175.575 97.6521 175.597 97.5301 175.594C96.8888 175.594 96.5703 175.246 96.5703 174.545C96.5735 174.325 96.6108 174.108 96.6807 173.9C97.0913 171.564 97.3999 169.917 97.6066 168.96C97.7408 168.402 97.8274 167.834 97.8656 167.262C97.83 167.118 97.7861 166.976 97.734 166.837C97.6842 166.7 97.6555 166.557 97.649 166.412C97.649 166.331 97.6673 166.25 97.7026 166.177C97.7379 166.103 97.7892 166.038 97.8529 165.987C97.9801 165.87 98.1469 165.805 98.3201 165.805C98.4563 165.811 98.587 165.86 98.6938 165.945C98.7193 165.973 98.7478 165.999 98.7787 166.021C98.9996 166.021 99.7683 165.949 101.076 165.801C102.384 165.652 103.102 165.584 103.23 165.584C104.079 165.584 104.504 165.852 104.504 166.391C104.484 166.79 104.246 167.045 103.79 167.155Z" fill="#9A0064"/>
<path d="M108.298 171.852C108.202 172.657 108.148 173.467 108.137 174.277C108.139 174.508 108.063 174.733 107.92 174.914C107.852 175.005 107.763 175.078 107.661 175.127C107.559 175.175 107.447 175.199 107.334 175.195C106.799 175.195 106.531 174.885 106.531 174.265C106.531 173.922 106.657 172.761 106.909 170.782C107.113 169.185 107.215 168.234 107.215 167.924C107.23 167.722 107.214 167.518 107.168 167.321C107.029 167.249 106.914 167.137 106.838 166.999C106.762 166.861 106.73 166.704 106.744 166.548C106.744 166.183 107.333 165.864 108.51 165.592C109.499 165.339 110.514 165.197 111.534 165.168C112.361 165.125 113.181 165.337 113.883 165.775C114.156 165.95 114.38 166.192 114.532 166.478C114.685 166.765 114.761 167.086 114.753 167.41C114.753 168.401 114.22 169.27 113.152 170.018C111.976 170.813 110.649 171.356 109.254 171.614C108.693 171.746 108.374 171.823 108.298 171.852ZM108.876 166.956L108.493 170.387C109.648 170.208 110.762 169.831 111.789 169.274C112.736 168.739 113.212 168.17 113.207 167.576C113.207 166.848 112.634 166.486 111.487 166.488C110.597 166.502 109.715 166.66 108.876 166.956Z" fill="#9A0064"/>
<path d="M122.266 172.715C122.332 172.704 122.401 172.708 122.465 172.728C122.53 172.748 122.589 172.783 122.637 172.831C122.685 172.878 122.721 172.936 122.742 173C122.763 173.065 122.769 173.133 122.759 173.199C122.759 173.599 122.28 174.09 121.323 174.673C120.495 175.219 119.532 175.523 118.541 175.552C117.746 175.55 116.976 175.276 116.358 174.775C116.024 174.505 115.76 174.159 115.587 173.766C115.414 173.373 115.338 172.944 115.365 172.516C115.417 171.326 115.775 170.171 116.405 169.161C117.048 167.99 117.927 166.966 118.987 166.154C119.835 165.448 120.892 165.04 121.994 164.994C122.25 164.982 122.506 165.022 122.746 165.112C122.987 165.202 123.206 165.339 123.391 165.517C123.557 165.673 123.688 165.862 123.778 166.072C123.867 166.282 123.912 166.508 123.91 166.736C123.926 167.1 123.887 167.465 123.795 167.819C123.698 168.059 123.521 168.258 123.294 168.383C123.108 168.515 122.891 168.595 122.665 168.617C122.506 168.616 122.354 168.553 122.24 168.443C122.179 168.381 122.13 168.306 122.099 168.224C122.067 168.142 122.053 168.055 122.058 167.967C122.07 167.761 122.107 167.557 122.168 167.36C122.232 167.143 122.268 166.919 122.274 166.693C122.274 166.41 122.173 166.261 121.969 166.247C121.34 166.247 120.639 166.578 119.845 167.249C119.038 167.956 118.362 168.8 117.849 169.742C117.35 170.534 117.058 171.438 117 172.371C116.985 172.833 117.135 173.285 117.424 173.645C117.583 173.823 117.781 173.963 118.001 174.053C118.222 174.144 118.46 174.183 118.699 174.168C119.127 174.148 119.549 174.058 119.947 173.9C120.442 173.725 120.91 173.481 121.336 173.174C121.604 172.948 121.923 172.79 122.266 172.715Z" fill="#9A0064"/>
<path d="M129.9 167.25C129.84 167.337 129.804 167.438 129.793 167.543C129.764 167.7 129.679 168.447 129.53 169.781C129.403 170.844 129.331 171.913 129.314 172.983C129.317 173.358 129.363 173.731 129.449 174.096C129.475 174.161 129.491 174.23 129.496 174.3C129.496 174.527 129.418 174.747 129.275 174.924C129.215 175.012 129.135 175.084 129.041 175.134C128.947 175.184 128.842 175.211 128.736 175.213C128.539 175.193 128.351 175.12 128.192 175C128.076 174.918 127.98 174.81 127.912 174.685C127.843 174.56 127.804 174.421 127.797 174.278C127.746 173.84 127.723 173.399 127.729 172.958C127.761 171.857 127.849 170.758 127.993 169.666C128.163 168.163 128.259 167.404 128.282 167.39C128.167 167.39 127.683 167.424 126.829 167.487C125.975 167.551 125.483 167.589 125.351 167.589C125.031 167.615 124.71 167.555 124.421 167.415C124.334 167.355 124.263 167.274 124.217 167.179C124.171 167.083 124.15 166.977 124.158 166.872C124.154 166.77 124.178 166.669 124.227 166.579C124.275 166.49 124.347 166.415 124.434 166.362C124.884 166.203 125.364 166.144 125.84 166.188C127.071 166.189 128.301 166.105 129.522 165.937C130.541 165.761 131.571 165.656 132.605 165.623C133.386 165.623 133.879 165.716 134.032 165.899C134.182 166.045 134.273 166.242 134.287 166.451C134.287 166.876 134.1 167.084 133.726 167.084C133.602 167.084 133.406 167.071 133.14 167.046C132.864 167.025 132.545 167.012 132.18 167.012C131.412 166.972 130.643 167.053 129.9 167.25Z" fill="#9A0064"/>
<path d="M140.738 167.002V166.973C140.738 166.862 140.632 166.731 140.415 166.582C140.201 166.432 139.946 166.352 139.685 166.353C138.968 166.344 138.253 166.434 137.561 166.62C137.434 166.641 137.314 166.69 137.209 166.765C137.024 167.223 136.882 167.698 136.784 168.183C136.549 169.135 136.366 170.099 136.236 171.071L136.185 171.428C136.025 172.269 135.92 173.12 135.871 173.976C135.887 174.113 135.873 174.252 135.829 174.383C135.784 174.513 135.712 174.633 135.616 174.732C135.52 174.831 135.403 174.908 135.274 174.956C135.145 175.005 135.006 175.024 134.869 175.012C134.759 175.011 134.652 174.98 134.559 174.924C134.465 174.868 134.387 174.789 134.334 174.694C134.191 174.461 134.119 174.193 134.125 173.921C134.149 173.675 134.193 173.432 134.257 173.194C134.397 172.608 134.618 171.564 134.928 170.06C135.238 168.557 135.391 167.788 135.391 167.754C135.391 167.529 135.327 167.414 135.208 167.414C135.016 167.419 134.83 167.347 134.69 167.215C134.622 167.159 134.566 167.09 134.528 167.01C134.49 166.931 134.47 166.844 134.469 166.756C134.469 166.28 135.098 165.864 136.347 165.507C137.569 165.158 138.834 164.98 140.105 164.977C140.689 164.989 141.252 165.195 141.706 165.563C141.932 165.704 142.12 165.897 142.255 166.126C142.391 166.355 142.469 166.614 142.483 166.879C142.424 167.311 142.248 167.717 141.974 168.056C141.597 168.598 141.153 169.09 140.653 169.521C141.876 169.781 142.488 170.602 142.488 171.984C142.488 172.574 141.995 173.292 141.014 174.146C140.079 174.978 138.868 175.432 137.616 175.42C137.333 175.431 137.051 175.376 136.793 175.258C136.704 175.225 136.628 175.168 136.571 175.093C136.515 175.017 136.481 174.928 136.474 174.834C136.48 174.667 136.535 174.506 136.631 174.371C136.72 174.22 136.848 174.096 137.001 174.01C137.212 173.916 137.44 173.865 137.672 173.861C138.495 173.858 139.295 173.585 139.948 173.084C140.475 172.634 140.738 172.264 140.734 171.971C140.721 171.626 140.593 171.295 140.368 171.033C140.271 170.889 140.14 170.77 139.987 170.687C139.834 170.605 139.663 170.56 139.489 170.557C139.413 170.569 139.339 170.59 139.268 170.621C138.918 170.78 138.55 170.898 138.173 170.973C137.876 171.009 137.576 170.942 137.323 170.782C137.251 170.705 137.195 170.613 137.16 170.513C137.125 170.413 137.111 170.306 137.12 170.2C137.12 170.013 137.319 169.831 137.714 169.652C138.199 169.447 138.668 169.209 139.12 168.939C139.493 168.709 139.828 168.422 140.114 168.09C140.393 167.773 140.606 167.403 140.738 167.002Z" fill="#9A0064"/>
<path d="M147.799 175.4H146.652C145.93 175.4 145.293 175.018 144.732 174.254C144.222 173.629 143.924 172.859 143.883 172.054C143.901 170.936 144.179 169.839 144.694 168.847C145.18 167.833 145.881 166.937 146.75 166.223C147.412 165.624 148.262 165.273 149.153 165.229L149.727 165.165C150.064 165.127 150.402 165.107 150.742 165.106C151.21 165.088 151.676 165.183 152.101 165.382C152.508 165.598 152.881 165.873 153.209 166.197C153.594 166.572 153.893 167.026 154.088 167.526C154.298 168.04 154.406 168.59 154.407 169.144C154.407 169.869 154.032 170.743 153.281 171.765C152.544 172.778 151.634 173.654 150.593 174.351C149.784 174.967 148.813 175.332 147.799 175.4ZM152.704 169.217C152.725 168.21 152.466 167.48 151.922 167.038C151.56 166.676 151.091 166.441 150.585 166.367C150.428 166.379 150.273 166.406 150.122 166.448C149.925 166.498 149.725 166.535 149.523 166.558C148.903 166.717 148.321 166.997 147.811 167.383C147.3 167.768 146.872 168.252 146.55 168.805C145.869 169.767 145.471 170.902 145.403 172.079C145.386 172.61 145.573 173.126 145.926 173.523C146.075 173.703 146.262 173.848 146.473 173.948C146.684 174.049 146.915 174.102 147.149 174.105C148.016 174.072 148.856 173.795 149.574 173.306C150.401 172.794 151.139 172.148 151.757 171.395C152.363 170.656 152.673 170.117 152.687 169.777L152.704 169.217Z" fill="#9A0064"/>
<path d="M157.098 174.847C156.865 174.869 156.632 174.8 156.448 174.655C156.312 174.531 156.244 174.217 156.244 173.713C156.234 173.555 156.264 173.397 156.333 173.254C156.424 173.126 156.543 173.021 156.682 172.948C156.82 172.854 156.982 172.798 157.149 172.787C157.412 172.779 157.673 172.845 157.901 172.978C157.995 173.024 158.075 173.095 158.131 173.183C158.187 173.272 158.218 173.374 158.219 173.479C158.221 173.666 158.182 173.85 158.103 174.019C158.024 174.188 157.909 174.338 157.765 174.456C157.586 174.65 157.354 174.786 157.098 174.847ZM158.372 169.224C158.366 169.356 158.329 169.485 158.266 169.601C158.203 169.717 158.114 169.817 158.007 169.895C157.76 170.102 157.446 170.213 157.123 170.205C157.005 170.193 156.892 170.151 156.796 170.081C156.7 170.012 156.624 169.918 156.576 169.81C156.452 169.64 156.377 169.441 156.359 169.232C156.379 169.079 156.436 168.934 156.525 168.807C156.617 168.648 156.734 168.504 156.873 168.383C157.039 168.276 157.236 168.225 157.433 168.238C157.586 168.268 157.73 168.329 157.858 168.417L157.93 168.459C158.074 168.548 158.201 168.66 158.308 168.79C158.355 168.9 158.373 169.02 158.364 169.139L158.372 169.224Z" fill="#9A0064"/>
<path d="M5.16505 193.882C5.16505 194.659 5.2967 195.156 5.53453 195.334C5.59013 195.372 5.63706 195.421 5.67222 195.478C5.70737 195.535 5.72993 195.599 5.73839 195.666C5.73839 195.789 5.65345 195.903 5.47932 196.014C5.3317 196.112 5.15976 196.168 4.98243 196.175C4.82105 196.168 4.66602 196.11 4.53891 196.01C4.4118 195.911 4.31892 195.774 4.27319 195.619C4.08201 195.105 3.99678 194.557 4.02262 194.009V193.661C4.02262 193.661 3.94617 193.64 3.79328 193.64C3.37704 193.644 2.96145 193.673 2.54892 193.729C2.08176 193.789 1.84817 193.861 1.84817 193.937C1.83448 194.123 1.79884 194.307 1.742 194.485C1.70298 194.606 1.68292 194.732 1.68254 194.859V195.283C1.68848 195.501 1.6261 195.715 1.50417 195.895C1.44657 195.978 1.36877 196.045 1.27811 196.09C1.18746 196.134 1.08694 196.155 0.986039 196.15C0.615138 196.147 0.429688 195.92 0.429688 195.47L0.450922 195.046C0.470672 194.778 0.506124 194.511 0.557096 194.247C0.670279 193.518 0.744001 192.784 0.777938 192.047L0.858631 190.943C0.872178 190.873 0.899874 190.806 0.940032 190.747C0.98019 190.688 1.03197 190.638 1.09221 190.599C1.23065 190.484 1.40489 190.421 1.58486 190.421C1.95435 190.421 2.14121 190.561 2.14121 190.845C2.14121 190.845 2.14121 190.888 2.14121 190.96C2.02901 191.567 1.95243 192.179 1.91188 192.795C1.91188 192.816 1.91188 192.829 1.91188 192.829C2.37634 192.828 2.84026 192.797 3.30063 192.735C3.56767 192.718 3.83309 192.681 4.09481 192.625C4.19146 192.333 4.23743 192.027 4.23072 191.72C4.23314 191.338 4.32476 190.961 4.49828 190.62C4.55944 190.531 4.64206 190.459 4.73853 190.41C4.835 190.361 4.94224 190.337 5.05038 190.34C5.23011 190.326 5.40822 190.382 5.54728 190.497C5.60152 190.552 5.6409 190.62 5.66171 190.694C5.68251 190.768 5.68406 190.847 5.66619 190.922L5.577 191.308C5.577 191.372 5.53878 191.478 5.49631 191.618C5.30445 192.251 5.20293 192.907 5.19478 193.568L5.16505 193.882Z" fill="#00B6F1"/>
<path d="M10.0851 194.265C9.19321 195.446 8.33533 196.032 7.5369 196.032C7.38619 196.033 7.23699 196.002 7.09979 195.939C6.96259 195.877 6.84071 195.785 6.74272 195.671C6.51455 195.418 6.39417 195.085 6.40721 194.745C6.40721 193.842 6.81067 192.878 7.61759 191.853C8.42027 190.829 9.23568 190.319 10.0553 190.319C10.244 190.309 10.4299 190.367 10.5795 190.483C10.7291 190.598 10.8324 190.763 10.8708 190.948C11.2657 190.948 11.4611 191.097 11.4611 191.398C11.4448 191.66 11.4079 191.92 11.3507 192.175C11.228 192.734 11.1583 193.303 11.1426 193.874C11.1293 194.184 11.1608 194.495 11.236 194.796C11.2955 194.974 11.3379 195.089 11.3634 195.144C11.4273 195.224 11.5127 195.285 11.6097 195.318C11.6671 195.338 11.7172 195.374 11.7536 195.423C11.79 195.471 11.8109 195.529 11.8136 195.59C11.8107 195.678 11.7848 195.763 11.7386 195.837C11.6924 195.912 11.6275 195.973 11.5503 196.015C11.39 196.128 11.1986 196.189 11.0024 196.189C10.8505 196.193 10.7011 196.149 10.576 196.062C10.4508 195.976 10.3562 195.852 10.3059 195.709C10.1583 195.352 10.086 194.969 10.0936 194.583V194.431C10.0865 194.376 10.0836 194.32 10.0851 194.265ZM9.80478 191.415C9.46077 191.415 9.01484 191.797 8.46274 192.558C7.9993 193.111 7.71494 193.792 7.64732 194.511C7.64732 194.792 7.70678 194.936 7.82145 194.936C8.22491 194.936 8.7218 194.575 9.31213 193.861C9.90246 193.148 10.1955 192.507 10.1955 191.963C10.2055 191.812 10.1636 191.662 10.0766 191.538C10.0443 191.498 10.0028 191.465 9.95555 191.444C9.90828 191.423 9.8566 191.413 9.80478 191.415Z" fill="#00B6F1"/>
<path d="M25.1383 191.539C24.9401 192.308 24.8346 193.097 24.824 193.891C24.824 194.626 24.9472 195.106 25.1935 195.327C25.2491 195.368 25.2957 195.421 25.3307 195.48C25.3658 195.54 25.3884 195.606 25.3974 195.675C25.3974 195.798 25.3082 195.913 25.1341 196.023C24.988 196.122 24.8174 196.178 24.6414 196.185C24.0497 196.185 23.7297 195.568 23.6816 194.333C22.869 195.483 22.0975 196.057 21.367 196.057C21.2131 196.058 21.061 196.024 20.922 195.958C20.783 195.892 20.6608 195.795 20.5643 195.675C20.3198 195.329 20.2041 194.908 20.2373 194.486C20.2346 194.302 20.2531 194.118 20.2925 193.938C20.2946 193.928 20.2946 193.918 20.2925 193.908C20.001 194.453 19.609 194.937 19.1374 195.335C18.8142 195.644 18.397 195.835 17.9525 195.879C17.7506 195.877 17.5546 195.812 17.3919 195.692C17.2115 195.568 17.0654 195.4 16.9672 195.204C16.8576 194.935 16.8084 194.645 16.8228 194.354C16.8251 194 16.8535 193.647 16.9077 193.297L16.9502 192.957C16.9502 192.813 16.9884 192.668 17.0139 192.532C17.12 192.082 17.17 191.619 17.1625 191.156C17.2056 191.018 17.2901 190.897 17.4046 190.808C17.5236 190.709 17.6744 190.656 17.8293 190.66C17.9199 190.653 18.0106 190.67 18.0935 190.707C18.1764 190.744 18.249 190.8 18.305 190.872C18.409 190.99 18.469 191.14 18.4748 191.297C18.4667 191.705 18.3965 192.111 18.2667 192.498C18.0992 193.007 18.009 193.538 17.9992 194.074C17.9992 194.499 18.0459 194.728 18.1351 194.728C18.5343 194.728 18.9845 194.303 19.5408 193.454C19.9989 192.767 20.3833 192.034 20.6875 191.267C20.8531 190.842 21.0825 190.609 21.367 190.609H21.401C21.4841 190.605 21.5672 190.619 21.6442 190.65C21.7213 190.682 21.7905 190.73 21.8469 190.791C21.9533 190.907 22.011 191.059 22.0083 191.216C21.977 191.572 21.8911 191.922 21.7535 192.252C21.4912 192.892 21.3473 193.574 21.3288 194.265C21.3288 194.69 21.3882 194.923 21.5072 194.923C21.7747 194.923 22.1739 194.639 22.7048 194.074C23.1524 193.636 23.48 193.091 23.6561 192.49C23.6986 192.303 23.7793 191.997 23.9067 191.577C23.9709 191.284 24.089 191.006 24.2549 190.757C24.3086 190.698 24.3742 190.651 24.4474 190.619C24.5206 190.586 24.5997 190.57 24.6796 190.57C25.0321 190.57 25.2063 190.77 25.2063 191.165C25.1961 191.291 25.1733 191.417 25.1383 191.539Z" fill="#00B6F1"/>
<path d="M31.8717 195.48C31.8512 195.61 31.7954 195.732 31.7103 195.832C31.6399 195.914 31.5504 195.978 31.4496 196.017C31.3489 196.056 31.24 196.07 31.1327 196.057C30.7972 196.057 30.4914 195.773 30.2281 195.208C29.9525 194.608 29.7596 193.974 29.6547 193.322C29.6123 193.093 29.5571 192.83 29.4891 192.524C29.4678 192.417 29.4522 192.31 29.4424 192.201C29.4376 192.108 29.4248 192.016 29.4042 191.925C29.349 192.036 29.2895 192.159 29.2301 192.299C28.8266 193.196 28.3567 194.062 27.8243 194.89L27.7648 195.008C27.7436 195.045 27.7179 195.08 27.6884 195.11C27.2637 195.866 26.9197 196.249 26.6479 196.249C26.2614 196.249 26.0703 196.074 26.0703 195.73C26.1318 195.333 26.3229 194.967 26.6139 194.69C27.2657 193.812 27.8344 192.875 28.3127 191.891L29.0389 190.498C29.079 190.43 29.1371 190.375 29.2069 190.338C29.2766 190.301 29.3552 190.285 29.4339 190.29C29.5712 190.296 29.7058 190.331 29.8289 190.392C29.9534 190.435 30.0597 190.519 30.1304 190.63C30.1975 190.773 30.246 190.924 30.2748 191.08C30.5211 192.235 30.742 193.145 30.9373 193.811C31.027 194.29 31.2542 194.733 31.5914 195.085C31.674 195.121 31.7442 195.18 31.7933 195.256C31.8424 195.331 31.8682 195.42 31.8674 195.51L31.8717 195.48Z" fill="#00B6F1"/>
<path d="M37.5257 190.689C37.4945 190.887 37.4284 191.078 37.3304 191.254C37.1542 191.719 37.0358 192.204 36.9779 192.698C36.8721 193.284 36.8125 193.877 36.7995 194.473C36.801 194.66 36.8137 194.848 36.8377 195.034C36.8668 195.243 36.881 195.455 36.8802 195.666C36.8802 195.757 36.808 195.846 36.6636 195.934C36.5489 196.012 36.4154 196.057 36.2771 196.066C36.0985 196.081 35.9201 196.034 35.7717 195.934C35.7123 195.873 35.667 195.801 35.6391 195.721C35.6112 195.641 35.6013 195.555 35.6103 195.471C35.6148 195.15 35.6361 194.83 35.674 194.511C35.708 194.208 35.725 194 35.725 193.887C34.9382 194.528 34.1935 195.219 33.4954 195.955C33.4255 196.029 33.3454 196.091 33.2575 196.142C33.1876 196.193 33.1057 196.225 33.0197 196.235C32.6757 196.235 32.4464 196.019 32.3359 195.586C32.3359 195.496 32.4336 195.361 32.6247 195.161C32.7532 195.021 32.8955 194.894 33.0494 194.783C33.157 194.721 33.6029 194.385 34.3872 193.776C34.1418 193.787 33.897 193.744 33.6698 193.651C33.4425 193.558 33.2381 193.417 33.0707 193.237C32.9162 193.019 32.8358 192.757 32.8413 192.49C32.8572 192.217 32.937 191.952 33.0742 191.716C33.2114 191.48 33.4023 191.279 33.6313 191.131C34.2114 190.695 34.8869 190.404 35.6019 190.281C35.7361 190.272 35.8695 190.254 36.0011 190.226C36.1325 190.197 36.266 190.179 36.4003 190.171C36.4865 190.164 36.5731 190.164 36.6593 190.171C36.7073 190.176 36.7557 190.176 36.8037 190.171C36.9549 190.177 37.1015 190.224 37.2284 190.307C37.2937 190.34 37.3515 190.386 37.3982 190.442C37.445 190.498 37.4797 190.563 37.5002 190.634L37.5257 190.689ZM36.1752 191.228C35.623 191.275 35.0886 191.446 34.6123 191.729C34.4548 191.807 34.3195 191.923 34.2192 192.067C34.1189 192.211 34.0569 192.379 34.039 192.553C34.039 192.617 34.0857 192.681 34.1834 192.744C34.3401 192.822 34.5146 192.855 34.6888 192.842C35.0665 192.856 35.4442 192.814 35.81 192.719C35.8602 192.651 35.895 192.573 35.9119 192.49L36.1752 191.228Z" fill="#00B6F1"/>
<path d="M40.1165 194.208C39.5704 194.703 39.1361 195.308 38.8424 195.984C38.7593 196.197 38.6416 196.395 38.4942 196.57C38.2622 196.57 38.0346 196.507 37.8359 196.387C37.7624 196.325 37.705 196.245 37.6688 196.156C37.6326 196.066 37.6185 195.969 37.6278 195.873C37.6492 195.592 37.7428 195.322 37.8996 195.087C38.29 194.543 38.7465 194.05 39.2586 193.618L39.5347 193.355C38.8835 192.401 38.5579 191.655 38.5579 191.117C38.5579 190.552 38.8042 190.267 39.3011 190.267C39.6451 190.267 39.8277 190.518 39.8532 191.023C39.8953 191.603 40.0934 192.161 40.4265 192.637C40.6257 192.457 40.8156 192.267 40.9956 192.068L41.1613 191.898C41.5063 191.533 41.8045 191.126 42.0489 190.688C42.1285 190.532 42.23 190.389 42.3504 190.263C42.4557 190.193 42.5812 190.16 42.7072 190.17C42.7907 190.168 42.8736 190.183 42.951 190.215C43.0284 190.246 43.0986 190.293 43.1573 190.352C43.2191 190.409 43.268 190.479 43.3009 190.557C43.3339 190.634 43.3501 190.718 43.3484 190.802C43.3484 191.176 42.5543 192.079 40.9659 193.512C41.4412 194.117 42.0279 194.626 42.6944 195.011C42.7689 195.058 42.8399 195.111 42.9068 195.168C42.9358 195.235 42.9503 195.308 42.9492 195.381C42.9494 195.467 42.9309 195.553 42.895 195.632C42.8591 195.712 42.8066 195.782 42.7411 195.839C42.6021 195.969 42.4175 196.039 42.2272 196.035C41.7346 196.035 41.031 195.426 40.1165 194.208Z" fill="#00B6F1"/>
<path d="M47.5165 194.476C46.4576 195.326 45.645 195.743 45.0787 195.729C44.9091 195.737 44.7403 195.702 44.5876 195.627C44.4349 195.553 44.303 195.442 44.2038 195.305C43.9834 194.997 43.87 194.625 43.8811 194.247C43.9025 193.573 44.011 192.905 44.2038 192.259C44.2864 191.767 44.47 191.297 44.7432 190.879C44.9067 190.752 45.1099 190.688 45.3165 190.697C45.3906 190.695 45.4636 190.714 45.5284 190.749C45.5932 190.785 45.6475 190.837 45.686 190.9C45.7836 191.04 45.8341 191.206 45.8304 191.376C45.7291 191.668 45.6056 191.952 45.4609 192.225C45.1929 192.74 45.0393 193.307 45.0108 193.886C45.0037 194.072 45.0416 194.257 45.1212 194.425C45.1934 194.566 45.2698 194.638 45.3505 194.638C45.5503 194.629 45.7466 194.582 45.9281 194.498C46.2193 194.36 46.4918 194.186 46.7393 193.979C46.9646 193.816 47.1699 193.626 47.3508 193.415C47.4517 193.262 47.525 193.092 47.5674 192.913C47.6522 192.477 47.6963 192.033 47.6991 191.588C47.7018 191.338 47.7217 191.088 47.7586 190.841C47.7852 190.729 47.8497 190.63 47.9412 190.561C48.054 190.47 48.1962 190.425 48.3404 190.433C48.4253 190.424 48.5112 190.432 48.5929 190.457C48.6746 190.482 48.7505 190.523 48.816 190.578C48.9375 190.781 48.9869 191.018 48.9562 191.253C48.9562 191.733 48.8713 192.761 48.7014 194.328C48.5315 195.895 48.213 197.037 47.7586 197.725C47.5729 198.05 47.3038 198.32 46.9789 198.506C46.6541 198.692 46.2854 198.787 45.9111 198.783C45.2658 198.797 44.6325 198.607 44.1019 198.239C43.5838 197.878 43.329 197.56 43.329 197.279C43.3215 197.141 43.3637 197.004 43.4479 196.893C43.4861 196.847 43.5343 196.811 43.5888 196.786C43.6432 196.762 43.7026 196.751 43.7622 196.753C43.8167 196.752 43.8706 196.764 43.9194 196.789C43.9682 196.813 44.0104 196.849 44.0425 196.893C44.2549 197.159 44.5251 197.374 44.8325 197.521C45.14 197.669 45.4768 197.744 45.8177 197.742C46.7039 197.751 47.2701 196.662 47.5165 194.476Z" fill="#00B6F1"/>
<path d="M57.7615 190.748C58.1071 190.936 58.3794 191.235 58.5344 191.597C58.7257 192.024 58.8199 192.488 58.8105 192.956C58.8249 193.808 58.5222 194.634 57.9611 195.275C57.7448 195.568 57.4661 195.809 57.1451 195.981C56.8241 196.153 56.4689 196.251 56.1052 196.269C55.8282 196.279 55.553 196.221 55.3036 196.101C55.0541 195.98 54.8379 195.8 54.6739 195.577C54.2891 194.968 54.1076 194.252 54.1558 193.534C54.1606 192.438 54.3531 191.35 54.7249 190.319C55.0038 189.411 55.481 188.577 56.1221 187.877C56.3419 187.632 56.6084 187.434 56.906 187.294C57.2036 187.154 57.5263 187.075 57.8549 187.061C58.0299 187.053 58.2046 187.082 58.3678 187.145C58.5309 187.209 58.6789 187.306 58.802 187.431C59.0493 187.709 59.176 188.074 59.1545 188.446C59.1262 188.839 58.9927 189.218 58.768 189.542C58.4884 189.987 58.1498 190.393 57.7615 190.748ZM57.5194 193.054C57.5278 192.709 57.4687 192.365 57.3453 192.043C57.3108 191.928 57.2461 191.825 57.1579 191.743C57.0698 191.662 56.9614 191.606 56.8441 191.58C56.7737 191.62 56.7069 191.665 56.6445 191.716L55.4341 192.625C55.3947 192.918 55.3749 193.213 55.3747 193.508C55.3747 194.613 55.6465 195.165 56.1901 195.165C56.3927 195.155 56.5886 195.089 56.7564 194.975C56.9242 194.862 57.0574 194.704 57.1414 194.519C57.3932 194.086 57.5238 193.593 57.5194 193.092V193.054ZM55.672 191.283C56.3956 190.753 57.0479 190.132 57.6128 189.436C57.7997 189.18 57.9168 188.88 57.9526 188.565C57.9526 188.276 57.8634 188.14 57.6893 188.14C57.3623 188.14 57.014 188.429 56.636 188.99C56.1959 189.7 55.8679 190.473 55.6635 191.283H55.672Z" fill="#00B6F1"/>
<path d="M59.9768 192.562C60.0872 191.942 60.1424 191.585 60.1424 191.496C60.1348 191.273 60.1924 191.053 60.3081 190.863C60.3556 190.783 60.4236 190.718 60.5049 190.673C60.5863 190.628 60.6781 190.606 60.771 190.608C60.9653 190.598 61.1572 190.655 61.3146 190.77C61.3725 190.813 61.42 190.869 61.4538 190.932C61.4876 190.996 61.5068 191.067 61.51 191.139C61.4782 191.429 61.4141 191.713 61.3189 191.989L61.2891 192.099C61.129 192.626 61.0153 193.166 60.9494 193.713C60.9111 194.137 60.8942 194.464 60.8942 194.724C60.9011 195.01 60.9367 195.294 61.0003 195.573C61.0053 195.624 61.0053 195.675 61.0003 195.726C61.0003 195.807 60.9281 195.913 60.7795 196.044C60.6473 196.154 60.48 196.213 60.3081 196.21C59.8579 196.21 59.6328 195.87 59.6328 195.186C59.6443 194.472 59.7253 193.761 59.8749 193.063C59.9216 192.902 59.9556 192.727 59.9768 192.562ZM61.3443 189.381C61.2684 189.389 61.192 189.371 61.1277 189.33C61.073 189.268 61.0375 189.191 61.0258 189.109C61.0093 189.042 60.9836 188.978 60.9494 188.918C60.8589 188.726 60.8083 188.518 60.8007 188.306C60.8107 188.207 60.8421 188.112 60.8927 188.026C60.9432 187.94 61.0119 187.866 61.0938 187.81C61.2731 187.647 61.5059 187.556 61.7478 187.555C61.9091 187.563 62.0642 187.62 62.1937 187.716C62.3594 187.822 62.4443 187.924 62.4443 188.026C62.4264 188.24 62.3777 188.45 62.2999 188.65C62.2672 188.775 62.2082 188.892 62.1269 188.992C62.0456 189.092 61.9439 189.174 61.8285 189.232C61.6778 189.312 61.5136 189.362 61.3443 189.381Z" fill="#00B6F1"/>
<path d="M66.2948 190.199L66.316 190.17C66.3232 190.142 66.3232 190.112 66.316 190.085C66.3027 189.82 66.2207 189.564 66.0782 189.341C65.9323 189.071 65.7007 188.858 65.4199 188.734C65.1757 188.616 64.9095 188.551 64.6384 188.543C64.4136 188.579 64.1975 188.657 64.0014 188.772C63.8468 188.864 63.6746 188.922 63.496 188.942C63.2412 188.942 63.1138 188.827 63.1138 188.594C63.1627 188.339 63.2905 188.106 63.479 187.927C63.6476 187.768 63.849 187.647 64.0691 187.574C64.2892 187.501 64.5226 187.476 64.7531 187.502C65.3887 187.468 66.018 187.643 66.5453 187.999C66.9821 188.322 67.3025 188.778 67.4584 189.299C67.6415 189.974 67.7245 190.672 67.7047 191.371C67.6527 192.147 67.4493 192.904 67.1059 193.601C66.791 194.402 66.2621 195.101 65.577 195.623C65.0184 196.032 64.3459 196.258 63.6531 196.268C63.4916 196.255 63.3354 196.204 63.1968 196.12C63.0583 196.036 62.9411 195.921 62.8547 195.784C62.6034 195.469 62.4724 195.074 62.4852 194.671C62.4713 193.955 62.6502 193.248 63.0034 192.624C63.3042 192.076 63.6979 191.585 64.167 191.172C64.6637 190.767 65.2438 190.477 65.8658 190.322C66.0114 190.291 66.1547 190.25 66.2948 190.199ZM66.4986 191.286C65.9652 191.39 65.4634 191.617 65.0334 191.949C64.7032 192.263 64.4175 192.62 64.184 193.011C63.8872 193.519 63.74 194.1 63.7593 194.688C63.7576 194.781 63.7827 194.873 63.8315 194.952C63.8768 195.037 63.9193 195.079 63.9589 195.079C64.5252 195.079 65.0914 194.667 65.6577 193.843C66.1974 193.099 66.4914 192.205 66.4986 191.286Z" fill="#00B6F1"/>
<path d="M72.8425 193.869C72.8425 194.647 72.9657 195.132 73.212 195.321C73.2676 195.359 73.3145 195.408 73.3497 195.465C73.3849 195.522 73.4074 195.586 73.4159 195.653C73.4159 195.771 73.3267 195.89 73.1526 196.001C73.0049 196.099 72.833 196.155 72.6557 196.162C72.4943 196.155 72.3393 196.097 72.2121 195.997C72.085 195.898 71.9922 195.761 71.9464 195.606C71.757 195.091 71.6733 194.544 71.7001 193.996V193.661C71.7001 193.661 71.6237 193.64 71.4708 193.64C71.0545 193.643 70.6389 193.673 70.2264 193.729C69.755 193.788 69.5214 193.86 69.5257 193.937C69.5122 194.123 69.4751 194.307 69.4152 194.485C69.3777 194.606 69.359 194.732 69.36 194.858L69.3813 195.283C69.3872 195.501 69.3248 195.714 69.2029 195.895C69.1453 195.978 69.0675 196.045 68.9768 196.089C68.8862 196.134 68.7857 196.155 68.6848 196.149C68.2855 196.149 68.0859 195.924 68.0859 195.474L68.1072 195.049C68.1269 194.782 68.1624 194.515 68.2133 194.251C68.3244 193.522 68.3981 192.788 68.4342 192.051L68.5149 190.947C68.5277 190.876 68.5551 190.809 68.5953 190.75C68.6356 190.691 68.6877 190.641 68.7485 190.603C68.8865 190.487 69.061 190.424 69.2411 190.425C69.6106 190.425 69.7932 190.565 69.7932 190.849V190.964C69.6782 191.57 69.6002 192.183 69.5596 192.799C69.5596 192.82 69.5596 192.833 69.5596 192.833C70.0227 192.832 70.4852 192.801 70.9441 192.739C71.2112 192.722 71.4767 192.685 71.7383 192.629C71.8405 192.338 71.888 192.032 71.8785 191.724C71.8766 191.341 71.9685 190.964 72.146 190.624C72.2072 190.535 72.2898 190.462 72.3863 190.414C72.4828 190.365 72.59 190.341 72.6981 190.344C72.8779 190.33 73.056 190.386 73.195 190.501C73.2485 190.556 73.2871 190.624 73.3072 190.699C73.3272 190.773 73.3281 190.851 73.3097 190.926L73.2248 191.312C73.2248 191.376 73.1823 191.482 73.1398 191.622C72.948 192.255 72.8464 192.911 72.8383 193.572L72.8425 193.869Z" fill="#00B6F1"/>
<path d="M79.1254 193.359C78.9042 194.149 78.4498 194.853 77.8216 195.38C77.3035 195.877 76.6232 196.17 75.9062 196.204C75.6693 196.21 75.4342 196.162 75.2176 196.066C75.001 195.97 74.8083 195.827 74.6533 195.648C74.3245 195.271 74.1501 194.785 74.1649 194.285C74.1831 193.344 74.4982 192.433 75.0653 191.681C75.2922 191.302 75.6113 190.986 75.993 190.764C76.3747 190.541 76.8065 190.418 77.2482 190.407C77.5185 190.398 77.7872 190.451 78.0333 190.563C78.2794 190.675 78.4962 190.843 78.6667 191.053C79.0304 191.485 79.2237 192.034 79.2103 192.599C79.2101 192.854 79.1816 193.109 79.1254 193.359ZM76.4625 191.745C76.1675 192.035 75.9298 192.378 75.7618 192.756C75.5405 193.189 75.4227 193.667 75.4178 194.153C75.4081 194.398 75.4622 194.641 75.5749 194.858C75.6117 194.94 75.6713 195.01 75.7466 195.059C75.8219 195.108 75.9098 195.134 75.9996 195.134C76.2604 195.107 76.5126 195.026 76.7401 194.896C76.9676 194.766 77.1653 194.589 77.3204 194.378C77.7612 193.923 78.0066 193.313 78.0042 192.679C78.0171 192.374 77.9403 192.071 77.7834 191.809C77.7184 191.702 77.6264 191.615 77.5168 191.555C77.4072 191.495 77.2838 191.466 77.159 191.469C76.9078 191.47 76.6656 191.563 76.4795 191.732L76.4625 191.745Z" fill="#00B6F1"/>
<path d="M83.668 190.744C84.0151 190.931 84.2879 191.23 84.4409 191.593C84.6321 192.022 84.7264 192.488 84.717 192.957C84.7306 193.808 84.428 194.634 83.8676 195.276C83.6513 195.568 83.3726 195.81 83.0516 195.982C82.7306 196.153 82.3754 196.252 82.0117 196.269C81.7347 196.279 81.4595 196.222 81.2101 196.101C80.9606 195.98 80.7444 195.8 80.5804 195.577C80.1956 194.968 80.0141 194.253 80.0623 193.534C80.0671 192.438 80.2596 191.351 80.6314 190.319C80.9085 189.411 81.386 188.577 82.0286 187.877C82.2484 187.633 82.5149 187.434 82.8125 187.294C83.1101 187.154 83.4328 187.075 83.7614 187.062C83.9364 187.054 84.1111 187.082 84.2742 187.146C84.4374 187.21 84.5854 187.307 84.7085 187.431C84.9551 187.708 85.0818 188.072 85.061 188.442C85.0334 188.837 84.8999 189.217 84.6745 189.542C84.3946 189.986 84.056 190.391 83.668 190.744ZM83.4259 193.05C83.4348 192.705 83.3756 192.362 83.2518 192.039C83.2173 191.924 83.1526 191.821 83.0644 191.739C82.9763 191.658 82.8679 191.602 82.7506 191.576C82.679 191.614 82.612 191.659 82.551 191.712L81.3406 192.621C81.3012 192.914 81.2814 193.209 81.2812 193.505C81.2812 194.609 81.553 195.157 82.0966 195.157C82.2988 195.148 82.4946 195.083 82.6625 194.97C82.8303 194.857 82.9637 194.699 83.0479 194.515C83.2997 194.082 83.4303 193.589 83.4259 193.088V193.05ZM81.5785 191.279C82.3025 190.748 82.9549 190.126 83.5193 189.428C83.704 189.178 83.821 188.886 83.8591 188.578C83.8591 188.294 83.7699 188.153 83.5958 188.153C83.2688 188.153 82.9205 188.442 82.5425 189.003C82.1091 189.708 81.7868 190.476 81.587 191.279H81.5785Z" fill="#00B6F1"/>
<path d="M90.9342 195.47C90.9147 195.599 90.8587 195.72 90.7728 195.818C90.7037 195.901 90.6152 195.965 90.5151 196.005C90.415 196.045 90.3065 196.06 90.1994 196.048C89.8597 196.048 89.5581 195.759 89.2906 195.198C89.0199 194.597 88.8273 193.963 88.7172 193.313C88.6748 193.083 88.6238 192.816 88.5516 192.51C88.5516 192.459 88.5261 192.348 88.5091 192.191C88.5041 192.097 88.4898 192.003 88.4667 191.911C88.4115 192.021 88.3563 192.145 88.2926 192.285C87.8912 193.184 87.4227 194.051 86.8911 194.88L86.8274 194.994C86.8089 195.033 86.7829 195.068 86.7509 195.096C86.3262 195.856 85.9822 196.234 85.7147 196.234C85.3282 196.234 85.1328 196.065 85.1328 195.716C85.1963 195.321 85.3872 194.957 85.6764 194.68C86.3285 193.8 86.8972 192.862 87.3752 191.877L88.1057 190.484C88.1459 190.418 88.2036 190.363 88.2725 190.327C88.3414 190.292 88.4189 190.275 88.4964 190.28C88.6346 190.287 88.7701 190.32 88.8956 190.378C89.0188 190.423 89.1243 190.506 89.1972 190.616C89.2646 190.758 89.3117 190.91 89.3373 191.066C89.5836 192.221 89.8059 193.131 90.0041 193.797C90.0946 194.275 90.3201 194.717 90.6539 195.071C90.7394 195.103 90.8124 195.161 90.8621 195.237C90.9119 195.314 90.9356 195.404 90.9299 195.495L90.9342 195.47Z" fill="#00B6F1"/>
<path d="M96.3606 194.193C96.3606 194.55 96.0633 194.974 95.4645 195.467C94.8994 195.951 94.1785 196.215 93.4344 196.21C93.1814 196.223 92.9286 196.181 92.6933 196.087C92.458 195.994 92.2458 195.85 92.0711 195.667C91.7187 195.241 91.5411 194.698 91.5742 194.146C91.5845 193.158 91.9424 192.205 92.585 191.454C93.2617 190.604 93.9837 190.187 94.751 190.201C94.9165 190.193 95.0819 190.218 95.2371 190.277C95.3922 190.335 95.5338 190.424 95.6532 190.539C95.7725 190.654 95.8671 190.792 95.931 190.945C95.995 191.098 96.027 191.262 96.0251 191.428C96.0098 191.755 95.9264 192.075 95.7801 192.367C95.6338 192.66 95.4279 192.919 95.1757 193.127C94.5576 193.687 93.8009 194.071 92.9842 194.24C92.9392 194.245 92.8979 194.267 92.8687 194.302C92.8395 194.337 92.8246 194.381 92.8271 194.426C92.8359 194.605 92.9153 194.773 93.0479 194.894C93.1243 194.969 93.2155 195.027 93.3156 195.065C93.4158 195.103 93.5228 195.12 93.6298 195.114C94.3149 195.114 94.9959 194.762 95.6726 194.057C95.718 193.998 95.775 193.95 95.84 193.914C95.905 193.878 95.9767 193.856 96.0505 193.849C96.2572 193.849 96.3606 193.963 96.3606 194.193ZM92.9248 193.288C93.4522 193.184 93.9437 192.946 94.3518 192.596C94.5153 192.488 94.6545 192.348 94.7606 192.183C94.8666 192.019 94.9371 191.834 94.9676 191.64C94.972 191.537 94.9388 191.436 94.8741 191.356C94.8447 191.319 94.8071 191.29 94.7644 191.27C94.7217 191.25 94.6749 191.24 94.6278 191.241C94.4266 191.274 94.2348 191.35 94.0649 191.462C93.895 191.575 93.7511 191.723 93.6425 191.895C93.298 192.297 93.0522 192.774 92.9248 193.288Z" fill="#00B6F1"/>
<path d="M101.926 193.865C101.926 194.643 102.049 195.127 102.296 195.317C102.351 195.354 102.398 195.402 102.433 195.458C102.468 195.515 102.491 195.578 102.5 195.644C102.5 195.767 102.415 195.886 102.241 195.992C102.094 196.094 101.922 196.151 101.744 196.158C101.582 196.15 101.428 196.092 101.301 195.992C101.174 195.893 101.081 195.756 101.034 195.602C100.843 195.087 100.758 194.54 100.784 193.992V193.635C100.784 193.635 100.707 193.614 100.555 193.614C100.138 193.618 99.7227 193.648 99.3101 193.703C98.843 193.763 98.6094 193.831 98.6094 193.911C98.5979 194.098 98.5622 194.282 98.5032 194.459C98.4639 194.58 98.4438 194.706 98.4438 194.833V195.258C98.4491 195.475 98.3868 195.689 98.2654 195.869C98.2078 195.952 98.13 196.019 98.0393 196.064C97.9487 196.108 97.8482 196.129 97.7473 196.124C97.348 196.124 97.1484 195.899 97.1484 195.449V195.024C97.1685 194.756 97.2039 194.489 97.2546 194.226C97.368 193.498 97.4418 192.765 97.4755 192.03L97.5561 190.926C97.5697 190.855 97.5974 190.789 97.6375 190.73C97.6777 190.67 97.7295 190.62 97.7897 190.582C97.9295 190.466 98.1052 190.403 98.2866 190.403C98.6519 190.403 98.8387 190.539 98.8387 190.828C98.8387 190.828 98.8387 190.87 98.8387 190.947C98.7265 191.553 98.6499 192.166 98.6094 192.782C98.6094 192.803 98.6094 192.811 98.6094 192.816C99.0739 192.812 99.5377 192.779 99.9982 192.718C100.265 192.701 100.53 192.665 100.792 192.612C100.889 192.319 100.935 192.011 100.928 191.703C100.931 191.322 101.023 190.947 101.196 190.607C101.257 190.518 101.34 190.445 101.436 190.396C101.533 190.347 101.64 190.324 101.748 190.327C101.837 190.319 101.927 190.329 102.012 190.356C102.097 190.383 102.176 190.426 102.245 190.484C102.299 190.539 102.338 190.607 102.359 190.681C102.38 190.755 102.382 190.834 102.364 190.909L102.275 191.291C102.275 191.359 102.236 191.461 102.194 191.605C102.002 192.236 101.9 192.891 101.892 193.55L101.926 193.865Z" fill="#00B6F1"/>
<path d="M108.069 193.861C108.069 194.642 108.201 195.135 108.439 195.318C108.494 195.355 108.541 195.403 108.576 195.459C108.611 195.516 108.634 195.579 108.642 195.645C108.642 195.768 108.557 195.883 108.383 195.993C108.237 196.094 108.065 196.152 107.886 196.159C107.725 196.151 107.57 196.093 107.443 195.994C107.316 195.894 107.223 195.757 107.177 195.602C106.987 195.088 106.901 194.541 106.927 193.993V193.632C106.927 193.632 106.85 193.61 106.697 193.61C106.281 193.616 105.865 193.647 105.453 193.704C104.986 193.763 104.752 193.831 104.752 193.908C104.739 194.094 104.704 194.278 104.646 194.456C104.607 194.578 104.587 194.705 104.587 194.834L104.608 195.258C104.613 195.474 104.551 195.687 104.429 195.866C104.371 195.948 104.294 196.016 104.203 196.061C104.113 196.106 104.012 196.128 103.911 196.125C103.512 196.125 103.312 195.9 103.312 195.445L103.334 195.02C103.353 194.752 103.389 194.486 103.44 194.222C103.553 193.495 103.627 192.762 103.661 192.026L103.741 190.918C103.756 190.848 103.784 190.783 103.824 190.724C103.864 190.666 103.915 190.616 103.975 190.578C104.113 190.462 104.287 190.397 104.468 190.395C104.837 190.395 105.024 190.536 105.024 190.82C105.024 190.82 105.024 190.863 105.024 190.939C104.912 191.544 104.836 192.155 104.795 192.769C104.795 192.791 104.795 192.803 104.795 192.808C105.259 192.804 105.723 192.771 106.183 192.71C106.45 192.69 106.715 192.655 106.978 192.604C107.073 192.311 107.119 192.003 107.114 191.695C107.116 191.314 107.207 190.939 107.381 190.599C107.442 190.51 107.525 190.438 107.621 190.389C107.718 190.34 107.825 190.316 107.933 190.319C108.022 190.311 108.112 190.321 108.197 190.348C108.283 190.375 108.362 190.419 108.43 190.476C108.484 190.531 108.524 190.599 108.545 190.673C108.565 190.747 108.567 190.826 108.549 190.901L108.46 191.283C108.46 191.347 108.422 191.453 108.379 191.597C108.187 192.228 108.085 192.883 108.078 193.542L108.069 193.861Z" fill="#00B6F1"/>
<path d="M114.315 190.689C114.286 190.888 114.219 191.08 114.119 191.254C113.945 191.72 113.826 192.205 113.767 192.698C113.661 193.284 113.601 193.878 113.589 194.473C113.59 194.66 113.604 194.846 113.631 195.03C113.657 195.241 113.669 195.454 113.669 195.667C113.669 195.756 113.597 195.845 113.453 195.93C113.339 196.01 113.205 196.057 113.066 196.066C112.888 196.078 112.71 196.032 112.561 195.934C112.502 195.874 112.457 195.801 112.429 195.721C112.401 195.641 112.391 195.556 112.399 195.471C112.402 195.152 112.423 194.833 112.463 194.516C112.497 194.216 112.514 194.008 112.514 193.892C111.726 194.533 110.98 195.224 110.28 195.96C110.211 196.032 110.132 196.095 110.047 196.147C109.975 196.199 109.892 196.231 109.805 196.24C109.46 196.24 109.231 196.024 109.125 195.59C109.125 195.501 109.218 195.361 109.41 195.166C109.537 195.024 109.679 194.898 109.834 194.788C109.94 194.724 110.386 194.384 111.168 193.777C110.923 193.787 110.68 193.745 110.453 193.653C110.227 193.56 110.023 193.42 109.855 193.242C109.699 193.024 109.617 192.762 109.622 192.494C109.634 192.217 109.713 191.947 109.852 191.707C109.991 191.466 110.186 191.263 110.42 191.114C111.001 190.679 111.676 190.388 112.391 190.265C112.525 190.254 112.659 190.234 112.79 190.205C112.922 190.179 113.055 190.161 113.189 190.15C113.276 190.143 113.362 190.143 113.448 190.15H113.593C113.744 190.157 113.891 190.204 114.017 190.286C114.083 190.318 114.141 190.363 114.189 190.419C114.236 190.474 114.272 190.539 114.294 190.609L114.315 190.689ZM112.968 191.208C112.415 191.252 111.879 191.422 111.401 191.704C111.243 191.782 111.108 191.899 111.007 192.044C110.907 192.189 110.845 192.357 110.828 192.533C110.828 192.592 110.879 192.656 110.972 192.719C111.128 192.799 111.304 192.833 111.478 192.817C111.856 192.834 112.234 192.792 112.599 192.694C112.655 192.63 112.691 192.55 112.701 192.465L112.968 191.208Z" fill="#00B6F1"/>
<path d="M122.352 192.739C122.416 192.612 122.692 192.162 123.176 191.38L123.282 191.206C123.661 190.56 124.08 189.937 124.535 189.342C124.736 189.058 124.981 188.808 125.262 188.603C125.424 188.518 125.605 188.475 125.788 188.48C125.93 188.469 126.07 188.504 126.192 188.577C126.289 188.645 126.336 188.785 126.336 189.002C126.336 189.219 126.153 189.461 125.788 189.826C125.222 190.378 124.399 191.549 123.321 193.338C122.902 194.07 122.434 194.772 121.919 195.44C121.643 195.767 121.3 196.031 120.913 196.213C120.569 196.382 120.192 196.474 119.808 196.481C119.454 196.494 119.103 196.401 118.802 196.213C118.682 196.145 118.581 196.047 118.511 195.929C118.44 195.811 118.401 195.676 118.398 195.538C118.398 195.292 118.492 195.164 118.674 195.164C118.823 195.185 118.967 195.233 119.099 195.304C119.255 195.388 119.428 195.438 119.605 195.449C119.854 195.441 120.098 195.377 120.319 195.26C120.54 195.144 120.731 194.979 120.879 194.778C121.138 194.524 121.328 194.208 121.431 193.86C121.431 193.659 121.039 192.919 120.254 191.639C119.82 190.979 119.452 190.278 119.154 189.546C119.038 189.266 118.954 188.974 118.904 188.675C118.904 188.556 118.993 188.429 119.18 188.297C119.3 188.193 119.448 188.126 119.605 188.102C119.737 188.105 119.865 188.146 119.974 188.22C120.036 188.261 120.09 188.313 120.131 188.374C120.173 188.436 120.202 188.505 120.216 188.577C120.4 189.278 120.686 189.948 121.066 190.565L122.352 192.739Z" fill="#00B6F1"/>
<path d="M128.86 193.338C129.014 193.374 129.159 193.442 129.285 193.538C129.47 193.685 129.631 193.862 129.76 194.06C130.001 194.417 130.286 194.741 130.61 195.024C130.801 195.174 131.037 195.257 131.281 195.258C131.535 195.258 131.659 195.334 131.659 195.492C131.651 195.582 131.623 195.669 131.579 195.747C131.534 195.825 131.473 195.893 131.4 195.946C131.163 196.122 130.87 196.205 130.576 196.18C130.009 196.18 129.423 195.703 128.817 194.748C128.473 194.192 128.185 193.899 127.968 193.899C127.884 193.912 127.802 193.934 127.722 193.963C127.628 193.988 127.538 194.03 127.458 194.086C127.381 194.293 127.347 194.514 127.356 194.736L127.301 195.678C127.297 195.754 127.278 195.829 127.245 195.897C127.213 195.966 127.167 196.027 127.11 196.078C126.989 196.189 126.829 196.249 126.664 196.243C126.587 196.247 126.509 196.235 126.436 196.208C126.363 196.181 126.296 196.139 126.24 196.086C126.192 196.048 126.152 196.001 126.125 195.947C126.097 195.892 126.081 195.833 126.078 195.772C126.099 195.486 126.142 195.202 126.206 194.923C126.438 193.619 126.6 192.303 126.69 190.981C126.709 190.778 126.796 190.587 126.936 190.438C127.001 190.362 127.082 190.301 127.173 190.258C127.264 190.216 127.362 190.193 127.463 190.191C127.532 190.191 127.6 190.207 127.662 190.239C127.723 190.271 127.776 190.317 127.815 190.374C127.908 190.496 127.956 190.646 127.951 190.799C127.95 190.926 127.93 191.052 127.892 191.172C127.802 191.469 127.728 191.769 127.671 192.073C127.596 192.416 127.539 192.764 127.501 193.113C127.852 193.021 128.177 192.846 128.448 192.604C128.762 192.279 129.046 191.926 129.297 191.55C129.516 191.223 129.781 190.928 130.083 190.676C130.312 190.49 130.599 190.389 130.894 190.391C131.056 190.401 131.208 190.472 131.319 190.591C131.381 190.644 131.431 190.709 131.467 190.782C131.502 190.855 131.523 190.934 131.527 191.015C131.531 191.068 131.523 191.122 131.503 191.171C131.483 191.22 131.452 191.264 131.412 191.3C131.29 191.384 131.153 191.446 131.009 191.483C130.701 191.601 130.432 191.802 130.232 192.064C129.845 192.559 129.382 192.989 128.86 193.338Z" fill="#00B6F1"/>
<path d="M133.536 195.614C133.468 195.897 133.383 196.407 133.281 197.143C133.179 197.886 133.115 198.383 133.094 198.638C133.081 198.876 132.988 199.103 132.831 199.283C132.783 199.355 132.72 199.416 132.647 199.462C132.574 199.509 132.492 199.539 132.406 199.551C132.239 199.546 132.079 199.484 131.952 199.377C131.886 199.337 131.832 199.281 131.793 199.215C131.754 199.15 131.731 199.075 131.727 198.999C131.733 198.675 131.776 198.353 131.854 198.039C132.372 195.969 132.657 193.848 132.703 191.715V191.613C132.695 191.33 132.709 191.046 132.746 190.764C132.782 190.598 132.871 190.449 133.001 190.339C133.136 190.208 133.317 190.133 133.506 190.131C133.59 190.128 133.673 190.147 133.748 190.185C133.822 190.224 133.885 190.282 133.931 190.352C134.047 190.543 134.102 190.766 134.088 190.989C134.067 191.482 134.016 191.972 133.935 192.459C134.288 191.856 134.749 191.323 135.294 190.887C135.692 190.527 136.198 190.309 136.734 190.267C136.917 190.266 137.099 190.304 137.267 190.377C137.435 190.45 137.586 190.557 137.711 190.692C137.843 190.827 137.947 190.988 138.015 191.165C138.084 191.342 138.116 191.53 138.11 191.72C138.1 192.852 137.642 193.935 136.836 194.731C135.986 195.631 135.137 196.085 134.287 196.085C134.126 196.111 133.962 196.077 133.823 195.991C133.685 195.904 133.583 195.77 133.536 195.614ZM136.509 191.418C136.092 191.418 135.553 191.824 134.891 192.637C134.228 193.449 133.895 194.088 133.893 194.552C133.896 194.616 133.914 194.678 133.945 194.734C133.976 194.79 134.019 194.838 134.071 194.875C134.191 194.971 134.342 195.021 134.496 195.015C134.92 195.015 135.426 194.675 135.986 193.992C136.492 193.453 136.792 192.754 136.836 192.017C136.847 191.858 136.813 191.699 136.738 191.558C136.715 191.517 136.682 191.482 136.642 191.458C136.602 191.433 136.556 191.42 136.509 191.418Z" fill="#00B6F1"/>
<path d="M142.546 194.239C141.654 195.42 140.796 196.006 139.998 196.006C139.847 196.008 139.698 195.976 139.56 195.914C139.423 195.851 139.301 195.76 139.203 195.645C138.977 195.391 138.857 195.06 138.868 194.719C138.868 193.816 139.271 192.852 140.078 191.827C140.881 190.804 141.696 190.294 142.516 190.294C142.705 190.284 142.891 190.342 143.04 190.457C143.19 190.573 143.293 190.738 143.331 190.923C143.726 190.923 143.922 191.071 143.922 191.373C143.906 191.634 143.869 191.894 143.811 192.15C143.689 192.708 143.619 193.277 143.603 193.849C143.592 194.159 143.624 194.469 143.697 194.77C143.756 194.949 143.799 195.063 143.824 195.119C143.887 195.2 143.973 195.261 144.07 195.293C144.128 195.312 144.178 195.349 144.214 195.397C144.251 195.446 144.272 195.504 144.274 195.565C144.271 195.652 144.246 195.738 144.199 195.812C144.153 195.887 144.088 195.948 144.011 195.989C143.851 196.102 143.659 196.163 143.463 196.163C143.311 196.167 143.162 196.123 143.037 196.037C142.911 195.951 142.817 195.827 142.767 195.683C142.619 195.327 142.546 194.944 142.554 194.558V194.405C142.547 194.35 142.544 194.295 142.546 194.239ZM142.27 191.39C141.921 191.39 141.476 191.772 140.923 192.532C140.458 193.082 140.169 193.76 140.095 194.477C140.095 194.758 140.155 194.902 140.269 194.902C140.674 194.902 141.171 194.544 141.76 193.828C142.346 193.114 142.643 192.486 142.643 191.95C142.653 191.799 142.612 191.65 142.525 191.526C142.495 191.485 142.457 191.452 142.413 191.428C142.369 191.405 142.32 191.391 142.27 191.39Z" fill="#00B6F1"/>
<path d="M145.747 189.886C145.579 189.88 145.415 189.837 145.267 189.758C145.097 189.674 145.012 189.58 145.008 189.478C145.008 188.969 145.186 188.714 145.543 188.714C145.777 188.703 146.007 188.778 146.188 188.926C146.271 189 146.337 189.092 146.379 189.195C146.422 189.298 146.441 189.409 146.435 189.521C146.435 189.767 146.205 189.886 145.747 189.886ZM145.709 192.544C145.815 191.924 145.87 191.572 145.87 191.483C145.862 191.259 145.919 191.037 146.036 190.846C146.083 190.766 146.151 190.701 146.233 190.656C146.314 190.611 146.406 190.589 146.498 190.591C146.693 190.581 146.885 190.638 147.042 190.752C147.101 190.795 147.149 190.85 147.183 190.914C147.216 190.978 147.235 191.049 147.237 191.122C147.206 191.411 147.142 191.696 147.046 191.971L147.017 192.086C146.855 192.611 146.743 193.15 146.681 193.695C146.643 194.12 146.626 194.451 146.626 194.706C146.633 194.992 146.668 195.277 146.732 195.556C146.735 195.608 146.735 195.66 146.732 195.713C146.732 195.789 146.66 195.895 146.511 196.027C146.384 196.154 146.211 196.225 146.031 196.227C145.581 196.227 145.356 195.887 145.356 195.203C145.37 194.489 145.452 193.778 145.602 193.08C145.67 192.884 145.67 192.71 145.709 192.544ZM147.586 189.754C147.418 189.755 147.257 189.691 147.136 189.576C147.074 189.524 147.025 189.459 146.992 189.385C146.959 189.312 146.943 189.232 146.944 189.151C146.935 189.077 146.945 189.001 146.972 188.932C147 188.862 147.044 188.8 147.102 188.752C147.261 188.656 147.437 188.588 147.62 188.552L147.709 188.527C147.78 188.505 147.856 188.5 147.93 188.513C148.004 188.525 148.073 188.555 148.134 188.599C148.202 188.65 148.257 188.718 148.291 188.796C148.325 188.874 148.338 188.96 148.329 189.045C148.316 189.521 148.074 189.754 147.586 189.754Z" fill="#00B6F1"/>
<path d="M152.922 193.853C152.922 194.635 153.058 195.127 153.292 195.31C153.347 195.347 153.394 195.395 153.429 195.451C153.464 195.508 153.487 195.571 153.495 195.637C153.495 195.76 153.41 195.875 153.236 195.985C153.09 196.087 152.917 196.144 152.739 196.151C152.578 196.143 152.423 196.085 152.296 195.985C152.169 195.886 152.076 195.749 152.03 195.594C151.839 195.08 151.754 194.533 151.78 193.985V193.624C151.78 193.624 151.703 193.603 151.55 193.603C151.134 193.608 150.718 193.639 150.306 193.696C149.839 193.755 149.605 193.823 149.605 193.9C149.594 194.086 149.559 194.271 149.499 194.448C149.462 194.57 149.443 194.698 149.444 194.826V195.25C149.449 195.466 149.387 195.679 149.265 195.858C149.209 195.941 149.132 196.008 149.042 196.052C148.952 196.097 148.852 196.118 148.752 196.113C148.327 196.113 148.148 195.892 148.148 195.437L148.17 195.013C148.17 194.911 148.208 194.643 148.276 194.214C148.389 193.487 148.463 192.754 148.497 192.018L148.577 190.91C148.592 190.841 148.62 190.775 148.66 190.717C148.7 190.658 148.751 190.608 148.811 190.57C148.95 190.453 149.126 190.389 149.308 190.388C149.673 190.388 149.86 190.528 149.86 190.812C149.86 190.812 149.86 190.855 149.86 190.931C149.748 191.536 149.672 192.148 149.631 192.762C149.631 192.783 149.631 192.796 149.631 192.8C150.095 192.796 150.559 192.764 151.019 192.702C151.286 192.683 151.551 192.647 151.814 192.596C151.909 192.303 151.955 191.996 151.949 191.687C151.95 191.305 152.044 190.929 152.221 190.591C152.281 190.502 152.363 190.43 152.459 190.381C152.555 190.332 152.662 190.308 152.769 190.311C152.858 190.303 152.948 190.313 153.033 190.34C153.119 190.367 153.198 190.411 153.266 190.468C153.32 190.523 153.36 190.591 153.38 190.665C153.401 190.74 153.403 190.818 153.385 190.893L153.296 191.275C153.296 191.339 153.258 191.445 153.215 191.59C153.023 192.22 152.921 192.875 152.914 193.535L152.922 193.853Z" fill="#00B6F1"/>
<path d="M157.99 194.086C157.706 194.629 157.319 195.112 156.852 195.509C156.49 195.833 156.025 196.019 155.54 196.035C155.384 196.023 155.234 195.979 155.096 195.906C154.959 195.833 154.838 195.732 154.741 195.611C154.447 195.254 154.304 194.797 154.342 194.336C154.376 193.715 154.478 193.1 154.648 192.502C154.794 192 154.883 191.482 154.911 190.96C154.962 190.832 155.051 190.723 155.165 190.648C155.28 190.572 155.415 190.533 155.552 190.535C155.716 190.531 155.875 190.589 155.996 190.7C156.117 190.81 156.191 190.962 156.202 191.126C156.176 191.483 156.09 191.833 155.947 192.162C155.82 192.532 155.713 192.909 155.629 193.292C155.545 193.598 155.486 193.91 155.455 194.226C155.455 194.68 155.548 194.906 155.739 194.906C156.036 194.906 156.436 194.621 156.941 194.056C157.404 193.557 157.743 192.956 157.931 192.302C158.02 191.903 158.163 191.517 158.355 191.155C158.409 191.07 158.483 191 158.572 190.952C158.66 190.905 158.76 190.881 158.861 190.884C159.217 190.884 159.396 191.083 159.396 191.478C159.381 191.598 159.351 191.715 159.307 191.826C159.098 192.487 158.996 193.177 159.005 193.869C159.005 194.757 159.158 195.288 159.455 195.462C159.498 195.481 159.534 195.511 159.56 195.549C159.586 195.587 159.602 195.632 159.604 195.678C159.604 195.802 159.519 195.916 159.345 196.027C159.197 196.125 159.025 196.181 158.848 196.188C158.576 196.188 158.368 196.001 158.224 195.619C158.056 195.126 157.977 194.607 157.99 194.086Z" fill="#00B6F1"/>
<path d="M140.34 35.4621C140.845 37.273 140.987 39.1656 140.76 41.0316C140.533 42.8976 139.94 44.7006 139.015 46.3373C138.091 47.9741 136.853 49.4127 135.372 50.5708C133.891 51.729 132.197 52.584 130.386 53.087L94.9192 62.9272L85.0663 27.4524C84.0532 23.7951 84.5342 19.8852 86.4034 16.5824C88.2726 13.2797 91.3769 10.8545 95.0339 9.84021L130.504 0L140.34 35.4621Z" fill="#9A0064"/>
<path d="M59.6304 19.6585C61.4413 19.1556 63.3336 19.0144 65.1991 19.2429C67.0646 19.4715 68.8668 20.0654 70.5027 20.9906C72.1386 21.9158 73.5762 23.1543 74.7334 24.6353C75.8906 26.1163 76.7447 27.8107 77.2468 29.6218L87.087 65.0924L51.6164 74.9326C49.8063 75.4356 47.9149 75.5772 46.0501 75.3491C44.1854 75.121 42.3838 74.5278 40.7483 73.6034C39.1128 72.679 37.6754 71.4414 36.5183 69.9614C35.3611 68.4814 34.5069 66.788 34.0043 64.9778L24.1641 29.4987L59.6304 19.6585Z" fill="#FFCC05"/>
<path d="M132.54 60.9008C134.351 60.3978 136.244 60.2565 138.11 60.4851C139.976 60.7136 141.778 61.3074 143.414 62.2326C145.051 63.1578 146.489 64.3963 147.646 65.8773C148.804 67.3583 149.658 69.0528 150.161 70.8641L160.001 106.335L124.53 116.175C122.72 116.678 120.828 116.819 118.963 116.59C117.097 116.362 115.296 115.768 113.66 114.843C112.024 113.917 110.587 112.679 109.43 111.198C108.274 109.717 107.42 108.023 106.918 106.212L97.0781 70.741L132.54 60.9008Z" fill="#00B6F1"/>
<path d="M127.622 44.0153C127.993 45.3491 128.097 46.7429 127.929 48.1172C127.761 49.4914 127.324 50.819 126.642 52.024C125.961 53.2291 125.048 54.2879 123.957 55.14C122.866 55.992 121.617 56.6206 120.283 56.9898L94.1599 64.2393L86.9146 38.1163C86.5447 36.7828 86.4411 35.3894 86.6098 34.0159C86.7784 32.6424 87.216 31.3155 87.8974 30.1111C88.5789 28.9066 89.491 27.8482 90.5815 26.9963C91.6721 26.1444 92.9198 25.5157 94.2534 25.146L120.376 17.8965L127.622 44.0153Z" stroke="white" stroke-width="1.22029" stroke-miterlimit="10"/>
<path d="M68.1827 32.3747C70.8763 31.6287 73.756 31.9827 76.1888 33.3588C78.6216 34.7349 80.4086 37.0205 81.1571 39.7135L88.4024 65.828L62.2794 73.0776C59.5868 73.8248 56.7077 73.4718 54.2754 72.0964C51.843 70.7209 50.0566 68.4356 49.3092 65.7431L42.0469 39.6243L68.1827 32.3747Z" stroke="white" stroke-width="1.22029" stroke-miterlimit="10"/>
<path d="M121.893 62.7484C124.584 62.0046 127.46 62.3581 129.89 63.7314C132.321 65.1047 134.108 67.3858 134.859 70.0745L142.108 96.1975L115.981 103.447C113.287 104.193 110.408 103.838 107.976 102.461C105.543 101.084 103.758 98.7975 103.011 96.1041L95.7656 69.9853L121.893 62.7484Z" stroke="white" stroke-width="1.22029" stroke-miterlimit="10"/>
<path d="M81.6393 89.8567C78.7386 93.56 74.8017 97.3101 69.9389 100.996C67.2336 103.086 64.2352 105.15 61.067 107.333C58.5188 109.074 55.9197 110.875 53.3418 112.765C46.7165 117.64 42.185 121.773 39.021 125.833C35.758 129.901 33.4451 134.647 32.2514 139.724C31.2429 144.273 31.0659 148.966 31.729 153.578C33.0787 149.977 34.9831 146.61 37.3732 143.598C40.2611 139.869 44.2023 136.119 49.0863 132.454C51.8638 130.33 54.9471 128.245 58.213 126.037C60.706 124.338 63.2797 122.605 65.8193 120.775C72.5041 115.954 77.095 111.835 80.259 107.804C83.5519 103.759 85.8761 99.0148 87.0542 93.9337C88.0613 89.2833 88.1938 84.486 87.4449 79.7871C86.0362 83.4209 84.0782 86.8169 81.6393 89.8567Z" fill="#FFCC05"/>
<path d="M66.6773 100.359C67.9366 99.8262 69.1658 99.225 70.3594 98.5581C74.0486 95.7084 77.3949 92.4404 80.3313 88.8198C83.2178 85.2243 85.3811 81.104 86.7017 76.6863C86.7272 76.6141 86.7442 76.5504 86.7654 76.4824C83.5691 79.5388 79.8414 81.9855 75.7658 83.7023C71.6844 85.486 66.4904 86.9469 60.3833 87.894C54.2762 88.8411 47.3026 89.3719 40.2017 90.3657C33.1008 91.3595 26.5605 92.7525 21.1711 95.1223C16.2522 97.1927 11.8616 100.342 8.32404 104.338C1.97484 111.503 0.0721983 119.942 0 119.801C0.0721983 119.942 3.75856 115.041 11.9255 111.477C15.9983 109.677 21.1923 108.216 27.3165 107.298C33.4406 106.381 40.4396 105.901 47.5702 104.971C54.7009 104.041 61.2667 102.699 66.6773 100.359Z" fill="#00B6F1"/>
</g>
<defs>
<clipPath id="clip0_1305_1729">
<rect width="160" height="199.552" fill="white"/>
</clipPath>
</defs>
</svg>
