<svg width="160" height="177" viewBox="0 0 160 177" fill="none" xmlns="http://www.w3.org/2000/svg">
<g clip-path="url(#clip0_1305_1685)">
<path d="M0.0659767 116.123H7.73097V138.291C7.73097 140.77 8.02343 142.58 8.60834 143.722C9.51862 145.744 11.5028 146.756 14.5609 146.758C17.619 146.76 19.5938 145.748 20.4853 143.722C21.0721 142.582 21.3645 140.772 21.3626 138.291V116.123H29.0276V138.322C29.0276 142.159 28.4333 145.147 27.2447 147.285C25.0273 151.205 20.7956 153.163 14.5496 153.162C8.30366 153.16 4.06633 151.201 1.83764 147.285C0.647128 145.147 0.0528112 142.159 0.0546919 138.322L0.0659767 116.123Z" fill="#004990"/>
<path d="M36.4097 116.124H43.818V130.988L57.7656 116.115H67.5154L52.7045 130.96L68.2771 152.211H58.5837L47.4629 136.461L43.818 140.146V152.22H36.3984L36.4097 116.124Z" fill="#004990"/>
<path d="M88.8538 130.854C90.5634 130.64 91.7859 130.372 92.5213 130.05C93.8378 129.486 94.4961 128.615 94.4961 127.438C94.4961 126.002 93.9883 125.006 92.9755 124.459C91.9627 123.912 90.4788 123.638 88.5181 123.638C86.3195 123.638 84.7632 124.175 83.8492 125.249C83.1947 126.042 82.7583 127.116 82.5402 128.47H73.6818C73.8699 125.399 74.7322 122.875 76.2688 120.899C78.7138 117.807 82.8994 116.26 88.8256 116.258C92.6887 116.258 96.1192 117.02 99.1171 118.546C102.115 120.071 103.617 122.95 103.622 127.181V143.293C103.622 144.41 103.644 145.763 103.687 147.352C103.752 148.557 103.933 149.372 104.235 149.801C104.583 150.27 105.051 150.637 105.589 150.865V152.219H95.5963C95.3353 151.575 95.1415 150.905 95.018 150.221C94.908 149.598 94.8233 148.887 94.7584 148.094C93.4752 149.476 91.994 150.66 90.3631 151.606C88.3048 152.757 85.9783 153.341 83.6207 153.299C80.4234 153.299 77.7819 152.392 75.6961 150.577C73.6104 148.762 72.5684 146.189 72.5703 142.858C72.5703 138.542 74.247 135.417 77.6004 133.484C79.4398 132.43 82.1452 131.678 85.7167 131.227L88.8538 130.854ZM94.4679 135.14C93.9052 135.493 93.3089 135.79 92.6877 136.025C91.8849 136.304 91.0601 136.514 90.2221 136.655L88.1316 137.041C86.17 137.385 84.7594 137.805 83.8999 138.299C82.4536 139.138 81.7305 140.437 81.7305 142.195C81.7305 143.767 82.1706 144.898 83.0564 145.597C83.9774 146.308 85.1156 146.678 86.2782 146.644C88.2623 146.65 90.1997 146.042 91.8245 144.904C93.5172 143.743 94.3945 141.627 94.4566 138.556L94.4679 135.14Z" fill="#E31937"/>
<path d="M120.242 104.791H110.93V114.104H120.242V104.791Z" fill="#E31937"/>
<path d="M120.242 117.1H110.93V152.22H120.242V117.1Z" fill="#E31937"/>
<path d="M146.621 117.66C148.273 118.59 149.659 119.926 150.65 121.542V104.787H159.96V152.219H151.036V147.349C149.72 149.435 148.227 150.95 146.559 151.894C144.891 152.838 142.807 153.309 140.308 153.305C136.204 153.305 132.751 151.645 129.948 148.326C127.146 145.006 125.744 140.748 125.742 135.551C125.742 129.558 127.123 124.842 129.884 121.406C132.645 117.97 136.334 116.251 140.951 116.249C142.932 116.216 144.887 116.702 146.621 117.66ZM148.878 142.68C150.232 140.747 150.908 138.245 150.907 135.173C150.907 130.876 149.822 127.804 147.654 125.957C146.362 124.854 144.712 124.258 143.013 124.281C140.327 124.281 138.353 125.297 137.089 127.328C135.825 129.359 135.2 131.877 135.216 134.883C135.216 138.127 135.855 140.721 137.134 142.664C138.413 144.606 140.351 145.579 142.948 145.581C145.549 145.581 147.526 144.614 148.878 142.68Z" fill="#E31937"/>
<path d="M159.995 0H0.0625V95.4781H159.995V0Z" fill="white"/>
<path fill-rule="evenodd" clip-rule="evenodd" d="M159.996 31.8249V11.1348L125.336 31.8249H159.996Z" fill="#004990"/>
<path fill-rule="evenodd" clip-rule="evenodd" d="M64.036 0.0117188H18.7344L64.036 27.0578V0.0117188Z" fill="#004990"/>
<path fill-rule="evenodd" clip-rule="evenodd" d="M0.0625 63.6523V84.3425L34.72 63.6523H0.0625Z" fill="#004990"/>
<path fill-rule="evenodd" clip-rule="evenodd" d="M96.0234 0.0117188V27.0578L141.328 0.0117188H96.0234Z" fill="#004990"/>
<path fill-rule="evenodd" clip-rule="evenodd" d="M0.0625 11.1348V31.8249H34.72L0.0625 11.1348Z" fill="#004990"/>
<path fill-rule="evenodd" clip-rule="evenodd" d="M159.996 84.3453V63.6523H125.336L159.996 84.3453Z" fill="#004990"/>
<path fill-rule="evenodd" clip-rule="evenodd" d="M18.7109 95.4773H64.0351V68.4199L18.7109 95.4773Z" fill="#004990"/>
<path fill-rule="evenodd" clip-rule="evenodd" d="M96.0234 95.4784H141.348L96.0234 68.4238V95.4784Z" fill="#004990"/>
<path d="M40.9378 31.8251L0.0625 7.42237V0L53.3817 31.8251H40.9378ZM119.117 63.653L159.992 88.0557V95.4781L106.673 63.653H119.117ZM96.0202 30.7672L147.559 0H159.992L106.673 31.8251H96.0089L96.0202 30.7672ZM0.0625 95.4781L53.3817 63.653H64.0456V64.7081L12.4952 95.4781H0.0625Z" fill="#E31937"/>
<path d="M70.4326 95.4781V57.2885H0.0625V38.1924H70.4326V0H89.6247V38.1924H159.995V57.2885H89.6247V95.4781H70.4326Z" fill="#E31937"/>
<path d="M0 165.969V164.765H1.41056V163.526C1.39038 163.243 1.43245 162.959 1.53383 162.694C1.6352 162.429 1.79342 162.189 1.99735 161.992C2.38667 161.642 2.95936 161.467 3.70977 161.467C3.858 161.468 4.00596 161.48 4.15269 161.501C4.30222 161.518 4.44966 161.55 4.59279 161.597V162.787C4.46865 162.743 4.33996 162.713 4.20912 162.697C4.06806 162.697 3.927 162.674 3.82262 162.674C3.55149 162.659 3.28197 162.725 3.04963 162.866C2.94596 162.957 2.86606 163.072 2.8169 163.201C2.76773 163.329 2.75078 163.468 2.76752 163.605V164.765H4.37556V165.969H2.76752V173.079H1.4021V165.969H0Z" fill="#004990"/>
<path d="M6.6024 164.774V166.534H6.63626C6.90352 165.936 7.32514 165.42 7.8578 165.039C8.40652 164.7 9.0483 164.543 9.69153 164.59V166.035C9.21143 166.022 8.73313 166.099 8.28097 166.26C7.91747 166.395 7.59555 166.623 7.34718 166.921C7.10272 167.231 6.92763 167.589 6.83374 167.973C6.72163 168.434 6.66761 168.908 6.67293 169.383V173.082H5.30469V164.774H6.6024Z" fill="#004990"/>
<path d="M10.2597 167.225C10.4186 166.717 10.6808 166.246 11.0298 165.843C11.3815 165.446 11.8157 165.13 12.3022 164.918C13.4194 164.47 14.6662 164.47 15.7834 164.918C16.2654 165.132 16.6956 165.448 17.0445 165.843C17.3944 166.246 17.6575 166.716 17.8175 167.225C17.9911 167.78 18.0777 168.357 18.0742 168.938C18.0772 169.512 17.9906 170.083 17.8175 170.631C17.6569 171.138 17.3938 171.606 17.0445 172.007C16.6965 172.402 16.2659 172.715 15.7834 172.924C14.664 173.36 13.4216 173.36 12.3022 172.924C11.815 172.717 11.3803 172.404 11.0298 172.007C10.6814 171.606 10.4192 171.137 10.2597 170.631C10.0842 170.084 9.99663 169.512 10.0001 168.938C9.99611 168.357 10.0837 167.779 10.2597 167.225ZM11.6477 170.281C11.767 170.643 11.959 170.977 12.2119 171.262C12.4427 171.52 12.7254 171.726 13.0413 171.866C13.3582 172.004 13.7001 172.075 14.0456 172.075C14.3912 172.075 14.733 172.004 15.0499 171.866C15.3659 171.726 15.6485 171.52 15.8794 171.262C16.1311 170.976 16.3229 170.642 16.4436 170.281C16.7107 169.405 16.7107 168.47 16.4436 167.595C16.321 167.233 16.1294 166.897 15.8794 166.608C15.6512 166.345 15.368 166.136 15.0499 165.995C14.733 165.858 14.3912 165.787 14.0456 165.787C13.7001 165.787 13.3582 165.858 13.0413 165.995C12.7233 166.136 12.4401 166.345 12.2119 166.608C11.9607 166.896 11.769 167.232 11.6477 167.595C11.3768 168.47 11.3768 169.406 11.6477 170.281Z" fill="#004990"/>
<path d="M20.7567 164.772V165.994H20.7877C21.226 165.354 21.8787 164.892 22.6278 164.691C23.377 164.49 24.1732 164.564 24.8727 164.899C25.0855 165.013 25.2733 165.169 25.425 165.357C25.5767 165.545 25.6891 165.762 25.7557 165.994C26.0242 165.554 26.4049 165.194 26.8588 164.95C27.3204 164.701 27.838 164.574 28.3624 164.58C28.7429 164.577 29.1222 164.622 29.4909 164.716C29.8066 164.797 30.1023 164.942 30.3598 165.142C30.6057 165.342 30.7993 165.598 30.924 165.889C31.0655 166.238 31.1337 166.613 31.1243 166.99V173.086H29.7589V167.633C29.7597 167.391 29.738 167.149 29.694 166.911C29.6571 166.7 29.5743 166.499 29.4514 166.324C29.3274 166.15 29.1587 166.014 28.9633 165.929C28.7058 165.824 28.4288 165.775 28.1509 165.785C27.8609 165.767 27.5701 165.807 27.2962 165.904C27.0222 166.001 26.7708 166.152 26.5569 166.349C26.3611 166.554 26.2089 166.796 26.1095 167.061C26.0101 167.327 25.9656 167.609 25.9786 167.892V173.072H24.6301V167.633C24.6314 167.385 24.6068 167.137 24.5568 166.894C24.5155 166.683 24.431 166.483 24.3085 166.307C24.187 166.139 24.0236 166.006 23.8345 165.92C23.592 165.822 23.3315 165.776 23.07 165.785C22.7145 165.774 22.3625 165.857 22.0488 166.025C21.5435 166.304 21.1595 166.76 20.9711 167.306C20.9002 167.498 20.8593 167.701 20.8498 167.906V173.086H19.4844V164.772H20.7567Z" fill="#004990"/>
<path d="M41.2132 164.774V165.97H39.5572V171.133C39.5543 171.263 39.5675 171.392 39.5967 171.519C39.6207 171.609 39.6743 171.689 39.7491 171.745C39.8444 171.805 39.9528 171.841 40.065 171.849C40.2385 171.866 40.4127 171.873 40.5869 171.872H41.2132V173.079H40.1694C39.865 173.083 39.5609 173.058 39.261 173.006C39.0376 172.972 38.8267 172.88 38.6488 172.741C38.4821 172.596 38.3615 172.406 38.3018 172.193C38.2199 171.89 38.1829 171.576 38.1918 171.262V165.97H36.7812V164.765H38.1918V162.271H39.5572V164.765L41.2132 164.774Z" fill="#004990"/>
<path d="M43.7582 161.605V165.995H43.7892C43.8898 165.747 44.044 165.525 44.2406 165.343C44.4344 165.166 44.6542 165.02 44.8923 164.909C45.1326 164.796 45.3855 164.713 45.6456 164.661C45.8971 164.609 46.1532 164.582 46.4101 164.582C46.8762 164.568 47.3408 164.643 47.7783 164.805C48.119 164.94 48.422 165.156 48.6613 165.434C48.8917 165.711 49.054 166.039 49.1353 166.39C49.2318 166.793 49.2782 167.206 49.2735 167.62V173.087H47.9053V167.445C47.9172 167.222 47.8836 166.998 47.8065 166.788C47.7294 166.578 47.6104 166.386 47.4567 166.224C47.2917 166.068 47.0968 165.948 46.8839 165.871C46.671 165.793 46.4445 165.76 46.2182 165.772C45.8471 165.764 45.478 165.829 45.1321 165.964C44.8385 166.093 44.5787 166.288 44.3732 166.534C44.1668 166.777 44.0113 167.059 43.9162 167.363C43.8117 167.698 43.7603 168.048 43.7639 168.399V173.096H42.3984V161.614L43.7582 161.605Z" fill="#004990"/>
<path d="M56.9698 172.556C56.2874 173.045 55.4616 173.293 54.6226 173.261C54.0301 173.275 53.4412 173.166 52.8933 172.94C52.4199 172.737 51.9991 172.43 51.6632 172.04C51.321 171.636 51.0664 171.165 50.9157 170.657C50.7443 170.088 50.6495 169.499 50.6335 168.905C50.6234 168.314 50.719 167.725 50.9157 167.168C51.0945 166.664 51.3706 166.2 51.7281 165.802C52.0726 165.418 52.4935 165.111 52.9638 164.899C53.4584 164.684 53.9929 164.575 54.5323 164.581C55.1772 164.556 55.8158 164.715 56.3745 165.038C56.8498 165.331 57.2513 165.73 57.5481 166.203C57.843 166.676 58.0504 167.199 58.1603 167.746C58.2689 168.27 58.3144 168.805 58.2957 169.34H52.0808C52.0673 169.69 52.1111 170.039 52.2105 170.375C52.3021 170.695 52.4608 170.991 52.676 171.244C52.9012 171.504 53.1817 171.71 53.497 171.848C53.8676 172.006 54.2677 172.083 54.6706 172.073C55.1716 172.092 55.6656 171.951 56.0811 171.67C56.4712 171.37 56.7333 170.934 56.8146 170.448H58.1631C58.0446 171.276 57.6185 172.028 56.9698 172.556ZM56.6397 167.215C56.3822 166.641 55.9108 166.189 55.3255 165.956C54.7403 165.723 54.0874 165.728 53.5054 165.969C53.2291 166.086 52.9795 166.259 52.7719 166.476C52.5666 166.694 52.4031 166.947 52.2895 167.224C52.1709 167.513 52.1003 167.82 52.0808 168.132H56.8569C56.8364 167.817 56.763 167.507 56.6397 167.215Z" fill="#004990"/>
<path d="M68.5809 161.604H69.3764C69.6585 161.604 69.9406 161.624 70.2228 161.652C70.4846 161.676 70.7447 161.716 71.0014 161.773C71.2203 161.818 71.4302 161.899 71.622 162.013C72.0073 162.248 72.3343 162.567 72.5784 162.947C72.852 163.384 72.9885 163.893 72.9705 164.408C72.9846 164.969 72.8314 165.521 72.5304 165.994C72.2234 166.448 71.7812 166.793 71.2666 166.981V167.015C71.9088 167.125 72.4876 167.469 72.8915 167.98C73.2761 168.5 73.4748 169.134 73.4558 169.78C73.4565 170.197 73.3809 170.611 73.2329 171.001C73.083 171.394 72.8556 171.753 72.5643 172.056C72.2522 172.373 71.8801 172.624 71.4697 172.796C70.9933 172.992 70.4814 173.088 69.966 173.078H64.4141V161.596L68.5809 161.604ZM68.9984 166.541C69.8673 166.541 70.4926 166.388 70.8744 166.081C71.0688 165.912 71.221 165.7 71.3189 165.461C71.4168 165.223 71.4578 164.965 71.4387 164.707C71.4544 164.375 71.3876 164.043 71.244 163.743C71.1231 163.513 70.9391 163.323 70.7136 163.195C70.4729 163.062 70.2084 162.978 69.935 162.947C69.6224 162.909 69.3077 162.89 68.9927 162.891H65.9431V166.533L68.9984 166.541ZM69.7742 171.8C70.3541 171.833 70.9238 171.636 71.3597 171.252C71.5534 171.053 71.7037 170.816 71.8008 170.556C71.898 170.295 71.9399 170.018 71.9239 169.74C71.9356 169.417 71.8637 169.097 71.7151 168.809C71.5804 168.569 71.3861 168.367 71.1509 168.223C70.9072 168.071 70.6374 167.967 70.3553 167.915C70.0477 167.856 69.7349 167.826 69.4216 167.828H65.9431V171.8H69.7742Z" fill="#004990"/>
<path d="M76.2552 164.774V166.534H76.2862C76.5554 165.936 76.9778 165.421 77.5106 165.039C78.0584 164.7 78.6992 164.543 79.3415 164.59V166.035C78.8661 166.023 78.3927 166.1 77.945 166.26C77.5812 166.394 77.2591 166.622 77.0112 166.92C76.7646 167.229 76.5893 167.588 76.4978 167.973C76.3833 168.434 76.3283 168.908 76.3342 169.383V173.082H74.9688V164.774H76.2552Z" fill="#004990"/>
<path d="M80.2422 163.278V161.605H81.6132V163.278H80.2422ZM81.6076 164.774V173.087H80.2422V164.774H81.6076Z" fill="#004990"/>
<path d="M87.0362 164.773V165.969H85.3774V171.132C85.3736 171.262 85.3878 171.392 85.4197 171.519C85.4417 171.61 85.4958 171.69 85.572 171.744C85.6661 171.805 85.7737 171.841 85.8852 171.849C86.0611 171.873 86.2381 171.888 86.4156 171.894H87.0447V173.101H85.998C85.6936 173.105 85.3895 173.08 85.0896 173.028C84.8663 172.993 84.6556 172.902 84.4774 172.763C84.311 172.618 84.1912 172.428 84.1333 172.215C84.0487 171.913 84.0107 171.599 84.0204 171.284V165.969H82.6099V164.765H84.0204V162.271H85.3858V164.765L87.0362 164.773Z" fill="#004990"/>
<path d="M88.2812 163.278V161.605H89.6495V163.278H88.2812ZM89.6495 164.774V173.087H88.2812V164.774H89.6495Z" fill="#004990"/>
<path d="M92.6176 171.229C92.7412 171.435 92.9149 171.607 93.1226 171.728C93.3423 171.855 93.5816 171.945 93.8307 171.993C94.098 172.048 94.3703 172.075 94.6432 172.075C94.8687 172.074 95.0939 172.058 95.3174 172.027C95.5415 171.997 95.7606 171.937 95.9691 171.849C96.1627 171.768 96.3318 171.638 96.46 171.471C96.5951 171.288 96.6638 171.064 96.6546 170.837C96.663 170.679 96.6302 170.522 96.5594 170.381C96.4887 170.24 96.3825 170.12 96.2512 170.033C95.9425 169.832 95.6034 169.682 95.2469 169.59C94.8444 169.477 94.4071 169.375 93.9351 169.285C93.487 169.2 93.0485 169.07 92.6261 168.899C92.2415 168.745 91.8971 168.506 91.6189 168.199C91.3344 167.845 91.1917 167.397 91.2183 166.943C91.207 166.565 91.3049 166.191 91.5004 165.866C91.6835 165.571 91.9303 165.322 92.2226 165.135C92.5308 164.943 92.8681 164.802 93.2213 164.718C93.5813 164.629 93.9507 164.583 94.3216 164.582C94.7588 164.579 95.1954 164.619 95.6249 164.701C95.9986 164.773 96.3555 164.915 96.6772 165.118C96.9846 165.32 97.2359 165.597 97.4079 165.922C97.6057 166.315 97.7155 166.746 97.7295 167.186H96.3697C96.3627 166.962 96.2983 166.744 96.1827 166.553C96.0671 166.361 95.9041 166.202 95.7095 166.091C95.5228 165.983 95.32 165.905 95.1086 165.86C94.8893 165.81 94.665 165.786 94.44 165.787C94.2332 165.788 94.0267 165.804 93.8222 165.835C93.6268 165.863 93.4366 165.92 93.258 166.004C93.0954 166.077 92.9523 166.187 92.8405 166.326C92.7282 166.476 92.6714 166.66 92.6797 166.848C92.6764 166.957 92.6969 167.067 92.7397 167.168C92.7826 167.269 92.8468 167.36 92.9279 167.434C93.114 167.602 93.3303 167.734 93.5655 167.821C93.8464 167.931 94.1361 168.017 94.4316 168.078L95.3964 168.295C95.7406 168.371 96.0763 168.461 96.4035 168.577C96.7118 168.675 97.0037 168.819 97.2696 169.003C97.5205 169.178 97.7296 169.406 97.8818 169.672C98.046 169.977 98.1267 170.321 98.116 170.667C98.1332 171.107 98.0235 171.543 97.8 171.923C97.5948 172.252 97.3144 172.527 96.9819 172.727C96.629 172.935 96.2422 173.079 95.8393 173.153C95.4235 173.231 95.0014 173.271 94.5783 173.271C94.1342 173.273 93.6912 173.225 93.258 173.127C92.8619 173.041 92.4857 172.88 92.1493 172.653C91.825 172.431 91.5597 172.133 91.3763 171.785C91.1723 171.378 91.0623 170.93 91.0547 170.476H92.4229C92.4217 170.739 92.4887 170.999 92.6176 171.229Z" fill="#004990"/>
<path d="M100.801 161.606V165.996H100.832C100.933 165.748 101.087 165.526 101.283 165.344C101.477 165.167 101.697 165.02 101.935 164.909C102.176 164.797 102.43 164.714 102.691 164.661C102.941 164.609 103.197 164.583 103.453 164.582C103.919 164.568 104.383 164.643 104.821 164.805C105.162 164.94 105.465 165.156 105.704 165.434C105.934 165.712 106.097 166.039 106.181 166.391C106.275 166.794 106.32 167.207 106.316 167.621V173.088H104.951V167.446C104.968 167.22 104.936 166.993 104.857 166.781C104.777 166.569 104.653 166.376 104.492 166.217C104.331 166.058 104.137 165.936 103.924 165.859C103.711 165.782 103.484 165.753 103.258 165.773C102.887 165.765 102.518 165.83 102.172 165.965C101.879 166.086 101.619 166.273 101.41 166.512C101.202 166.754 101.045 167.036 100.95 167.341C100.846 167.676 100.794 168.026 100.798 168.377V173.074H99.4297V161.592L100.801 161.606Z" fill="#004990"/>
<path d="M114.252 164.772V165.901H114.283C114.501 165.447 114.878 165.089 115.343 164.896C115.847 164.682 116.39 164.575 116.937 164.583C117.517 164.569 118.092 164.689 118.616 164.936C119.08 165.161 119.487 165.488 119.807 165.892C120.129 166.307 120.372 166.779 120.523 167.283C120.686 167.826 120.767 168.389 120.763 168.956C120.767 169.522 120.689 170.085 120.532 170.629C120.388 171.129 120.148 171.596 119.823 172.003C119.502 172.398 119.095 172.714 118.633 172.928C118.11 173.162 117.541 173.277 116.968 173.264C116.74 173.262 116.511 173.241 116.286 173.202C116.03 173.157 115.78 173.087 115.538 172.993C115.288 172.894 115.053 172.761 114.839 172.598C114.612 172.43 114.42 172.219 114.274 171.977H114.243V176.257H112.875V164.775L114.252 164.772ZM119.163 167.723C119.069 167.368 118.911 167.033 118.698 166.733C118.487 166.443 118.212 166.206 117.894 166.042C117.537 165.863 117.142 165.775 116.743 165.785C116.334 165.775 115.929 165.872 115.569 166.067C115.256 166.242 114.987 166.486 114.782 166.781C114.574 167.087 114.424 167.428 114.339 167.788C114.25 168.158 114.205 168.536 114.204 168.916C114.202 169.315 114.251 169.712 114.348 170.099C114.435 170.461 114.591 170.803 114.807 171.106C115.021 171.397 115.298 171.637 115.617 171.805C115.992 171.991 116.407 172.082 116.825 172.07C117.236 172.081 117.644 171.984 118.007 171.788C118.316 171.612 118.578 171.363 118.771 171.063C118.969 170.747 119.111 170.399 119.189 170.034C119.274 169.643 119.316 169.245 119.316 168.846C119.315 168.467 119.264 168.089 119.163 167.723Z" fill="#004990"/>
<path d="M128.048 172.556C127.366 173.046 126.54 173.294 125.701 173.261C125.108 173.275 124.519 173.166 123.971 172.94C123.498 172.738 123.077 172.43 122.741 172.04C122.399 171.636 122.144 171.165 121.994 170.657C121.822 170.088 121.727 169.499 121.711 168.905C121.703 168.314 121.798 167.726 121.994 167.168C122.172 166.664 122.448 166.2 122.806 165.802C123.152 165.418 123.573 165.111 124.045 164.899C124.538 164.684 125.072 164.575 125.61 164.581C126.255 164.556 126.894 164.714 127.452 165.038C127.928 165.33 128.33 165.729 128.626 166.203C128.922 166.676 129.13 167.199 129.238 167.746C129.348 168.27 129.394 168.805 129.374 169.34H123.159C123.148 169.69 123.192 170.039 123.289 170.375C123.38 170.695 123.539 170.991 123.754 171.244C123.979 171.504 124.26 171.71 124.575 171.848C124.946 172.006 125.346 172.082 125.749 172.074C126.25 172.092 126.744 171.951 127.159 171.67C127.55 171.371 127.812 170.934 127.893 170.449H129.244C129.124 171.276 128.697 172.029 128.048 172.556ZM127.718 167.216C127.602 166.936 127.434 166.683 127.221 166.468C127.007 166.256 126.754 166.087 126.476 165.969C126.179 165.844 125.859 165.781 125.537 165.785C125.209 165.781 124.884 165.843 124.581 165.969C124.305 166.087 124.055 166.26 123.847 166.476C123.642 166.694 123.478 166.947 123.365 167.224C123.247 167.514 123.177 167.82 123.156 168.132H127.932C127.914 167.817 127.841 167.507 127.718 167.216Z" fill="#004990"/>
<path d="M130.499 167.225C130.659 166.716 130.922 166.246 131.272 165.843C131.622 165.445 132.056 165.129 132.542 164.918C133.659 164.47 134.906 164.47 136.023 164.918C136.506 165.131 136.936 165.447 137.284 165.843C137.634 166.246 137.897 166.716 138.057 167.225C138.232 167.779 138.319 168.357 138.314 168.938C138.318 169.512 138.231 170.083 138.057 170.631C137.896 171.138 137.633 171.606 137.284 172.007C136.937 172.403 136.506 172.716 136.023 172.924C134.903 173.36 133.661 173.36 132.542 172.924C132.055 172.718 131.621 172.404 131.272 172.007C130.923 171.606 130.66 171.138 130.499 170.631C130.325 170.083 130.238 169.512 130.242 168.938C130.237 168.357 130.324 167.779 130.499 167.225ZM131.89 170.281C132.01 170.643 132.202 170.977 132.454 171.262C132.683 171.52 132.965 171.726 133.281 171.866C133.598 172.003 133.941 172.074 134.286 172.074C134.632 172.074 134.975 172.003 135.292 171.866C135.608 171.726 135.89 171.52 136.119 171.262C136.371 170.977 136.563 170.643 136.683 170.281C136.95 169.405 136.95 168.47 136.683 167.595C136.562 167.232 136.37 166.896 136.119 166.608C135.892 166.345 135.61 166.135 135.292 165.995C134.975 165.858 134.632 165.788 134.286 165.788C133.941 165.788 133.598 165.858 133.281 165.995C132.963 166.135 132.681 166.345 132.454 166.608C132.203 166.896 132.011 167.232 131.89 167.595C131.623 168.47 131.623 169.405 131.89 170.281Z" fill="#004990"/>
<path d="M141.1 164.772V165.901H141.145C141.363 165.447 141.741 165.089 142.206 164.896C142.709 164.682 143.252 164.575 143.8 164.583C144.379 164.569 144.954 164.689 145.478 164.936C145.942 165.161 146.349 165.488 146.669 165.892C146.992 166.307 147.234 166.779 147.385 167.283C147.548 167.826 147.629 168.389 147.625 168.956C147.629 169.522 147.551 170.085 147.394 170.629C147.249 171.129 147.009 171.595 146.686 172.003C146.365 172.398 145.957 172.714 145.495 172.928C144.972 173.162 144.404 173.277 143.831 173.264C143.602 173.262 143.373 173.241 143.148 173.202C142.893 173.157 142.642 173.087 142.4 172.993C142.15 172.894 141.915 172.761 141.701 172.598C141.474 172.43 141.283 172.219 141.136 171.977H141.105V176.257H139.734V164.775L141.1 164.772ZM146.011 167.723C145.917 167.368 145.759 167.033 145.546 166.733C145.335 166.443 145.06 166.206 144.742 166.042C144.385 165.863 143.99 165.775 143.591 165.785C143.182 165.775 142.777 165.872 142.417 166.067C142.104 166.242 141.835 166.486 141.63 166.781C141.422 167.087 141.272 167.428 141.187 167.788C141.098 168.158 141.053 168.536 141.052 168.916C141.051 169.315 141.099 169.712 141.196 170.099C141.283 170.46 141.438 170.802 141.653 171.106C141.866 171.398 142.144 171.637 142.465 171.805C142.84 171.991 143.255 172.082 143.673 172.07C144.085 172.081 144.492 171.984 144.855 171.788C145.164 171.612 145.425 171.363 145.616 171.063C145.817 170.748 145.959 170.399 146.037 170.034C146.122 169.643 146.165 169.245 146.164 168.846C146.163 168.467 146.112 168.089 146.011 167.723Z" fill="#004990"/>
<path d="M150.42 161.605V173.087H149.055V161.605H150.42Z" fill="#004990"/>
<path d="M158.196 172.556C157.514 173.045 156.688 173.294 155.849 173.261C155.256 173.275 154.668 173.166 154.12 172.94C153.646 172.737 153.226 172.43 152.89 172.04C152.548 171.635 152.294 171.164 152.142 170.657C151.969 170.089 151.874 169.499 151.86 168.905C151.851 168.314 151.947 167.726 152.142 167.168C152.323 166.665 152.599 166.201 152.955 165.802C153.3 165.418 153.722 165.111 154.193 164.899C154.687 164.684 155.222 164.575 155.762 164.581C156.406 164.556 157.043 164.715 157.601 165.038C158.077 165.33 158.478 165.729 158.774 166.203C159.071 166.676 159.278 167.199 159.387 167.746C159.497 168.27 159.542 168.805 159.522 169.34H153.316C153.303 169.689 153.346 170.039 153.443 170.375C153.534 170.695 153.693 170.991 153.908 171.244C154.133 171.504 154.414 171.71 154.729 171.848C155.1 172.005 155.5 172.082 155.903 172.073C156.408 172.094 156.908 171.953 157.327 171.67C157.717 171.37 157.978 170.933 158.058 170.448H159.409C159.285 171.279 158.852 172.032 158.196 172.556ZM157.869 167.215C157.752 166.937 157.582 166.683 157.37 166.468C157.156 166.257 156.906 166.087 156.63 165.969C156.332 165.844 156.011 165.782 155.688 165.785C155.36 165.781 155.035 165.843 154.732 165.969C154.456 166.086 154.208 166.259 154.001 166.476C153.794 166.692 153.63 166.946 153.519 167.224C153.399 167.513 153.328 167.82 153.31 168.132H158.072C158.056 167.818 157.987 167.508 157.869 167.215Z" fill="#004990"/>
</g>
<defs>
<clipPath id="clip0_1305_1685">
<rect width="160" height="176.255" fill="white"/>
</clipPath>
</defs>
</svg>
